<?xml version="1.0" encoding="UTF-8"?>
<svg version="1.1" xmlns="http://www.w3.org/2000/svg" width="600" height="600">
<path d="M0 0 C198 0 396 0 600 0 C600 198 600 396 600 600 C402 600 204 600 0 600 C0 402 0 204 0 0 Z " fill="#FEFEFE" transform="translate(0,0)"/>
<path d="M0 0 C9.28358741 -0.23197133 18.56617406 -0.40951047 27.8520298 -0.51812172 C32.16427768 -0.57025895 36.47453979 -0.64092827 40.78564453 -0.75439453 C44.94850427 -0.86327 49.10945828 -0.9228823 53.27363205 -0.94877243 C54.85989778 -0.96721364 56.44606199 -1.00323132 58.03151321 -1.05730057 C70.43607642 -1.4634091 70.43607642 -1.4634091 74.23027039 2.08692932 C75.80694123 4.67115158 76.9369159 7.17031132 78 10 C78.58080322 11.0418042 79.16160645 12.0836084 79.76000977 13.15698242 C80.23237061 14.04748291 80.70473145 14.9379834 81.19140625 15.85546875 C81.73684082 16.87793701 82.28227539 17.90040527 82.84423828 18.95385742 C83.69477783 20.5545105 83.69477783 20.5545105 84.5625 22.1875 C89.1398402 30.75342169 93.80580342 39.25536457 98.625 47.6875 C103.46823269 56.17631817 108.06759023 64.76590044 112.5534668 73.44824219 C117.37509152 82.76978585 122.40532039 91.97070177 127.45263672 101.17138672 C130.15166793 106.10527369 132.82479054 111.05316871 135.5 116 C139.63008526 123.63367627 143.77518653 131.25885195 147.9375 138.875 C152.92080159 147.99563156 157.85497476 157.14214665 162.77124023 166.29907227 C165.6054489 171.57316149 168.45335439 176.83849147 171.34375 182.08203125 C171.87613281 183.04947266 172.40851563 184.01691406 172.95703125 185.01367188 C173.94018417 186.79703661 174.92679731 188.57850124 175.91796875 190.35742188 C179.65091047 197.13340634 182.73095846 203.91707666 186 211 C162.57 211 139.14 211 115 211 C114.34 209.68 113.68 208.36 113 207 C112.15006483 205.73282393 111.27525879 204.48193308 110.375 203.25 C109.92898438 202.63640625 109.48296875 202.0228125 109.0234375 201.390625 C108.68570312 200.93171875 108.34796875 200.4728125 108 200 C108.495 200.9075 108.99 201.815 109.5 202.75 C111 206 111 206 111 210 C87.24 210 63.48 210 39 210 C38.67 208.35 38.34 206.7 38 205 C37.34 205 36.68 205 36 205 C35.67 204.67 35.34 204.34 35 204 C35.185625 204.804375 35.37125 205.60875 35.5625 206.4375 C35.706875 207.283125 35.85125 208.12875 36 209 C35 210 35 210 32.14634705 210.12025452 C30.86949539 210.11803391 29.59264374 210.11581329 28.27709961 210.11352539 C27.5746965 210.11367142 26.8722934 210.11381744 26.14860535 210.1139679 C23.81648722 210.11326872 21.484448 210.10547617 19.15234375 210.09765625 C17.53951562 210.09579208 15.92668693 210.09436818 14.31385803 210.09336853 C10.06084643 210.08954323 5.80786876 210.07971285 1.55487061 210.06866455 C-2.7817743 210.05845069 -7.11842467 210.05387096 -11.45507812 210.04882812 C-19.97006769 210.03809059 -28.48502963 210.02101403 -37 210 C-38 207 -38 207 -37 204 C-37.66 204.66 -38.32 205.32 -39 206 C-39.33 205.67 -39.66 205.34 -40 205 C-39.67 205.99 -39.34 206.98 -39 208 C-40 209 -40 209 -42.89161682 209.12025452 C-44.18623337 209.11803391 -45.48084991 209.11581329 -46.81469727 209.11352539 C-47.88293228 209.11374443 -47.88293228 209.11374443 -48.9727478 209.1139679 C-51.33733112 209.1132687 -53.70183661 209.10547606 -56.06640625 209.09765625 C-57.70165463 209.09579209 -59.33690357 209.09436818 -60.97215271 209.09336853 C-65.28434785 209.08954318 -69.59650952 209.07971275 -73.90869141 209.06866455 C-78.30565946 209.0584508 -82.70263289 209.05387099 -87.09960938 209.04882812 C-95.73308831 209.03809049 -104.36654 209.02101387 -113 209 C-112.67 207.35 -112.34 205.7 -112 204 C-112.33 204.33 -112.66 204.66 -113 205 C-113.66 205 -114.32 205 -115 205 C-115 206.32 -115 207.64 -115 209 C-139.42 209 -163.84 209 -189 209 C-188.34 207.02 -187.68 205.04 -187 203 C-186.34 203 -185.68 203 -185 203 C-184.82368042 201.90933228 -184.82368042 201.90933228 -184.64379883 200.79663086 C-183.98963365 197.95496909 -183.05751388 195.82575376 -181.69921875 193.25390625 C-181.22250732 192.34495605 -180.7457959 191.43600586 -180.25463867 190.49951172 C-179.73748291 189.53029785 -179.22032715 188.56108398 -178.6875 187.5625 C-177.88759644 186.0468042 -177.88759644 186.0468042 -177.0715332 184.50048828 C-171.91007528 174.75266523 -166.62284027 165.07345374 -161.31591797 155.40429688 C-158.51432103 150.28553497 -155.7560758 145.1433809 -153 140 C-152.34 140 -151.68 140 -151 140 C-150.84615845 138.94752075 -150.84615845 138.94752075 -150.68920898 137.8737793 C-149.89436492 134.55953578 -148.59681752 132.01598601 -146.97265625 129.01953125 C-146.35052246 127.86485352 -145.72838867 126.71017578 -145.08740234 125.52050781 C-144.41263847 124.28439406 -143.73766649 123.04839389 -143.0625 121.8125 C-142.37143866 120.53638662 -141.68084945 119.26001746 -140.99072266 117.98339844 C-136.94534539 110.51311586 -132.85311179 103.06867694 -128.70263672 95.65625 C-125.30101267 89.57544604 -121.99250151 83.44624708 -118.6875 77.3125 C-114.44593343 69.4455089 -110.11753053 61.6372999 -105.6875 53.875 C-99.74449093 43.45251086 -94.08183686 32.89039973 -88.4675293 22.28857422 C-85.04278939 15.82203024 -81.59416701 9.37436091 -78 3 C-76.109375 3.33984375 -76.109375 3.33984375 -74 4 C-72.25 6.5625 -72.25 6.5625 -71 9 C-74 3.25 -74 3.25 -74 1 C-50.24 1 -26.48 1 -2 1 C-2 1.66 -2 2.32 -2 3 C-1.34 2.34 -0.68 1.68 0 1 C0 0.67 0 0.34 0 0 Z " fill="#FDFDFD" transform="translate(301,192)"/>
<path d="M0 0 C3 1 3 1 4.19165039 2.83154297 C4.57313232 3.62705566 4.95461426 4.42256836 5.34765625 5.2421875 C5.78215088 6.13244629 6.21664551 7.02270508 6.66430664 7.93994141 C7.12571045 8.90851074 7.58711426 9.87708008 8.0625 10.875 C9.0607744 12.92271714 10.06080101 14.96958091 11.0625 17.015625 C11.81080078 18.54993164 11.81080078 18.54993164 12.57421875 20.11523438 C14.49187957 23.99521386 16.51724229 27.81123999 18.5625 31.625 C24.34183467 42.4674116 29.77172677 53.48765928 35.22875977 64.49462891 C39.00012283 72.08787857 42.83871864 79.63549646 46.8125 87.125 C53.28537355 99.3351071 59.39381349 111.72632792 65.54101562 124.10253906 C71.06600649 135.21921382 76.63636076 146.29973477 82.45422363 157.26635742 C86.23911075 164.4130003 89.85985071 171.63603196 93.45013428 178.88195801 C99.50722171 191.10177361 105.64426376 203.26816066 112.10058594 215.28320312 C112.96512975 216.93343984 113.76919751 218.61493208 114.5703125 220.296875 C115.79542106 222.94432068 115.79542106 222.94432068 117.45949459 224.43135071 C119.12876625 226.13111871 120.01992437 227.67281921 121.07777405 229.80151367 C121.46291168 230.56911011 121.84804932 231.33670654 122.24485779 232.12756348 C122.86434044 233.38506409 122.86434044 233.38506409 123.49633789 234.66796875 C123.93913086 235.5547229 124.38192383 236.44147705 124.83813477 237.35510254 C126.30522717 240.29648947 127.76385042 243.2419957 129.22265625 246.1875 C130.24757903 248.24548993 131.27309596 250.30318406 132.29917908 252.3605957 C135.00811849 257.79562217 137.71020805 263.234024 140.41052246 268.67333984 C144.70532871 277.32198094 149.0099634 285.96573091 153.31548882 294.60903931 C154.80530552 297.60240808 156.2919458 300.59733658 157.77809143 303.5925293 C163.36549308 314.835738 169.09168582 325.99293674 174.98321533 337.07979393 C177.2627258 341.38466789 179.48774503 345.7164687 181.6875 350.0625 C182.12771484 350.91392578 182.56792969 351.76535156 183.02148438 352.64257812 C183.43076172 353.45275391 183.84003906 354.26292969 184.26171875 355.09765625 C184.80252075 356.15738647 184.80252075 356.15738647 185.35424805 357.23852539 C185.56734619 357.81981201 185.78044434 358.40109863 186 359 C185.67 359.66 185.34 360.32 185 361 C178.98792511 350.58592156 173.31225118 340.00140258 167.6875 329.375 C161.36139462 317.42498195 154.95676574 305.52324222 148.45800781 293.66601562 C145.83391668 288.86777798 143.22926714 284.05901824 140.625 279.25 C140.08786377 278.25822754 139.55072754 277.26645508 138.99731445 276.24462891 C134.96531023 268.7945643 130.9501203 261.33551779 126.9375 253.875 C121.15226717 243.1205231 115.32155518 232.39164583 109.46337891 221.67675781 C106.99440542 217.16060411 104.52810681 212.64299245 102.0625 208.125 C101.57281738 207.22813477 101.08313477 206.33126953 100.57861328 205.40722656 C97.92052446 200.5350755 95.27256491 195.6576612 92.63671875 190.7734375 C92.07138428 189.72655762 91.5060498 188.67967773 90.92358398 187.60107422 C89.85257216 185.61653852 88.78294092 183.63125673 87.71508789 181.64501953 C83.5982986 174.01769185 79.30449421 166.53286487 75 159 C51.57 159 28.14 159 4 159 C3.67 159.66 3.34 160.32 3 161 C1.69084721 162.03145371 0.35917857 163.03542166 -1 164 C-0.67 162.68 -0.34 161.36 0 160 C-23.43 159.67 -46.86 159.34 -71 159 C-69.35 162.3 -67.7 165.6 -66 169 C-66.33 169.66 -66.66 170.32 -67 171 C-67.32613281 170.36191406 -67.65226562 169.72382813 -67.98828125 169.06640625 C-68.42527344 168.24011719 -68.86226563 167.41382813 -69.3125 166.5625 C-69.74175781 165.73878906 -70.17101562 164.91507813 -70.61328125 164.06640625 C-71.90020887 161.69352356 -71.90020887 161.69352356 -75 161 C-75.41185547 162.32402832 -75.41185547 162.32402832 -75.83203125 163.67480469 C-76.90430953 166.72757019 -78.13720965 169.3711905 -79.6875 172.203125 C-80.21577393 173.17338623 -80.74404785 174.14364746 -81.28833008 175.14331055 C-82.13560669 176.68112183 -82.13560669 176.68112183 -83 178.25 C-83.58740967 179.32483643 -84.17481934 180.39967285 -84.7800293 181.50708008 C-88.89555471 189.02635612 -93.04859566 196.52480692 -97.22265625 204.01171875 C-100.74556578 210.33350829 -104.25040024 216.66528536 -107.75 223 C-108.0925885 223.62000885 -108.435177 224.2400177 -108.78814697 224.8788147 C-114.23339751 234.73932748 -119.58786416 244.64600415 -124.90112305 254.57836914 C-129.34597418 262.85861945 -133.9395082 271.04773545 -138.65112305 279.17919922 C-142.16144844 285.2957183 -145.18758668 291.53338896 -148 298 C-148.66 298 -149.32 298 -150 298 C-150.40943848 299.31919434 -150.40943848 299.31919434 -150.82714844 300.66503906 C-151.92048464 303.77390094 -153.18996128 306.47187477 -154.765625 309.359375 C-155.31959961 310.38071533 -155.87357422 311.40205566 -156.44433594 312.4543457 C-157.04020508 313.54191162 -157.63607422 314.62947754 -158.25 315.75 C-159.18805948 317.47777754 -160.12611242 319.20555866 -161.06378174 320.93354797 C-162.04222737 322.7350552 -163.02277034 324.53540592 -164.00390625 326.33544922 C-166.6414357 331.17549667 -169.26932567 336.02073359 -171.88964844 340.87011719 C-173.10888002 343.12617562 -174.33078994 345.38078913 -175.55566406 347.63378906 C-176.38662598 349.1705127 -176.38662598 349.1705127 -177.234375 350.73828125 C-177.72131836 351.63587158 -178.20826172 352.53346191 -178.70996094 353.45825195 C-179.96367463 355.92842858 -181.01429097 358.41265927 -182 361 C-182.66 361 -183.32 361 -184 361 C-182.38621695 355.4805484 -179.88541575 350.59009232 -177.2578125 345.50390625 C-176.54461853 344.11095589 -176.54461853 344.11095589 -175.8170166 342.68986511 C-174.25700526 339.64534262 -172.69103838 336.60392606 -171.125 333.5625 C-170.03395745 331.43606989 -168.94330421 329.30943998 -167.85302734 327.18261719 C-165.63477526 322.85705626 -163.4141587 318.5327227 -161.19140625 314.20947266 C-158.3205325 308.62527049 -155.45566436 303.03801689 -152.59375 297.44921875 C-146.27451881 285.11127715 -139.94659348 272.77782049 -133.6015625 260.453125 C-132.15100929 257.63543333 -130.70046765 254.81773572 -129.25 252 C-128.89075439 251.30213379 -128.53150879 250.60426758 -128.16137695 249.88525391 C-120.93582452 235.8458431 -113.75549214 221.78345374 -106.57836914 207.71923828 C-99.64838181 194.13957279 -92.70932328 180.56465669 -85.75 167 C-85.34443878 166.20950256 -84.93887756 165.41900513 -84.52102661 164.60455322 C-82.49134066 160.64866402 -80.46133225 156.69294041 -78.43115234 152.73730469 C-74.30659956 144.70072576 -70.18458531 136.66284472 -66.0625 128.625 C-65.65124878 127.82312256 -65.23999756 127.02124512 -64.81628418 126.19506836 C-58.81389827 114.49115034 -52.81566342 102.7851115 -46.82009888 91.07769775 C-43.31720148 84.23774741 -39.81385691 77.39802609 -36.3104248 70.55834961 C-35.43548099 68.85019194 -34.56056244 67.14202133 -33.68566895 65.43383789 C-22.50223805 43.59907503 -11.29364402 21.77799696 0 0 Z " fill="#FBFBFA" transform="translate(298,34)"/>
<path d="M0 0 C23.43 0 46.86 0 71 0 C70.34 1.98 69.68 3.96 69 6 C69.66 4.68 70.32 3.36 71 2 C75.08170046 3.36056682 75.40574147 5.10854328 77.37109375 8.88671875 C77.68971878 9.49207458 78.00834381 10.09743042 78.33662415 10.72113037 C79.37893405 12.70550592 80.40800298 14.69645181 81.4375 16.6875 C82.15350088 18.05470576 82.87063067 19.42132088 83.58886719 20.78735352 C84.67775015 22.85854538 85.76599125 24.93004136 86.85073853 27.00340271 C90.0850716 33.18402755 93.39998447 39.31880613 96.75 45.4375 C97.22622803 46.31043701 97.70245605 47.18337402 98.19311523 48.08276367 C98.63985596 48.8997876 99.08659668 49.71681152 99.546875 50.55859375 C99.96130859 51.31769043 100.37574219 52.07678711 100.80273438 52.85888672 C101.58284839 54.25399274 102.38537979 55.63686958 103.21289062 57.00439453 C105.26721687 60.39978927 106 61.90877436 106 66 C97.07267023 66.09268433 88.14550609 66.16375667 79.21780014 66.20724869 C75.0722733 66.22812288 70.92707566 66.25643685 66.78173828 66.30175781 C62.78114843 66.34522249 58.78087519 66.36913838 54.78006744 66.37950897 C53.25380723 66.38689931 51.72756432 66.40133111 50.2014389 66.42292023 C48.06327386 66.45196424 45.92641654 66.45595585 43.78808594 66.45410156 C41.96274323 66.46742523 41.96274323 66.46742523 40.1005249 66.48101807 C36.38089924 65.90395218 35.29019953 64.91846942 33 62 C31.88038761 60.16967567 30.82935259 58.29630555 29.8359375 56.39453125 C29.27132813 55.32912109 28.70671875 54.26371094 28.125 53.16601562 C27.5475 52.05935547 26.97 50.95269531 26.375 49.8125 C25.22128106 47.60798197 24.06268089 45.4060093 22.8984375 43.20703125 C22.38974121 42.2322583 21.88104492 41.25748535 21.35693359 40.25317383 C20.19982519 37.87679115 20.19982519 37.87679115 18 37 C17.16479492 35.15209961 17.16479492 35.15209961 16.29296875 32.71484375 C13.84929499 26.35132242 10.61865164 20.51210843 7.3125 14.5625 C6.13982124 12.43996418 4.96914957 10.31631784 3.80078125 8.19140625 C3.28684814 7.26529541 2.77291504 6.33918457 2.2434082 5.38500977 C1 3 1 3 0 0 Z " fill="#FDFDFD" transform="translate(265,125)"/>
<path d="M0 0 C3 1 3 1 4.19165039 2.83154297 C4.57313232 3.62705566 4.95461426 4.42256836 5.34765625 5.2421875 C5.78215088 6.13244629 6.21664551 7.02270508 6.66430664 7.93994141 C7.12571045 8.90851074 7.58711426 9.87708008 8.0625 10.875 C9.0607744 12.92271714 10.06080101 14.96958091 11.0625 17.015625 C11.81080078 18.54993164 11.81080078 18.54993164 12.57421875 20.11523438 C14.49187957 23.99521386 16.51724229 27.81123999 18.5625 31.625 C24.34183467 42.4674116 29.77172677 53.48765928 35.22875977 64.49462891 C39.00012283 72.08787857 42.83871864 79.63549646 46.8125 87.125 C53.28537355 99.3351071 59.39381349 111.72632792 65.54101562 124.10253906 C71.06600649 135.21921382 76.63636076 146.29973477 82.45422363 157.26635742 C86.23911075 164.4130003 89.85985071 171.63603196 93.45013428 178.88195801 C99.50722171 191.10177361 105.64426376 203.26816066 112.10058594 215.28320312 C112.96512975 216.93343984 113.76919751 218.61493208 114.5703125 220.296875 C115.79542106 222.94432068 115.79542106 222.94432068 117.45949459 224.43135071 C119.12876625 226.13111871 120.01992437 227.67281921 121.07777405 229.80151367 C121.46291168 230.56911011 121.84804932 231.33670654 122.24485779 232.12756348 C122.86434044 233.38506409 122.86434044 233.38506409 123.49633789 234.66796875 C123.93913086 235.5547229 124.38192383 236.44147705 124.83813477 237.35510254 C126.30522717 240.29648947 127.76385042 243.2419957 129.22265625 246.1875 C130.24757903 248.24548993 131.27309596 250.30318406 132.29917908 252.3605957 C135.00811849 257.79562217 137.71020805 263.234024 140.41052246 268.67333984 C144.70532871 277.32198094 149.0099634 285.96573091 153.31548882 294.60903931 C154.80530552 297.60240808 156.2919458 300.59733658 157.77809143 303.5925293 C163.36549308 314.835738 169.09168582 325.99293674 174.98321533 337.07979393 C177.2627258 341.38466789 179.48774503 345.7164687 181.6875 350.0625 C182.12771484 350.91392578 182.56792969 351.76535156 183.02148438 352.64257812 C183.43076172 353.45275391 183.84003906 354.26292969 184.26171875 355.09765625 C184.80252075 356.15738647 184.80252075 356.15738647 185.35424805 357.23852539 C185.56734619 357.81981201 185.78044434 358.40109863 186 359 C185.67 359.66 185.34 360.32 185 361 C178.98792511 350.58592156 173.31225118 340.00140258 167.6875 329.375 C161.36139462 317.42498195 154.95676574 305.52324222 148.45800781 293.66601562 C145.83391668 288.86777798 143.22926714 284.05901824 140.625 279.25 C140.08786377 278.25822754 139.55072754 277.26645508 138.99731445 276.24462891 C134.96531023 268.7945643 130.9501203 261.33551779 126.9375 253.875 C121.15226717 243.1205231 115.32155518 232.39164583 109.46337891 221.67675781 C106.99440542 217.16060411 104.52810681 212.64299245 102.0625 208.125 C101.57281738 207.22813477 101.08313477 206.33126953 100.57861328 205.40722656 C97.92052446 200.5350755 95.27256491 195.6576612 92.63671875 190.7734375 C84.90891844 176.44895307 84.90891844 176.44895307 76.87890625 162.29296875 C72.16719366 154.03522714 67.74184689 145.63125408 63.375 137.1875 C58.88521897 128.53988917 54.27479725 119.9676418 49.58743286 111.42588806 C39.17660124 92.40218556 29.41305034 73.03824606 19.70458984 53.64941406 C18.04907861 50.34400596 16.38608589 47.04241568 14.72164536 43.74149704 C13.42573291 41.16821424 12.13513153 38.59229555 10.84601593 36.01560211 C10.23399311 34.79457291 9.6199793 33.57453948 9.00389862 32.35555267 C8.15420087 30.67313233 7.31273046 28.98656433 6.47167969 27.29980469 C5.75319855 25.86831085 5.75319855 25.86831085 5.02020264 24.40789795 C4 22 4 22 4 19 C3.34 19 2.68 19 2 19 C1.72325439 19.88179932 1.44650879 20.76359863 1.16137695 21.67211914 C0.10400858 24.70196742 -1.10601909 27.40286704 -2.58203125 30.24609375 C-3.09475586 31.23552979 -3.60748047 32.22496582 -4.13574219 33.24438477 C-4.68907227 34.29811279 -5.24240234 35.35184082 -5.8125 36.4375 C-6.39290039 37.54859131 -6.97330078 38.65968262 -7.57128906 39.80444336 C-11.83405554 47.91141456 -16.28824809 55.8929545 -20.84106445 63.83959961 C-25.569833 72.13584501 -30.04665715 80.55411578 -34.5 89 C-39.88357932 99.20763394 -45.38159862 109.32417975 -51.1171875 119.33984375 C-55.92853946 127.78060265 -60.47993096 136.35046833 -65.0249939 144.93624878 C-70.02950475 154.38369388 -75.18495206 163.72768241 -80.48828125 173.01171875 C-84.20966937 179.54502857 -87.7451072 186.155151 -91.20825195 192.828125 C-94.35737458 198.86159046 -97.68435367 204.77973669 -101.0625 210.6875 C-106.45741739 220.13367966 -111.60659962 229.69532064 -116.6875 239.3125 C-122.25418691 249.84795795 -127.90194352 260.32586742 -133.72851562 270.72021484 C-136.36415483 275.44594427 -138.96383153 280.1913714 -141.5625 284.9375 C-142.0881958 285.89285645 -142.6138916 286.84821289 -143.15551758 287.83251953 C-143.64173584 288.72181152 -144.1279541 289.61110352 -144.62890625 290.52734375 C-145.06275635 291.31874756 -145.49660645 292.11015137 -145.94360352 292.92553711 C-147.11647308 295.10157432 -147.11647308 295.10157432 -148 298 C-148.66 298 -149.32 298 -150 298 C-150.40943848 299.31919434 -150.40943848 299.31919434 -150.82714844 300.66503906 C-151.92048464 303.77390094 -153.18996128 306.47187477 -154.765625 309.359375 C-155.31959961 310.38071533 -155.87357422 311.40205566 -156.44433594 312.4543457 C-157.04020508 313.54191162 -157.63607422 314.62947754 -158.25 315.75 C-159.18805948 317.47777754 -160.12611242 319.20555866 -161.06378174 320.93354797 C-162.04222737 322.7350552 -163.02277034 324.53540592 -164.00390625 326.33544922 C-166.6414357 331.17549667 -169.26932567 336.02073359 -171.88964844 340.87011719 C-173.10888002 343.12617562 -174.33078994 345.38078913 -175.55566406 347.63378906 C-176.38662598 349.1705127 -176.38662598 349.1705127 -177.234375 350.73828125 C-177.72131836 351.63587158 -178.20826172 352.53346191 -178.70996094 353.45825195 C-179.96367463 355.92842858 -181.01429097 358.41265927 -182 361 C-182.66 361 -183.32 361 -184 361 C-182.38621695 355.4805484 -179.88541575 350.59009232 -177.2578125 345.50390625 C-176.54461853 344.11095589 -176.54461853 344.11095589 -175.8170166 342.68986511 C-174.25700526 339.64534262 -172.69103838 336.60392606 -171.125 333.5625 C-170.03395745 331.43606989 -168.94330421 329.30943998 -167.85302734 327.18261719 C-165.63477526 322.85705626 -163.4141587 318.5327227 -161.19140625 314.20947266 C-158.3205325 308.62527049 -155.45566436 303.03801689 -152.59375 297.44921875 C-146.27451881 285.11127715 -139.94659348 272.77782049 -133.6015625 260.453125 C-132.15100929 257.63543333 -130.70046765 254.81773572 -129.25 252 C-128.89075439 251.30213379 -128.53150879 250.60426758 -128.16137695 249.88525391 C-120.93582452 235.8458431 -113.75549214 221.78345374 -106.57836914 207.71923828 C-99.64838181 194.13957279 -92.70932328 180.56465669 -85.75 167 C-85.34443878 166.20950256 -84.93887756 165.41900513 -84.52102661 164.60455322 C-82.49134066 160.64866402 -80.46133225 156.69294041 -78.43115234 152.73730469 C-74.30659956 144.70072576 -70.18458531 136.66284472 -66.0625 128.625 C-65.65124878 127.82312256 -65.23999756 127.02124512 -64.81628418 126.19506836 C-58.81389827 114.49115034 -52.81566342 102.7851115 -46.82009888 91.07769775 C-43.31720148 84.23774741 -39.81385691 77.39802609 -36.3104248 70.55834961 C-35.43548099 68.85019194 -34.56056244 67.14202133 -33.68566895 65.43383789 C-22.50223805 43.59907503 -11.29364402 21.77799696 0 0 Z " fill="#1B2F5D" transform="translate(298,34)"/>
<path d="M0 0 C0.66 0 1.32 0 2 0 C2.26939896 0.56941818 2.53879791 1.13883636 2.81636047 1.72550964 C8.13615809 12.95212425 13.52462116 24.13881101 19.10546875 35.23828125 C19.6065213 36.23487762 20.10757385 37.231474 20.62380981 38.25827026 C22.67187637 42.32687194 24.72325982 46.39378486 26.77758789 50.45922852 C28.30696406 53.48803931 29.83151578 56.51923907 31.35546875 59.55078125 C31.82405807 60.47450027 32.2926474 61.3982193 32.7754364 62.34992981 C33.41289543 63.61977974 33.41289543 63.61977974 34.06323242 64.9152832 C34.4386467 65.65865433 34.81406097 66.40202545 35.20085144 67.16792297 C36 69 36 69 36 71 C12.24 71 -11.52 71 -36 71 C-32.78653528 62.64499173 -29.77418307 55.22592395 -25.4375 47.5625 C-24.3800662 45.65763098 -23.32277891 43.75268062 -22.265625 41.84765625 C-21.72744141 40.8848877 -21.18925781 39.92211914 -20.63476562 38.93017578 C-17.95926425 34.13457132 -15.32085615 29.31884558 -12.6875 24.5 C-12.18887451 23.58855225 -11.69024902 22.67710449 -11.17651367 21.73803711 C-7.27486267 14.57534357 -3.55721559 7.33988852 0 0 Z " fill="#FCCA2B" transform="translate(300,53)"/>
<path d="M0 0 C0.38631592 0.72775635 0.77263184 1.4555127 1.1706543 2.20532227 C7.98384032 15.0239299 14.82252634 27.81790631 22 40.4375 C22.53351074 41.37561523 23.06702148 42.31373047 23.61669922 43.28027344 C24.38457764 44.63040527 24.38457764 44.63040527 25.16796875 46.0078125 C27.58406082 50.25749558 29.97584603 54.51859088 32.3125 58.8125 C32.84488281 59.78832031 33.37726563 60.76414062 33.92578125 61.76953125 C35 64 35 64 35 66 C10.91 66 -13.18 66 -38 66 C-37.15890958 60.9534575 -36.52881172 58.61872804 -34.19140625 54.359375 C-33.61398682 53.2974292 -33.03656738 52.2354834 -32.44165039 51.14135742 C-31.82153076 50.02220947 -31.20141113 48.90306152 -30.5625 47.75 C-29.93013428 46.59282471 -29.29776855 45.43564941 -28.64624023 44.2434082 C-26.77586916 40.82243544 -24.88942306 37.4104906 -23 34 C-22.24396484 32.63270752 -22.24396484 32.63270752 -21.47265625 31.23779297 C-19.77181083 28.16434602 -18.06968705 25.09176717 -16.35131836 22.02807617 C-14.51169671 18.74691116 -12.70249586 15.45774349 -10.97265625 12.1171875 C-10.65804443 11.51366455 -10.34343262 10.9101416 -10.01928711 10.28833008 C-9.19501395 8.69761564 -8.38212545 7.10101564 -7.5703125 5.50390625 C-5.65927665 2.45670729 -3.78815668 0 0 0 Z " fill="#FDFDFD" transform="translate(189,265)"/>
<path d="M0 0 C5.02659163 2.28481438 8.91624892 6.41957495 12 11 C14.08517034 17.07965327 14.0540404 24.52779979 11.375 30.375 C8.49870911 35.35241118 4.30698984 38.77322238 -1 41 C-7.19203398 41.79863755 -12.57378992 41.23485601 -18 38 C-23.28841743 33.05355875 -26.03445899 28.48329621 -26.3125 21.1875 C-26.14340331 15.18901742 -25.31390652 10.44166823 -21.08984375 5.984375 C-14.17110287 -0.19352067 -9.29809775 -0.79470921 0 0 Z " fill="#FAFAFA" transform="translate(406,529)"/>
<path d="M0 0 C3.81223512 -0.11745244 7.62399682 -0.18766603 11.4375 -0.25 C12.50677734 -0.28351562 13.57605469 -0.31703125 14.67773438 -0.3515625 C23.17877541 -0.45555077 29.38960641 0.9273246 35.9375 6.5 C40.09939547 11.54472178 40.49307313 15.49500237 40.3828125 21.953125 C39.64491097 27.82621881 36.68517318 31.39908548 32.5 35.375 C27.99359166 38.30416542 24.41113389 39.2503706 19.04296875 39.1953125 C17.93115234 39.18886719 16.81933594 39.18242188 15.67382812 39.17578125 C14.52333984 39.15902344 13.37285156 39.14226563 12.1875 39.125 C11.01767578 39.11597656 9.84785156 39.10695313 8.64257812 39.09765625 C5.76150947 39.07413732 2.88086011 39.04126852 0 39 C0.64743164 38.66444092 1.29486328 38.32888184 1.96191406 37.9831543 C4.46120846 35.55122229 4.50695616 33.88220668 4.60565186 30.47627258 C4.60688049 29.74804794 4.60810913 29.0198233 4.609375 28.26953125 C4.62591125 27.51911057 4.64244751 26.76868988 4.65948486 25.99552917 C4.70803052 23.60110344 4.72934885 21.20731298 4.75 18.8125 C4.77815443 17.18811897 4.80808112 15.56376761 4.83984375 13.93945312 C4.91379039 9.95968773 4.96332417 5.98027633 5 2 C3.35 1.67 1.7 1.34 0 1 C0 0.67 0 0.34 0 0 Z " fill="#FBFBFB" transform="translate(336,530)"/>
<path d="M0 0 C0.99 0 1.98 0 3 0 C5.29418455 5.38478384 7.58699983 10.7701481 9.87866211 16.15600586 C10.654998 17.98005099 11.4316787 19.80394943 12.20874023 21.62768555 C12.96357787 23.39938267 13.71784105 25.17132465 14.4715271 26.94351196 C15.22236199 28.70792613 15.97498766 30.47157931 16.72940063 32.23446655 C18.53403722 36.46789715 20.29190615 40.70922754 21.94482422 45.00439453 C22.25020615 45.78609512 22.55558807 46.56779572 22.870224 47.3731842 C23.43635588 48.83120483 23.98937662 50.29441479 24.52638245 51.76341248 C26.23743009 56.14037911 27.83907739 57.89056661 32 60 C32 60.66 32 61.32 32 62 C24.74 62 17.48 62 10 62 C10 61.34 10 60.68 10 60 C12.97 59.505 12.97 59.505 16 59 C15.80664062 58.35933594 15.61328125 57.71867187 15.4140625 57.05859375 C15.02347656 55.76115234 15.02347656 55.76115234 14.625 54.4375 C14.36976563 53.59058594 14.11453125 52.74367188 13.8515625 51.87109375 C12.87767376 48.58756978 11.94089435 45.29313024 11 42 C3.08 42 -4.84 42 -13 42 C-13.33 43.32 -13.66 44.64 -14 46 C-14.350625 46.7425 -14.70125 47.485 -15.0625 48.25 C-16.33117268 51.97143987 -16.13296831 55.07743488 -16 59 C-14.68 59.33 -13.36 59.66 -12 60 C-12 60.66 -12 61.32 -12 62 C-17.61 62 -23.22 62 -29 62 C-29 61.34 -29 60.68 -29 60 C-28.41677979 59.82154541 -27.83355957 59.64309082 -27.23266602 59.45922852 C-23.92254679 57.29579685 -22.82323177 54.15776016 -21.27734375 50.65234375 C-20.93589828 49.90210434 -20.59445282 49.15186493 -20.24266052 48.37889099 C-16.11319809 39.20704596 -12.33481928 29.88528026 -8.5625 20.5625 C-7.48630477 17.91501638 -6.40882704 15.26805891 -5.33079529 12.62132263 C-4.66835655 10.99366983 -4.00721629 9.36548778 -3.34754944 7.73670959 C-1.1076133 2.2152266 -1.1076133 2.2152266 0 0 Z " fill="#434142" transform="translate(394,425)"/>
<path d="M0 0 C0.66 0 1.32 0 2 0 C3.5461609 3.47718454 5.08619594 6.95705393 6.625 10.4375 C7.108479 11.52812744 7.59195801 12.61875488 8.09008789 13.74243164 C11.04422433 20.44204936 13.91503624 27.16866378 16.70703125 33.9375 C17.332969 35.44612857 17.95910755 36.95467385 18.58544922 38.46313477 C19.51216831 40.69535411 20.43404868 42.92897866 21.34136963 45.16915894 C22.19365517 47.27279652 23.06201392 49.36914173 23.93359375 51.46484375 C24.42915771 52.677771 24.92472168 53.89069824 25.43530273 55.14038086 C27.05183578 58.09473435 27.85522416 58.97127152 31 60 C31 60.66 31 61.32 31 62 C23.74 62 16.48 62 9 62 C9 61.34 9 60.68 9 60 C11.475 59.505 11.475 59.505 14 59 C14.69401178 52.4068881 12.80728921 50.01822303 10 43 C2.08 42.67 -5.84 42.34 -14 42 C-16.77888233 50.68487567 -16.77888233 50.68487567 -17 59 C-15.68 59.33 -14.36 59.66 -13 60 C-13 60.66 -13 61.32 -13 62 C-18.61 62 -24.22 62 -30 62 C-30 61.34 -30 60.68 -30 60 C-29.25621094 59.63003906 -28.51242188 59.26007813 -27.74609375 58.87890625 C-23.97352968 56.2976782 -22.77011074 53.02311069 -21.0625 48.9375 C-20.69697021 48.09711182 -20.33144043 47.25672363 -19.95483398 46.39086914 C-15.38223842 35.77522022 -11.04001779 25.05318738 -6.69750977 14.34155273 C-6.40171021 13.61500488 -6.10591064 12.88845703 -5.80114746 12.13989258 C-5.24172659 10.76528835 -4.68494352 9.38960669 -4.13122559 8.01269531 C-2.94600342 5.10594792 -1.75001851 2.62502777 0 0 Z " fill="#434041" transform="translate(221,425)"/>
<path d="M0 0 C15.84 0 31.68 0 48 0 C48 4.29 48 8.58 48 13 C47.01 13 46.02 13 45 13 C44.731875 12.05125 44.46375 11.1025 44.1875 10.125 C43.25013412 6.74732727 43.25013412 6.74732727 40 5 C37.48497823 4.63303819 37.48497823 4.63303819 34.67578125 4.5859375 C33.74934814 4.55032715 32.82291504 4.5147168 31.8684082 4.47802734 C30.6949585 4.44402832 29.52150879 4.4100293 28.3125 4.375 C22.7128125 4.189375 22.7128125 4.189375 17 4 C17 11.59 17 19.18 17 27 C19.7225 26.9175 22.445 26.835 25.25 26.75 C26.10110352 26.73420898 26.95220703 26.71841797 27.82910156 26.70214844 C31.5114331 26.5364348 33.46701205 26.39890293 36.484375 24.140625 C38.16631791 21.98456622 38.16631791 21.98456622 39 19 C39.66 19 40.32 19 41 19 C41 25.6 41 32.2 41 39 C40.34 39 39.68 39 39 39 C38.731875 38.030625 38.46375 37.06125 38.1875 36.0625 C37.795625 35.051875 37.40375 34.04125 37 33 C34.40742331 32.13580777 32.65962293 31.82419068 29.98828125 31.68359375 C29.23095703 31.64169922 28.47363281 31.59980469 27.69335938 31.55664062 C26.51483398 31.49766602 26.51483398 31.49766602 25.3125 31.4375 C24.11657227 31.37272461 24.11657227 31.37272461 22.89648438 31.30664062 C20.93118553 31.20072632 18.96561504 31.09987449 17 31 C17.10948106 35.1255669 17.24020225 39.25018878 17.375 43.375 C17.4059375 44.550625 17.436875 45.72625 17.46875 46.9375 C17.50742187 48.05898438 17.54609375 49.18046875 17.5859375 50.3359375 C17.63306885 51.89127197 17.63306885 51.89127197 17.68115234 53.47802734 C17.75954472 56.16809835 17.75954472 56.16809835 20 58 C22.57061311 58.64767793 22.57061311 58.64767793 25 59 C25 59.66 25 60.32 25 61 C16.75 61 8.5 61 0 61 C0 60.34 0 59.68 0 59 C2.31 58.01 4.62 57.02 7 56 C7 39.17 7 22.34 7 5 C4.69 4.01 2.38 3.02 0 2 C0 1.34 0 0.68 0 0 Z " fill="#423F40" transform="translate(313,426)"/>
<path d="M0 0 C8.58 0 17.16 0 26 0 C26 0.66 26 1.32 26 2 C25.030625 2.309375 24.06125 2.61875 23.0625 2.9375 C20.15934208 3.69523342 20.15934208 3.69523342 19 5 C18.90666295 6.59610982 18.88254628 8.19633428 18.88647461 9.79516602 C18.88658791 11.32664024 18.88658791 11.32664024 18.88670349 12.88905334 C18.89186478 13.9994548 18.89702606 15.10985626 18.90234375 16.25390625 C18.9037587 17.38448959 18.90517365 18.51507294 18.90663147 19.67991638 C18.91224981 23.30747065 18.92480542 26.93496424 18.9375 30.5625 C18.94251264 33.01497307 18.94707595 35.4674471 18.95117188 37.91992188 C18.9622252 43.94663545 18.97898116 49.97331339 19 56 C22.20815845 56.08774066 25.41600462 56.14063706 28.625 56.1875 C29.52863281 56.21263672 30.43226563 56.23777344 31.36328125 56.26367188 C36.76212399 56.32278329 40.25310669 55.85262831 45 53 C45.66 53 46.32 53 47 53 C47.28875 52.236875 47.5775 51.47375 47.875 50.6875 C49 48 49 48 51 45 C51.66 45 52.32 45 53 45 C51.68 50.28 50.36 55.56 49 61 C33.16 61 17.32 61 1 61 C1 60.34 1 59.68 1 59 C1.969375 58.525625 2.93875 58.05125 3.9375 57.5625 C6.80477437 56.29806053 6.80477437 56.29806053 8 55 C8.10878142 53.48162227 8.14903597 51.95825655 8.16113281 50.43603516 C8.17074036 49.46477692 8.1803479 48.49351868 8.19024658 47.49282837 C8.1966214 45.90696426 8.1966214 45.90696426 8.203125 44.2890625 C8.20882507 43.20998627 8.21452515 42.13091003 8.22039795 41.01913452 C8.22986463 38.73086533 8.23638852 36.44258241 8.24023438 34.15429688 C8.24993942 30.64689423 8.28094743 27.14007743 8.3125 23.6328125 C8.31902967 21.414066 8.32428028 19.19531528 8.328125 16.9765625 C8.3466452 15.39677109 8.3466452 15.39677109 8.36553955 13.7850647 C8.36253845 12.80750214 8.35953735 11.82993958 8.35644531 10.82275391 C8.36009094 9.96195221 8.36373657 9.10115051 8.36749268 8.21426392 C7.91718119 5.50098948 7.17294652 4.63932024 5 3 C2.39388923 2.27802838 2.39388923 2.27802838 0 2 C0 1.34 0 0.68 0 0 Z " fill="#3E3B3C" transform="translate(256,426)"/>
<path d="M0 0 C3.87474457 -0.11668214 7.74903396 -0.18741231 11.625 -0.25 C13.26662109 -0.30027344 13.26662109 -0.30027344 14.94140625 -0.3515625 C21.27515938 -0.42833527 25.25338428 -0.38391751 30 4 C32.34168764 7.51253146 32.49623677 8.86469356 32 13 C29.33838443 17.5042725 26.88092764 18.52903551 22 20 C23.72498532 22.23251165 25.4547874 24.46099768 27.1875 26.6875 C27.91163086 27.62625977 27.91163086 27.62625977 28.65039062 28.58398438 C31.56403257 32.31892137 34.57554125 35.72579173 38 39 C34.87035306 39.51096277 32.11939667 39.6338614 29 39 C26.08788278 36.76678127 24.11803396 33.9740523 22 31 C20.77909176 29.34803114 19.55004148 27.7020454 18.3125 26.0625 C17.77238281 25.31097656 17.23226563 24.55945313 16.67578125 23.78515625 C14.92557311 21.59795502 14.92557311 21.59795502 11 21 C11.33 26.28 11.66 31.56 12 37 C13.65 37.33 15.3 37.66 17 38 C17 38.33 17 38.66 17 39 C11.39 39 5.78 39 0 39 C1.32 38.01 2.64 37.02 4 36 C4.40663704 33.38985056 4.56157676 31.20411478 4.53125 28.59375 C4.5350769 27.87264038 4.53890381 27.15153076 4.54284668 26.40856934 C4.54556603 24.88548383 4.53820293 23.36235164 4.52148438 21.83935547 C4.50007099 19.50773019 4.52128084 17.17918568 4.546875 14.84765625 C4.54423172 13.3671807 4.53910674 11.88670706 4.53125 10.40625 C4.53934692 9.7093103 4.54744385 9.01237061 4.55578613 8.29431152 C4.49100124 4.95054164 4.42719991 3.41242643 1.96679688 1.03710938 C1.31775391 0.69486328 0.66871094 0.35261719 0 0 Z " fill="#424041" transform="translate(422,530)"/>
<path d="M0 0 C3.68722927 -0.11701204 7.37397542 -0.18752045 11.0625 -0.25 C12.10083984 -0.28351562 13.13917969 -0.31703125 14.20898438 -0.3515625 C20.72105857 -0.43425551 24.73320556 0.0553828 30 4 C31.59954179 7.19908357 31.49700546 10.52786461 31 14 C28.58194458 17.31363151 25.48935416 18.93416346 22 21 C24.65944834 24.33915847 27.3272489 27.67148097 30 31 C30.50789063 31.63679687 31.01578125 32.27359375 31.5390625 32.9296875 C33.57971274 35.44607215 35.27437918 37.18291945 38 39 C29.65996515 40.19203422 29.65996515 40.19203422 25.95605469 37.53222656 C24.10048682 35.48283908 22.47698642 33.3777934 20.875 31.125 C20.30007813 30.37863281 19.72515625 29.63226562 19.1328125 28.86328125 C15 23.40206473 15 23.40206473 15 21 C13.68 21 12.36 21 11 21 C11.06002758 23.44012105 11.14700204 25.87413526 11.25 28.3125 C11.26417969 29.00279297 11.27835937 29.69308594 11.29296875 30.40429688 C11.36309412 32.69686723 11.36309412 32.69686723 12 36 C13.32 36.99 14.64 37.98 16 39 C10.39 39 4.78 39 -1 39 C2 37 2 37 4 37 C4.09886835 32.21287067 4.17146623 27.42633525 4.21972656 22.63842773 C4.23984381 21.00974171 4.26714137 19.38112792 4.30175781 17.75268555 C4.35027429 15.41176542 4.37296632 13.07179982 4.390625 10.73046875 C4.41127014 10.00224411 4.43191528 9.27401947 4.45318604 8.52372742 C4.49906037 6.22053897 4.49906037 6.22053897 4 3 C2.13100656 0.97385476 2.13100656 0.97385476 0 0 Z " fill="#3E3B3C" transform="translate(254,530)"/>
<path d="M0 0 C3.50228205 3.33550671 6.0057432 6.19442546 7 11 C8.092183 12.31747011 8.092183 12.31747011 10.77772522 12.12025452 C12.63970802 12.1169236 12.63970802 12.1169236 14.53930664 12.11352539 C15.22220261 12.11367142 15.90509857 12.11381744 16.60868835 12.1139679 C18.87587614 12.11326876 21.14298274 12.1054764 23.41015625 12.09765625 C24.97814387 12.09579207 26.54613207 12.09436817 28.11412048 12.09336853 C32.24876503 12.08954334 36.38337466 12.07971306 40.51800537 12.06866455 C44.73400398 12.05845044 48.95000822 12.05387091 53.16601562 12.04882812 C61.44402647 12.03809079 69.7220089 12.02101436 78 12 C77.01 9.69 76.02 7.38 75 5 C75.66 5 76.32 5 77 5 C78.98 9.455 78.98 9.455 81 14 C1.66397227 14.10823958 -77.67003823 14.1088106 -157.004776 13.59428024 C-161.06331664 13.56799488 -165.12186253 13.54266558 -169.18041122 13.51765925 C-212.12506307 13.25262198 -255.06106114 12.75463868 -298 12 C-297.39816251 9.97954558 -296.72693904 7.97888961 -296 6 C-295.34 5.67 -294.68 5.34 -294 5 C-294.66 6.98 -295.32 8.96 -296 11 C-271.58 11 -247.16 11 -222 11 C-222.66 8.69 -223.32 6.38 -224 4 C-223.01 4.495 -223.01 4.495 -222 5 C-222 5.66 -222 6.32 -222 7 C-221.34 7 -220.68 7 -220 7 C-219.34 5.35 -218.68 3.7 -218 2 C-217.505 2.99 -217.505 2.99 -217 4 C-217.99 6.31 -218.98 8.62 -220 11 C-195.91 10.67 -171.82 10.34 -147 10 C-147.66 7.69 -148.32 5.38 -149 3 C-147.02 4.485 -147.02 4.485 -145 6 C-144.01 5.01 -143.02 4.02 -142 3 C-142.66 5.97 -143.32 8.94 -144 12 C-108.36 11.505 -108.36 11.505 -72 11 C-72.60855027 7.95724864 -73.22389502 4.99354776 -74 2 C-72.5 3.375 -72.5 3.375 -71 5 C-71 5.66 -71 6.32 -71 7 C-70.01 6.67 -69.02 6.34 -68 6 C-68 7.65 -68 9.3 -68 11 C-44.24 11.33 -20.48 11.66 4 12 C2.02 7.05 2.02 7.05 0 2 C0 1.34 0 0.68 0 0 Z " fill="#B7B6B7" transform="translate(408,390)"/>
<path d="M0 0 C3.81223512 -0.11745244 7.62399682 -0.18766603 11.4375 -0.25 C12.50677734 -0.28351562 13.57605469 -0.31703125 14.67773438 -0.3515625 C23.17877541 -0.45555077 29.38960641 0.9273246 35.9375 6.5 C40.09939547 11.54472178 40.49307313 15.49500237 40.3828125 21.953125 C39.64491097 27.82621881 36.68517318 31.39908548 32.5 35.375 C27.99359166 38.30416542 24.41113389 39.2503706 19.04296875 39.1953125 C17.93115234 39.18886719 16.81933594 39.18242188 15.67382812 39.17578125 C14.52333984 39.15902344 13.37285156 39.14226563 12.1875 39.125 C11.01767578 39.11597656 9.84785156 39.10695313 8.64257812 39.09765625 C5.76150947 39.07413732 2.88086011 39.04126852 0 39 C0.64743164 38.66444092 1.29486328 38.32888184 1.96191406 37.9831543 C4.46120846 35.55122229 4.50695616 33.88220668 4.60565186 30.47627258 C4.60688049 29.74804794 4.60810913 29.0198233 4.609375 28.26953125 C4.62591125 27.51911057 4.64244751 26.76868988 4.65948486 25.99552917 C4.70803052 23.60110344 4.72934885 21.20731298 4.75 18.8125 C4.77815443 17.18811897 4.80808112 15.56376761 4.83984375 13.93945312 C4.91379039 9.95968773 4.96332417 5.98027633 5 2 C3.35 1.67 1.7 1.34 0 1 C0 0.67 0 0.34 0 0 Z M12 2 C12 13.55 12 25.1 12 37 C19.33640967 37 23.08998426 36.87808499 29 33 C33.53615804 27.80001395 33.61593035 22.80720876 33.3828125 16.03125 C32.87679516 12.02441878 31.81801778 9.89217614 29 7 C22.80213548 2.31997985 20.13662931 2 12 2 Z " fill="#4C494A" transform="translate(336,530)"/>
<path d="M0 0 C5.02659163 2.28481438 8.91624892 6.41957495 12 11 C14.08517034 17.07965327 14.0540404 24.52779979 11.375 30.375 C8.49870911 35.35241118 4.30698984 38.77322238 -1 41 C-7.19203398 41.79863755 -12.57378992 41.23485601 -18 38 C-23.28841743 33.05355875 -26.03445899 28.48329621 -26.3125 21.1875 C-26.14340331 15.18901742 -25.31390652 10.44166823 -21.08984375 5.984375 C-14.17110287 -0.19352067 -9.29809775 -0.79470921 0 0 Z M-17 8 C-20.1820486 14.2898494 -20.14456701 22.04194068 -18.20703125 28.7421875 C-16.66269572 32.35155406 -15.17194449 35.57353555 -12 38 C-8.24325952 38.81386214 -4.76200576 38.77279434 -1 38 C2.25722307 35.58070859 4.20365137 32.59269726 6 29 C6.17794636 26.23453858 6.27761722 23.51736725 6.3125 20.75 C6.35600586 19.62271484 6.35600586 19.62271484 6.40039062 18.47265625 C6.46091495 13.13720447 5.43932973 10.28148336 2 6 C1.4225 5.21625 0.845 4.4325 0.25 3.625 C-2.44387661 1.67942245 -4.59154079 1.3133815 -7.90234375 1.48046875 C-11.78589854 2.44231752 -14.53328065 4.92660103 -17 8 Z " fill="#494747" transform="translate(406,529)"/>
<path d="M0 0 C3.19765305 2.68818921 4.77403429 6.15357358 6.57836914 9.83203125 C6.9236264 10.52371399 7.26888367 11.21539673 7.62460327 11.92803955 C8.76704792 14.2201235 9.90100583 16.51630224 11.03515625 18.8125 C11.83587455 20.42208569 12.63718972 22.03137457 13.43907166 23.64038086 C15.55617927 27.89173612 17.6664358 32.14645343 19.77490234 36.40209961 C23.12218834 43.15569655 26.47923874 49.90443999 29.83730888 56.65267944 C30.99477436 58.98126001 32.14901909 61.31141287 33.30274963 63.6418457 C36.98064569 71.05544286 40.72828092 78.42227208 44.60839844 85.73217773 C51.70255802 99.11613007 58.44329349 112.68140789 65.23046875 126.22265625 C65.94680371 127.65126598 66.66316147 129.07986428 67.3795414 130.50845146 C70.73410309 137.19866848 74.08681542 143.88980813 77.43718451 150.58212572 C81.29087019 158.27964419 85.15122678 165.97377094 89.01698798 173.66523176 C92.02146565 179.64411821 95.01986462 185.62602768 98.01364976 191.61027521 C99.79640534 195.17343447 101.58179053 198.73521774 103.37364769 202.29380989 C105.04938274 205.62214293 106.71759618 208.95413454 108.37994766 212.28917122 C108.99195513 213.51368438 109.60672534 214.73682102 110.22438622 215.95849228 C111.0635639 217.6193195 111.89205288 219.28553491 112.71989441 220.95204163 C113.18716037 221.88418519 113.65442633 222.81632875 114.13585186 223.77671909 C114.42102075 224.51040179 114.70618963 225.24408449 115 226 C114.67 226.66 114.34 227.32 114 228 C103.34338192 207.86526042 92.75704724 187.68364353 82.6443634 167.26922607 C80.411895 162.77885905 78.13079253 158.32176608 75.77075195 153.8972168 C71.0496201 145.04347638 66.50938035 136.10376185 62.03125 127.125 C61.72659632 126.51425251 61.42194263 125.90350502 61.10805702 125.27425003 C58.58418544 120.21250667 56.06555616 115.14815865 53.54705811 110.08374023 C51.35666587 105.67964027 49.16432633 101.27651804 46.96875 96.875 C46.51263336 95.96048569 46.51263336 95.96048569 46.04730225 95.02749634 C41.94692994 86.81345753 37.7599575 78.65362528 33.45227051 70.54663086 C29.54521094 63.18302916 25.82482036 55.73079802 22.12234497 48.26272583 C16.85841408 37.65027359 11.58822708 27.04173821 6.0625 16.5625 C5.68029297 15.83740234 5.29808594 15.11230469 4.90429688 14.36523438 C3.42107804 11.57700229 1.90487743 8.84830673 0.2265625 6.171875 C-1 4 -1 4 -0.6875 1.6875 C-0.460625 1.130625 -0.23375 0.57375 0 0 Z " fill="#B9BBC0" transform="translate(300,30)"/>
<path d="M0 0 C0.98613281 0.00322266 1.97226563 0.00644531 2.98828125 0.00976562 C4.02082031 0.01814453 5.05335938 0.02652344 6.1171875 0.03515625 C7.67759766 0.04192383 7.67759766 0.04192383 9.26953125 0.04882812 C11.84377437 0.06063658 14.41798803 0.0785724 16.9921875 0.09765625 C16.9921875 4.05765625 16.9921875 8.01765625 16.9921875 12.09765625 C16.3321875 12.09765625 15.6721875 12.09765625 14.9921875 12.09765625 C14.651875 10.67453125 14.651875 10.67453125 14.3046875 9.22265625 C13.31012328 5.92636064 13.31012328 5.92636064 10.4921875 4.78515625 C9.6671875 4.55828125 8.8421875 4.33140625 7.9921875 4.09765625 C7.3321875 3.76765625 6.6721875 3.43765625 5.9921875 3.09765625 C1.88477883 2.930452 -2.38618985 2.84856853 -5.7421875 5.43359375 C-9.72817566 10.24022653 -10.21461095 13.8210399 -10.2578125 19.84765625 C-10.2784375 20.55148437 -10.2990625 21.2553125 -10.3203125 21.98046875 C-10.3623859 27.6393405 -9.27663155 31.7600851 -5.203125 35.95703125 C-2.3021382 37.46430553 -0.1360475 37.42758831 3.1171875 37.34765625 C4.69886719 37.32445312 4.69886719 37.32445312 6.3125 37.30078125 C8.96318918 37.26979253 8.96318918 37.26979253 10.9921875 36.09765625 C11.10013027 33.8278596 11.17774926 31.55660429 11.2421875 29.28515625 C11.28859375 28.02058594 11.335 26.75601563 11.3828125 25.453125 C11.25390625 24.34582031 11.125 23.23851562 10.9921875 22.09765625 C9.6721875 21.10765625 8.3521875 20.11765625 6.9921875 19.09765625 C11.9421875 19.09765625 16.8921875 19.09765625 21.9921875 19.09765625 C20.0121875 20.08765625 20.0121875 20.08765625 17.9921875 21.09765625 C18.05019531 22.21785156 18.10820312 23.33804688 18.16796875 24.4921875 C18.21486731 25.96480213 18.26036737 27.43746176 18.3046875 28.91015625 C18.34658203 29.64814453 18.38847656 30.38613281 18.43164062 31.14648438 C18.48046875 33.3046875 18.48046875 33.3046875 17.9921875 37.09765625 C12.81919151 41.66637306 5.65729302 41.50630261 -0.9296875 41.44140625 C-6.34957267 40.83613989 -10.75338758 38.60257283 -14.4140625 34.53515625 C-19.00101384 27.98236862 -18.62892011 20.79051762 -18.0078125 13.09765625 C-14.78523274 5.87907758 -7.98600247 -0.04589657 0 0 Z " fill="#454243" transform="translate(187.0078125,528.90234375)"/>
<path d="M0 0 C3 1 3 1 4.76171875 4.37060547 C5.41414849 5.86492442 6.05531876 7.3641903 6.6875 8.8671875 C7.03127686 9.65771515 7.37505371 10.4482428 7.72924805 11.26272583 C8.82970936 13.7958791 9.91593439 16.33479135 11 18.875 C12.08528292 21.40748704 13.17368082 23.93844675 14.27075195 26.46585083 C14.95356156 28.03979737 15.6294452 29.61677075 16.29760742 31.19699097 C16.60802979 31.91428375 16.91845215 32.63157654 17.23828125 33.37060547 C17.50680908 34.00046356 17.77533691 34.63032166 18.05200195 35.27926636 C19.10967908 37.38780624 19.10967908 37.38780624 22 40 C17.05 40 12.1 40 7 40 C7.99 39.34 8.98 38.68 10 38 C9.39987636 34.31352622 8.73287817 30.66439084 8 27 C2.72 27.33 -2.56 27.66 -8 28 C-10.0534337 32.98462142 -10.0534337 32.98462142 -10 38 C-9.34 38.66 -8.68 39.32 -8 40 C-11.63 40 -15.26 40 -19 40 C-18.12359863 39.01447144 -18.12359863 39.01447144 -17.22949219 38.0090332 C-14.60111482 34.46164479 -13.01412331 30.9121088 -11.328125 26.85546875 C-11.00084412 26.08568192 -10.67356323 25.31589508 -10.33636475 24.52278137 C-9.30012145 22.08076376 -8.27492951 19.63428452 -7.25 17.1875 C-6.5462995 15.52378103 -5.84187987 13.86036604 -5.13671875 12.19726562 C-3.41613665 8.13498111 -1.70544574 4.06866098 0 0 Z " fill="#454243" transform="translate(481,529)"/>
<path d="M0 0 C0.66 0 1.32 0 2 0 C2.46897705 1.06959961 2.9379541 2.13919922 3.42114258 3.24121094 C5.16592556 7.21682622 6.91750984 11.18941416 8.67114258 15.16113281 C9.42853042 16.87906664 10.18408246 18.59781105 10.93774414 20.31738281 C12.02266115 22.79188041 13.11419193 25.26336783 14.20703125 27.734375 C14.54152786 28.50118591 14.87602448 29.26799683 15.22065735 30.05804443 C15.54076279 30.77848938 15.86086823 31.49893433 16.19067383 32.24121094 C16.6070385 33.18719147 16.6070385 33.18719147 17.03181458 34.15228271 C18.17817593 36.46000337 18.17817593 36.46000337 21 40 C16.05 40 11.1 40 6 40 C7.98 39.505 7.98 39.505 10 39 C9.690625 37.741875 9.38125 36.48375 9.0625 35.1875 C8.88847656 34.47980469 8.71445312 33.77210938 8.53515625 33.04296875 C8.08989295 31.34316798 7.55566015 29.66698046 7 28 C1.72 27.67 -3.56 27.34 -9 27 C-11.02969658 32.53062609 -11.02969658 32.53062609 -11 38 C-10.01 38.66 -9.02 39.32 -8 40 C-11.96 40 -15.92 40 -20 40 C-19.24750977 39.17024658 -18.49501953 38.34049316 -17.71972656 37.4855957 C-14.8284184 34.00779737 -13.16534774 30.39959738 -11.484375 26.23046875 C-11.18307678 25.50886063 -10.88177856 24.7872525 -10.5713501 24.04377747 C-9.62087281 21.76235691 -8.68491358 19.47533676 -7.75 17.1875 C-6.7979737 14.88308719 -5.84299084 12.57993766 -4.88580322 10.27766418 C-4.2934273 8.85020026 -3.70457156 7.42126946 -3.11956787 5.99076843 C-1.10927132 1.10927132 -1.10927132 1.10927132 0 0 Z " fill="#454343" transform="translate(313,529)"/>
<path d="M0 0 C3.19602959 3.81689466 5.21196926 8.16516364 7.40454102 12.59790039 C7.83758041 13.46529343 8.27061981 14.33268646 8.71678162 15.22636414 C10.1495064 18.09830867 11.57662477 20.97300322 13.00390625 23.84765625 C14.00658373 25.85928943 15.00967779 27.87071503 16.01316833 29.88194275 C18.66115801 35.19123726 21.30470234 40.50273153 23.94696045 45.81488037 C28.14945595 54.26289817 32.35710997 62.70834142 36.56767082 71.15234184 C38.02394943 74.0749496 39.47740704 76.99894678 40.93055725 79.92311096 C46.4697821 91.05130981 52.1491255 102.09386084 57.97969055 113.07217789 C60.25962138 117.37998967 62.48648157 121.71397251 64.6875 126.0625 C65.34782227 127.33963867 65.34782227 127.33963867 66.02148438 128.64257812 C66.43076172 129.45275391 66.84003906 130.26292969 67.26171875 131.09765625 C67.80252075 132.15738647 67.80252075 132.15738647 68.35424805 133.23852539 C68.56734619 133.81981201 68.78044434 134.40109863 69 135 C68.67 135.66 68.34 136.32 68 137 C61.98792511 126.58592156 56.31225118 116.00140258 50.6875 105.375 C44.36139462 93.42498195 37.95676574 81.52324222 31.45800781 69.66601562 C27.18463636 61.85201425 22.95435474 54.01446605 18.71923828 46.1796875 C17.53344134 43.9865862 16.34687079 41.79390307 15.15966797 39.6015625 C13.29200856 36.1520852 11.4269796 32.70119687 9.5625 29.25 C8.99547363 28.20360352 8.42844727 27.15720703 7.84423828 26.07910156 C4.0895349 19.11986699 0.49648688 12.09239993 -3 5 C-2.34 4.67 -1.68 4.34 -1 4 C-0.34786708 1.97536745 -0.34786708 1.97536745 0 0 Z " fill="#314269" transform="translate(415,258)"/>
<path d="M0 0 C10.56 0 21.12 0 32 0 C32 2.64 32 5.28 32 8 C31.34 8 30.68 8 30 8 C29.71125 7.360625 29.4225 6.72125 29.125 6.0625 C28.17176549 3.84793921 28.17176549 3.84793921 26 3 C23.62597499 2.92883618 21.24999323 2.91590915 18.875 2.9375 C15.471875 2.9684375 15.471875 2.9684375 12 3 C11.67 7.62 11.34 12.24 11 17 C13.26875 16.9175 15.5375 16.835 17.875 16.75 C19.15117187 16.70359375 20.42734375 16.6571875 21.7421875 16.609375 C25.09188105 16.37444944 25.09188105 16.37444944 26.4453125 13.953125 C26.62835938 13.30859375 26.81140625 12.6640625 27 12 C27.66 12 28.32 12 29 12 C29 16.29 29 20.58 29 25 C28.34 25 27.68 25 27 25 C26.80664062 24.35546875 26.61328125 23.7109375 26.4140625 23.046875 C25.11291753 20.65648799 25.11291753 20.65648799 21.9609375 20.390625 C20.77757812 20.34421875 19.59421875 20.2978125 18.375 20.25 C16.27125 20.1675 14.1675 20.085 12 20 C12 25.61 12 31.22 12 37 C14.206875 36.896875 16.41375 36.79375 18.6875 36.6875 C20.54955078 36.60048828 20.54955078 36.60048828 22.44921875 36.51171875 C26.1004128 35.98552907 28.0733311 35.19500167 31 33 C32.32793606 30.93299345 32.32793606 30.93299345 33 29 C33.66 29 34.32 29 35 29 C34.34 32.3 33.68 35.6 33 39 C22.11 39 11.22 39 0 39 C1.32 38.01 2.64 37.02 4 36 C4.40663704 33.38985056 4.56157676 31.20411478 4.53125 28.59375 C4.5350769 27.87264038 4.53890381 27.15153076 4.54284668 26.40856934 C4.54556603 24.88548383 4.53820293 23.36235164 4.52148438 21.83935547 C4.50007099 19.50773019 4.52128084 17.17918568 4.546875 14.84765625 C4.54423172 13.3671807 4.53910674 11.88670706 4.53125 10.40625 C4.53934692 9.7093103 4.54744385 9.01237061 4.55578613 8.29431152 C4.55732631 6.08679848 4.55732631 6.08679848 4 3 C2.68 2.01 1.36 1.02 0 0 Z " fill="#403D3E" transform="translate(131,530)"/>
<path d="M0 0 C0.66 0 1.32 0 2 0 C3.25002889 3.81559035 3.41627311 5.93868423 1.93115234 9.72509766 C0.26595364 12.97389348 -1.49663827 16.14541677 -3.3125 19.3125 C-3.96574355 20.48244329 -4.61725891 21.6533531 -5.26708984 22.82519531 C-7.15930717 26.22747973 -9.08015632 29.61322805 -11 33 C-12.32380648 35.37627925 -13.64037298 37.75642453 -14.95605469 40.13720703 C-16.12316804 42.24668884 -17.29720443 44.35218626 -18.47265625 46.45703125 C-21.52703376 51.93712546 -24.54858347 57.43506953 -27.5625 62.9375 C-28.0879541 63.89237305 -28.6134082 64.84724609 -29.15478516 65.83105469 C-29.64124512 66.72083008 -30.12770508 67.61060547 -30.62890625 68.52734375 C-31.06275635 69.31874756 -31.49660645 70.11015137 -31.94360352 70.92553711 C-33.11647308 73.10157432 -33.11647308 73.10157432 -34 76 C-34.66 76 -35.32 76 -36 76 C-36.40943848 77.31919434 -36.40943848 77.31919434 -36.82714844 78.66503906 C-37.92048464 81.77390094 -39.18996128 84.47187477 -40.765625 87.359375 C-41.31959961 88.38071533 -41.87357422 89.40205566 -42.44433594 90.4543457 C-43.04020508 91.54191162 -43.63607422 92.62947754 -44.25 93.75 C-45.18805948 95.47777754 -46.12611242 97.20555866 -47.06378174 98.93354797 C-48.04222737 100.7350552 -49.02277034 102.53540592 -50.00390625 104.33544922 C-52.6414357 109.17549667 -55.26932567 114.02073359 -57.88964844 118.87011719 C-59.10888002 121.12617562 -60.33078994 123.38078913 -61.55566406 125.63378906 C-62.10963867 126.65827148 -62.66361328 127.68275391 -63.234375 128.73828125 C-63.72131836 129.63587158 -64.20826172 130.53346191 -64.70996094 131.45825195 C-65.96367463 133.92842858 -67.01429097 136.41265927 -68 139 C-68.66 139 -69.32 139 -70 139 C-68.38621695 133.4805484 -65.88541575 128.59009232 -63.2578125 123.50390625 C-62.78234985 122.57527267 -62.30688721 121.6466391 -61.8170166 120.68986511 C-60.25700526 117.64534262 -58.69103838 114.60392606 -57.125 111.5625 C-56.03395745 109.43606989 -54.94330421 107.30943998 -53.85302734 105.18261719 C-51.63477526 100.85705626 -49.4141587 96.5327227 -47.19140625 92.20947266 C-44.3205325 86.62527049 -41.45566644 81.03801582 -38.59375 75.44921875 C-32.064222 62.70078622 -25.52406614 49.95784871 -18.96875 37.22265625 C-18.5586972 36.42590485 -18.14864441 35.62915344 -17.72616577 34.80825806 C-15.78803335 31.04254079 -13.84917705 27.27720052 -11.90869141 23.51269531 C-7.88498532 15.70144031 -3.90619266 7.87089464 0 0 Z " fill="#273861" transform="translate(184,256)"/>
<path d="M0 0 C3.5625 1 3.5625 1 6 2 C6 1.34 6 0.68 6 0 C6.66 0 7.32 0 8 0 C9.3271261 3.9813783 9.06915913 7.85045227 9 12 C8.443125 11.2575 7.88625 10.515 7.3125 9.75 C3.00479193 4.58509104 3.00479193 4.58509104 -3.1875 2.625 C-6.13287971 2.72791297 -6.13287971 2.72791297 -8 5 C-8.2412913 8.07646412 -8.30118753 9.2992158 -7 12 C-4.68294667 14.03513049 -2.25240749 15.64059336 0.34765625 17.296875 C8.89154013 22.78308026 8.89154013 22.78308026 11 27 C11.51678914 30.17456186 11.53761795 32.18943755 9.73046875 34.9140625 C5.74398396 39.62800802 5.74398396 39.62800802 3 41 C-2.67954768 41.43924559 -7.68659435 41.23722343 -13 39 C-13 39.66 -13 40.32 -13 41 C-13.66 41 -14.32 41 -15 41 C-15.33 37.04 -15.66 33.08 -16 29 C-15.34 29 -14.68 29 -14 29 C-12.6273318 30.97321053 -11.29572383 32.97543152 -10 35 C-8.19114534 37.23194769 -8.19114534 37.23194769 -5.65234375 37.23046875 C-4.75644531 37.21628906 -3.86054687 37.20210937 -2.9375 37.1875 C-2.03902344 37.18105469 -1.14054687 37.17460938 -0.21484375 37.16796875 C1.97325599 37.24394743 1.97325599 37.24394743 3 36 C3.79276849 31.91200575 3.79276849 31.91200575 3 28 C-0.01167396 25.15143411 -3.47440599 23.15423777 -7 21 C-12.6066879 16.7866242 -12.6066879 16.7866242 -14 14 C-14.6469176 9.2959849 -14.63833677 6.00898393 -12.0625 1.9375 C-7.91360705 -0.68730983 -4.7820258 -0.662772 0 0 Z " fill="#454344" transform="translate(116,529)"/>
<path d="M0 0 C5.28 0 10.56 0 16 0 C14.68 0.99 13.36 1.98 12 3 C11.3821323 5.9109841 11.3821323 5.9109841 11.46875 9.2421875 C11.46359375 10.47324219 11.4584375 11.70429687 11.453125 12.97265625 C11.46859375 14.26042969 11.4840625 15.54820312 11.5 16.875 C11.48453125 18.15503906 11.4690625 19.43507813 11.453125 20.75390625 C11.45828125 21.98753906 11.4634375 23.22117187 11.46875 24.4921875 C11.47326172 25.61995605 11.47777344 26.74772461 11.48242188 27.90966797 C12.10980295 31.65560648 13.32984284 33.34114025 16 36 C18.70538551 36.63850614 18.70538551 36.63850614 21.5625 36.375 C22.51253906 36.34148438 23.46257812 36.30796875 24.44140625 36.2734375 C27.11720919 36.07961099 27.11720919 36.07961099 30 35 C31.4198951 28.8330676 31.26307757 22.6747121 31.3125 16.375 C31.34150391 15.13492188 31.37050781 13.89484375 31.40039062 12.6171875 C31.40876953 11.43125 31.41714844 10.2453125 31.42578125 9.0234375 C31.44036377 7.93981934 31.45494629 6.85620117 31.4699707 5.73974609 C31.22974451 2.45663938 31.22974451 2.45663938 27 0 C31.29 0 35.58 0 40 0 C38.68 0.99 37.36 1.98 36 3 C35.40459872 5.7975513 35.40459872 5.7975513 35.49609375 8.98828125 C35.47740234 10.16970703 35.45871094 11.35113281 35.43945312 12.56835938 C35.43880859 13.80392578 35.43816406 15.03949219 35.4375 16.3125 C35.4285291 18.74617788 35.40682114 21.17984909 35.37109375 23.61328125 C35.37036865 24.69391846 35.36964355 25.77455566 35.36889648 26.88793945 C34.79008284 31.77088946 33.0437665 35.00842183 29.5 38.375 C23.96203534 40.94619788 18.11932779 41.00215741 12.30078125 39.1328125 C8.72257431 37.37104678 6.7586503 34.5173006 5 31 C4.89323532 28.93030884 4.84451437 26.85749992 4.82421875 24.78515625 C4.80037109 23.54185547 4.77652344 22.29855469 4.75195312 21.01757812 C4.70905071 18.38492972 4.67776423 15.75206592 4.65820312 13.11914062 C4.63048828 11.87455078 4.60277344 10.62996094 4.57421875 9.34765625 C4.55963623 8.20304932 4.54505371 7.05844238 4.5300293 5.87915039 C4.23946253 2.47319152 4.23946253 2.47319152 0 0 Z " fill="#403D3E" transform="translate(211,530)"/>
<path d="M0 0 C1 1 2 2 3 3 C3.556875 3.495 4.11375 3.99 4.6875 4.5 C6 6 6 6 6 9 C29.1 9 52.2 9 76 9 C76.33 8.34 76.66 7.68 77 7 C77.33 7.99 77.66 8.98 78 10 C54.57 10 31.14 10 7 10 C8.65 13.3 10.3 16.6 12 20 C11.67 20.66 11.34 21.32 11 22 C9.02 18.37 7.04 14.74 5 11 C3.68 12.98 2.36 14.96 1 17 C0.67 16.34 0.34 15.68 0 15 C0.66 13.68 1.32 12.36 2 11 C-21.1 10.67 -44.2 10.34 -68 10 C-68.33 10.99 -68.66 11.98 -69 13 C-69.99 12.01 -69.99 12.01 -71 11 C-71.99 11.99 -72.98 12.98 -74 14 C-73.67 12.68 -73.34 11.36 -73 10 C-96.43 10 -119.86 10 -144 10 C-143.505 11.98 -143.505 11.98 -143 14 C-143.99 13.01 -144.98 12.02 -146 11 C-147.32 12.32 -148.64 13.64 -150 15 C-149.67 13.68 -149.34 12.36 -149 11 C-172.1 11 -195.2 11 -219 11 C-218.34 12.98 -217.68 14.96 -217 17 C-218.5 15.625 -218.5 15.625 -220 14 C-220 13.34 -220 12.68 -220 12 C-221.98 12.99 -221.98 12.99 -224 14 C-223.67 12.68 -223.34 11.36 -223 10 C-222.34 10 -221.68 10 -221 10 C-220.67 9.01 -220.34 8.02 -220 7 C-220 7.66 -220 8.32 -220 9 C-195.91 9 -171.82 9 -147 9 C-147.495 7.02 -147.495 7.02 -148 5 C-147.01 5.33 -146.02 5.66 -145 6 C-145 6.99 -145 7.98 -145 9 C-120.91 9 -96.82 9 -72 9 C-72.33 7.35 -72.66 5.7 -73 4 C-71.02 4.495 -71.02 4.495 -69 5 C-69.33 6.32 -69.66 7.64 -70 9 C-45.91 8.67 -21.82 8.34 3 8 C2.01 6.02 1.02 4.04 0 2 C0 1.34 0 0.68 0 0 Z " fill="#E0DFDF" transform="translate(371,322)"/>
<path d="M0 0 C2.50037734 2.17424117 3.43628586 3.73045798 4 7 C4.66 7 5.32 7 6 7 C6.28875 6.030625 6.5775 5.06125 6.875 4.0625 C8 1 8 1 10 0 C8.125 5.75 8.125 5.75 7 8 C29.77 8.33 52.54 8.66 76 9 C76.33 8.34 76.66 7.68 77 7 C77.33 7.99 77.66 8.98 78 10 C54.57 10 31.14 10 7 10 C6.67 10.99 6.34 11.98 6 13 C6 12.34 6 11.68 6 11 C5.34 11 4.68 11 4 11 C3.731875 11.928125 3.46375 12.85625 3.1875 13.8125 C2.08851629 16.76240366 1.37581439 18.05615186 -1 20 C0.1258614 16.46157845 1.33094759 13.33810482 3 10 C-32.145 10.495 -32.145 10.495 -68 11 C-67.01 13.97 -67.01 13.97 -66 17 C-71 12 -71 12 -72 10 C-95.76 10 -119.52 10 -144 10 C-142.68 12.64 -141.36 15.28 -140 18 C-140.33 18.66 -140.66 19.32 -141 20 C-144 15.25 -144 15.25 -144 13 C-146.475 14.485 -146.475 14.485 -149 16 C-147.7508258 12.54074837 -146.32472205 9.85306797 -144 7 C-144 7.66 -144 8.32 -144 9 C-108.36 8.505 -108.36 8.505 -72 8 C-71.67 7.34 -71.34 6.68 -71 6 C-69.69084721 4.96854629 -68.35917857 3.96457834 -67 3 C-67.66 4.98 -68.32 6.96 -69 9 C-33.36 8.505 -33.36 8.505 3 8 C2.01 6.02 1.02 4.04 0 2 C0 1.34 0 0.68 0 0 Z " fill="#E1E0E1" transform="translate(333,252)"/>
<path d="M0 0 C6.93 0 13.86 0 21 0 C21.33 0.66 21.66 1.32 22 2 C18.7 2.33 15.4 2.66 12 3 C11.67 8.28 11.34 13.56 11 19 C12.32 19.33 13.64 19.66 15 20 C13.68 20 12.36 20 11 20 C11.33 25.61 11.66 31.22 12 37 C13.65 37.33 15.3 37.66 17 38 C17 38.33 17 38.66 17 39 C11.39 39 5.78 39 0 39 C1.32 38.01 2.64 37.02 4 36 C4.40663704 33.38985056 4.56157676 31.20411478 4.53125 28.59375 C4.5350769 27.87264038 4.53890381 27.15153076 4.54284668 26.40856934 C4.54556603 24.88548383 4.53820293 23.36235164 4.52148438 21.83935547 C4.50007099 19.50773019 4.52128084 17.17918568 4.546875 14.84765625 C4.54423172 13.3671807 4.53910674 11.88670706 4.53125 10.40625 C4.53934692 9.7093103 4.54744385 9.01237061 4.55578613 8.29431152 C4.55732631 6.08679848 4.55732631 6.08679848 4 3 C2.68 2.01 1.36 1.02 0 0 Z " fill="#413E3F" transform="translate(422,530)"/>
<path d="M0 0 C5.2607634 2.53627946 9.1391482 5.82980254 11.375 11.3125 C12.31596505 18.24592672 12.01451442 23.97413112 7.80078125 29.6953125 C4.51351487 33.42388314 1.16090973 35.91174593 -3.625 37.3125 C-6.9375 37.4375 -6.9375 37.4375 -9.625 37.3125 C-9.295 36.3225 -8.965 35.3325 -8.625 34.3125 C-6.62890625 33.5390625 -6.62890625 33.5390625 -4.1875 32.9375 C-0.38896239 31.89810418 -0.38896239 31.89810418 1.875 28.75 C2.04 27.945625 2.205 27.14125 2.375 26.3125 C2.705 25.6525 3.035 24.9925 3.375 24.3125 C3.86287315 18.52200556 4.1511285 13.15580519 1.875 7.75 C-3.20441921 2.79756627 -8.64953075 0.8937891 -15.625 0.3125 C-10.47691102 -2.98227695 -5.41757177 -2.22652284 0 0 Z " fill="#444142" transform="translate(364.625,531.6875)"/>
<path d="M0 0 C5 5 5 5 6 7 C28.77 7 51.54 7 75 7 C75.33 6.34 75.66 5.68 76 5 C76.33 5.99 76.66 6.98 77 8 C41.855 8.495 41.855 8.495 6 9 C5.67 9.66 5.34 10.32 5 11 C3.69084721 12.03145371 2.35917857 13.03542166 1 14 C1.33 12.68 1.66 11.36 2 10 C-21.43 9.67 -44.86 9.34 -69 9 C-67.35 12.3 -65.7 15.6 -64 19 C-64.33 19.66 -64.66 20.32 -65 21 C-65.33773437 20.36191406 -65.67546875 19.72382813 -66.0234375 19.06640625 C-66.46945313 18.24011719 -66.91546875 17.41382813 -67.375 16.5625 C-68.03628906 15.32693359 -68.03628906 15.32693359 -68.7109375 14.06640625 C-69.83418559 11.86533422 -69.83418559 11.86533422 -72 11 C-71.34 9.35 -70.68 7.7 -70 6 C-46.24 6 -22.48 6 2 6 C1.01 3.03 1.01 3.03 0 0 Z " fill="#E9E9EA" transform="translate(296,184)"/>
<path d="M0 0 C0.66 0 1.32 0 2 0 C3.5056651 3.62267294 5.00356546 7.24850549 6.5 10.875 C6.92925781 11.90753906 7.35851562 12.94007813 7.80078125 14.00390625 C8.40986328 15.48310547 8.40986328 15.48310547 9.03125 16.9921875 C9.40830078 17.90339355 9.78535156 18.81459961 10.17382812 19.75341797 C11 22 11 22 11 24 C4.4 24 -2.2 24 -9 24 C-7.07086147 18.21258441 -5.10959798 12.56964393 -2.8125 6.9375 C-2.40354492 5.92526367 -2.40354492 5.92526367 -1.98632812 4.89257812 C-1.32664689 3.26073506 -0.66368579 1.63021848 0 0 Z " fill="#F3F3F3" transform="translate(392,439)"/>
<path d="M0 0 C2.68300071 1.34150035 2.8437032 2.60687715 3.9453125 5.3671875 C4.29980469 6.25277344 4.65429688 7.13835937 5.01953125 8.05078125 C5.38433594 8.98277344 5.74914062 9.91476562 6.125 10.875 C6.68380859 12.26138672 6.68380859 12.26138672 7.25390625 13.67578125 C10 20.60639881 10 20.60639881 10 24 C3.73 24 -2.54 24 -9 24 C-8.2204362 19.3226172 -7.44108237 16.22651897 -5.625 12 C-5.18027344 10.96359375 -4.73554688 9.9271875 -4.27734375 8.859375 C-2.9344274 5.85321363 -1.53645616 2.91118009 0 0 Z " fill="#F4F4F4" transform="translate(219,439)"/>
<path d="M0 0 C3.19765305 2.68818921 4.77403429 6.15357358 6.57836914 9.83203125 C6.9236264 10.52371399 7.26888367 11.21539673 7.62460327 11.92803955 C8.76704792 14.2201235 9.90100583 16.51630224 11.03515625 18.8125 C11.83587455 20.42208569 12.63718972 22.03137457 13.43907166 23.64038086 C15.55617927 27.89173612 17.6664358 32.14645343 19.77490234 36.40209961 C23.1169316 43.14509039 26.46803107 49.88358181 29.82053757 56.62136841 C30.62848198 58.24516908 31.4361842 59.86909029 32.2436409 61.49313354 C38.00625946 73.07942133 43.85476812 84.61066603 50 96 C49.34 96.99 48.68 97.98 48 99 C44.43527932 92.04280283 40.87310698 85.08430337 37.3125 78.125 C36.78556549 77.09513977 36.25863098 76.06527954 35.71572876 75.00421143 C29.65414786 63.15343338 23.6109267 51.29551163 17.6875 39.375 C13.99084519 31.93914499 10.23994502 24.53748713 6.375 17.1875 C5.97240967 16.42163574 5.56981934 15.65577148 5.1550293 14.86669922 C3.57939354 11.89219805 1.99289633 8.98864033 0.20703125 6.1328125 C-1 4 -1 4 -0.6875 1.6875 C-0.460625 1.130625 -0.23375 0.57375 0 0 Z " fill="#C5C5C9" transform="translate(300,30)"/>
<path d="M0 0 C11.97366727 -0.56618041 11.97366727 -0.56618041 16 3 C21.18890626 8.27815035 23.1097375 11.77980276 23.3125 19.25 C23.23793615 25.46365384 21.80953596 29.98763658 17.5390625 34.56640625 C14.9135419 36.90538526 12.5359384 38.59200711 9 39 C9.57564655 35.11438576 11.51253354 32.95386643 14 30 C15.61282972 26.77434056 15.26787069 23.29059192 15.3125 19.75 C15.34150391 18.99847656 15.37050781 18.24695313 15.40039062 17.47265625 C15.46087813 12.14044993 14.43518896 9.28257903 11 5 C10.5875 4.401875 10.175 3.80375 9.75 3.1875 C6.78548431 1.17586436 3.52521255 1.28895185 0 1 C0 0.67 0 0.34 0 0 Z " fill="#424041" transform="translate(396,530)"/>
<path d="M0 0 C4.17504957 0.27833664 6.7740964 1.2740964 9.75 4.25 C10.21601942 11.47330097 10.21601942 11.47330097 8.625 14.125 C4.40324105 16.65805537 0.60081777 17.35688243 -4.25 17.25 C-4.27684679 14.60409986 -4.29676357 11.95846904 -4.3125 9.3125 C-4.32087891 8.55775391 -4.32925781 7.80300781 -4.33789062 7.02539062 C-4.34652441 5.10005687 -4.30224333 3.17464419 -4.25 1.25 C-3.25 0.25 -3.25 0.25 0 0 Z " fill="#F2F2F2" transform="translate(437.25,531.75)"/>
<path d="M0 0 C1.87826538 0.3052063 1.87826538 0.3052063 4 1 C5.51847085 3.42978175 6.7586551 5.72863099 7.9765625 8.3046875 C8.52689651 9.42431381 8.52689651 9.42431381 9.08834839 10.56655884 C10.27989401 12.99674812 11.45217703 15.43572833 12.625 17.875 C13.84593074 20.37465268 15.07175719 22.87186655 16.29766846 25.36907959 C17.10235395 27.00941719 17.90538262 28.65056865 18.70672607 30.2925415 C21.53520566 36.08461487 24.45568948 41.81800597 27.5 47.5 C30.95233299 53.99241373 34.35436085 60.50794704 37.6875 67.0625 C38.13480469 67.92746094 38.58210938 68.79242188 39.04296875 69.68359375 C39.64625 70.87855469 39.64625 70.87855469 40.26171875 72.09765625 C40.62225342 72.80414307 40.98278809 73.51062988 41.35424805 74.23852539 C41.56734619 74.81981201 41.78044434 75.40109863 42 76 C41.67 76.66 41.34 77.32 41 78 C34.98792296 67.58591783 29.31231495 57.00137269 23.6875 46.375 C18.54549366 36.66225858 13.3887249 26.96004354 8.125 17.3125 C7.64377686 16.42933105 7.16255371 15.54616211 6.66674805 14.63623047 C4.90040021 11.40844198 3.13910709 8.22119819 1.1796875 5.10546875 C0 3 0 3 0 0 Z " fill="#273861" transform="translate(442,317)"/>
<path d="M0 0 C8.12604043 -0.60642093 8.12604043 -0.60642093 12.0625 2.125 C14.34404561 5.51051929 14.7652998 7.00343438 14 11 C11.76793569 13.84780619 10.45007001 14.84997666 7 16 C4.69 16 2.38 16 0 16 C0 10.72 0 5.44 0 0 Z " fill="#F7F7F7" transform="translate(265,532)"/>
<path d="M0 0 C0.33 0 0.66 0 1 0 C1 4.95 1 9.9 1 15 C2.588125 14.71125 4.17625 14.4225 5.8125 14.125 C6.70582031 13.96257813 7.59914063 13.80015625 8.51953125 13.6328125 C11.22727846 13.08811551 11.22727846 13.08811551 14 11 C13.649375 11.5775 13.29875 12.155 12.9375 12.75 C11.79789431 15.48505365 12.01795991 16.25028775 13 19 C14.44880303 21.207031 14.44880303 21.207031 16.25 23.375 C16.8790625 24.15746094 17.508125 24.93992187 18.15625 25.74609375 C18.7646875 26.48988281 19.373125 27.23367188 20 28 C20.72703125 28.91458984 20.72703125 28.91458984 21.46875 29.84765625 C23.52139187 32.39468443 25.25164042 34.16776028 28 36 C19.65996515 37.19203422 19.65996515 37.19203422 15.95605469 34.53222656 C14.10048682 32.48283908 12.47698642 30.3777934 10.875 28.125 C10.30007813 27.37863281 9.72515625 26.63226562 9.1328125 25.86328125 C5 20.40206473 5 20.40206473 5 18 C4.360625 17.855625 3.72125 17.71125 3.0625 17.5625 C1 17 1 17 0 16 C-0.07319621 13.30345146 -0.09242537 10.63308542 -0.0625 7.9375 C-0.05798828 7.17888672 -0.05347656 6.42027344 -0.04882812 5.63867188 C-0.0370068 3.75908129 -0.01907078 1.87953101 0 0 Z " fill="#4B4849" transform="translate(264,533)"/>
<path d="M0 0 C4.95 0 9.9 0 15 0 C13.02 0.99 13.02 0.99 11 2 C11.05800781 3.12019531 11.11601562 4.24039063 11.17578125 5.39453125 C11.22267981 6.86714588 11.26817987 8.33980551 11.3125 9.8125 C11.35439453 10.55048828 11.39628906 11.28847656 11.43945312 12.04882812 C11.48828125 14.20703125 11.48828125 14.20703125 11 18 C6.29893217 22.15191654 0.69431635 22.12850897 -5.3125 22.0625 C-6.38113281 22.05347656 -7.44976562 22.04445313 -8.55078125 22.03515625 C-9.35902344 22.02355469 -10.16726562 22.01195312 -11 22 C-9.26098199 19.85348932 -8.34301736 19.06782515 -5.58984375 18.5234375 C-4.27693359 18.44996094 -4.27693359 18.44996094 -2.9375 18.375 C0.66869449 18.2082143 0.66869449 18.2082143 4 17 C4.10794277 14.73020335 4.18556176 12.45894804 4.25 10.1875 C4.31960937 8.29064453 4.31960937 8.29064453 4.390625 6.35546875 C4.26171875 5.24816406 4.1328125 4.14085937 4 3 C2.68 2.01 1.36 1.02 0 0 Z " fill="#4E4B4C" transform="translate(194,548)"/>
<path d="M0 0 C4.29 0 8.58 0 13 0 C11.68 0.99 10.36 1.98 9 3 C8.40459872 5.7975513 8.40459872 5.7975513 8.49609375 8.98828125 C8.47740234 10.16970703 8.45871094 11.35113281 8.43945312 12.56835938 C8.43880859 13.80392578 8.43816406 15.03949219 8.4375 16.3125 C8.4285291 18.74617788 8.40682114 21.17984909 8.37109375 23.61328125 C8.37036865 24.69391846 8.36964355 25.77455566 8.36889648 26.88793945 C7.76079793 32.01794092 6.0616916 35.14161104 2.0625 38.375 C-1 40 -1 40 -5 40 C-5 39.34 -5 38.68 -5 38 C-6.32 37.67 -7.64 37.34 -9 37 C-8.38511719 36.93941406 -7.77023438 36.87882813 -7.13671875 36.81640625 C-6.32847656 36.73261719 -5.52023438 36.64882813 -4.6875 36.5625 C-3.88699219 36.48128906 -3.08648437 36.40007813 -2.26171875 36.31640625 C0.16087179 36.04734307 0.16087179 36.04734307 3 35 C4.4198951 28.8330676 4.26307757 22.6747121 4.3125 16.375 C4.35600586 14.51488281 4.35600586 14.51488281 4.40039062 12.6171875 C4.40876953 11.43125 4.41714844 10.2453125 4.42578125 9.0234375 C4.44036377 7.93981934 4.45494629 6.85620117 4.4699707 5.73974609 C4.22974451 2.45663938 4.22974451 2.45663938 0 0 Z " fill="#666364" transform="translate(238,530)"/>
<path d="M0 0 C3.10854965 2.64300681 4.69571673 5.96139799 6.47753906 9.55102539 C6.81120483 10.21149368 7.14487061 10.87196198 7.48864746 11.55244446 C8.5871319 13.73114634 9.67671806 15.91415365 10.765625 18.09765625 C11.52572764 19.61330141 12.28612809 21.12879725 13.04681396 22.64414978 C14.63778485 25.81716188 16.22419481 28.99240411 17.80761719 32.16918945 C19.84158048 36.24863559 21.88819818 40.32158208 23.93841934 44.39287663 C25.51045678 47.51865273 27.07507151 50.64809832 28.63750458 53.77868462 C29.38942513 55.28267956 30.14384613 56.78542701 30.90076447 58.28691292 C31.9548738 60.3803349 32.99874195 62.47855159 34.04003906 64.57836914 C34.35684631 65.20231567 34.67365356 65.82626221 35.00006104 66.46911621 C35.7281248 67.9507809 36.37300276 69.47281909 37 71 C36.67 71.66 36.34 72.32 36 73 C24.39316292 51.06990547 12.91412296 29.06794108 1.90698242 6.82983398 C0.94261486 4.88422567 -0.02791164 2.9417606 -1 1 C-0.67 0.67 -0.34 0.34 0 0 Z " fill="#9B9EA7" transform="translate(378,185)"/>
<path d="M0 0 C4.39026489 0.23731162 6.8191574 2.08422761 10 5 C11.42662219 7.85324437 11.31033868 9.83454549 11 13 C8.35284503 17.47980071 5.88841395 18.58779153 1 20 C0.67 20.66 0.34 21.32 0 22 C0 20.68 0 19.36 0 18 C-0.66 17.67 -1.32 17.34 -2 17 C-1.175 16.67 -0.35 16.34 0.5 16 C3.43521042 14.11190761 3.43521042 14.11190761 3.625 10.0625 C3.43206193 6.57032093 3.13031799 6.13031799 0.5 3.5 C-0.325 3.005 -1.15 2.51 -2 2 C-1.34 1.34 -0.68 0.68 0 0 Z " fill="#494647" transform="translate(443,530)"/>
<path d="M0 0 C1.0579834 1.83676147 1.0579834 1.83676147 2 4 C1.07226562 6.61181641 1.07226562 6.61181641 -0.59375 9.6015625 C-1.20581299 10.71974365 -1.81787598 11.8379248 -2.44848633 12.98999023 C-3.13216267 14.20175131 -3.81600444 15.41341907 -4.5 16.625 C-5.18744278 17.87026471 -5.87321532 19.11645283 -6.55737305 20.36352539 C-7.97799411 22.94881374 -9.40649287 25.5294972 -10.84130859 28.10693359 C-14.22071418 34.18697771 -17.51337137 40.31366723 -20.8125 46.4375 C-21.40417969 47.52562988 -21.99585937 48.61375977 -22.60546875 49.73486328 C-23.15460938 50.74919434 -23.70375 51.76352539 -24.26953125 52.80859375 C-24.75010986 53.69345459 -25.23068848 54.57831543 -25.72583008 55.48999023 C-26.9741497 57.94907703 -28.01812685 60.42435336 -29 63 C-29.66 63 -30.32 63 -31 63 C-29.31610369 57.1177033 -26.52603751 51.89512412 -23.73046875 46.484375 C-22.95344353 44.96786346 -22.95344353 44.96786346 -22.16072083 43.42071533 C-20.50695279 40.19508666 -18.84739677 36.97247844 -17.1875 33.75 C-15.5396141 30.54114966 -13.89291271 27.33169375 -12.24641418 24.12213135 C-11.22348677 22.12918059 -10.19953354 20.1367559 -9.17436218 18.1449585 C-6.07392916 12.11739527 -3.01759123 6.06946566 0 0 Z " fill="#535E78" transform="translate(145,332)"/>
<path d="M0 0 C1.32 0.66 2.64 1.32 4 2 C3.32626343 3.24873901 3.32626343 3.24873901 2.63891602 4.52270508 C0.97279031 7.61348587 -0.69120126 10.70539565 -2.35375977 13.7980957 C-3.07361053 15.13611973 -3.79430767 16.47368876 -4.51586914 17.81079102 C-5.55317744 19.73334522 -6.5874259 21.65751784 -7.62109375 23.58203125 C-8.55586548 25.31803589 -8.55586548 25.31803589 -9.50952148 27.08911133 C-11.06784894 29.9520461 -11.06784894 29.9520461 -12 33 C-12.66 33 -13.32 33 -14 33 C-14 33.66 -14 34.32 -14 35 C-14.66 35 -15.32 35 -16 35 C-15.3764449 30.55394145 -13.64539469 26.90076403 -11.62109375 22.94921875 C-11.28956802 22.29041214 -10.9580423 21.63160553 -10.61647034 20.95283508 C-9.56244158 18.86149094 -8.5001205 16.77448954 -7.4375 14.6875 C-6.71884842 13.26525306 -6.00074341 11.8427298 -5.28320312 10.41992188 C-3.52844785 6.9433833 -1.76624636 3.4707137 0 0 Z " fill="#2B3C64" transform="translate(162,299)"/>
<path d="M0 0 C3.36610811 2.24407208 3.78288384 3.27258198 5.1875 6.9375 C5.53167969 7.81277344 5.87585938 8.68804688 6.23046875 9.58984375 C7 12 7 12 7 15 C2.71 15 -1.58 15 -6 15 C-4.32819664 9.74576086 -2.62305301 4.87138415 0 0 Z " fill="#EDEDED" transform="translate(480,539)"/>
<path d="M0 0 C2.77986478 1.38993239 2.95923901 2.94737735 4.0625 5.8125 C4.40410156 6.68519531 4.74570312 7.55789063 5.09765625 8.45703125 C6 11 6 11 7 15 C2.71 15 -1.58 15 -6 15 C-4.87197851 8.23187108 -4.87197851 8.23187108 -3 4.6875 C-2.4740625 3.67236328 -2.4740625 3.67236328 -1.9375 2.63671875 C-1 1 -1 1 0 0 Z " fill="#EEEDED" transform="translate(312,539)"/>
<path d="M0 0 C1.32 0.66 2.64 1.32 4 2 C3.34 2.66 2.68 3.32 2 4 C0.64297902 7.34470876 -0.56094903 10.73215387 -1.78125 14.12890625 C-3 17 -3 17 -5 18 C-6.03802187 21.92141595 -6.4489073 25.98489604 -7 30 C-6.01 30.66 -5.02 31.32 -4 32 C-7.96 32 -11.92 32 -16 32 C-15.29488281 31.28585937 -14.58976562 30.57171875 -13.86328125 29.8359375 C-9.68348434 24.82018121 -7.61686312 18.61245571 -5.1875 12.625 C-4.68541016 11.41199219 -4.18332031 10.19898438 -3.66601562 8.94921875 C-2.43442286 5.9699372 -1.2128 2.98696952 0 0 Z " fill="#4F4C4D" transform="translate(309,537)"/>
<path d="M0 0 C5 5 5 5 6 7 C28.77 7 51.54 7 75 7 C75.33 6.34 75.66 5.68 76 5 C76.495 6.485 76.495 6.485 77 8 C41.855 8.495 41.855 8.495 6 9 C5.67 9.66 5.34 10.32 5 11 C3.69084721 12.03145371 2.35917857 13.03542166 1 14 C1.309375 12.205625 1.309375 12.205625 1.625 10.375 C2.13581838 6.4423982 1.56734717 3.6878757 0 0 Z " fill="#DFDFE0" transform="translate(296,184)"/>
<path d="M0 0 C0.98613281 0.00322266 1.97226563 0.00644531 2.98828125 0.00976562 C4.02082031 0.01814453 5.05335938 0.02652344 6.1171875 0.03515625 C7.67759766 0.04192383 7.67759766 0.04192383 9.26953125 0.04882812 C11.84377437 0.06063658 14.41798803 0.0785724 16.9921875 0.09765625 C16.9921875 4.05765625 16.9921875 8.01765625 16.9921875 12.09765625 C16.3321875 12.09765625 15.6721875 12.09765625 14.9921875 12.09765625 C14.651875 10.67453125 14.651875 10.67453125 14.3046875 9.22265625 C13.31012328 5.92636064 13.31012328 5.92636064 10.4921875 4.78515625 C9.6671875 4.55828125 8.8421875 4.33140625 7.9921875 4.09765625 C7.3321875 3.76765625 6.6721875 3.43765625 5.9921875 3.09765625 C4.11355875 3.18509993 2.23763569 3.33941167 0.3671875 3.53515625 C-1.13714844 3.68791016 -1.13714844 3.68791016 -2.671875 3.84375 C-3.82816406 3.96943359 -3.82816406 3.96943359 -5.0078125 4.09765625 C-5.0078125 3.43765625 -5.0078125 2.77765625 -5.0078125 2.09765625 C-5.6678125 1.76765625 -6.3278125 1.43765625 -7.0078125 1.09765625 C-4.50284246 -0.15482877 -2.79927976 -0.01608781 0 0 Z " fill="#4A4748" transform="translate(187.0078125,528.90234375)"/>
<path d="M0 0 C3.44966013 1.14988671 3.5583004 1.48993983 5.10058594 4.57006836 C5.48398132 5.32432602 5.86737671 6.07858368 6.26239014 6.85569763 C6.86727264 8.08534996 6.86727264 8.08534996 7.484375 9.33984375 C7.90422668 10.17713516 8.32407837 11.01442657 8.75665283 11.87709045 C9.64226112 13.64928719 10.52289068 15.42397928 11.39892578 17.20092773 C12.74595857 19.92931418 14.11192523 22.64758548 15.48046875 25.36523438 C16.33708597 27.08536604 17.19259292 28.80605117 18.046875 30.52734375 C18.45822693 31.34508774 18.86957886 32.16283173 19.293396 33.00535583 C19.84957611 34.14147057 19.84957611 34.14147057 20.41699219 35.30053711 C20.74769714 35.9681456 21.0784021 36.63575409 21.41912842 37.32359314 C21.61081604 37.8768074 21.80250366 38.43002167 22 39 C21.67 39.66 21.34 40.32 21 41 C17.98039597 35.67756664 14.98390551 30.34252575 12 25 C11.20601807 23.58001709 11.20601807 23.58001709 10.39599609 22.13134766 C8.73579701 19.1540865 7.08551598 16.17151939 5.4375 13.1875 C4.90092773 12.2269873 4.36435547 11.26647461 3.81152344 10.27685547 C3.31555664 9.37467285 2.81958984 8.47249023 2.30859375 7.54296875 C1.86314209 6.73883545 1.41769043 5.93470215 0.95874023 5.10620117 C0 3 0 3 0 0 Z " fill="#626A80" transform="translate(462,354)"/>
<path d="M0 0 C0.66 0 1.32 0 2 0 C2 4.29 2 8.58 2 13 C1.34 13 0.68 13 0 13 C-0.19335938 12.35546875 -0.38671875 11.7109375 -0.5859375 11.046875 C-1.88708247 8.65648799 -1.88708247 8.65648799 -5.0390625 8.390625 C-6.81410156 8.32101562 -6.81410156 8.32101562 -8.625 8.25 C-11.780625 8.12625 -11.780625 8.12625 -15 8 C-15 13.28 -15 18.56 -15 24 C-15.33 24 -15.66 24 -16 24 C-16 17.73 -16 11.46 -16 5 C-12.41927083 4.86979167 -8.83854167 4.73958333 -5.2578125 4.609375 C-1.90811895 4.37444944 -1.90811895 4.37444944 -0.5546875 1.953125 C-0.37164062 1.30859375 -0.18859375 0.6640625 0 0 Z " fill="#747273" transform="translate(158,542)"/>
<path d="M0 0 C3.49059498 3.32437618 6.03941514 6.19707569 7 11 C7.495 11.99 7.495 11.99 8 13 C-7.51 13 -23.02 13 -39 13 C-39 12.67 -39 12.34 -39 12 C-24.81 12 -10.62 12 4 12 C2.68 8.7 1.36 5.4 0 2 C0 1.34 0 0.68 0 0 Z " fill="#DEDEDE" transform="translate(408,390)"/>
<path d="M0 0 C0 0.99 0 1.98 0 3 C13.86 3.33 27.72 3.66 42 4 C42 4.33 42 4.66 42 5 C26.16 5 10.32 5 -6 5 C-6 4.34 -6 3.68 -6 3 C-4.02 2.01 -2.04 1.02 0 0 Z " fill="#504E4E" transform="translate(263,482)"/>
<path d="M0 0 C0.66 0 1.32 0 2 0 C3.3726682 1.97321053 4.70427617 3.97543152 6 6 C9.00617269 9.00617269 11.82381598 8.59585316 16 9 C16 9.33 16 9.66 16 10 C14.58456585 10.19658808 13.16755969 10.38187546 11.75 10.5625 C10.96109375 10.66691406 10.1721875 10.77132812 9.359375 10.87890625 C6.99467126 11.00027349 5.2488963 10.69633257 3 10 C3 10.66 3 11.32 3 12 C2.34 12 1.68 12 1 12 C0.67 8.04 0.34 4.08 0 0 Z " fill="#585556" transform="translate(100,558)"/>
<path d="M0 0 C4.29 0 8.58 0 13 0 C11.68 0.99 10.36 1.98 9 3 C7.89716199 5.85388372 7.82002298 8.72520211 7.68359375 11.765625 C7.64169922 12.65507813 7.59980469 13.54453125 7.55664062 14.4609375 C7.51732422 15.38132812 7.47800781 16.30171875 7.4375 17.25 C7.37272461 18.65378906 7.37272461 18.65378906 7.30664062 20.0859375 C7.2008195 22.39048641 7.09873443 24.69513839 7 27 C6.67 27 6.34 27 6 27 C5.99589111 26.32420898 5.99178223 25.64841797 5.98754883 24.95214844 C5.95461055 21.883882 5.8839674 18.81760074 5.8125 15.75 C5.80669922 14.68652344 5.80089844 13.62304688 5.79492188 12.52734375 C5.75141602 10.99013672 5.75141602 10.99013672 5.70703125 9.421875 C5.6913208 8.47924805 5.67561035 7.53662109 5.65942383 6.56542969 C5.07905477 3.24219605 5.07905477 3.24219605 0 0 Z " fill="#3E3B3C" transform="translate(238,530)"/>
<path d="M0 0 C1.78772854 3.02017776 2.17889506 4.69135769 1.5 8.125 C1.335 9.40375 1.17 10.6825 1 12 C1.66 12.66 2.32 13.32 3 14 C-0.63 14 -4.26 14 -8 14 C-7.4225 13.360625 -6.845 12.72125 -6.25 12.0625 C-3.47081977 8.2797269 -1.77138389 4.32481492 0 0 Z " fill="#585556" transform="translate(470,555)"/>
<path d="M0 0 C1.32 0.99 2.64 1.98 4 3 C4.99 2.01 5.98 1.02 7 0 C6.34 2.97 5.68 5.94 5 9 C-5.56 9 -16.12 9 -27 9 C-27 8.67 -27 8.34 -27 8 C-17.43 7.67 -7.86 7.34 2 7 C1.34 4.69 0.68 2.38 0 0 Z " fill="#E4E3E4" transform="translate(259,393)"/>
<path d="M0 0 C1.32 0.66 2.64 1.32 4 2 C1.33333333 7.33333333 -1.33333333 12.66666667 -4 18 C-4.99 18 -5.98 18 -7 18 C-5.06375702 11.79522136 -2.74390859 5.89174281 0 0 Z " fill="#646262" transform="translate(478,536)"/>
<path d="M0 0 C1.5 1.375 1.5 1.375 3 3 C3 3.66 3 4.32 3 5 C3.99 4.67 4.98 4.34 6 4 C5.979375 4.78375 5.95875 5.5675 5.9375 6.375 C5.81315937 8.98114961 5.81315937 8.98114961 7 11 C-2.57 11 -12.14 11 -22 11 C-22 10.67 -22 10.34 -22 10 C-14.08 9.67 -6.16 9.34 2 9 C1.39144973 5.95724864 0.77610498 2.99354776 0 0 Z " fill="#C2C1C1" transform="translate(334,392)"/>
<path d="M0 0 C1.32 0.66 2.64 1.32 4 2 C3.34 2.66 2.68 3.32 2 4 C0.7193025 7.34985162 -0.43293892 10.73313946 -1.5859375 14.12890625 C-3 17 -3 17 -5.1640625 17.90234375 C-5.76992188 17.93457031 -6.37578125 17.96679688 -7 18 C-5.06375702 11.79522136 -2.74390859 5.89174281 0 0 Z " fill="#666465" transform="translate(309,537)"/>
<path d="M0 0 C0.99 0.33 1.98 0.66 3 1 C2 9.5 2 9.5 0 13 C-2.625 14.3125 -2.625 14.3125 -5 15 C-1.92482916 4.44191344 -1.92482916 4.44191344 0 0 Z " fill="#4C4A4B" transform="translate(387,441)"/>
<path d="M0 0 C2.53115191 3.16393989 4.40901101 6.45648516 6.25 10.0625 C7.06210937 11.62677734 7.06210937 11.62677734 7.890625 13.22265625 C9 16 9 16 8 19 C5.62878846 15.97170574 3.6441064 12.84686763 1.75 9.5 C1.20859375 8.5615625 0.6671875 7.623125 0.109375 6.65625 C-1.07819842 3.81276436 -1.13626589 2.80102755 0 0 Z " fill="#304065" transform="translate(454,336)"/>
<path d="M0 0 C2.36020967 2.1485844 3.71551468 4.11743365 5.04296875 7.01171875 C5.56987305 8.14770508 5.56987305 8.14770508 6.10742188 9.30664062 C6.46384766 10.09232422 6.82027344 10.87800781 7.1875 11.6875 C7.55552734 12.48478516 7.92355469 13.28207031 8.30273438 14.10351562 C9.2077297 16.06629769 10.10465652 18.03279639 11 20 C10.34 20.33 9.68 20.66 9 21 C7.29956587 17.88187059 5.61690705 14.75449747 3.9375 11.625 C3.45216797 10.73554688 2.96683594 9.84609375 2.46679688 8.9296875 C1.78520508 7.65351563 1.78520508 7.65351563 1.08984375 6.3515625 C0.45357056 5.17327881 0.45357056 5.17327881 -0.19555664 3.97119141 C-0.46102295 3.32069824 -0.72648926 2.67020508 -1 2 C-0.67 1.34 -0.34 0.68 0 0 Z " fill="#ABAEB6" transform="translate(368,165)"/>
<path d="M0 0 C1.11890625 -0.00257813 2.2378125 -0.00515625 3.390625 -0.0078125 C6.59607544 0.11891461 9.60244689 0.5241035 12.75 1.125 C11.43 1.455 10.11 1.785 8.75 2.125 C8.75 2.785 8.75 3.445 8.75 4.125 C7.75419922 3.99931641 7.75419922 3.99931641 6.73828125 3.87109375 C0.20279152 3.07074958 0.20279152 3.07074958 -6.25 4.125 C-6.25 3.465 -6.25 2.805 -6.25 2.125 C-6.91 1.795 -7.57 1.465 -8.25 1.125 C-5.45518141 -0.2724093 -3.11675981 -0.00711589 0 0 Z " fill="#5B5859" transform="translate(188.25,528.875)"/>
<path d="M0 0 C0.66 0 1.32 0 2 0 C3.3271261 3.9813783 3.06915913 7.85045227 3 12 C2.443125 11.278125 1.88625 10.55625 1.3125 9.8125 C-0.97909334 7.02542701 -3.41459857 4.51358472 -6 2 C-3 1 -3 1 0 2 C0 1.34 0 0.68 0 0 Z " fill="#4F4C4D" transform="translate(122,529)"/>
<path d="M0 0 C0.66 0 1.32 0 2 0 C1.34 3.3 0.68 6.6 0 10 C-3.63 10 -7.26 10 -11 10 C-11 9.67 -11 9.34 -11 9 C-9.02 8.67 -7.04 8.34 -5 8 C-5 7.34 -5 6.68 -5 6 C-3.68799596 4.64567325 -2.35368596 3.31266518 -1 2 C-0.67 1.34 -0.34 0.68 0 0 Z " fill="#4B4949" transform="translate(164,559)"/>
<path d="M0 0 C8.58 0 17.16 0 26 0 C26 0.66 26 1.32 26 2 C19.73 1.67 13.46 1.34 7 1 C7 1.66 7 2.32 7 3 C4.69 2.67 2.38 2.34 0 2 C0 1.34 0 0.68 0 0 Z " fill="#535051" transform="translate(256,426)"/>
<path d="M0 0 C0.66 1.32 1.32 2.64 2 4 C-1.49087093 8.0042343 -3.64951939 9.62671065 -9 10 C-9 9.34 -9 8.68 -9 8 C-10.32 7.67 -11.64 7.34 -13 7 C-12.07767578 6.90912109 -12.07767578 6.90912109 -11.13671875 6.81640625 C-10.32847656 6.73261719 -9.52023438 6.64882813 -8.6875 6.5625 C-7.88699219 6.48128906 -7.08648437 6.40007813 -6.26171875 6.31640625 C-3.83912821 6.04734307 -3.83912821 6.04734307 -1 5 C-0.67 3.35 -0.34 1.7 0 0 Z " fill="#5D5B5B" transform="translate(242,560)"/>
<path d="M0 0 C5.28 0.33 10.56 0.66 16 1 C16 1.66 16 2.32 16 3 C7.585 3.495 7.585 3.495 -1 4 C-0.67 2.68 -0.34 1.36 0 0 Z " fill="#3E3B3C" transform="translate(472,553)"/>
<path d="M0 0 C2.48020497 0.11341491 4.95844969 0.24014686 7.4375 0.375 C8.14455078 0.4059375 8.85160156 0.436875 9.58007812 0.46875 C11.39239188 0.57280629 13.19817988 0.77919892 15 1 C15.33 1.66 15.66 2.32 16 3 C10.72 3 5.44 3 0 3 C0 2.01 0 1.02 0 0 Z " fill="#3D3A3B" transform="translate(304,553)"/>
<path d="M0 0 C2.31 0 4.62 0 7 0 C7 2.64 7 5.28 7 8 C6.34 8 5.68 8 5 8 C4.731875 7.38125 4.46375 6.7625 4.1875 6.125 C3.04443152 3.7004767 3.04443152 3.7004767 0 2 C0 1.34 0 0.68 0 0 Z " fill="#4F4D4E" transform="translate(156,530)"/>
<path d="M0 0 C1.32 0.66 2.64 1.32 4 2 C2.68 4.64 1.36 7.28 0 10 C-0.99 10 -1.98 10 -3 10 C-3.33 9.34 -3.66 8.68 -4 8 C-3.22265625 6.0546875 -3.22265625 6.0546875 -2.0625 3.875 C-1.49208984 2.78832031 -1.49208984 2.78832031 -0.91015625 1.6796875 C-0.60980469 1.12539063 -0.30945313 0.57109375 0 0 Z " fill="#334368" transform="translate(162,299)"/>
<path d="M0 0 C2.69195459 4.03793188 3.91495658 8.29814518 5 13 C2.49962266 10.82575883 1.56371414 9.26954202 1 6 C-1.475 7.485 -1.475 7.485 -4 9 C-2.80100302 5.9168649 -1.52299523 2.93720508 0 0 Z " fill="#D3D4D8" transform="translate(188,259)"/>
<path d="M0 0 C3.49059498 3.32437618 6.03941514 6.19707569 7 11 C7.33 11.66 7.66 12.32 8 13 C6.35 13 4.7 13 3 13 C2.87625 11.96875 2.7525 10.9375 2.625 9.875 C2.06110186 6.37883154 1.21317941 3.31602373 0 0 Z " fill="#D6D5D5" transform="translate(408,390)"/>
<path d="M0 0 C0.33 0 0.66 0 1 0 C0.67 2.97 0.34 5.94 0 9 C-0.66 9 -1.32 9 -2 9 C-2 9.66 -2 10.32 -2 11 C-2.66 11 -3.32 11 -4 11 C-3.39301257 6.87248551 -1.96189209 3.6678852 0 0 Z " fill="#354365" transform="translate(150,323)"/>
<path d="M0 0 C0.33 0.99 0.66 1.98 1 3 C2.32 3.66 3.64 4.32 5 5 C1.37 5 -2.26 5 -6 5 C-5.195625 4.360625 -4.39125 3.72125 -3.5625 3.0625 C-1.7249496 1.59396498 -1.7249496 1.59396498 0 0 Z " fill="#434041" transform="translate(468,564)"/>
<path d="M0 0 C0.66 0.33 1.32 0.66 2 1 C0.25 4.875 0.25 4.875 -2 6 C-3.99960012 6.039992 -6.00047242 6.04346799 -8 6 C-7 3 -7 3 -3.5625 1.25 C-2.386875 0.8375 -1.21125 0.425 0 0 Z " fill="#575556" transform="translate(363,563)"/>
<path d="M0 0 C0.99 0 1.98 0 3 0 C2.01 2.97 1.02 5.94 0 9 C-0.99 9 -1.98 9 -3 9 C-2.01 6.03 -1.02 3.06 0 0 Z " fill="#585657" transform="translate(474,545)"/>
<path d="M0 0 C0.99 0 1.98 0 3 0 C2.34 2.64 1.68 5.28 1 8 C-0.32 8.33 -1.64 8.66 -3 9 C-2.01 6.03 -1.02 3.06 0 0 Z " fill="#5C5A5B" transform="translate(305,546)"/>
<path d="M0 0 C1.32 0.99 2.64 1.98 4 3 C4.99 2.01 5.98 1.02 7 0 C6.34 2.97 5.68 5.94 5 9 C4.01 9 3.02 9 2 9 C1.855625 8.2575 1.71125 7.515 1.5625 6.75 C1.09812508 4.47972261 0.58136431 2.24240521 0 0 Z " fill="#D5D4D4" transform="translate(259,393)"/>
<path d="M0 0 C1.5 1.375 1.5 1.375 3 3 C3 3.66 3 4.32 3 5 C2.38125 5.04125 1.7625 5.0825 1.125 5.125 C0.42375 5.41375 -0.2775 5.7025 -1 6 C-2.15835673 8.97503122 -2.15835673 8.97503122 -3 12 C-3.99 12.495 -3.99 12.495 -5 13 C-3.58192622 8.52761347 -1.88695626 4.28853694 0 0 Z " fill="#DBDCDE" transform="translate(373,193)"/>
<path d="M0 0 C3 1 3 1 4.75 3.8125 C6.05483179 7.13982105 6.02866653 7.79584277 5 11 C4.16151196 9.54462432 3.32936066 8.08559627 2.5 6.625 C1.80390625 5.40683594 1.80390625 5.40683594 1.09375 4.1640625 C0 2 0 2 0 0 Z " fill="#D2D2D4" transform="translate(314,60)"/>
<path d="M0 0 C0.66 0 1.32 0 2 0 C1.34 3.3 0.68 6.6 0 10 C-0.66 9.01 -1.32 8.02 -2 7 C-2.66 6.67 -3.32 6.34 -4 6 C-2.7260411 3.96166576 -1.38938077 1.96147874 0 0 Z " fill="#5E5B5C" transform="translate(307,471)"/>
<path d="M0 0 C3 1 3 1 4.1875 2.75 C5.10819096 5.29960574 5.14948718 7.30923081 5 10 C0 3.40909091 0 3.40909091 0 0 Z " fill="#42506F" transform="translate(462,354)"/>
<path d="M0 0 C1.1875 1.625 1.1875 1.625 2 4 C0.625 7.25 0.625 7.25 -1 10 C-2.1875 8.375 -2.1875 8.375 -3 6 C-1.625 2.75 -1.625 2.75 0 0 Z " fill="#445171" transform="translate(145,332)"/>
<path d="M0 0 C0.99 0.99 1.98 1.98 3 3 C2.67 3.66 2.34 4.32 2 5 C1.01 5 0.02 5 -1 5 C-1.66 6.65 -2.32 8.3 -3 10 C-3.33 9.34 -3.66 8.68 -4 8 C-3.22265625 6.0546875 -3.22265625 6.0546875 -2.0625 3.875 C-1.49208984 2.78832031 -1.49208984 2.78832031 -0.91015625 1.6796875 C-0.60980469 1.12539063 -0.30945313 0.57109375 0 0 Z " fill="#D5D6DA" transform="translate(411,263)"/>
<path d="M0 0 C-0.33 0.99 -0.66 1.98 -1 3 C-4.3 2.67 -7.6 2.34 -11 2 C-6.78370866 -0.10814567 -4.60209225 -0.17700355 0 0 Z " fill="#4B4849" transform="translate(360,530)"/>
<path d="M0 0 C2.83374881 3.20336822 3.5205537 5.78087253 4 10 C1.28312788 7.65361044 0.05484124 5.42823404 -1 2 C-0.67 1.34 -0.34 0.68 0 0 Z " fill="#CACBCD" transform="translate(320,69)"/>
<path d="M0 0 C0.33 0.99 0.66 1.98 1 3 C-0.3125 5.1875 -0.3125 5.1875 -2 7 C-2.66 7 -3.32 7 -4 7 C-3.6875 4.625 -3.6875 4.625 -3 2 C-2.01 1.34 -1.02 0.68 0 0 Z " fill="#243660" transform="translate(160,307)"/>
<path d="M0 0 C1.98 0.99 3.96 1.98 6 3 C6 3.33 6 3.66 6 4 C3.36 4 0.72 4 -2 4 C-1.34 2.68 -0.68 1.36 0 0 Z " fill="#434041" transform="translate(299,565)"/>
</svg>
