<?xml version="1.0" encoding="UTF-8"?>
<svg version="1.1" xmlns="http://www.w3.org/2000/svg" width="4096" height="1358">
<path d="M0 0 C47.80292538 -0.05142577 95.60585281 -0.09917824 143.40879822 -0.12702942 C144.11784564 -0.12744359 144.82689307 -0.12785776 145.55742679 -0.12828448 C160.9720187 -0.13726607 176.38661091 -0.14557621 191.80120355 -0.15319599 C199.36201663 -0.15693755 206.92282962 -0.16082727 214.48364258 -0.16479492 C215.61214789 -0.16538334 215.61214789 -0.16538334 216.76345128 -0.16598364 C241.08869495 -0.1787364 265.41391753 -0.20124677 289.73914845 -0.22889166 C314.76513161 -0.25728085 339.79110312 -0.27567742 364.81710211 -0.28174497 C368.36297144 -0.28260926 371.90884073 -0.28358617 375.45471001 -0.28463173 C376.15249404 -0.284834 376.85027807 -0.28503627 377.56920707 -0.28524467 C388.73969602 -0.28877094 399.91014864 -0.30263358 411.08062286 -0.3204961 C422.34821173 -0.33828844 433.61576585 -0.34463115 444.88337166 -0.34050413 C450.97317986 -0.33859687 457.06288271 -0.34136375 463.15267181 -0.35761642 C560.95860354 -0.60529146 654.02407901 22.33913116 729 88 C730.41539062 89.22783203 730.41539062 89.22783203 731.859375 90.48046875 C736.26226146 94.35634305 740.32400143 98.30210029 744.1015625 102.7890625 C745.97694941 104.97315508 747.92608694 107.07481863 749.89648438 109.1730957 C765.17581552 125.51407693 777.52018066 144.28356048 788 164 C788.4937915 164.91386475 788.4937915 164.91386475 788.99755859 165.84619141 C827.02955068 236.63897548 830.28881158 321.75796643 807.87109375 397.8828125 C790.09735481 456.62069937 757.41767185 517.30316604 705 552 C705.92296875 552.01458252 706.8459375 552.02916504 707.796875 552.04418945 C767.59612376 553.08934678 824.80188366 562.05853803 880 586 C881.23484131 586.53343018 881.23484131 586.53343018 882.49462891 587.07763672 C912.05130722 600.00024101 938.99072179 618.5818494 963 640 C963.57943359 640.51626953 964.15886719 641.03253906 964.75585938 641.56445312 C970.59108981 646.79090258 976.33190252 652.02660157 981.359375 658.0546875 C982.49849031 659.40535279 983.6793526 660.72146123 984.890625 662.0078125 C997.84591545 675.77880642 1008.74910564 691.54731265 1018 708 C1018.48033691 708.85368164 1018.96067383 709.70736328 1019.45556641 710.58691406 C1037.74870846 743.50862076 1048.4243299 778.11215119 1055 815 C1055.1964209 816.10085938 1055.3928418 817.20171875 1055.59521484 818.3359375 C1060.64936614 848.43836589 1060.23793283 881.96437334 1055 912 C1054.75056641 913.46228027 1054.75056641 913.46228027 1054.49609375 914.95410156 C1050.22801237 939.16360761 1042.97884596 962.55301753 1033 985 C1032.64856934 985.80308594 1032.29713867 986.60617187 1031.93505859 987.43359375 C1023.20803975 1007.23705709 1011.96008745 1025.69206892 999 1043 C998.53352051 1043.62342285 998.06704102 1044.2468457 997.58642578 1044.88916016 C991.9256452 1052.39261695 985.91774151 1059.4670545 979.4921875 1066.32421875 C977.39802458 1068.57265386 975.37259338 1070.85390589 973.375 1073.1875 C967.12015394 1080.38281217 960.20438198 1086.77791926 953 1093 C952.06063599 1093.81537231 952.06063599 1093.81537231 951.10229492 1094.6472168 C922.93928993 1118.92236229 891.38726552 1135.55102266 856.3125 1147.375 C854.0459758 1148.14853053 851.77978895 1148.92305015 849.51391602 1149.69848633 C843.55603785 1151.73403693 837.59352521 1153.75561277 831.62927246 1155.7723999 C825.63943359 1157.79846074 819.65194812 1159.83145663 813.6640625 1161.86328125 C806.52975834 1164.28349681 799.39496487 1166.70224054 792.25854492 1169.11621094 C778.68661168 1173.70991768 765.1419824 1178.37227346 751.625 1183.125 C730.99012946 1190.38012223 710.25992424 1197.34909292 689.53165054 1204.33147049 C669.96199959 1210.92393561 650.40581175 1217.54150958 630.92822266 1224.40234375 C612.05658034 1231.0435704 593.09213247 1237.40836613 574.13404083 1243.79734039 C555.954343 1249.92440293 537.78255146 1256.06365431 519.6875 1262.4375 C499.36587079 1269.59540501 478.94497503 1276.45529611 458.5272789 1283.3329277 C439.82044049 1289.6346613 421.11817356 1295.93971218 402.5 1302.5 C382.24852033 1309.63579853 361.89720474 1316.47191678 341.54898834 1323.32554245 C321.79201641 1329.98031548 302.04751844 1336.66092012 282.375 1343.5625 C280.68281483 1344.15504753 278.99059581 1344.74749841 277.29833984 1345.33984375 C269.63905171 1348.02130894 269.63905171 1348.02130894 261.98217773 1350.70965576 C257.86863303 1352.15613072 253.74904423 1353.58376731 249.625 1355 C248.68446777 1355.33330322 247.74393555 1355.66660645 246.77490234 1356.01000977 C245.9339502 1356.29545654 245.09299805 1356.58090332 244.2265625 1356.875 C243.52096191 1357.11992188 242.81536133 1357.36484375 242.08837891 1357.6171875 C239.26914577 1358.13397001 237.69654295 1358.03721315 235 1357 C233.3770061 1354.92262895 232.1502869 1353.0609355 230.8828125 1350.78125 C230.50917572 1350.14074707 230.13553894 1349.50024414 229.75057983 1348.84033203 C228.52687159 1346.73527208 227.32632172 1344.6179015 226.125 1342.5 C225.27324619 1341.02697464 224.41971182 1339.55497751 223.56445312 1338.08398438 C221.84014936 1335.11569245 220.12301185 1332.14344212 218.41113281 1329.16796875 C215.18118195 1323.56722186 211.84522771 1318.03259814 208.5 1312.5 C203.24533457 1303.76861172 198.03644506 1295.01088529 192.84277344 1286.24316406 C186.4541452 1275.45883171 180.02336822 1264.70340543 173.5 1254 C166.56408802 1242.61970143 159.73763696 1231.17743206 152.9453125 1219.7109375 C148.15533015 1211.62536259 143.34388875 1203.55345731 138.5 1195.5 C133.24699938 1186.76635263 128.0353577 1178.00906821 122.84112549 1169.24041748 C116.32932433 1158.24797423 109.77251773 1147.2859533 103.125 1136.375 C96.60296597 1125.66852601 90.18585434 1114.9047918 83.82714844 1104.10058594 C80.14522415 1097.85253164 76.44956809 1091.61262031 72.75 1085.375 C72.34444885 1084.69119263 71.93889771 1084.00738525 71.52105713 1083.30285645 C65.56228967 1073.26122434 59.53726403 1063.26242446 53.45910645 1053.29266357 C47.3277804 1043.2325719 41.30122857 1033.11285053 35.30105591 1022.97409058 C28.92900494 1012.20997875 22.48050904 1001.4952929 15.95703125 990.82226562 C14.68729086 988.7415878 13.43971532 986.64719316 12.21660078 984.53876919 C10.76128111 982.10646205 9.3167874 980.1897144 7.46148169 977.98933417 C-3.74949536 963.91145215 -1.37957526 945.22333592 -1.22266193 928.24007904 C-1.18809424 923.28851928 -1.21207021 918.33717257 -1.22843683 913.38556677 C-1.24911154 904.71799153 -1.23284563 896.05110475 -1.19205475 887.38360977 C-1.13157046 874.49562343 -1.12870897 861.60806887 -1.13747464 848.71996647 C-1.15059831 827.03775275 -1.1172582 805.35584431 -1.05730057 783.67371941 C-0.99810017 762.21034153 -0.95953811 740.74709129 -0.94877243 719.28363228 C-0.94842831 718.61635144 -0.94808419 717.9490706 -0.94772965 717.26156912 C-0.94459752 711.16672818 -0.94172063 705.07188715 -0.9391499 698.97704595 C-0.93275704 683.82790641 -0.92316449 668.67876981 -0.91139793 653.52963352 C-0.91086476 652.8398774 -0.91033158 652.15012128 -0.90978225 651.43946346 C-0.88358525 617.91035997 -0.82051716 584.38133944 -0.75439453 550.85229492 C-0.73147733 539.2211717 -0.70872342 527.59004819 -0.68664551 515.95892334 C-0.68527602 515.23753148 -0.68390652 514.51613963 -0.68249553 513.77288741 C-0.61902064 480.21897496 -0.58178784 446.66504825 -0.55129756 413.1110915 C-0.54931692 410.93196693 -0.547325 408.75284238 -0.54533076 406.57371784 C-0.53213261 392.13219419 -0.51938618 377.69067017 -0.50694217 363.24914586 C-0.48217902 334.51563086 -0.45476228 305.78211858 -0.4255217 277.04860779 C-0.4241293 275.68033269 -0.42273875 274.31205758 -0.42135007 272.94378248 C-0.33107402 184.01633137 -0.17705821 95.0889747 0 0 Z " fill="#77BCE7" transform="translate(0,0)"/>
<path d="M0 0 C3.63070026 -0.01543147 7.26140576 -0.02601255 10.89212522 -0.03577068 C12.5648649 -0.04140719 14.23759927 -0.04915093 15.91031739 -0.05934516 C69.10737611 -0.37892871 121.90033457 11.92946841 170.561281 33.03551832 C171.7961223 33.56894849 171.7961223 33.56894849 173.0559099 34.11315504 C202.61258822 47.03575933 229.55200278 65.61736772 253.561281 87.03551832 C254.14071459 87.55178785 254.72014818 88.06805738 255.31714037 88.59997144 C261.1523708 93.8264209 266.89318352 99.06211988 271.920656 105.09020582 C273.0597713 106.44087111 274.24063359 107.75697955 275.451906 109.04333082 C288.40719645 122.81432474 299.31038663 138.58283097 308.561281 155.03551832 C309.04161791 155.88919996 309.52195482 156.7428816 310.0168474 157.62243238 C328.30998945 190.54413908 338.98561089 225.14766951 345.561281 262.03551832 C345.85591234 263.68680738 345.85591234 263.68680738 346.15649584 265.37145582 C351.21064714 295.47388421 350.79921383 328.99989165 345.561281 359.03551832 C345.3118474 360.49779859 345.3118474 360.49779859 345.05737475 361.98961988 C340.78929337 386.19912593 333.54012695 409.58853585 323.561281 432.03551832 C323.20985033 432.83860426 322.85841967 433.64169019 322.49633959 434.46911207 C313.76932075 454.27257541 302.52136844 472.72758724 289.561281 490.03551832 C289.0948015 490.65894117 288.62832201 491.28236402 288.14770678 491.92467847 C282.48692619 499.42813527 276.47902251 506.50257282 270.0534685 513.35973707 C267.95930558 515.60817218 265.93387438 517.8894242 263.936281 520.22301832 C257.68143494 527.41833049 250.76566297 533.81343758 243.561281 540.03551832 C242.93503832 540.57909986 242.30879564 541.1226814 241.66357592 541.68273512 C213.50057093 565.95788061 181.94854652 582.58654098 146.873781 594.41051832 C144.6072568 595.18404885 142.34106995 595.95856847 140.07519701 596.73400465 C134.11731885 598.76955525 128.1548062 600.79113108 122.19055346 602.80791822 C116.20071458 604.83397905 110.21322911 606.86697495 104.2253435 608.89879957 C97.09103933 611.31901513 89.95624586 613.73775885 82.81982592 616.15172926 C69.24789267 620.745436 55.7032634 625.40779177 42.186281 630.16051832 C21.55141046 637.41564054 0.82120524 644.38461124 -19.90706846 651.36698881 C-39.47671942 657.95945393 -59.03290725 664.5770279 -78.51049635 671.43786207 C-97.38213866 678.07908872 -116.34658653 684.44388444 -135.30467817 690.83285871 C-153.48437601 696.95992125 -171.65616754 703.09917263 -189.751219 709.47301832 C-210.07284821 716.63092333 -230.49374397 723.49081443 -250.9114401 730.36844602 C-269.61827852 736.67017962 -288.32054545 742.9752305 -306.938719 749.53551832 C-327.19019868 756.67131684 -347.54151427 763.5074351 -367.88973066 770.36106077 C-387.64665077 777.01581635 -407.39232816 783.69333454 -427.063719 790.59801832 C-427.91296949 790.89596296 -428.76221998 791.1939076 -429.63720533 791.50088087 C-431.27541274 792.07563397 -432.91361679 792.65039661 -434.55181715 793.22516981 C-435.32144789 793.49516294 -436.09107862 793.76515607 -436.8840315 794.04333082 C-437.62288587 794.30256834 -438.36174024 794.56180586 -439.12298414 794.82889906 C-446.04667292 797.25490407 -452.98476946 799.63506167 -459.938719 801.97301832 C-460.89600904 802.29794263 -461.85329908 802.62286695 -462.83959791 802.95763746 C-463.68699537 803.23986158 -464.53439283 803.5220857 -465.407469 803.81286207 C-466.12354322 804.05254713 -466.83961744 804.29223219 -467.57739088 804.53918043 C-469.438719 805.03551832 -469.438719 805.03551832 -472.438719 805.03551832 C-472.438719 539.71551832 -472.438719 274.39551832 -472.438719 1.03551832 C-358.836219 0.78801832 -358.836219 0.78801832 -242.938719 0.53551832 C-219.07881666 0.48331129 -195.21891432 0.43110426 -170.63598463 0.37731519 C-141.36352369 0.31383863 -141.36352369 0.31383863 -127.63342115 0.28417554 C-118.10184516 0.26355347 -108.57026971 0.2426972 -99.03869459 0.22167554 C-88.01134537 0.19735583 -76.98399552 0.17334674 -65.95664483 0.14969963 C-60.33164191 0.13762808 -54.70663936 0.12543158 -49.08163759 0.11283365 C-47.00013628 0.1081924 -44.91863495 0.10355649 -42.83713362 0.09892622 C-41.82839808 0.09667456 -40.81966255 0.0944229 -39.78035927 0.092103 C-34.89077421 0.08141404 -30.00119105 0.07178903 -25.11159965 0.06450573 C-24.17712046 0.063113 -23.24264127 0.06172026 -22.27984452 0.06028533 C-20.42108063 0.05753254 -18.56231668 0.0548219 -16.70355266 0.05215484 C-11.13564806 0.04315775 -5.56785511 0.02499459 0 0 Z " fill="#007CC2" transform="translate(709.4387190043926,552.9644816815853)"/>
<path d="M0 0 C8.69291207 -0.29662406 17.38326925 -0.53278453 26.0801754 -0.67355824 C30.11964233 -0.74115893 34.15548871 -0.83265844 38.19287109 -0.98071289 C42.09655278 -1.12295319 45.99677672 -1.19988034 49.9028511 -1.23340416 C51.38558034 -1.25725837 52.86813892 -1.30385273 54.34937668 -1.37449074 C65.61367329 -1.88984372 65.61367329 -1.88984372 69.59200859 1.26078606 C72.98607536 4.79947282 75.4683771 8.82264565 78 13 C79.1754553 14.61135694 80.36516994 16.21264761 81.58203125 17.79296875 C82.66047597 19.25661891 83.7372924 20.72147018 84.8125 22.1875 C85.40015137 22.98647705 85.98780273 23.7854541 86.59326172 24.60864258 C91.18220766 30.85842592 95.71783249 37.14584947 100.24536133 43.44018555 C104.25453967 49.00087143 108.35062316 54.49064575 112.48095703 59.96166992 C116.22032229 64.92765008 119.87290645 69.95157248 123.5 75 C127.5892426 80.6897764 131.72106047 86.34127495 135.9375 91.9375 C145.52469435 104.66223502 154.94282327 117.50720308 164.24584961 130.44091797 C168.25492141 136.00131829 172.35079989 141.49087984 176.48095703 146.96166992 C180.22032229 151.92765008 183.87290645 156.95157248 187.5 162 C191.58924692 167.6897824 195.72128489 173.34110148 199.9375 178.9375 C212.14677446 195.15464538 223.98364021 211.59077324 235.56982422 228.25830078 C245.80455288 242.95777777 256.51003636 257.25360939 268 271 C269.8950978 269.1049022 269.24389441 265.79063069 269.31640625 263.265625 C269.3475779 262.20562286 269.3475779 262.20562286 269.37937927 261.12420654 C269.42284351 259.60419168 269.46385917 258.08410524 269.50268555 256.56396484 C269.55975478 254.35620098 269.62577372 252.14886943 269.69335938 249.94140625 C270.41912601 224.63314221 269.94637999 199.3067434 269.60798454 173.9957571 C269.1716064 141.15431395 268.87256058 108.31255937 268.82275391 75.46813965 C268.81695958 71.6623664 268.806632 67.85665261 268.79199219 64.05090332 C268.58350714 6.83298572 268.58350714 6.83298572 272 0 C299.06 0 326.12 0 354 0 C354 151.14 354 302.28 354 458 C334.2 458 314.4 458 294 458 C286.49955607 448.19172716 279.14054941 438.47938877 272.08984375 428.375 C267.11656557 421.29450887 261.93743632 414.36332228 256.78662109 407.41162109 C248.75861036 396.57523273 240.77282804 385.71109706 232.89208984 374.76708984 C226.66337597 366.12750396 220.33045986 357.5651506 214 349 C206.57940327 338.9598876 199.18803961 328.90202492 191.89428711 318.76928711 C187.9660112 313.31893063 183.99287964 307.90316826 180 302.5 C175.46248989 296.35983731 170.96033424 290.19645339 166.5 284 C162.0557948 277.82805519 157.577193 271.6830863 153.0625 265.5625 C152.48330811 264.77705811 151.90411621 263.99161621 151.30737305 263.18237305 C148.34155704 259.16365329 145.36932958 255.14980036 142.390625 251.140625 C136.4868344 243.18166661 130.68614054 235.17993782 125.11035156 226.98754883 C105.7093065 198.16199175 105.7093065 198.16199175 83 172 C82.67 265.39 82.34 358.78 82 455 C54.28 455 26.56 455 -2 455 C-2.04241025 423.73421951 -2.04241025 423.73421951 -2.05102539 411.08886719 C-2.05156422 410.30055118 -2.05210304 409.51223517 -2.0526582 408.7000308 C-2.10736024 326.08067236 -1.90154525 243.46241414 -1.61855791 160.84363177 C-1.58062382 149.76505269 -1.54467355 138.68646903 -1.51029928 127.60787835 C-1.46540023 113.138959 -1.41714863 98.67005697 -1.36322176 84.20116824 C-1.33684627 77.1076886 -1.31185261 70.01421138 -1.29090881 62.92071342 C-1.2714709 56.34446724 -1.24714437 49.76825182 -1.21950519 43.19203413 C-1.21021894 40.80345335 -1.20251686 38.41486577 -1.19658196 36.02627432 C-1.16568883 23.97788337 -1.05038687 12.00875379 0 0 Z " fill="#004A8D" transform="translate(2057,547)"/>
<path d="M0 0 C1.5778125 0.75410156 1.5778125 0.75410156 3.1875 1.5234375 C26.83012359 13.68058202 45.35704667 34.90037377 54 60 C64.32707278 93.3297839 62.28698637 127.80179719 46.125 158.875 C42.73327384 165.15823371 38.69062031 170.63228178 34 176 C33.48695313 176.63292969 32.97390625 177.26585937 32.4453125 177.91796875 C28.72182096 182.47673002 24.47382562 186.19523298 20 190 C18.32990458 191.47529424 16.66321084 192.95444858 15 194.4375 C14.236875 195.11683594 13.47375 195.79617188 12.6875 196.49609375 C12.130625 196.99238281 11.57375 197.48867188 11 198 C14.57588599 201.77008205 18.35079746 204.84998251 22.625 207.8125 C23.86990901 208.69124003 25.11469927 209.57014832 26.359375 210.44921875 C28.59596032 212.01870084 30.83623925 213.58260831 33.078125 215.14453125 C55.63965926 231.12036627 67.2350631 255.59322382 72.375 282.25 C76.36574648 314.21711358 69.70484256 346.92204944 50.67578125 373.2109375 C48.52740088 375.88797691 46.29651314 378.44968327 44 381 C43.32839844 381.81339844 42.65679688 382.62679688 41.96484375 383.46484375 C15.32129088 414.9888979 -28.76289228 429.1264064 -68.60546875 432.66796875 C-70.06996777 432.78311762 -71.53482285 432.89382774 -73 433 C-74.05501709 433.07661865 -74.05501709 433.07661865 -75.13134766 433.15478516 C-81.41586695 433.57771364 -87.70506177 433.79733199 -94 434 C-94.66286011 434.02191406 -95.32572021 434.04382813 -96.00866699 434.06640625 C-134.24338303 435.32107476 -172.57021584 435.69273313 -210.8125 434.5625 C-211.48933838 434.5429425 -212.16617676 434.52338501 -212.86352539 434.50323486 C-218.66998403 434.32788774 -224.43148891 434.07520164 -230.21147156 433.48716736 C-231.10906535 433.39620757 -232.00665915 433.30524778 -232.93145275 433.21153164 C-233.95538364 433.10682348 -233.95538364 433.10682348 -235 433 C-235.03034821 390.60151528 -235.050666 348.20303003 -235.06185675 305.80453604 C-235.06249799 303.38259915 -235.06315685 300.96066226 -235.06381607 298.53872538 C-235.08623613 214.83704239 -235.04533517 131.13781555 -234.5 47.4375 C-234.49402628 46.51728278 -234.48805257 45.59706556 -234.48189783 44.64896297 C-234.33737648 22.43251737 -234.17953851 0.2161916 -234 -22 C-231.47750287 -22.16081382 -228.95495554 -22.32075993 -226.43237305 -22.48022461 C-225.72721306 -22.52526878 -225.02205307 -22.57031296 -224.2955246 -22.61672211 C-152.86411204 -27.11934457 -66.13173293 -31.68249858 0 0 Z M-149 53 C-149.33 90.95 -149.66 128.9 -150 168 C-115.25237045 168.44281513 -115.25237045 168.44281513 -81 165 C-80.20577637 164.86609863 -79.41155273 164.73219727 -78.59326172 164.59423828 C-63.25627856 161.81396777 -46.5481807 154.55269556 -36.6875 142.0625 C-27.09086768 128.19775221 -24.9951189 112.17937343 -27.50390625 95.6875 C-28.16723701 93.0190151 -28.97859534 90.55144403 -30 88 C-30.32871094 87.15308594 -30.65742187 86.30617188 -30.99609375 85.43359375 C-36.50080956 72.95750773 -47.24961118 65.44032381 -59.65625 60.5625 C-88.11219758 50.63592277 -119.62003805 53 -149 53 Z M-149 239 C-149.40298555 244.42281502 -149.4391056 249.87644239 -149.5625 255.3125 C-149.58367889 256.18195251 -149.60485779 257.05140503 -149.62667847 257.94720459 C-150.40459936 290.9526984 -150.08535296 323.98795188 -150 357 C-147.50056796 357.48229332 -145.00051757 357.96089426 -142.5 358.4375 C-141.45585938 358.63956055 -141.45585938 358.63956055 -140.390625 358.84570312 C-130.70894319 360.68342976 -121.22488765 361.21524164 -111.37670898 361.24023438 C-109.09906128 361.24984572 -106.82235513 361.28089299 -104.54492188 361.3125 C-79.33730757 361.49447919 -53.20768299 355.1240093 -34 338 C-33.31550781 337.39671875 -32.63101562 336.7934375 -31.92578125 336.171875 C-21.8181279 326.69955986 -14.70415849 313.84674898 -13.796875 299.87109375 C-13.58152328 284.09658039 -17.64045317 270.83880299 -28.62109375 259.19140625 C-42.83114702 246.10135718 -59.30704977 240.90545176 -78 238 C-78.7326709 237.88140625 -79.4653418 237.7628125 -80.22021484 237.640625 C-92.75359326 235.71461761 -105.41318656 235.7950815 -118.0625 235.75 C-118.91470123 235.74464233 -119.76690247 235.73928467 -120.64492798 235.73376465 C-135.72569464 234.63606247 -135.72569464 234.63606247 -149 239 Z " fill="#004A8D" transform="translate(1520,569)"/>
<path d="M0 0 C33.67752031 -0.17049917 67.32977827 0.31565932 101 1 C102.77965907 5.65485506 104.44783782 10.27311345 105.84765625 15.05859375 C112.49367422 37.28169688 120.45607283 58.95940189 128.54364014 80.69294739 C132.38874677 91.0282298 136.17300213 101.38512521 139.9375 111.75 C140.25990662 112.63703613 140.58231323 113.52407227 140.91448975 114.43798828 C153.90562609 150.19042111 166.66516947 186.02708633 179.45043945 221.85351562 C183.61681659 233.52834146 187.78719778 245.20169356 191.96875 256.87109375 C203.90904609 290.20407774 215.69039574 323.59067712 227.31664276 357.03451538 C228.01133874 359.03261268 228.70635725 361.03059757 229.40142822 363.02856445 C232.23980378 371.188762 235.07096104 379.3514231 237.89382935 387.51699829 C238.77679477 390.07085606 239.66195365 392.62391837 240.54830933 395.17660522 C245.23975794 408.69573258 249.78358985 422.25029914 254.046875 435.91015625 C254.4302301 437.13286728 254.81358521 438.35557831 255.20855713 439.61534119 C255.56093445 440.75685135 255.91331177 441.89836151 256.27636719 443.07446289 C256.58612488 444.07619034 256.89588257 445.07791779 257.21502686 446.11000061 C258.00727825 449.02679599 258.5031081 452.01864862 259 455 C228.31 455 197.62 455 166 455 C157.4375 428.875 157.4375 428.875 154.54760742 420.05273438 C149.83485136 405.66890197 145.10888153 391.28956509 140.35977364 376.91769028 C138.76601707 372.09315212 137.17454338 367.26786027 135.58302593 362.44258308 C134.03269534 357.74323174 132.47840702 353.04521171 130.92143536 348.34805679 C129.94909952 345.41155892 128.98044357 342.47385697 128.01279259 339.53581238 C127.56030282 338.16454892 127.10625029 336.79380004 126.65055275 335.42359924 C126.02760129 333.54986507 125.41061171 331.67415189 124.79394531 329.79833984 C124.44567688 328.74544769 124.09740845 327.69255554 123.73858643 326.60775757 C123 324 123 324 123 321 C104.55444089 321.01380023 86.10915581 321.05599923 67.66374588 321.13209057 C59.09936927 321.16675696 50.53515388 321.19209824 41.97070312 321.19555664 C34.50668065 321.19859426 27.0429452 321.21905723 19.57903361 321.26052457 C15.62615282 321.28187499 11.67368027 321.29444494 7.72074127 321.28615379 C4.00064613 321.27862621 0.28137901 321.29438207 -3.4385643 321.32806015 C-5.45594925 321.34024522 -7.47343597 321.32768658 -9.49081421 321.31443787 C-10.69112274 321.32972534 -11.89143127 321.34501282 -13.12811279 321.36076355 C-14.17158245 321.36352893 -15.21505211 321.36629431 -16.29014206 321.36914349 C-19.97215184 322.22631752 -20.96173155 323.90250253 -23 327 C-33.38388028 345.01388477 -37.99798683 366.47304458 -43.76708984 386.27685547 C-47.77943083 399.88742241 -52.35488037 413.31330513 -56.89553833 426.75453186 C-58.37646148 431.13963643 -59.84125927 435.52959385 -61.2890625 439.92578125 C-61.61640381 440.91852051 -61.94374512 441.91125977 -62.28100586 442.93408203 C-62.86711818 444.71436072 -63.45139218 446.49524615 -64.03344727 448.27685547 C-65.88878257 453.88878257 -65.88878257 453.88878257 -67 455 C-69.7388842 455.09516211 -72.45247941 455.12554594 -75.19165039 455.11352539 C-76.05011063 455.11367142 -76.90857086 455.11381744 -77.79304504 455.1139679 C-80.64460738 455.11326847 -83.49610525 455.1054747 -86.34765625 455.09765625 C-88.31920842 455.09579218 -90.29076105 455.09436822 -92.26231384 455.09336853 C-97.46226267 455.08954251 -102.66218375 455.07971152 -107.86212158 455.06866455 C-113.16393661 455.05845222 -118.4657561 455.05387129 -123.76757812 455.04882812 C-134.17839763 455.03808933 -144.58919651 455.02101191 -155 455 C-152.99090109 447.28343265 -150.65584522 439.73164724 -148.078125 432.1875 C-147.51390083 430.52416374 -147.51390083 430.52416374 -146.9382782 428.82722473 C-145.71232812 425.21695729 -144.48133194 421.60843509 -143.25 418 C-142.8186985 416.73266937 -142.38755782 415.46528399 -141.95657349 414.19784546 C-136.41205314 397.8929617 -130.79144881 381.61628336 -125.07849121 365.36962891 C-117.90739231 344.95123998 -111.03737021 324.43086829 -104.13184738 303.92160416 C-97.41231166 283.96576439 -90.67769114 264.01991744 -83.67529297 244.16113281 C-76.92840867 225.00487103 -70.4805795 205.74750762 -64 186.5 C-56.9932273 165.68968344 -49.98482593 144.88441753 -42.68032837 124.17623901 C-38.24198002 111.57966394 -33.93570149 98.94033382 -29.66796875 86.28515625 C-29.38371662 85.44236996 -29.09946449 84.59958366 -28.80659866 83.73125839 C-25.92514711 75.18609756 -23.04829479 66.63940376 -20.17905235 58.09013557 C-13.65352091 38.65153877 -6.99659336 19.27478417 0 0 Z M48 99 C45.11041114 106.40373112 42.71737139 113.95743748 40.30859375 121.52734375 C39.84612659 122.97563163 39.38349641 124.42386745 38.92071533 125.87205505 C37.68046545 129.75527351 36.44289076 133.63933912 35.20614243 137.52367401 C34.43646914 139.94073728 33.66627058 142.35763254 32.89590454 144.7744751 C30.01932806 153.79946329 27.14608037 162.82550599 24.27488422 171.85220718 C22.58254779 177.17173783 20.88710795 182.4902699 19.18945312 187.80810547 C17.07273041 194.43866825 14.96146758 201.07094402 12.85452271 207.70462036 C12.08194302 210.13444518 11.3076147 212.56371475 10.53146362 214.99240112 C9.45729445 218.35532138 8.38990407 221.72032076 7.32421875 225.0859375 C7.01381653 226.05260849 6.70341431 227.01927948 6.38360596 228.01524353 C4.51296866 233.95439546 3.08978844 239.86911671 2 246 C34.00564531 246.8567651 65.98349572 247.13163016 98 247 C95.54948709 235.19000876 92.58369239 223.72398218 88.875 212.25 C88.3646165 210.65080942 87.85453637 209.051522 87.34472656 207.45214844 C81.8963641 190.43340503 76.2042773 173.49243644 70.49560547 156.55957031 C69.76225074 154.37840463 69.02933661 152.19709076 68.296875 150.015625 C67.93808258 148.94942932 67.57929016 147.88323364 67.20962524 146.784729 C65.34608791 141.20155028 63.56239698 135.60491307 61.88476562 129.96289062 C61.53891418 128.80464783 61.19306274 127.64640503 60.83673096 126.45306396 C60.18850454 124.26392195 59.55083742 122.07161031 58.92645264 119.87554932 C56.82429182 112.76791716 54.10023469 106.21167605 50 100 C49.34 99.67 48.68 99.34 48 99 Z " fill="#004A8D" transform="translate(1759,547)"/>
<path d="M0 0 C86.46 0 172.92 0 262 0 C262 41.39750693 262 41.39750693 261.5 59.75 C261.41005575 63.18389981 261.32128619 66.61782991 261.23242188 70.05175781 C261.18812868 71.75775194 261.14381857 73.46374563 261.0994873 75.16973877 C261.06665649 76.43372498 261.03382568 77.69771118 261 79 C225.68376472 79.99274587 190.36776559 80.28559945 155.04038954 80.51740873 C147.37815802 80.56782924 139.71595697 80.6223424 132.05375528 80.67708123 C116.36919854 80.78904612 100.68461333 80.89624382 85 81 C85.02978156 81.83960298 85.05956312 82.67920595 85.09024715 83.54425144 C85.64457356 99.36330979 86.15577603 115.16531242 86.09765625 130.99609375 C86.09577669 132.5884649 86.09436015 134.18083666 86.09336853 135.77320862 C86.08966373 139.8383665 86.07994701 143.90348497 86.06866455 147.96862793 C86.05818102 152.16723091 86.05381507 156.36584066 86.04882812 160.56445312 C86.03830515 168.70965293 86.02138708 176.85482148 86 185 C87.08659409 184.99777939 88.17318817 184.99555878 89.29270935 184.99327087 C99.74311406 184.97262998 110.19351443 184.95783703 120.6439352 184.94818783 C126.01124892 184.94305975 131.37854566 184.93615615 136.74584961 184.92456055 C164.8535245 184.86541758 192.90160423 185.19899074 221 186 C221 211.08 221 236.16 221 262 C216.92193105 263.01951724 213.22153429 263.1733861 209.05834961 263.20532227 C208.25876831 263.21522186 207.45918701 263.22512146 206.63537598 263.23532104 C203.97439537 263.26702417 201.31339884 263.29180918 198.65234375 263.31640625 C196.76566692 263.33704815 194.87899396 263.35804608 192.99232483 263.37937927 C189.00670808 263.42343772 185.02107557 263.46428182 181.03540039 263.50268555 C176.06765646 263.5506333 171.1000024 263.60450335 166.1323452 263.66065407 C139.08760017 263.96443684 112.04630694 264.05863579 85 264 C85.1065818 265.33985962 85.1065818 265.33985962 85.21531677 266.70678711 C86.07335337 278.66675607 86.12895508 290.57604597 86.09765625 302.5625 C86.09578648 304.69197557 86.09436523 306.82145158 86.09336853 308.95092773 C86.0895873 314.50082632 86.07979561 320.05069788 86.06866455 325.60058594 C86.05835489 331.28580358 86.05385063 336.97102567 86.04882812 342.65625 C86.0381685 353.77084507 86.02114624 364.88542027 86 376 C86.78612671 376.19530807 87.57225342 376.39061615 88.38220215 376.59184265 C93.90120357 377.96659755 99.41261007 379.3585911 104.90625 380.83203125 C139.8411721 390.02737788 174.82203988 394.16225558 210.75488281 397.4296875 C219.37193493 398.2137529 227.98531243 399.03373355 236.59655762 399.87908936 C239.02250223 400.1150313 241.44913071 400.342397 243.87597656 400.56884766 C251.48822401 401.29878222 259.01908582 402.24171642 266.5546875 403.5546875 C267.28841583 403.68207306 268.02214417 403.80945862 268.77810669 403.94070435 C273.87033587 404.87033587 273.87033587 404.87033587 275 406 C275.09496708 408.40348286 275.12558862 410.77810982 275.11352539 413.18188477 C275.11367142 413.93305573 275.11381744 414.68422668 275.1139679 415.4581604 C275.11326863 417.95260459 275.10547564 420.44697503 275.09765625 422.94140625 C275.09579212 424.66633564 275.09436819 426.39126557 275.09336853 428.11619568 C275.08954297 432.66512503 275.07971238 437.21402267 275.06866455 441.76293945 C275.05845124 446.40120006 275.05387108 451.03946577 275.04882812 455.67773438 C275.03809014 464.78517022 275.02101327 473.89258248 275 483 C270.2021383 484.42457718 265.87799831 485.33324848 260.875 485.625 C259.69679688 485.69976563 258.51859375 485.77453125 257.3046875 485.8515625 C172.08128974 489.45785126 82.08064792 464.52016198 0 444 C0 297.48 0 150.96 0 0 Z " fill="#004B8D" transform="translate(3484,547)"/>
<path d="M0 0 C86.46 0 172.92 0 262 0 C262 26.33544295 261.6750459 52.67321006 261 79 C203.58 79 146.16 79 87 79 C87 113.98 87 148.96 87 185 C131.88 185 176.76 185 223 185 C223 239 223 239 222 262 C209.25609357 262.84194844 196.61955035 263.11635489 183.8505497 263.04459953 C180.58950474 263.02687481 177.32851089 263.01680737 174.06742859 263.00868225 C164.80979604 262.98451178 155.55223357 262.94869659 146.29467773 262.90405273 C140.59400566 262.87708821 134.89337207 262.86016892 129.19264793 262.84918404 C127.04193882 262.84303495 124.89123666 262.83310794 122.74056435 262.81910515 C119.72323462 262.79961534 116.70610546 262.79295611 113.6887207 262.78881836 C112.82650406 262.78005676 111.96428741 262.77129517 111.07594299 262.76226807 C103.11670819 262.7745605 96.11442057 263.91807726 88 265 C87.67 301.63 87.34 338.26 87 376 C109.4296875 375.9690625 109.4296875 375.9690625 132.3125 375.9375 C165.12907044 375.9153795 197.93685354 376.01597884 230.75 376.5 C231.96685171 376.51793673 231.96685171 376.51793673 233.20828629 376.53623581 C242.80573251 376.678763 252.40295652 376.83243899 262 377 C262.2190969 403.01859935 261.53116089 428.97311655 261 455 C174.87 455 88.74 455 0 455 C0 304.85 0 154.7 0 0 Z " fill="#004B8C" transform="translate(2501,547)"/>
<path d="M0 0 C1.50626953 0.79857422 1.50626953 0.79857422 3.04296875 1.61328125 C11.0141461 6.04415638 18.27604719 11.41633991 25.60546875 16.81640625 C29.97626126 20.02204973 34.46587536 23.03129941 39 26 C33.95060146 43.23327066 15.90911803 57.22695366 3.4375 69.5625 C0.93329728 72.04006564 -1.56751581 74.52098411 -4.06640625 77.00390625 C-4.6340419 77.56324356 -5.20167755 78.12258087 -5.78651428 78.6988678 C-8.14245418 81.03998236 -10.15069737 83.22604606 -12 86 C-16.48754047 85.46218909 -19.66037146 84.34567153 -23.5625 82.0859375 C-24.59955078 81.49288818 -25.63660156 80.89983887 -26.70507812 80.28881836 C-27.79240234 79.6572583 -28.87972656 79.02569824 -30 78.375 C-32.259357 77.09058212 -34.51976564 75.80801227 -36.78125 74.52734375 C-37.86148438 73.91358887 -38.94171875 73.29983398 -40.0546875 72.66748047 C-61.58618957 60.47748054 -82.58179623 54.61816337 -107 61 C-120.14113136 64.97151404 -132.4512102 71.93122336 -139.28515625 84.33203125 C-144.47309539 95.54467391 -144.32983297 107.25033555 -140.31640625 118.87109375 C-133.67303378 134.66142416 -121.18965304 144.36075377 -107 153 C-106.24348145 153.46132324 -105.48696289 153.92264648 -104.70751953 154.39794922 C-86.8691166 165.15490324 -68.04652717 173.88424578 -49.11523438 182.52001953 C-25.17859951 193.45310276 -2.01758095 204.68417844 18 222 C18.84046875 222.70640625 19.6809375 223.4128125 20.546875 224.140625 C42.59297718 243.17421632 58.19855158 272.06712881 62 301 C62.31788344 305.85738431 62.38180343 310.69557225 62.375 315.5625 C62.37418427 316.55120087 62.37418427 316.55120087 62.37335205 317.55987549 C62.33182297 328.5378379 61.39124935 338.56042344 58 349 C57.67854004 350.01441162 57.67854004 350.01441162 57.35058594 351.04931641 C44.75153363 389.809283 14.63110303 419.24842819 -20.9465332 437.64892578 C-80.1587907 467.25747116 -149.0497169 473.62833359 -214.17578125 473.203125 C-215.20967987 473.19872406 -216.24357849 473.19432312 -217.30880737 473.18978882 C-218.26433502 473.18033234 -219.21986267 473.17087585 -220.2043457 473.16113281 C-221.0374678 473.15430481 -221.8705899 473.14747681 -222.72895813 473.14044189 C-225 473 -225 473 -229 472 C-229 445.6 -229 419.2 -229 392 C-208.44250633 389.71583404 -208.44250633 389.71583404 -199.0625 389.0703125 C-196.92623969 388.91585817 -194.79001028 388.76097594 -192.65380859 388.60571289 C-191.5670282 388.52757355 -190.4802478 388.4494342 -189.36053467 388.368927 C-110.18257659 385.35537712 -110.18257659 385.35537712 -43.0625 349.0625 C-34.08310544 338.04631595 -31.88249513 325.89896681 -33 312 C-36.12033199 295.91965275 -46.05902237 284.25972471 -59.19140625 275.08203125 C-77.02217175 263.28770295 -97.28214282 255.02036786 -116.79003906 246.41943359 C-132.40786744 239.51328405 -147.26771685 231.63926819 -162 223 C-163.14758789 222.33266846 -163.14758789 222.33266846 -164.31835938 221.65185547 C-195.49410247 203.40420529 -218.15497816 177.11266345 -228 142 C-230.10834916 133.72539118 -231.60777219 125.53392628 -232 117 C-232.05285156 115.99195313 -232.10570313 114.98390625 -232.16015625 113.9453125 C-233.09937889 79.23491056 -219.5664428 47.63903006 -196.48046875 22.2265625 C-148.09282481 -28.35729954 -59.10548522 -31.83091536 0 0 Z " fill="#004A8D" transform="translate(4034,559)"/>
<path d="M0 0 C28.24479589 -0.62930738 57.46492965 4.67445644 84.04296875 14.12109375 C85.04296875 15.12109375 85.04296875 15.12109375 85.1252594 18.43031311 C85.11029756 19.9354553 85.08961696 21.44054638 85.06469727 22.94555664 C85.05508972 23.76500259 85.04548218 24.58444855 85.0355835 25.4287262 C85.00247389 28.15048497 84.96218749 30.87208914 84.921875 33.59375 C84.89758555 35.47561591 84.87374142 37.35748763 84.85032654 39.23936462 C84.78736857 44.20263246 84.71833533 49.16579822 84.64807129 54.12896729 C84.57749334 59.18944635 84.51261341 64.24999804 84.44726562 69.31054688 C84.31810241 79.24747563 84.18252623 89.18430592 84.04296875 99.12109375 C81.17454196 98.17216259 78.30671853 97.22147111 75.43920898 96.26977539 C74.63381432 96.00353615 73.82841965 95.73729691 72.99861908 95.46298981 C66.62500499 93.34534338 60.36132167 91.00119878 54.10546875 88.55859375 C26.9498694 78.20729862 -1.22194482 71.83422232 -28.95703125 84.12109375 C-39.18149889 89.38426644 -47.99309455 97.05942746 -51.95703125 108.12109375 C-55.82486652 120.57002803 -53.34359443 132.49040508 -47.95703125 144.12109375 C-31.60848755 172.16792871 6.02854363 184.87781723 33.9765625 198.21875 C41.38341184 201.75448754 48.73626087 205.38315278 56.04296875 209.12109375 C56.64931152 209.42789063 57.2556543 209.7346875 57.88037109 210.05078125 C94.91213356 228.85316576 127.81005918 255.83165016 141.29296875 296.43359375 C147.42246598 318.20387701 148.20402117 341.06233545 143.04296875 363.12109375 C142.88199707 363.8171875 142.72102539 364.51328125 142.55517578 365.23046875 C134.19205555 399.93621267 111.31423511 429.6658386 81.14257812 448.29443359 C37.82840388 474.43192508 -12.78475225 475.58221153 -60.95703125 464.12109375 C-94.38749425 455.79708425 -120.82255426 439.82485654 -147.95703125 419.12109375 C-144.39176565 407.45758201 -136.55825519 399.17400655 -128.31835938 390.56347656 C-126.55491851 388.69503886 -124.87634042 386.76122604 -123.20703125 384.80859375 C-114.24151078 374.47545152 -104.09921731 366.00664822 -92.95703125 358.12109375 C-92.46976563 358.44980469 -91.9825 358.77851562 -91.48046875 359.1171875 C-88.9792889 360.7952518 -86.46783968 362.45746966 -83.95703125 364.12109375 C-82.39662109 365.17103516 -82.39662109 365.17103516 -80.8046875 366.2421875 C-54.60368959 383.67514996 -24.3397448 393.92347742 7.36328125 388.875 C25.53880528 385.15113998 41.78452001 377.7934955 52.796875 362.1640625 C59.02739549 351.94913392 60.4773043 341.933735 57.98046875 330.24609375 C51.96119714 308.43673289 32.9562231 296.89134157 14.50958252 286.32681274 C0.25020922 278.29602596 -14.53450994 271.23205166 -29.20703125 263.99609375 C-85.30874465 236.32744215 -85.30874465 236.32744215 -105.95703125 215.12109375 C-106.72345947 214.38753662 -106.72345947 214.38753662 -107.50537109 213.63916016 C-111.83888702 209.45283413 -115.46002729 205.06457623 -118.89453125 200.12109375 C-119.41031738 199.38052734 -119.92610352 198.63996094 -120.45751953 197.87695312 C-139.14273668 170.58616513 -147.44744965 137.91880059 -141.76953125 104.99609375 C-135.40660079 72.76596596 -115.93885485 44.37833881 -88.76953125 25.99609375 C-61.96537941 8.49908015 -31.70692867 1.29843433 0 0 Z " fill="#004A8D" transform="translate(2956.95703125,539.87890625)"/>
<path d="M0 0 C0 176.22 0 352.44 0 534 C-3.37811633 530.62188367 -5.25603731 528.18474655 -7.58203125 524.14453125 C-7.91260025 523.57499725 -8.24316925 523.00546326 -8.58375549 522.41867065 C-9.29434446 521.1930523 -10.00216275 519.96582413 -10.7074585 518.7371521 C-12.60358611 515.43466438 -14.52049249 512.14423588 -16.43359375 508.8515625 C-16.82101746 508.18333969 -17.20844116 507.51511688 -17.60760498 506.8266449 C-21.13721066 500.74424713 -24.74343084 494.70955068 -28.375 488.6875 C-33.67244255 479.89273742 -38.92750504 471.07405934 -44.15924072 462.24014282 C-50.54637849 451.45633657 -56.97726567 440.70236536 -63.5 430 C-70.43591198 418.61970143 -77.26236304 407.17743206 -84.0546875 395.7109375 C-88.84466985 387.62536259 -93.65611125 379.55345731 -98.5 371.5 C-103.75300062 362.76635263 -108.9646423 354.00906821 -114.15887451 345.24041748 C-120.67067567 334.24797423 -127.22748227 323.2859533 -133.875 312.375 C-140.39703403 301.66852601 -146.81414566 290.9047918 -153.17285156 280.10058594 C-156.85477585 273.85253164 -160.55043191 267.61262031 -164.25 261.375 C-164.65555115 260.69119263 -165.06110229 260.00738525 -165.47894287 259.30285645 C-171.43771033 249.26122434 -177.46273597 239.26242446 -183.54089355 229.29266357 C-189.6722196 219.2325719 -195.69877143 209.11285053 -201.69894409 198.97409058 C-207.07162783 189.8981794 -212.49126893 180.85327524 -217.97738647 171.84545898 C-219.04570159 170.09010161 -220.11175399 168.33339196 -221.17700195 166.57617188 C-224.21022236 161.5750537 -227.25449296 156.58295471 -230.3515625 151.62109375 C-231.29718485 150.08091936 -232.24252376 148.54057089 -233.1875 147 C-233.83054077 145.9946521 -233.83054077 145.9946521 -234.48657227 144.96899414 C-235.60546875 143.125 -235.60546875 143.125 -237 140 C-235.81670382 135.92553684 -233.21049614 134.65125898 -229.62890625 132.671875 C-228.51112793 132.04531006 -227.39334961 131.41874512 -226.24169922 130.77319336 C-225.34399811 130.27962845 -225.34399811 130.27962845 -224.42816162 129.77609253 C-221.22508287 128.01443589 -218.0420919 126.21697432 -214.85546875 124.42578125 C-214.19911438 124.05824234 -213.54276001 123.69070343 -212.86651611 123.31202698 C-206.30336565 119.6299485 -199.83585131 115.79635403 -193.375 111.9375 C-183.48336464 106.04537583 -173.5430798 100.24589235 -163.5625 94.50585938 C-156.31942088 90.33999144 -149.09052159 86.15092177 -141.875 81.9375 C-140.89104248 81.36298096 -139.90708496 80.78846191 -138.89331055 80.1965332 C-135.92858161 78.46485479 -132.96421873 76.73255161 -130 75 C-126.04214526 72.68667962 -122.08389337 70.37404251 -118.125 68.0625 C-117.13781982 67.48604736 -116.15063965 66.90959473 -115.13354492 66.31567383 C-107.83388608 62.0579832 -100.51295842 57.83810175 -93.1875 53.625 C-84.2512997 48.48337735 -75.36088999 43.27029438 -66.5 38 C-56.58098914 32.10035479 -46.61663522 26.28665126 -36.61132812 20.53466797 C-27.84692845 15.49554118 -19.11094359 10.40930458 -10.38598633 5.30224609 C-9.44392334 4.75133301 -8.50186035 4.20041992 -7.53125 3.6328125 C-6.70173828 3.14699707 -5.87222656 2.66118164 -5.01757812 2.16064453 C-1.26167438 0 -1.26167438 0 0 0 Z " fill="#50B848" transform="translate(237,824)"/>
<path d="M0 0 C152.13 0 304.26 0 461 0 C458.30240339 2.69759661 456.23585388 4.16069072 452.96875 6.01171875 C451.43275146 6.88848267 451.43275146 6.88848267 449.86572266 7.78295898 C448.75503418 8.41145752 447.6443457 9.03995605 446.5 9.6875 C444.12073297 11.04397363 441.74380242 12.40451114 439.3671875 13.765625 C438.75612152 14.11515732 438.14505554 14.46468964 437.51547241 14.82481384 C431.17627987 18.45786202 424.8999431 22.19478636 418.625 25.9375 C408.89060777 31.73402902 399.09212174 37.40206306 389.24230957 42.99871826 C379.43103761 48.57648056 369.70774285 54.29162069 360.01049805 60.06591797 C351.23716545 65.28401464 342.4111779 70.40508729 333.5625 75.49414062 C323.33860615 81.37442866 313.15066565 87.31518138 302.96777344 93.26611328 C297.98009043 96.1801084 292.98991295 99.08982568 288 102 C285.9999882 103.16664643 283.99998819 104.33331309 282 105.5 C216 144 216 144 150 182.5 C148.5152417 183.36612915 148.5152417 183.36612915 147.00048828 184.24975586 C144.99890789 185.41731728 142.99728023 186.58479764 140.99560547 187.75219727 C136.01939608 190.65451416 131.04399545 193.55819916 126.0703125 196.46484375 C115.79467443 202.46777059 105.50361437 208.44187788 95.1875 214.375 C86.2512997 219.51662265 77.36088999 224.72970562 68.5 230 C58.57905904 235.90079319 48.61415886 241.71814868 38.60473633 247.4675293 C33.12621815 250.61529829 27.65862706 253.77957966 22.2109375 256.98046875 C21.11547607 257.6235498 20.02001465 258.26663086 18.89135742 258.92919922 C16.80909247 260.15320226 14.72843192 261.37994026 12.6496582 262.60986328 C11.71726318 263.15755371 10.78486816 263.70524414 9.82421875 264.26953125 C8.60351685 264.99039917 8.60351685 264.99039917 7.3581543 265.72583008 C5 267 5 267 0 269 C0 180.23 0 91.46 0 0 Z " fill="#004B8D" transform="translate(237,554)"/>
<path d="M0 0 C103.29 0 206.58 0 313 0 C313 26.07 313 52.14 313 79 C291.46156939 79.24956592 291.46156939 79.24956592 282.13085938 79.35546875 C275.81631595 79.42714559 269.50177635 79.49908017 263.18725586 79.57275391 C258.08436914 79.63227264 252.98146872 79.6904653 247.87855721 79.74781799 C245.95217432 79.7696868 244.02579638 79.79199752 242.09942436 79.81480408 C240.72744235 79.83100548 240.72744235 79.83100548 239.32774353 79.84753418 C238.53630919 79.85701836 237.74487486 79.86650253 236.92945766 79.87627411 C228.22612235 79.96718687 219.52428971 80.01239273 210.82044983 80.0057373 C209.77251267 80.00532314 208.72457551 80.00490898 207.64488268 80.00448227 C205.09658792 80.00341474 202.54829424 80.0019147 200 80 C200.00138269 81.71009892 200.00138269 81.71009892 200.00279331 83.45474529 C200.0317258 119.65555512 200.05095956 155.85636768 200.06185675 192.05718714 C200.06249806 194.18105877 200.06315688 196.30493039 200.06381607 198.42880201 C200.08503399 267.89104839 200.10341169 337.35225294 199.5 406.8125 C199.49402628 407.50306724 199.48805257 408.19363448 199.48189783 408.905128 C199.33998914 425.27030929 199.17479187 441.63511099 199 458 C170.62 458 142.24 458 113 458 C113 332.93 113 207.86 113 79 C75.71 79 38.42 79 0 79 C0 52.93 0 26.86 0 0 Z " fill="#004B8C" transform="translate(3108,547)"/>
</svg>
