<?xml version="1.0" encoding="UTF-8"?>
<!DOCTYPE svg PUBLIC "-//W3C//DTD SVG 1.1//EN" "http://www.w3.org/Graphics/SVG/1.1/DTD/svg11.dtd">
<!-- Creator: CorelDRAW 2020 (64 Bit) -->
<svg xmlns="http://www.w3.org/2000/svg" xml:space="preserve" width="1748px" height="1240px" version="1.1" style="shape-rendering:geometricPrecision; text-rendering:geometricPrecision; image-rendering:optimizeQuality; fill-rule:evenodd; clip-rule:evenodd"
viewBox="0 0 174800 124014"
 xmlns:xlink="http://www.w3.org/1999/xlink"
 xmlns:xodm="http://www.corel.com/coreldraw/odm/2003">
 <defs>
  <style type="text/css">
   <![CDATA[
    .fil2 {fill:none}
    .fil0 {fill:lime;fill-rule:nonzero}
    .fil1 {fill:#373435;fill-rule:nonzero}
   ]]>
  </style>
 </defs>
 <g id="Camada_x0020_1">
  <metadata id="CorelCorpID_0Corel-Layer"/>
  <g id="_936516948320">
   <g>
    <path class="fil0" d="M41497 61748c-34,144 -12,294 60,425l580 1030c68,124 30,280 -89,358l-931 599c-65,42 -140,55 -213,34 -74,-19 -133,-65 -169,-133l-983 -1844c-24,-43 -34,-90 -31,-141l139 -2467c6,-90 54,-171 131,-216l2951 -1756c89,-52 162,-126 211,-216l4667 -7609 -14188 -32 0 -4728 22464 0 -7329 12505 -6722 2897c-172,73 -300,226 -341,409l-209 887 2 -2 0 0zm6555 4962l-999 548 -421 -1022c-55,-132 3,-282 133,-343l745 -355c68,-32 143,-36 213,-10 68,27 123,80 150,150l38 89 -3 0 56 133 203 468c56,128 6,277 -116,342l1 0zm-1222 909l-1221 572c-57,27 -119,34 -181,19l-463 -1125 -184 -444c-19,-47 2,-102 46,-122l1223 -583c33,-17 61,-10 75,-5 14,6 41,20 56,53l156 377 433 1054 54 133 13 32c6,31 -2,34 -9,39l2 0zm9268 6992l0 4730 -26012 0 8563 -13989c43,-78 71,-165 75,-254l248 -3906c6,-72 35,-136 90,-182l416 -372 -81 1421c-5,109 19,217 68,310l982 1842c78,145 213,253 373,294 48,14 98,19 149,19 112,0 223,-32 319,-94l931 -600c262,-170 346,-514 194,-785l-578 -1031c-33,-58 -43,-126 -27,-192l208 -887c19,-84 77,-151 157,-188l6768 -2915 17 -6 237 -95c80,-32 169,-24 243,24 73,46 117,123 124,210l67 1065c6,113 -60,220 -164,264l-50 20 -25 9 -81 34 -3511 1564 132 293 3412 -1516 118 1274c5,54 -6,109 -34,156l-65 115 -2635 1249 139 292 2589 -1227c42,43 66,97 72,160l96 1136c9,111 -53,219 -162,270l-203 112 -12 6 -1695 813 139 292 1492 -715 86 1193c10,103 -44,203 -135,254l-944 534 -21 -55c-62,-150 -181,-267 -333,-325 -152,-59 -317,-53 -464,18l-745 356c-84,40 -153,96 -206,162 -47,-61 -110,-107 -178,-134 -107,-41 -228,-36 -331,13l-1223 584c-187,88 -279,298 -220,495 -104,-9 -210,9 -305,54l-783 372c-283,136 -411,469 -292,759l133 326c-101,-10 -204,9 -300,56l-875 416c-285,133 -411,468 -292,758l58 143 -3454 5007 17735 0 6 -6 0 0zm-10964 -6265l0 7c-26,63 -72,113 -130,143l-1088 568 -188 -453 -341 -828c-53,-132 5,-285 133,-345l783 -372c65,-32 140,-34 210,-8 70,27 124,79 150,149l469 1139 2 0 0 0zm-1445 1017l-1042 557c-132,70 -294,21 -364,-109l-145 -269 -83 -205c-54,-132 5,-282 133,-343l875 -418c67,-31 142,-32 212,-7 68,26 121,77 151,145 0,0 0,2 0,4l5 17 253 609 0 6 2 0c0,6 1,9 3,11l0 2 0 0zm-32468 -19581l0 8305 13006 0 0 4700 -13006 0 0 11824 14186 0 0 4730 -18916 0 0 -34289 18916 0 0 4730 -14186 0z"/>
    <path class="fil1" d="M95114 49782l0 8277 12954 0 0 4728 -12954 0 0 11824 14139 0 0 4730 -18885 0 0 -34289 18885 0 0 4730 -14139 0 0 0zm-26011 24829l16586 -34 0 4764 -24862 0 16554 -29558 -13008 5 0 -4736 21316 0 -16586 29559 0 0z"/>
   </g>
   <path class="fil1" d="M125046 46003l-694 412c-130,-225 -253,-373 -371,-441 -123,-78 -281,-118 -474,-118 -238,0 -436,67 -593,203 -156,132 -234,298 -234,499 0,277 205,499 617,669l566 231c460,187 798,414 1011,684 213,268 319,595 319,985 0,521 -173,953 -521,1294 -351,342 -785,514 -1305,514 -492,0 -899,-146 -1220,-437 -316,-292 -514,-703 -592,-1232l867 -191c39,333 108,564 206,691 176,245 433,368 772,368 267,0 489,-90 665,-269 176,-179 265,-405 265,-679 0,-111 -16,-212 -48,-302 -29,-93 -77,-177 -144,-253 -63,-79 -146,-151 -249,-217 -103,-69 -226,-134 -367,-195l-548 -227c-777,-329 -1165,-809 -1165,-1441 0,-427 163,-783 489,-1070 325,-289 730,-434 1216,-434 654,0 1165,319 1532,956zm4310 -41l-2274 0 0 1364 2209 0 0 805 -2209 0 0 1896 2274 0 0 805 -3130 0 0 -5674 3130 0 0 804 0 0zm4044 1915l2344 0 0 188c0,426 -49,804 -150,1132 -98,303 -263,588 -496,852 -527,593 -1197,890 -2010,890 -795,0 -1475,-288 -2040,-860 -566,-577 -849,-1268 -849,-2073 0,-823 287,-1522 864,-2094 575,-576 1276,-865 2101,-865 444,0 858,91 1242,272 368,182 729,476 1084,883l-609 584c-467,-620 -1034,-930 -1702,-930 -600,0 -1104,207 -1510,622 -407,406 -611,916 -611,1528 0,632 227,1153 681,1562 423,380 882,569 1377,569 422,0 800,-142 1136,-426 336,-287 523,-630 562,-1029l-1414 0 0 -805 0 0zm4280 -2719l0 3418c0,487 81,844 239,1069 238,326 573,489 1004,489 434,0 768,-163 1006,-489 160,-218 240,-574 240,-1069l0 -3418 855 0 0 3653c0,597 -186,1090 -558,1477 -419,431 -933,647 -1543,647 -610,0 -1123,-216 -1540,-647 -372,-387 -559,-880 -559,-1477l0 -3653 856 0zm6631 3256l1756 2418 -1048 0 -1621 -2323 -153 0 0 2323 -857 0 0 -5674 1004 0c749,0 1291,141 1624,423 367,313 551,727 551,1242 0,402 -115,746 -346,1036 -230,289 -534,474 -911,555l1 0zm-1066 -651l272 0c810,0 1216,-310 1216,-930 0,-580 -394,-871 -1183,-871l-305 0 0 1801zm3263 206c0,-798 293,-1485 878,-2057 584,-574 1283,-860 2102,-860 808,0 1502,288 2080,867 581,578 871,1273 871,2083 0,816 -292,1508 -874,2077 -586,570 -1293,856 -2120,856 -733,0 -1391,-254 -1973,-761 -642,-560 -964,-1296 -964,-2205zm864 11c0,627 210,1144 632,1548 419,404 902,606 1450,606 596,0 1099,-206 1508,-618 409,-416 613,-923 613,-1521 0,-605 -202,-1112 -606,-1522 -401,-411 -899,-617 -1491,-617 -591,0 -1090,206 -1496,617 -407,408 -610,909 -610,1507l0 0zm9353 -1977l-695 412c-131,-225 -254,-373 -372,-441 -121,-78 -280,-118 -474,-118 -238,0 -435,67 -591,203 -157,132 -236,298 -236,499 0,277 206,499 618,669l567 231c460,187 796,414 1009,684 213,268 321,595 321,985 0,521 -175,953 -522,1294 -351,342 -786,514 -1305,514 -493,0 -900,-146 -1220,-437 -317,-292 -513,-703 -593,-1232l868 -191c39,333 109,564 206,691 177,245 434,368 772,368 267,0 488,-90 665,-269 176,-179 264,-405 264,-679 0,-111 -16,-212 -47,-302 -30,-93 -77,-177 -144,-253 -63,-79 -147,-151 -250,-217 -103,-69 -225,-134 -367,-195l-548 -227c-777,-329 -1165,-809 -1165,-1441 0,-427 163,-783 489,-1070 326,-289 732,-434 1217,-434 653,0 1164,319 1533,956zm1150 4418c0,-138 49,-256 150,-357 100,-100 221,-151 361,-151 138,0 259,51 359,151 101,101 151,220 151,360 0,142 -50,263 -151,364 -98,98 -218,147 -359,147 -145,0 -267,-49 -364,-147 -99,-98 -147,-220 -147,-367l0 0zm-32704 13256l-2428 0 -633 1377 -922 0 2808 -6030 2708 6030 -937 0 -596 -1377 0 0zm-348 -805l-842 -1930 -882 1930 1724 0 0 0zm7834 -771l2344 0 0 187c0,426 -49,803 -150,1132 -98,303 -263,587 -496,852 -527,593 -1196,889 -2010,889 -795,0 -1474,-286 -2040,-860 -566,-575 -849,-1266 -849,-2072 0,-823 288,-1522 864,-2095 576,-576 1277,-863 2101,-863 444,0 858,89 1243,271 367,181 729,475 1084,882l-610 585c-466,-620 -1032,-930 -1702,-930 -600,0 -1104,207 -1510,621 -406,406 -609,916 -609,1529 0,631 225,1153 679,1561 424,380 883,570 1377,570 423,0 801,-142 1137,-426 335,-287 523,-629 563,-1029l-1416 0 0 -804 0 0zm6556 -1915l-2274 0 0 1363 2208 0 0 804 -2208 0 0 1897 2274 0 0 804 -3131 0 0 -5673 3131 0 0 805zm1125 4868l0 -6060 4138 4330 0 -3943 856 0 0 6019 -4138 -4318 0 3972 -856 0 0 0zm7923 -4868l0 4868 -857 0 0 -4868 -1303 0 0 -805 3461 0 0 805 -1301 0zm5196 0l-2275 0 0 1363 2209 0 0 804 -2209 0 0 1897 2275 0 0 804 -3131 0 0 -5673 3131 0 0 805zm-28411 14262l-694 412c-130,-225 -253,-373 -371,-442 -123,-77 -281,-117 -474,-117 -238,0 -436,68 -593,203 -156,131 -234,298 -234,499 0,278 205,500 617,669l566 232c460,186 798,413 1011,683 213,267 319,596 319,985 0,522 -173,953 -521,1293 -351,344 -785,515 -1305,515 -492,0 -899,-146 -1220,-437 -316,-292 -514,-702 -592,-1231l867 -192c39,334 108,564 206,691 176,246 433,368 772,368 267,0 489,-90 665,-268 176,-179 265,-406 265,-680 0,-111 -16,-211 -48,-301 -29,-93 -77,-178 -144,-254 -63,-78 -146,-150 -249,-217 -103,-69 -226,-133 -367,-195l-548 -227c-777,-328 -1165,-809 -1165,-1441 0,-426 163,-783 489,-1070 325,-288 730,-433 1216,-433 654,0 1165,318 1532,955l0 0zm4310 -40l-2274 0 0 1364 2209 0 0 805 -2209 0 0 1896 2274 0 0 805 -3130 0 0 -5675 3130 0 0 805 0 0zm4304 -805l0 5675 -856 0 0 -5675 856 0zm1165 5675l1194 -6102 1949 4411 2018 -4411 1072 6102 -878 0 -548 -3426 -1679 3686 -1631 -3689 -611 3429 -886 0 0 0zm8295 -2305l0 2305 -857 0 0 -5675 970 0c476,0 834,34 1078,99 244,67 460,192 646,375 326,318 489,720 489,1206 0,519 -174,931 -522,1234 -348,304 -818,456 -1407,456l-397 0zm0 -794l320 0c786,0 1179,-303 1179,-907 0,-586 -406,-879 -1216,-879l-283 0 0 1786 0 0zm2924 236c0,-799 293,-1486 880,-2058 583,-573 1283,-860 2102,-860 808,0 1501,289 2080,866 581,579 870,1274 870,2085 0,815 -292,1507 -875,2076 -585,571 -1292,856 -2120,856 -733,0 -1391,-254 -1973,-760 -642,-561 -964,-1296 -964,-2205l0 0zm865 10c0,628 209,1143 631,1547 419,405 903,607 1453,607 595,0 1097,-206 1505,-617 410,-416 614,-924 614,-1522 0,-605 -202,-1112 -605,-1521 -402,-412 -899,-618 -1493,-618 -590,0 -1088,206 -1496,618 -406,406 -609,909 -609,1506l0 0zm8066 434l1756 2419 -1047 0 -1620 -2324 -155 0 0 2324 -857 0 0 -5675 1003 0c750,0 1292,141 1625,423 369,313 552,728 552,1242 0,402 -116,747 -345,1036 -231,290 -535,475 -912,555l0 0zm-1066 -651l272 0c812,0 1216,-309 1216,-929 0,-580 -394,-871 -1183,-871l-305 0 0 1800zm5178 -1800l0 4870 -856 0 0 -4870 -1305 0 0 -805 3462 0 0 805 -1301 0zm5090 3491l-2429 0 -632 1379 -922 0 2807 -6031 2708 6031 -938 0 -594 -1379zm-349 -805l-841 -1929 -883 1929 1724 0zm2845 1771c0,-136 49,-255 150,-355 100,-101 220,-152 361,-152 138,0 259,51 359,152 101,100 151,220 151,359 0,142 -50,264 -151,364 -98,97 -218,147 -359,147 -145,0 -267,-50 -365,-147 -98,-97 -146,-220 -146,-368l0 0z"/>
  </g>
  <rect class="fil2" x="2824" y="39391" width="168955" height="45416"/>
 </g>
</svg>
