<?xml version="1.0" encoding="UTF-8"?>
<svg version="1.1" xmlns="http://www.w3.org/2000/svg" width="960" height="960">
<path d="M0 0 C316.8 0 633.6 0 960 0 C960 316.8 960 633.6 960 960 C643.2 960 326.4 960 0 960 C0 643.2 0 326.4 0 0 Z " fill="#FEFEFE" transform="translate(0,0)"/>
<path d="M0 0 C171.16700201 0 171.16700201 0 206 32 C207.21623047 33.00740234 207.21623047 33.00740234 208.45703125 34.03515625 C229.70677226 52.02072813 240.87648014 78.77277811 244 106 C244.28979098 111.25118898 244.34086811 116.49226192 244.3125 121.75 C244.31067719 122.45343536 244.30885437 123.15687073 244.30697632 123.88162231 C244.26050351 134.5456945 243.69508711 144.63260844 241 155 C240.83371094 155.68481445 240.66742187 156.36962891 240.49609375 157.07519531 C237.77847771 168.16206222 233.55896828 178.04961238 228 188 C227.45601562 188.98613281 226.91203125 189.97226562 226.3515625 190.98828125 C209.9124843 218.69414232 179.62130678 235.37083555 149.26220703 243.453125 C100.61249167 255.21390229 49.19439957 249 0 249 C0 166.83 0 84.66 0 0 Z " fill="#007337" transform="translate(446,284)"/>
<path d="M0 0 C27.39 0 54.78 0 83 0 C83 27.39 83 54.78 83 83 C110.39 83 137.78 83 166 83 C166 55.61 166 28.22 166 0 C193.39 0 220.78 0 249 0 C249 82.17 249 164.34 249 249 C221.61 249 194.22 249 166 249 C166 221.61 166 194.22 166 166 C138.61 166 111.22 166 83 166 C83 193.39 83 220.78 83 249 C55.61 249 28.22 249 0 249 C0 166.83 0 84.66 0 0 Z " fill="#007337" transform="translate(164,284)"/>
<path d="M0 0 C27.39 0 54.78 0 83 0 C83 82.17 83 164.34 83 249 C55.61 249 28.22 249 0 249 C0 166.83 0 84.66 0 0 Z " fill="#007337" transform="translate(711,284)"/>
<path d="M0 0 C27.39 0 54.78 0 83 0 C83 82.17 83 164.34 83 249 C55.61 249 28.22 249 0 249 C0 166.83 0 84.66 0 0 Z " fill="#007337" transform="translate(330,284)"/>
<path d="M0 0 C43.9800995 0 43.9800995 0 60 14 C60.59296875 14.47695313 61.1859375 14.95390625 61.796875 15.4453125 C70.55625845 23.15822094 75.34359571 35.3833092 76.21704102 46.84912109 C76.69247809 59.0113286 77.06447507 70.7215473 72 82 C71.649375 82.88300781 71.29875 83.76601563 70.9375 84.67578125 C66.45245587 94.93843431 58.0458649 102.3004323 48 107 C32.04110126 113.02185096 17.37037052 113 0 113 C0 75.71 0 38.42 0 0 Z " fill="#FEFEFE" transform="translate(530,352)"/>
<path d="M0 0 C27.39 0 54.78 0 83 0 C83 27.39 83 54.78 83 83 C55.61 83 28.22 83 0 83 C0 55.61 0 28.22 0 0 Z " fill="#ED1C25" transform="translate(247,367)"/>
<path d="M0 0 C9.66852396 6.19681458 15.0443594 15.29720203 18.0234375 26.296875 C18.3534375 27.286875 18.6834375 28.276875 19.0234375 29.296875 C20.16407871 42.29270523 16.89554723 53.85356164 9.0234375 64.296875 C2.58675677 71.57813014 -7.08158772 77.53018415 -16.96264648 78.48974609 C-31.45708342 79.0064539 -42.50228266 77.86544664 -54.015625 68.16015625 C-62.53261005 60.06732385 -67.04469951 49.96028399 -67.5703125 38.21142578 C-67.73919031 24.82522082 -63.74065748 14.34782078 -54.390625 4.65234375 C-39.20583886 -9.42744622 -17.37250281 -10.36254554 0 0 Z " fill="#8B8E90" transform="translate(692.9765625,594.703125)"/>
<path d="M0 0 C11.075625 -0.12375 11.075625 -0.12375 22.375 -0.25 C25.8407251 -0.30462402 25.8407251 -0.30462402 29.37646484 -0.36035156 C31.23794632 -0.37205004 33.09943815 -0.38223911 34.9609375 -0.390625 C36.37403198 -0.4213208 36.37403198 -0.4213208 37.81567383 -0.45263672 C45.78578702 -0.45676738 52.2322262 1.54363341 58.91796875 5.90234375 C64.10524091 11.12854478 67.34215917 18.26066295 67.625 25.625 C67.10726851 33.43599243 64.8723658 39.69734133 59 45 C55.47837609 47.86131943 52.62937448 50 48 50 C51.08189419 55.68035399 54.6591565 60.80920016 58.5 66 C62.3408435 71.19079984 65.91810581 76.31964601 69 82 C55.04335763 84.20884727 55.04335763 84.20884727 50.26025391 80.73730469 C45.96405072 76.16406048 42.87366764 70.55107982 39.96044922 65.02978516 C37.74357608 60.83196898 35.63999381 57.14960575 32 54 C26.03002056 52.19622889 20.21255228 52.76990547 14 53 C14 62.57 14 72.14 14 82 C9.38 82 4.76 82 0 82 C0 54.94 0 27.88 0 0 Z " fill="#8A8D8F" transform="translate(538,590)"/>
<path d="M0 0 C0.70801758 0.00821777 1.41603516 0.01643555 2.14550781 0.02490234 C13.53262303 0.26924976 23.92333571 4.11083571 32.0625 12.25 C29.0925 15.55 26.1225 18.85 23.0625 22.25 C22.24910156 21.7446875 21.43570313 21.239375 20.59765625 20.71875 C11.01431325 15.28567365 3.02446147 13.55182126 -7.9375 15.25 C-15.70441137 17.88151991 -20.25100683 23.08873792 -23.9375 30.25 C-27.28992968 37.13982101 -27.01750748 45.93553714 -25.1796875 53.27734375 C-21.46527346 63.00208917 -15.95375358 66.74187321 -6.9375 71.25 C3.08668052 72.08193879 11.0978965 70.73230175 20.0625 66.25 C20.37580467 63.52779617 20.57514983 60.9177157 20.6875 58.1875 C20.873125 54.2584375 20.873125 54.2584375 21.0625 50.25 C14.1325 50.25 7.2025 50.25 0.0625 50.25 C0.0625 46.29 0.0625 42.33 0.0625 38.25 C11.6125 38.25 23.1625 38.25 35.0625 38.25 C35.371875 46.6959375 35.371875 46.6959375 35.6875 55.3125 C35.77854004 57.07601807 35.86958008 58.83953613 35.96337891 60.65649414 C36.2982227 71.67695076 36.2982227 71.67695076 33.03588867 75.82983398 C30.45007708 77.6925094 27.99276911 79.00949768 25.0625 80.25 C24.42795898 80.57218506 23.79341797 80.89437012 23.13964844 81.22631836 C11.85850323 86.64714985 -2.54293995 87.22802794 -14.5625 84.125 C-24.3095984 80.49738425 -32.86853583 73.56866137 -37.75 64.375 C-42.58365015 53.73778964 -44.00406222 41.16147426 -41.02734375 29.765625 C-36.41352212 18.07529882 -28.49179219 8.58807128 -17.08984375 3.07421875 C-11.3639181 0.88153216 -6.11587702 -0.0863659 0 0 Z " fill="#8B8D8F" transform="translate(376.9375,587.75)"/>
<path d="M0 0 C20.13 0 40.26 0 61 0 C61 4.29 61 8.58 61 13 C45.82 13 30.64 13 15 13 C15 19.93 15 26.86 15 34 C28.53 34 42.06 34 56 34 C56 38.29 56 42.58 56 47 C42.47 47 28.94 47 15 47 C15 54.26 15 61.52 15 69 C30.51 69 46.02 69 62 69 C62 73.29 62 77.58 62 82 C41.54 82 21.08 82 0 82 C0 54.94 0 27.88 0 0 Z " fill="#8B8E90" transform="translate(253,590)"/>
<path d="M0 0 C4.95 0 9.9 0 15 0 C15.01458252 1.62421875 15.02916504 3.2484375 15.04418945 4.921875 C15.10231275 10.96783073 15.17954572 17.01341952 15.26245117 23.05908203 C15.29563439 25.67197702 15.32368671 28.28494255 15.34643555 30.89794922 C15.38010208 34.66143761 15.43242649 38.42428339 15.48828125 42.1875 C15.49467117 43.34926758 15.5010611 44.51103516 15.50764465 45.70800781 C15.65099093 55.80623203 15.65099093 55.80623203 20.34516907 64.51586914 C25.66182446 69.23928678 30.42737103 70.47822696 37.3671875 70.3125 C43.25879193 69.61319977 47.64319205 67.63512753 51.4375 63.0625 C53.82838996 58.37635568 55.24436841 54.77578145 55.31884766 49.4753418 C55.33871735 48.39459885 55.35858704 47.3138559 55.37905884 46.20036316 C55.39638565 44.46729668 55.39638565 44.46729668 55.4140625 42.69921875 C55.43342865 41.50770706 55.4527948 40.31619537 55.4727478 39.08857727 C55.53245896 35.28829068 55.57889581 31.48797366 55.625 27.6875 C55.6631875 25.10871085 55.70223968 22.52993435 55.7421875 19.95117188 C55.83815384 13.63421749 55.92221673 7.31720339 56 1 C60.62 1 65.24 1 70 1 C70.09955332 8.59476994 70.17179175 16.18915235 70.21972656 23.78442383 C70.23972885 26.36326726 70.26693956 28.942066 70.30175781 31.52075195 C70.35077817 35.24702039 70.37308374 38.97268447 70.390625 42.69921875 C70.41127014 43.8351799 70.43191528 44.97114105 70.45318604 46.14152527 C70.45644459 58.00728156 67.94651698 68.37035685 59.515625 76.96875 C55.68000263 80.06583638 51.70000982 81.65108021 47 83 C46.01 83.33 45.02 83.66 44 84 C31.25068441 85.17166356 20.46980529 84.6063135 10.1875 76.4375 C4.20829456 70.79693983 0.25611888 62.63325045 -0.12025452 54.3550415 C-0.11803391 53.35132507 -0.11581329 52.34760864 -0.11352539 51.31347656 C-0.11344986 50.17259583 -0.11337433 49.03171509 -0.11329651 47.85626221 C-0.10813522 46.63010193 -0.10297394 45.40394165 -0.09765625 44.140625 C-0.0962413 42.88111023 -0.09482635 41.62159546 -0.09336853 40.32391357 C-0.08872073 36.98334881 -0.07974281 33.64285279 -0.06866455 30.30230713 C-0.05841598 26.8903462 -0.05386354 23.47837815 -0.04882812 20.06640625 C-0.03779963 13.37758275 -0.02053524 6.68880079 0 0 Z " fill="#8B8E90" transform="translate(438,589)"/>
<path d="M0 0 C0 4.38206967 -0.56771975 5.30426964 -3 8.75 C-3.556875 9.54921875 -4.11375 10.3484375 -4.6875 11.171875 C-5.120625 11.77515625 -5.55375 12.3784375 -6 13 C-6.80824219 12.59007812 -7.61648437 12.18015625 -8.44921875 11.7578125 C-9.51785156 11.21898437 -10.58648437 10.68015625 -11.6875 10.125 C-12.74324219 9.59132813 -13.79898438 9.05765625 -14.88671875 8.5078125 C-21.39312452 5.35665487 -26.87800588 3.58636835 -34.06640625 5.5703125 C-37.48906974 6.9279452 -38.92565269 7.88847903 -41 11 C-41.50007794 14.45786015 -41.50007794 14.45786015 -41 18 C-38.40928676 21.15340208 -36.08637629 22.64480799 -32.25 23.9375 C-31.28964844 24.2675 -30.32929688 24.5975 -29.33984375 24.9375 C-26.89956567 25.71382238 -24.45936125 26.46272871 -22.00390625 27.1875 C-11.16889309 30.39961067 -3.10306391 33.01316814 3 43 C5.16439624 49.49318872 4.81463224 56.07875075 2 62.3125 C-1.80290177 69.04235426 -7.71198418 73.37808396 -15.125 75.52734375 C-30.9365793 78.12680176 -43.78275635 75.05290661 -57 66 C-57.66 65.34 -58.32 64.68 -59 64 C-58.6700572 60.60229115 -57.1807479 58.7318913 -54.9375 56.25 C-54.38964844 55.63640625 -53.84179688 55.0228125 -53.27734375 54.390625 C-52.85582031 53.93171875 -52.43429688 53.4728125 -52 53 C-49.6127811 54.15285205 -47.33149303 55.38981541 -45.0390625 56.7265625 C-36.6119952 61.41255187 -29.85570276 63.4223428 -20 62 C-16.09518708 60.69839569 -13.92439156 59.74749934 -12 56 C-11.37459122 51.12015398 -11.37459122 51.12015398 -13.59375 46.9375 C-16.57969602 44.53323177 -19.27924953 43.63624569 -22.9375 42.5 C-23.5962915 42.28915771 -24.25508301 42.07831543 -24.93383789 41.86108398 C-28.13849958 40.84335879 -31.3531027 39.90212914 -34.59375 39.00390625 C-43.30829437 36.55039551 -49.72138476 33.54736105 -55 26 C-57.75338475 20.92797546 -57.71921843 15.47840186 -56.5703125 9.921875 C-54.53881928 3.55151356 -50.49521849 -1.92321778 -44.71875 -5.35546875 C-29.23360224 -12.5044453 -14.07426182 -8.5609191 0 0 Z " fill="#8B8E90" transform="translate(224,597)"/>
<path d="M0 0 C1.39230835 0.00531738 1.39230835 0.00531738 2.81274414 0.01074219 C12.86287514 0.25289288 20.81080865 3.49873149 28.8125 9.5 C27.25548069 14.17105792 24.72802627 17.58705685 21.8125 21.5 C20.72582031 20.88511719 20.72582031 20.88511719 19.6171875 20.2578125 C11.20636768 15.57018226 4.59762317 12.45159395 -5.1875 13.5 C-9.30025909 15.04228466 -10.74530938 15.83671407 -13.1875 19.5 C-13.52241673 24.6343512 -13.52241673 24.6343512 -12.1875 29.5 C-8.86404908 31.01009552 -5.45034048 32.06961624 -1.94921875 33.0859375 C-0.47098633 33.52292969 -0.47098633 33.52292969 1.03710938 33.96875 C3.08280665 34.56913174 5.12967479 35.16553935 7.17773438 35.7578125 C22.77760513 40.39204121 22.77760513 40.39204121 27.1875 46 C27.64898438 46.5671875 28.11046875 47.134375 28.5859375 47.71875 C32.5177646 53.42866451 32.62488478 58.69104302 31.8125 65.5 C29.40828778 72.98091786 25.57988054 78.00945465 18.546875 81.68359375 C7.46885572 86.47632964 -4.90459773 85.7774601 -16.12890625 81.83984375 C-28.7259008 76.32162009 -28.7259008 76.32162009 -31.19921875 71.546875 C-31.18187121 68.51683831 -29.79976901 67.40765159 -27.75 65.25 C-26.76193359 64.19039062 -26.76193359 64.19039062 -25.75390625 63.109375 C-25.23699219 62.57828125 -24.72007812 62.0471875 -24.1875 61.5 C-20.54121092 62.85265563 -17.36182828 64.5092483 -14.0625 66.5625 C-8.67949756 69.9084696 -4.60176637 70.70467195 1.6875 70.75 C2.39519531 70.770625 3.10289062 70.79125 3.83203125 70.8125 C8.35651959 70.84620196 11.22824425 70.30743987 14.8125 67.5 C16.5589554 64.0070892 16.50504319 60.30219789 15.8125 56.5 C10.37206267 51.19906107 2.08168266 49.78096431 -5.125 48.125 C-13.80046248 45.9893313 -21.12066395 43.10025408 -26.1875 35.5 C-29.13523684 29.42619348 -28.91203849 23.10301061 -28.1875 16.5 C-25.71937454 9.67822835 -20.42427496 5.19899682 -14.12890625 1.89453125 C-9.50018417 -0.01910359 -4.95249833 -0.03386933 0 0 Z " fill="#8B8D8F" transform="translate(762.1875,588.5)"/>
<path d="M0 0 C5.94706585 4.23851655 10.74392821 9.01814768 12.578125 16.29296875 C14.34143334 27.60753063 12.9571384 36.56965011 7 46.25 C2.43077432 51.15561039 -4.36417422 54.39972272 -10.91015625 55.48046875 C-19.33702531 55.72936362 -26.13160901 53.81571133 -32.75 48.5625 C-39.54954356 42.02493535 -42.21451284 34.31579052 -42.6875 25 C-42.33867561 16.24063188 -39.08100703 8.47794795 -32.625 2.4375 C-23.50511544 -4.2834584 -9.99347208 -6.00457027 0 0 Z " fill="#FEFEFE" transform="translate(683,605)"/>
<path d="M0 0 C4.50101609 -0.13539153 8.99792821 -0.23433903 13.5 -0.3125 C15.40265625 -0.3753418 15.40265625 -0.3753418 17.34375 -0.43945312 C24.03103262 -0.52652712 29.00137137 -0.39511758 34.56445312 3.52661133 C37.40944658 6.44660036 38.30463159 9.36400071 38.375 13.375 C38.24671588 17.96304387 37.18716759 20.56766568 34 24 C27.35228077 27.94941747 20.60530383 27.34056857 13.0625 27.1875 C8.751875 27.125625 4.44125 27.06375 0 27 C0 18.09 0 9.18 0 0 Z " fill="#FEFEFE" transform="translate(552,603)"/>
</svg>
