<?xml version="1.0" encoding="UTF-8"?>
<svg version="1.1" xmlns="http://www.w3.org/2000/svg" width="1875" height="764">
<path d="M0 0 C2.21446491 -0.0034643 4.4289281 -0.008234 6.64338773 -0.01418173 C12.67700036 -0.02661522 18.7104692 -0.02055644 24.74408209 -0.01122308 C30.59908398 -0.00510374 36.45405629 -0.01314626 42.30905406 -0.02066517 C55.01058436 -0.03640123 67.71206918 -0.03511779 80.41360372 -0.02642844 C91.52873584 -0.01886229 102.64385135 -0.01692072 113.75898552 -0.02049637 C114.4981491 -0.02072552 115.23731267 -0.02095468 115.99887514 -0.02119078 C118.9998616 -0.02212489 122.00084804 -0.0230801 125.00183448 -0.02407007 C153.11480382 -0.03323329 181.2277443 -0.02494841 209.34070918 -0.00877938 C234.28366838 0.00545739 259.22658161 0.00418072 284.16954041 -0.01016235 C312.23474581 -0.02624713 340.29992576 -0.03258475 368.36513513 -0.02332556 C371.36013726 -0.0223635 374.35513939 -0.02142497 377.35014153 -0.02049637 C378.08751306 -0.02025914 378.8248846 -0.0200219 379.58460073 -0.01977748 C390.68982081 -0.01637382 401.79502242 -0.02033947 412.90023994 -0.02793503 C425.53430946 -0.03653351 438.16832665 -0.03432424 450.80238969 -0.0180928 C457.24310542 -0.01023131 463.6837281 -0.00708228 470.12444305 -0.01704025 C476.02939125 -0.02603153 481.93416084 -0.02098164 487.83909302 -0.0051076 C489.96601658 -0.00177851 492.09295547 -0.00341121 494.21986903 -0.01073496 C532.05990768 -0.13095603 563.15964459 11.00447229 590.48765564 37.38095093 C591.35132751 38.18145874 592.21499939 38.98196655 593.10484314 39.80673218 C614.33416301 60.01096028 627.37599439 89.3943061 628.5807499 118.64090352 C628.61711887 121.01945169 628.62416922 123.39616389 628.6190834 125.77498436 C628.62216236 127.13441008 628.62216236 127.13441008 628.62530351 128.52129894 C628.63094623 131.55024424 628.62951964 134.57914366 628.62809753 137.60809326 C628.63068274 139.80496352 628.63369633 142.00183331 628.63710093 144.19870245 C628.64515602 150.23012941 628.64695968 156.26154445 628.6476984 162.29297614 C628.64955157 168.80040286 628.65710027 175.30782343 628.66383362 181.81524658 C628.67838251 196.78451954 628.68394231 211.75379122 628.68852556 226.72306997 C628.69086404 234.12614396 628.69446698 241.52921718 628.69822094 248.93229056 C628.71105491 274.29171439 628.7217738 299.6511378 628.72522354 325.0105648 C628.72544517 326.60158363 628.72566696 328.19260246 628.72588889 329.78362129 C628.72610953 331.37840472 628.72633001 332.97318815 628.72655034 334.56797159 C628.72699288 337.76718736 628.72744 340.96640313 628.72789001 344.1656189 C628.72799941 344.9588345 628.7281088 345.7520501 628.7282215 346.56930253 C628.73185032 372.27632852 628.74776452 397.98332629 628.77108038 423.69034147 C628.79570669 450.89213069 628.80939769 478.09390379 628.81059146 505.29570448 C628.8107629 508.28498245 628.81097833 511.2742604 628.81122589 514.26353836 C628.81128166 514.99954118 628.81133743 515.73554399 628.81139489 516.49384992 C628.81254294 528.31058447 628.82354405 540.12728992 628.83811295 551.94401466 C628.85251835 563.83425737 628.8556922 575.724463 628.84767297 587.61471204 C628.84377509 594.04941157 628.84465396 600.48401372 628.85873032 606.91870117 C628.87152082 612.81977489 628.87022663 618.72067856 628.8581396 624.62175222 C628.8561915 626.74630411 628.85921958 628.87086827 628.86798397 630.99540298 C629.01611652 669.36039825 617.82224869 701.26585368 590.92515564 728.97470093 C586.40245948 733.51736484 581.66226286 737.59465297 576.48765564 741.38095093 C575.67506287 741.98133179 575.67506287 741.98133179 574.84605408 742.59384155 C560.75925908 752.88044115 545.50900952 759.62904603 528.48765564 763.38095093 C527.43962688 763.64560243 527.43962688 763.64560243 526.37042582 763.91560042 C522.31455275 764.57031879 518.32868347 764.52358024 514.226614 764.51796532 C513.28611297 764.52061714 512.34561194 764.52326897 511.37661088 764.52600116 C508.20718472 764.53369525 505.0377973 764.53425338 501.86836243 764.53485107 C499.58007375 764.53886565 497.29178578 764.54330386 495.00349867 764.54813063 C488.70080099 764.560103 482.39811097 764.56574615 476.09540415 764.57031178 C470.00015917 764.57517619 463.90492236 764.58563197 457.80968356 764.59532124 C441.47508532 764.62094532 425.1404824 764.6359873 408.80586984 764.64883171 C403.39347307 764.65308771 397.98107663 764.65765348 392.56868029 764.66241503 C363.77581809 764.68768047 334.9829553 764.7097233 306.19008446 764.72214317 C299.51941806 764.72506439 292.84875168 764.72803193 286.17808533 764.73104858 C285.3493568 764.73141949 284.52062827 764.7317904 283.66678676 764.73217255 C256.8174678 764.74431908 229.96821452 764.775248 203.11892639 764.81697011 C175.50414157 764.85980327 147.88939142 764.88639009 120.27457249 764.89161789 C116.3700511 764.89235828 112.46552978 764.89326895 108.56100845 764.89427567 C107.40840654 764.89456159 107.40840654 764.89456159 106.23251973 764.89485329 C93.89111484 764.89836007 81.54979246 764.91862678 69.20841782 764.9450723 C56.78893553 764.97128262 44.3695481 764.97891673 31.95004211 764.96797101 C25.22771417 764.96253846 18.50567906 764.96561579 11.78337288 764.99043655 C5.61928972 765.0130054 -0.54434572 765.01212944 -6.70843713 764.99323268 C-8.92867105 764.99044338 -11.14893582 764.99597097 -13.36912031 765.01104562 C-46.95960955 765.22502134 -74.9383939 752.98043789 -99.51234436 730.38095093 C-100.19683655 729.76735718 -100.88132874 729.15376343 -101.58656311 728.52157593 C-121.55060178 709.72094277 -136.37376683 679.78934307 -137.60631607 652.28388689 C-137.64376285 649.89331781 -137.65076242 647.50452281 -137.64656544 645.11366081 C-137.64891767 644.19677689 -137.6512699 643.27989297 -137.65369341 642.33522469 C-137.66035845 639.25815948 -137.65992594 636.18113675 -137.65951538 633.10406494 C-137.66281557 630.87734765 -137.66654147 628.65063096 -137.67065686 626.42391503 C-137.68066758 620.30061947 -137.68439217 614.17733371 -137.68704617 608.05403113 C-137.69055096 602.1291572 -137.69869865 596.20429004 -137.70659011 590.27942072 C-137.7274174 574.405444 -137.73790255 558.53146545 -137.74671971 542.65747826 C-137.75092964 535.14259783 -137.75615123 527.62771819 -137.76140424 520.11283843 C-137.77929508 494.37189838 -137.79428861 468.63095809 -137.80172443 442.89001274 C-137.80219919 441.27444037 -137.80267507 439.658868 -137.8031521 438.04329563 C-137.80338847 437.24214073 -137.80362485 436.44098582 -137.80386839 435.6155535 C-137.80506955 431.55672113 -137.80628501 427.49788876 -137.80751038 423.4390564 C-137.8078706 422.2308385 -137.8078706 422.2308385 -137.8082381 420.99821217 C-137.81612471 394.90377637 -137.83954302 368.80938612 -137.87206632 342.71497019 C-137.90641428 315.10597138 -137.92608027 287.4969992 -137.92936867 259.88797867 C-137.92978619 256.85313613 -137.93026574 253.81829361 -137.93079185 250.78345108 C-137.93091505 250.03622491 -137.93103824 249.28899873 -137.93116516 248.51912934 C-137.93349126 236.52600052 -137.94911834 224.53292484 -137.9696337 212.53981492 C-137.98995519 200.46781367 -137.99533928 188.39587581 -137.98586307 176.32386063 C-137.98112657 169.79169834 -137.98315294 163.25967339 -138.00262451 156.72753143 C-138.0203326 150.73494504 -138.01919655 144.74265426 -138.00372722 138.75006439 C-138.00136271 136.59445976 -138.00561378 134.43883425 -138.01755587 132.2832614 C-138.21370407 94.50529007 -126.17265149 63.11212184 -99.69984436 36.13095093 C-92.84759407 29.33607207 -85.72124964 23.45374009 -77.51234436 18.38095093 C-76.94257874 18.02597534 -76.37281311 17.67099976 -75.78578186 17.30526733 C-68.31543036 12.75563902 -60.51985674 9.42673258 -52.26234436 6.56845093 C-51.47851379 6.29041626 -50.69468323 6.01238159 -49.88710022 5.72592163 C-33.66850331 0.42303611 -16.89930782 -0.05825743 0 0 Z " fill="#13017C" transform="translate(137.51234436035156,-0.380950927734375)"/>
<path d="M0 0 C1.52173828 0.52207031 1.52173828 0.52207031 3.07421875 1.0546875 C20.92265489 7.82076133 33.53701622 20.00521858 41.51171875 37.2734375 C47.46506461 52.04059569 49.16487628 66.55421344 49.11352539 82.33447266 C49.11367142 83.52586853 49.11381744 84.7172644 49.1139679 85.94476318 C49.1133947 89.17962276 49.10841401 92.41443785 49.10139394 95.64928865 C49.09510025 99.04185572 49.09455188 102.43442385 49.09336853 105.82699585 C49.09027283 112.23696118 49.0820834 118.64690924 49.07201904 125.056867 C49.05970059 133.07827259 49.05426136 141.09968105 49.04882812 149.12109375 C49.0391168 163.41407591 49.01907992 177.70702046 49 192 C30.85 192 12.7 192 -6 192 C-6.33 185.4 -6.66 178.8 -7 172 C-8.0725 173.155 -9.145 174.31 -10.25 175.5 C-25.5294597 190.67204698 -45.15323326 195.90164315 -66.125 196.375 C-84.6870505 195.95061912 -102.88524852 190.65749693 -116.75 177.75 C-130.30701768 163.21765731 -132.65401819 147.59587042 -132.13183594 128.59423828 C-131.39895407 114.17275182 -123.92047993 101.16543006 -114 91 C-88.76275667 68.66358924 -53.47248575 62.63321365 -20.75 62.9375 C-19.80253906 62.94201172 -18.85507812 62.94652344 -17.87890625 62.95117188 C-15.58586558 62.96275289 -13.29297086 62.97905521 -11 63 C-13.37101008 51.58158005 -13.37101008 51.58158005 -20.6875 42.8125 C-38.68125387 32.96686109 -62.89652518 35.63729304 -81.96484375 41.1015625 C-89.24029482 43.3265214 -96.00348484 46.27177258 -102.70703125 49.86328125 C-105 51 -105 51 -107 51 C-110.09312325 41.91195745 -113.13655754 32.80793873 -115.9375 23.625 C-116.16074951 22.91867432 -116.38399902 22.21234863 -116.61401367 21.48461914 C-117.38540278 18.9065308 -117.98450337 16.46571446 -118.07421875 13.76953125 C-116.21490177 10.70672911 -113.01096267 9.54035913 -109.875 8.0625 C-109.15578369 7.71550049 -108.43656738 7.36850098 -107.69555664 7.01098633 C-75.99724896 -7.91014986 -33.36451676 -11.53839394 0 0 Z " fill="#FFFF01" transform="translate(428,447)"/>
<path d="M0 0 C19.8 0 39.6 0 60 0 C60.03738281 7.99476563 60.07476563 15.98953125 60.11328125 24.2265625 C60.14358207 29.31252094 60.17474389 34.39844528 60.20898438 39.484375 C60.26316756 47.5445787 60.31472135 55.60471186 60.34643555 63.66503906 C60.37257817 70.16853353 60.41305767 76.67179958 60.46318626 83.17515182 C60.47978108 85.6476188 60.49134107 88.12012522 60.49761391 90.59263992 C60.14172824 116.69660056 60.14172824 116.69660056 71.37109375 139.6484375 C78.49812085 146.31109739 87.34234126 147.60846497 96.67333984 147.46582031 C107.11198132 147.01669713 114.31632336 143.74270231 121.8359375 136.4140625 C130.81469158 126.39805164 131.29127594 114.2004087 131.31884766 101.26464844 C131.32889328 100.16074265 131.3389389 99.05683685 131.34928894 97.91947937 C131.37987095 94.31611595 131.39708604 90.71282594 131.4140625 87.109375 C131.43279427 84.59303161 131.45236915 82.07669436 131.4727478 79.56036377 C131.51865466 73.64278481 131.55613813 67.72520069 131.58942068 61.80753827 C131.6383735 53.21222673 131.7046387 44.61704492 131.76873779 36.02183533 C131.85669802 24.01459738 131.92664304 12.00737602 132 0 C151.8 0 171.6 0 192 0 C192 63.69 192 127.38 192 193 C174.18 193 156.36 193 138 193 C137.67 183.76 137.34 174.52 137 165 C133.535 169.455 133.535 169.455 130 174 C117.57150968 188.76585559 99.87825067 195.28768701 81 197 C60.08803282 198.00983343 40.28054462 194.95475253 24 181 C23.01966797 180.16855469 23.01966797 180.16855469 22.01953125 179.3203125 C8.50101651 166.84627462 1.65309697 146.98831359 0 129 C-0.13948142 124.78754415 -0.12635433 120.57793911 -0.11352539 116.36352539 C-0.11367142 115.1042926 -0.11381744 113.84505981 -0.1139679 112.54766846 C-0.11425361 109.11222767 -0.1083934 105.67682214 -0.10139394 102.24138951 C-0.0951228 98.64460636 -0.09455363 95.04782232 -0.09336853 91.45103455 C-0.09026628 84.64785259 -0.08206784 77.8446868 -0.07201904 71.04151195 C-0.05872819 61.8428345 -0.05334906 52.64415259 -0.04751682 43.44546795 C-0.03812717 28.96363321 -0.01820088 14.48183256 0 0 Z " fill="#FFFF01" transform="translate(510,446)"/>
<path d="M0 0 C5.1497984 3.86867016 8.94270771 8.67622411 12.6875 13.875 C16.75635187 9.80614813 14.97377617 2.58479066 15.6875 -3.125 C27.8975 -3.125 40.1075 -3.125 52.6875 -3.125 C52.60175769 18.54723935 52.50800853 40.2193971 52.39997292 61.89153576 C52.3500508 71.95640258 52.30360728 82.02126209 52.265625 92.08618164 C52.23247434 100.86835437 52.1925197 109.6504666 52.14470994 118.43257219 C52.11967184 123.07389753 52.09782644 127.71518394 52.08415604 132.35655785 C51.84926514 208.97176758 51.84926514 208.97176758 29.0625 233.125 C12.19275803 248.95308622 -9.46131805 253.56700514 -32.01953125 253.05859375 C-48.44573599 252.46147951 -63.89044861 249.0220723 -78.3125 240.875 C-77.58104384 232.88049326 -75.60975079 225.16527925 -73.75 217.375 C-73.41693407 215.96623648 -73.0842485 214.55738298 -72.75195312 213.1484375 C-71.94318782 209.72290907 -71.1292711 206.29862954 -70.3125 202.875 C-67.55531472 203.9689167 -64.82379959 205.08869482 -62.10546875 206.27734375 C-46.14796409 213.07181757 -30.18574585 216.59161881 -13.3125 210.875 C-4.70008684 207.00820226 0.88624134 200.42423482 4.5 191.8125 C8.71761895 179.78396173 9.00910712 167.47127882 8.6875 154.875 C8.33558594 155.38289062 7.98367188 155.89078125 7.62109375 156.4140625 C0.14292796 166.84053909 -9.19357561 173.22940047 -22.015625 175.59375 C-36.6849252 177.38999084 -50.1868835 173.84143045 -61.9375 164.87109375 C-81.30726821 148.36545285 -88.96217455 123.76925493 -91.03515625 99.13671875 C-93.09814777 69.78687458 -88.26395097 36.11607451 -68.40527344 13.11938477 C-51.04953666 -6.10881771 -23.16005698 -14.93400016 0 0 Z M-37.78125 42.72265625 C-50.17283947 61.12114428 -50.06573579 86.37155129 -46.28515625 107.33984375 C-44.05197183 118.45957794 -39.17176277 128.01305856 -30.375 135.3125 C-23.80293536 138.66559421 -17.54204163 139.81216264 -10.3125 137.875 C-2.46694151 134.41836454 2.72191817 128.63759856 6 120.8125 C8.8048267 113.51048282 8.87112647 106.31285899 8.92578125 98.58984375 C8.933853 97.4971669 8.94192474 96.40449005 8.95024109 95.27870178 C8.96404446 92.96812508 8.97478329 90.65752831 8.98266602 88.34692383 C8.99416084 86.0031123 9.01457267 83.65932642 9.04418945 81.31567383 C9.74417658 57.84027201 9.74417658 57.84027201 -1.3125 37.875 C-5.65925483 33.64263345 -10.78459842 31.41775409 -16.75 30.5 C-25.78104755 31.82161671 -32.08646423 35.55873692 -37.78125 42.72265625 Z " fill="#FC470C" transform="translate(1244.3125,454.125)"/>
<path d="M0 0 C19.47 0 38.94 0 59 0 C59 21.12 59 42.24 59 64 C70.88 64 82.76 64 95 64 C95 78.85 95 93.7 95 109 C83.12 109 71.24 109 59 109 C59.09095868 123.15249447 59.09095868 123.15249447 59.20898438 137.3046875 C59.2631684 143.08265696 59.31428364 148.86053233 59.34643555 154.63867188 C59.37257776 159.30078195 59.41305632 163.96257335 59.46318626 168.62448502 C59.47978148 170.3968927 59.49134125 172.16935541 59.49761391 173.94182968 C59.40147179 191.04991176 59.40147179 191.04991176 67 206 C72.56316944 210.2007606 76.61307464 211.16425844 83.4375 211.125 C84.75621094 211.12757813 86.07492187 211.13015625 87.43359375 211.1328125 C90.24864003 211.02798055 92.33709569 210.73678929 95 210 C95.61625562 225.33755339 96.18275448 240.64862389 96 256 C79.32814538 260.72259387 79.32814538 260.72259387 72 261 C70.24816406 261.07734375 70.24816406 261.07734375 68.4609375 261.15625 C51.15828174 261.67252337 33.39824176 258.76910544 20 247 C19.33355469 246.44957031 18.66710937 245.89914062 17.98046875 245.33203125 C5.08951984 233.77207898 1.39408094 215.56153193 0 199 C-0.12290413 195.90417576 -0.12728936 192.81448679 -0.11352539 189.71655273 C-0.11367142 188.83741714 -0.11381744 187.95828156 -0.1139679 187.05250549 C-0.11327755 184.17950881 -0.10552674 181.30657895 -0.09765625 178.43359375 C-0.09578895 176.428635 -0.09436652 174.4236758 -0.09336853 172.41871643 C-0.08956796 167.16627725 -0.07975891 161.91386615 -0.06866455 156.66143799 C-0.05839731 151.29187398 -0.05385957 145.92230539 -0.04882812 140.55273438 C-0.03813424 130.03514199 -0.02055759 119.51757773 0 109 C-8.91 109 -17.82 109 -27 109 C-27 94.15 -27 79.3 -27 64 C-18.09 64 -9.18 64 0 64 C0 42.88 0 21.76 0 0 Z " fill="#FFFF01" transform="translate(178,382)"/>
<path d="M0 0 C-1.32729628 8.63577666 -3.06955703 17.11983706 -5.0625 25.625 C-5.33126953 26.79417969 -5.60003906 27.96335937 -5.87695312 29.16796875 C-7.86717059 37.73434118 -7.86717059 37.73434118 -9 40 C-11.84679503 38.86128199 -14.691411 37.71854065 -17.53125 36.5625 C-25.95271657 33.21089427 -33.89673475 30.77710801 -43 30 C-43.78632812 29.92910156 -44.57265625 29.85820312 -45.3828125 29.78515625 C-54.28664877 29.38623885 -63.39825951 31.48813293 -70.3125 37.25 C-76.83995568 44.0192133 -78.32546503 50.50875645 -78.203125 59.71484375 C-77.65910872 68.51326094 -73.46409218 74.16728427 -67 80 C-59.13259321 85.90323839 -50.45464441 90.41707527 -41.8125 95.0625 C-34.06884763 99.22573994 -26.79006835 103.37229928 -20 109 C-19.15695312 109.68191406 -18.31390625 110.36382812 -17.4453125 111.06640625 C-2.96310829 123.369677 5.53228542 139.20570949 8 158 C9.28912695 181.65647884 5.52640222 202.77858406 -10.05859375 221.46875 C-23.93390494 236.33697337 -44.06493984 243.45948213 -64.03125 244.3203125 C-84.80005196 244.85185538 -107.08715335 242.51540142 -125 231 C-124.32550576 223.45565706 -122.96005695 216.08803782 -121.47094727 208.66845703 C-121.05947122 206.60984704 -120.65940471 204.54921783 -120.25976562 202.48828125 C-119.99808298 201.17173823 -119.73573728 199.8553268 -119.47265625 198.5390625 C-119.12086304 196.76329834 -119.12086304 196.76329834 -118.76196289 194.95166016 C-118 192 -118 192 -116 189 C-115.00742187 189.53109375 -114.01484375 190.0621875 -112.9921875 190.609375 C-95.66148862 199.69114203 -74.80381193 206.26053648 -55.1875 200.75 C-47.65615722 197.93064118 -41.65644747 193.17360556 -37.95703125 185.96875 C-34.45920633 176.9039643 -35.02035007 167.43649074 -38.6796875 158.53125 C-45.5078863 145.440502 -59.43854191 138.89867437 -71.84960938 132.16943359 C-80.07225572 127.69776284 -87.81972573 123.03853454 -95 117 C-96.21816406 116.01773438 -96.21816406 116.01773438 -97.4609375 115.015625 C-107.34909382 106.6791486 -114.52214046 96.13412135 -119 84 C-119.31839844 83.16082031 -119.63679687 82.32164062 -119.96484375 81.45703125 C-125.61699402 63.40661586 -122.65319458 42.61194902 -114.875 25.75 C-105.88948647 9.01638476 -92.17461848 -2.16524873 -74.08203125 -7.9296875 C-50.96470106 -14.4811576 -20.63150595 -13.7543373 0 0 Z " fill="#FC470C" transform="translate(970,390)"/>
<path d="M0 0 C14.19 0 28.38 0 43 0 C43.01458252 3.41561279 43.02916504 6.83122559 43.04418945 10.3503418 C43.09465868 21.66993511 43.16112799 32.98939739 43.23571491 44.30885601 C43.28052434 51.16788373 43.31997241 58.02686125 43.34643555 64.88598633 C43.37201737 71.51265951 43.41302085 78.13912489 43.46318626 84.76566505 C43.47979572 87.28640748 43.49134668 89.80718878 43.49761391 92.32797813 C42.98133515 117.57947671 42.98133515 117.57947671 54.1875 139.4375 C60.10714805 142.72619336 65.74313607 143.66931881 72.3125 141.875 C79.73329212 139.19655784 83.47110559 134.87303168 87 128 C89.90584526 120.6968952 90.44285152 113.82671631 90.43237305 106.03271484 C90.4425647 104.88033325 90.45275635 103.72795166 90.46325684 102.54064941 C90.493245 98.7640284 90.50263133 94.98766164 90.51171875 91.2109375 C90.52857589 88.57963223 90.54672752 85.94833496 90.56611633 83.31704712 C90.60961418 77.11961245 90.63826331 70.92220374 90.66143972 64.72466338 C90.68858162 57.66282018 90.73248714 50.60111139 90.77772844 43.53936458 C90.87033496 29.02631087 90.93991276 14.51322587 91 0 C105.19 0 119.38 0 134 0 C134.33 59.4 134.66 118.8 135 180 C122.79 180 110.58 180 98 180 C97.01 173.07 96.02 166.14 95 159 C93.88625 160.485 92.7725 161.97 91.625 163.5 C82.67607816 174.61931061 71.51555568 181.8738975 57.23046875 183.77734375 C43.73752672 184.70732887 31.15461257 182.78569925 20.625 173.8125 C5.14553746 158.58392016 0.09769356 137.51903361 -0.12025452 116.28611755 C-0.12312455 114.11709669 -0.12056073 111.94806409 -0.11352539 109.77905273 C-0.11367142 108.58780289 -0.11381744 107.39655304 -0.1139679 106.16920471 C-0.11339406 102.93015392 -0.10840788 99.69114735 -0.10139394 96.45210528 C-0.09510695 93.05686307 -0.0945524 89.66161982 -0.09336853 86.26637268 C-0.09027089 79.84929088 -0.08207878 73.43222629 -0.07201904 67.01515204 C-0.06080904 59.70432303 -0.05533518 52.39349317 -0.05032361 45.08265769 C-0.03989473 30.05509399 -0.0215689 15.02755262 0 0 Z " fill="#FC470C" transform="translate(1332,451)"/>
<path d="M0 0 C1.06444336 0.00563965 2.12888672 0.0112793 3.22558594 0.01708984 C21.39284595 0.29842889 35.56331147 6.96789538 48.5625 19.625 C70.54864872 42.79958919 73.00712164 74.21904283 72.31933594 104.578125 C71.42943916 129.78527533 62.72922244 153.83610224 44.1875 171.3125 C29.12297821 184.1184089 11.04731704 189.37982733 -8.52734375 188.0625 C-27.9132135 185.66336474 -43.42153007 177.34818289 -55.8125 162.3125 C-74.64719363 137.42671812 -77.58106087 102.93367984 -73.55859375 72.921875 C-70.06879419 49.99589866 -60.47268064 26.64669865 -41.28515625 12.44140625 C-28.28349269 3.76741262 -15.50839199 -0.08558715 0 0 Z M-19.15234375 45.1015625 C-33.25504701 63.88304496 -33.30194245 92.47248328 -30.15234375 114.81640625 C-27.64827673 128.8192415 -21.87091848 141.78201226 -10.125 150.25 C-4.3831277 152.09173262 1.7986057 152.58333536 7.53125 150.43359375 C18.15948096 144.24060532 22.87640702 133.69959825 25.90771484 122.22241211 C31.7055038 99.2690458 31.64806369 72.0506883 20.7734375 50.51171875 C16.95226608 44.43258239 11.43828867 37.99872992 4.1875 36.3125 C-5.50557963 35.23549115 -12.52088305 37.94139764 -19.15234375 45.1015625 Z " fill="#FC470C" transform="translate(1676.8125,446.6875)"/>
<path d="M0 0 C18.00506705 13.17840751 25.13483594 34.31587262 28.63964844 55.50463867 C29.85107683 63.89353409 30.15879831 72.22102368 30.125 80.6875 C30.12886719 81.66783203 30.13273437 82.64816406 30.13671875 83.65820312 C30.13478516 85.10163086 30.13478516 85.10163086 30.1328125 86.57421875 C30.13168457 87.42588623 30.13055664 88.27755371 30.12939453 89.1550293 C29.96425964 92.7858158 29.45080919 96.39352648 29 100 C-2.02 100 -33.04 100 -65 100 C-61.33025868 119.2057104 -61.33025868 119.2057104 -48.93359375 133.43359375 C-40.02211696 138.65649406 -31.78761129 140.53839136 -21.5 140.4375 C-20.45134766 140.43282715 -19.40269531 140.4281543 -18.32226562 140.42333984 C-9.06739797 140.24949306 -0.86235276 138.59432121 8 136 C10.66190422 135.31249599 13.32999993 134.65568586 16 134 C16.81903545 137.97784986 17.62902594 141.95749132 18.4375 145.9375 C18.66759766 147.05447266 18.89769531 148.17144531 19.13476562 149.32226562 C20.39400752 155.54547556 21.41662327 161.67673269 22 168 C-0.48688885 178.94189611 -30.40651564 182.66989107 -54.53125 175.32421875 C-74.51555271 167.69507616 -88.27777082 155.44128395 -97.28125 135.95703125 C-110.22327222 106.69041283 -109.44496307 68.69292592 -98 39 C-89.85066891 19.49496948 -77.7149322 3.29569997 -57.89453125 -5.35546875 C-39.1997076 -12.34395209 -16.7538053 -11.18562883 0 0 Z M-56.46875 36.4140625 C-61.65954646 45.18015244 -65 54.76578433 -65 65 C-46.85 65 -28.7 65 -10 65 C-10 53.89090759 -11.20940707 44.56901072 -17 35 C-17.53625 34.113125 -18.0725 33.22625 -18.625 32.3125 C-23.42056509 27.64313399 -29.26971321 24.7465458 -36 24.375 C-44.8771094 24.91849649 -51.42666512 29.25525331 -56.46875 36.4140625 Z " fill="#FC470C" transform="translate(1104,456)"/>
<path d="M0 0 C20.13 0 40.26 0 61 0 C61 84.81 61 169.62 61 257 C40.87 257 20.74 257 0 257 C0 172.19 0 87.38 0 0 Z " fill="#FFFF01" transform="translate(63,382)"/>
<path d="M0 0 C-1.33741855 8.00158984 -3.11379814 15.83034056 -5.125 23.6875 C-5.40214844 24.78255859 -5.67929688 25.87761719 -5.96484375 27.00585938 C-6.63996415 29.67142094 -7.31839328 32.33609112 -8 35 C-11.57528092 33.85263191 -14.98544695 32.61287283 -18.375 31 C-27.22634241 27.05953527 -36.88542405 25.12301077 -46.47265625 27.65234375 C-50.67582716 29.4828836 -53.38279783 31.85833297 -55.375 36.01171875 C-57.02112325 41.24844834 -56.552749 45.54275264 -54.625 50.625 C-48.85226269 59.19604726 -37.70395602 63.39839198 -28.75219727 67.82910156 C-13.77258013 75.38493331 -1.82222952 86.38909496 3.67578125 102.5859375 C5.39559819 108.64389334 5.49505832 114.54869289 5.4375 120.8125 C5.42992676 121.96234375 5.42235352 123.1121875 5.41455078 124.296875 C5.12889625 138.99244544 0.7775762 151.32259074 -9.26171875 162.34765625 C-22.20967775 174.65549143 -38.91044485 178.40399811 -56.25 178.3125 C-57.3524707 178.30758545 -58.45494141 178.3026709 -59.59082031 178.29760742 C-74.26576398 178.08688474 -88.43150086 174.93314441 -101 167 C-100.34844387 159.28854454 -98.73113675 151.95745735 -96.9375 144.4375 C-96.65583984 143.23802734 -96.37417969 142.03855469 -96.08398438 140.80273438 C-95.39399438 137.8673532 -94.69922991 134.93319129 -94 132 C-89.45819045 132 -86.55606409 133.41976393 -82.5625 135.3125 C-70.55670342 140.76843561 -57.86143636 144.75706535 -45.01171875 139.98046875 C-41.10039904 138.07417507 -38.80348491 135.41566389 -36.6875 131.6875 C-35.29157546 126.23070406 -35.27196706 120.9066188 -37.7824707 115.77172852 C-43.02707149 108.1398721 -51.26499382 103.96246671 -59.375 100.0625 C-67.83678372 95.8155109 -75.22546096 91.71086856 -82 85 C-82.96679688 84.08927734 -82.96679688 84.08927734 -83.953125 83.16015625 C-93.44477107 73.40026801 -97.85083605 60.61610259 -98.05859375 47.22265625 C-97.78350081 31.80237776 -92.96375209 18.7601273 -82.5 7.25 C-81.675 6.5075 -80.85 5.765 -80 5 C-79.30390625 4.29810547 -79.30390625 4.29810547 -78.59375 3.58203125 C-58.04437247 -16.01038997 -23.1873838 -11.7133847 0 0 Z " fill="#FC470C" transform="translate(1870,456)"/>
<path d="M0 0 C0 15.51 0 31.02 0 47 C-5.28 47 -10.56 47 -16 47 C-26.35499973 49.85290809 -32.33380515 53.84572529 -37.6796875 63.25 C-42.48011695 73.2485276 -43.13532653 84.08759803 -43.20532227 94.99609375 C-43.21522186 95.96286545 -43.22512146 96.92963715 -43.23532104 97.92570496 C-43.26671069 101.09627906 -43.29160366 104.26686811 -43.31640625 107.4375 C-43.33699527 109.64567436 -43.35799224 111.85384495 -43.37937927 114.06201172 C-43.43439878 119.85529516 -43.48389628 125.64861298 -43.53222656 131.44195557 C-43.58258908 137.36107417 -43.63819793 143.28014327 -43.69335938 149.19921875 C-43.80069463 160.79943832 -43.90170845 172.39970028 -44 184 C-57.86 184 -71.72 184 -86 184 C-86.02505615 179.96845703 -86.0501123 175.93691406 -86.07592773 171.78320312 C-86.16032368 158.29254134 -86.24883783 144.80190902 -86.33933926 131.31128693 C-86.39398236 123.15154639 -86.44730975 114.99180163 -86.49731445 106.83203125 C-86.55530814 97.39840861 -86.61677859 87.96481451 -86.68359375 78.53125 C-86.68900665 77.7670084 -86.69441955 77.0027668 -86.69999647 76.21536636 C-86.87286992 52.1329931 -87.27657055 28.0737867 -88 4 C-75.79 4 -63.58 4 -51 4 C-50.23687834 7.05248663 -49.84278851 9.33695675 -49.71875 12.40625 C-49.66267578 13.64568359 -49.66267578 13.64568359 -49.60546875 14.91015625 C-49.53515625 16.63671875 -49.46484375 18.36328125 -49.39453125 20.08984375 C-49.33845703 21.32927734 -49.33845703 21.32927734 -49.28125 22.59375 C-49.25095703 23.34333984 -49.22066406 24.09292969 -49.18945312 24.86523438 C-48.9999369 27.00071096 -48.57669277 28.93838171 -48 31 C-47.67128906 30.24976563 -47.34257813 29.49953125 -47.00390625 28.7265625 C-41.36478842 16.59252577 -33.32096835 7.53871001 -21.5625 1.125 C-17 0 -17 0 0 0 Z " fill="#FC470C" transform="translate(1589,447)"/>
<path d="M0 0 C0.07480519 3.98347226 0.12890718 7.96666594 0.16479492 11.95068359 C0.18709408 13.96336248 0.22523653 15.97584584 0.26367188 17.98828125 C0.34661749 28.99239889 -1.01265076 35.67722031 -8.6953125 43.82421875 C-18.10417431 52.70682219 -28.04089224 57 -41 57 C-49.23855741 56.28939667 -56.11729426 54.43099592 -61.8125 48.125 C-66.78581217 41.02026833 -66.87133328 33.40743924 -66 25 C-63.78683038 17.06052258 -59.0036135 12.09942048 -52 8 C-36.27326384 -0.2453031 -17.36676307 -0.57253065 0 0 Z " fill="#13017C" transform="translate(418,548)"/>
<path d="M0 0 C1.21067642 0.05161285 2.42135284 0.10322571 3.66871643 0.15640259 C4.92398636 0.17055206 6.17925629 0.18470154 7.4725647 0.19927979 C10.79138938 0.24564886 14.10318158 0.33521649 17.4200592 0.44631958 C20.81157512 0.54911746 24.20382199 0.59439253 27.59645081 0.64468384 C34.23835056 0.75473953 40.87695618 0.92190737 47.51637268 1.13296509 C46.12952181 4.26050559 44.5239256 6.36608685 42.09571838 8.76480103 C41.39771622 9.45942444 40.69971405 10.15404785 39.9805603 10.86972046 C39.2253862 11.61143494 38.4702121 12.35314941 37.69215393 13.11734009 C36.91252792 13.89176453 36.13290192 14.66618896 35.32965088 15.46408081 C32.83408906 17.94183488 30.3319699 20.41282552 27.82887268 22.88296509 C25.34445536 25.3396303 22.86155522 27.79777964 20.38165283 30.25900269 C18.83955967 31.78898908 17.29480229 33.31629661 15.74691772 34.84042358 C12.30685485 38.24900997 8.97208554 41.69343242 5.7983551 45.35269165 C5.22797516 46.00222305 4.65759521 46.65175446 4.06993103 47.32096863 C2.73494091 48.87803752 1.45970002 50.4859822 0.19728088 52.10244751 C-3.84036581 55.16055766 -7.44809542 54.76032814 -12.37815857 54.62124634 C-13.32551376 54.6141716 -14.27286896 54.60709686 -15.24893188 54.59980774 C-18.26547753 54.57188843 -21.28014571 54.50915424 -24.29612732 54.44546509 C-26.34492858 54.42037905 -28.39375902 54.39756641 -30.44261169 54.37710571 C-35.45700353 54.32206967 -40.46999746 54.23581365 -45.48362732 54.13296509 C-44.28180411 50.89216016 -42.99340277 48.1858934 -40.93675232 45.41030884 C-40.4283783 44.71679321 -39.92000427 44.02327759 -39.39622498 43.30874634 C-38.84756775 42.57011353 -38.29891052 41.83148071 -37.73362732 41.07046509 C-36.55781725 39.46597081 -35.3833887 37.8604634 -34.21018982 36.25405884 C-33.59949646 35.41858521 -32.9888031 34.58311157 -32.35960388 33.72232056 C-29.22459415 29.3951585 -26.16550732 25.01551592 -23.10862732 20.63296509 C-22.27186462 19.43401611 -22.27186462 19.43401611 -21.41819763 18.21084595 C-20.87518005 17.43233276 -20.33216248 16.65381958 -19.77268982 15.85171509 C-19.25552902 15.13241318 -18.73836823 14.41311127 -18.20553589 13.67201233 C-16.44674479 11.17603061 -16.44674479 11.17603061 -15.09356689 8.51898193 C-11.09992984 1.51325541 -7.98662036 -0.00528852 0 0 Z " fill="#FFFF01" transform="translate(629.4836273193359,380.8670349121094)"/>
</svg>
