<?xml version="1.0" encoding="UTF-8"?>
<!DOCTYPE svg PUBLIC "-//W3C//DTD SVG 1.1//EN" "http://www.w3.org/Graphics/SVG/1.1/DTD/svg11.dtd">
<svg xmlns="http://www.w3.org/2000/svg" version="1.1" width="500px" height="250px" style="shape-rendering:geometricPrecision; text-rendering:geometricPrecision; image-rendering:optimizeQuality; fill-rule:evenodd; clip-rule:evenodd" xmlns:xlink="http://www.w3.org/1999/xlink">
<g><path style="opacity:1" fill="#554d52" d="M 251.5,50.5 C 252.623,49.2426 253.289,49.5759 253.5,51.5C 252.833,51.1667 252.167,50.8333 251.5,50.5 Z"/></g>
<g><path style="opacity:1" fill="#504b50" d="M 256.5,53.5 C 257.525,53.8966 257.692,54.5632 257,55.5C 256.536,54.9056 256.369,54.2389 256.5,53.5 Z"/></g>
<g><path style="opacity:1" fill="#5a5054" d="M 233.5,57.5 C 233.158,58.3382 232.492,58.6716 231.5,58.5C 232.006,56.8946 232.673,56.5613 233.5,57.5 Z"/></g>
<g><path style="opacity:1" fill="#d60518" d="M 224.5,124.5 C 223.078,124.291 221.745,123.791 220.5,123C 220.833,122.667 221.167,122.333 221.5,122C 220.584,121.722 219.918,121.222 219.5,120.5C 219.144,118.81 218.144,117.81 216.5,117.5C 215.5,115.833 214.167,114.5 212.5,113.5C 212.5,112.833 212.167,112.5 211.5,112.5C 211.19,110.856 210.19,109.856 208.5,109.5C 206.495,108.746 205.828,107.579 206.5,106C 205.672,105.085 204.672,104.419 203.5,104C 204.458,102.853 204.125,101.853 202.5,101C 202.673,98.7402 202.673,96.4069 202.5,94C 203.582,92.6703 204.249,91.1703 204.5,89.5C 206.25,88.3406 207.25,86.674 207.5,84.5C 207.5,83.8333 207.5,83.1667 207.5,82.5C 209.144,82.1898 210.144,81.1898 210.5,79.5C 212.694,75.7725 215.361,72.4392 218.5,69.5C 218.833,69.5 219.167,69.5 219.5,69.5C 222.436,67.7447 225.269,65.7447 228,63.5C 229,66.1667 230,66.1667 231,63.5C 231.333,64.1667 231.667,64.8333 232,65.5C 234.382,64.0157 236.549,62.1824 238.5,60C 242.667,60.498 243.333,58.998 240.5,55.5C 243.318,54.1205 245.985,54.2871 248.5,56C 246.567,59.2819 243.234,62.6152 238.5,66C 238.833,66.3333 239.167,66.6667 239.5,67C 237.833,68 236.167,69 234.5,70C 235.061,71.5655 234.394,72.8989 232.5,74C 233.328,74.9147 234.328,75.5814 235.5,76C 234.833,76.3333 234.167,76.6667 233.5,77C 233.381,78.2812 233.881,79.4479 235,80.5C 235.667,79.1667 236.333,79.1667 237,80.5C 237.667,77.8333 238.333,77.8333 239,80.5C 239.965,78.7397 241.132,78.4063 242.5,79.5C 241.846,81.1151 241.346,82.7818 241,84.5C 239.334,83.6598 239.167,84.1598 240.5,86C 239.5,86.8333 238.5,87.6667 237.5,88.5C 237.817,91.0867 236.483,92.92 233.5,94C 234.925,95.7141 234.592,97.0475 232.5,98C 233.833,99.8402 233.666,100.34 232,99.5C 231.394,102.43 230.56,105.263 229.5,108C 229.833,108.333 230.167,108.667 230.5,109C 227.456,109.359 227.122,110.026 229.5,111C 228.134,113.382 228.467,115.548 230.5,117.5C 229.975,118.192 229.308,118.692 228.5,119C 229.724,121.39 230.224,123.89 230,126.5C 228.275,125.536 226.441,124.869 224.5,124.5 Z"/></g>
<g><path style="opacity:1" fill="#464145" d="M 250.5,62.5 C 250.351,63.552 250.517,64.552 251,65.5C 253.415,66.4113 254.915,68.078 255.5,70.5C 252.833,68.5 250.167,66.5 247.5,64.5C 248.29,63.5987 249.29,62.9321 250.5,62.5 Z"/></g>
<g><path style="opacity:1" fill="#63585d" d="M 220.5,67.5 C 220.167,68.1667 219.833,68.8333 219.5,69.5C 219.167,69.5 218.833,69.5 218.5,69.5C 218.369,68.7611 218.536,68.0944 219,67.5C 219.69,66.2617 220.19,66.2617 220.5,67.5 Z"/></g>
<g><path style="opacity:1" fill="#12185c" d="M 247.5,64.5 C 250.167,66.5 252.833,68.5 255.5,70.5C 256.167,70.5 256.5,70.8333 256.5,71.5C 258.808,73.4707 261.142,75.4707 263.5,77.5C 265.599,78.861 267.599,80.361 269.5,82C 270.252,82.6708 270.586,83.5041 270.5,84.5C 271.124,86.754 272.457,88.4206 274.5,89.5C 276.912,89.6941 277.912,91.0274 277.5,93.5C 278.265,96.0961 278.599,98.7628 278.5,101.5C 276.174,104.828 273.841,108.161 271.5,111.5C 271.5,112.833 270.833,113.5 269.5,113.5C 266.833,115.5 264.5,117.833 262.5,120.5C 262.5,122.5 261.5,123.5 259.5,123.5C 256.208,125.458 253.208,127.791 250.5,130.5C 250.5,131.167 250.167,131.5 249.5,131.5C 245.879,132.373 242.212,133.039 238.5,133.5C 231.827,128.131 229.66,121.131 232,112.5C 235.555,102.51 239.888,92.8435 245,83.5C 245.667,81.1667 245.667,78.8333 245,76.5C 244.617,75.944 244.117,75.6107 243.5,75.5C 242.081,74.5489 240.415,74.2155 238.5,74.5C 240.766,70.5644 243.766,67.2311 247.5,64.5 Z"/></g>
<g><path style="opacity:1" fill="#810832" d="M 238.5,74.5 C 240.415,74.2155 242.081,74.5489 243.5,75.5C 241.208,75.2436 239.041,75.5769 237,76.5C 236.472,75.184 236.972,74.5173 238.5,74.5 Z"/></g>
<g><path style="opacity:1" fill="#43424b" d="M 256.5,71.5 C 260.055,72.0536 262.388,74.0536 263.5,77.5C 261.142,75.4707 258.808,73.4707 256.5,71.5 Z"/></g>
<g><path style="opacity:1" fill="#885256" d="M 210.5,79.5 C 210.144,81.1898 209.144,82.1898 207.5,82.5C 207.856,80.8102 208.856,79.8102 210.5,79.5 Z"/></g>
<g><path style="opacity:1" fill="#b85350" d="M 207.5,84.5 C 207.25,86.674 206.25,88.3406 204.5,89.5C 204.062,89.5654 203.728,89.3988 203.5,89C 204.733,87.3333 206.067,85.8333 207.5,84.5 Z"/></g>
<g><path style="opacity:1" fill="#4b484d" d="M 270.5,84.5 C 273.297,84.9666 274.631,86.6333 274.5,89.5C 272.457,88.4206 271.124,86.754 270.5,84.5 Z"/></g>
<g><path style="opacity:1" fill="#413c43" d="M 277.5,93.5 C 280.794,95.9561 281.127,98.6228 278.5,101.5C 278.599,98.7628 278.265,96.0961 277.5,93.5 Z"/></g>
<g><path style="opacity:1" fill="#cf131c" d="M 251.5,50.5 C 252.167,50.8333 252.833,51.1667 253.5,51.5C 256.471,55.8965 255.471,59.5632 250.5,62.5C 249.29,62.9321 248.29,63.5987 247.5,64.5C 243.766,67.2311 240.766,70.5644 238.5,74.5C 236.972,74.5173 236.472,75.184 237,76.5C 239.041,75.5769 241.208,75.2436 243.5,75.5C 244.117,75.6107 244.617,75.944 245,76.5C 245.667,78.8333 245.667,81.1667 245,83.5C 239.888,92.8435 235.555,102.51 232,112.5C 229.66,121.131 231.827,128.131 238.5,133.5C 237.85,133.804 237.183,134.137 236.5,134.5C 234.135,131.65 231.135,129.816 227.5,129C 227.833,128.667 228.167,128.333 228.5,128C 226.907,127.051 225.574,125.885 224.5,124.5C 226.441,124.869 228.275,125.536 230,126.5C 230.224,123.89 229.724,121.39 228.5,119C 229.308,118.692 229.975,118.192 230.5,117.5C 228.467,115.548 228.134,113.382 229.5,111C 227.122,110.026 227.456,109.359 230.5,109C 230.167,108.667 229.833,108.333 229.5,108C 230.56,105.263 231.394,102.43 232,99.5C 233.666,100.34 233.833,99.8402 232.5,98C 234.592,97.0475 234.925,95.7141 233.5,94C 236.483,92.92 237.817,91.0867 237.5,88.5C 238.5,87.6667 239.5,86.8333 240.5,86C 239.167,84.1598 239.334,83.6598 241,84.5C 241.346,82.7818 241.846,81.1151 242.5,79.5C 241.132,78.4063 239.965,78.7397 239,80.5C 238.333,77.8333 237.667,77.8333 237,80.5C 236.333,79.1667 235.667,79.1667 235,80.5C 233.881,79.4479 233.381,78.2812 233.5,77C 234.167,76.6667 234.833,76.3333 235.5,76C 234.328,75.5814 233.328,74.9147 232.5,74C 234.394,72.8989 235.061,71.5655 234.5,70C 236.167,69 237.833,68 239.5,67C 239.167,66.6667 238.833,66.3333 238.5,66C 243.234,62.6152 246.567,59.2819 248.5,56C 245.985,54.2871 243.318,54.1205 240.5,55.5C 243.333,58.998 242.667,60.498 238.5,60C 236.549,62.1824 234.382,64.0157 232,65.5C 231.667,64.8333 231.333,64.1667 231,63.5C 230,66.1667 229,66.1667 228,63.5C 225.269,65.7447 222.436,67.7447 219.5,69.5C 219.833,68.8333 220.167,68.1667 220.5,67.5C 223.827,64.1819 227.493,61.1819 231.5,58.5C 232.492,58.6716 233.158,58.3382 233.5,57.5C 234.474,56.365 235.641,55.365 237,54.5C 238.558,55.3452 239.558,54.6785 240,52.5C 240.414,52.9574 240.914,53.2907 241.5,53.5C 243.941,51.7277 246.608,50.3944 249.5,49.5C 250.183,49.8627 250.85,50.1961 251.5,50.5 Z"/></g>
<g><path style="opacity:1" fill="#564e52" d="M 278.5,101.5 C 278.113,106.217 275.779,109.55 271.5,111.5C 273.841,108.161 276.174,104.828 278.5,101.5 Z"/></g>
<g><path style="opacity:1" fill="#696066" d="M 208.5,109.5 C 210.19,109.856 211.19,110.856 211.5,112.5C 209.81,112.144 208.81,111.144 208.5,109.5 Z"/></g>
<g><path style="opacity:1" fill="#8a6f75" d="M 212.5,113.5 C 214.167,114.5 215.5,115.833 216.5,117.5C 214.456,116.969 212.789,115.802 211.5,114C 211.728,113.601 212.062,113.435 212.5,113.5 Z"/></g>
<g><path style="opacity:1" fill="#5a525a" d="M 269.5,113.5 C 268.167,116.833 265.833,119.167 262.5,120.5C 264.5,117.833 266.833,115.5 269.5,113.5 Z"/></g>
<g><path style="opacity:1" fill="#8a666c" d="M 216.5,117.5 C 218.144,117.81 219.144,118.81 219.5,120.5C 217.856,120.19 216.856,119.19 216.5,117.5 Z"/></g>
<g><path style="opacity:1" fill="#5b5559" d="M 259.5,123.5 C 257.349,126.991 254.349,129.325 250.5,130.5C 253.208,127.791 256.208,125.458 259.5,123.5 Z"/></g>
<g><path style="opacity:1" fill="#4d4463" d="M 249.5,131.5 C 248.531,132.309 247.698,133.309 247,134.5C 244.173,134.673 241.339,134.34 238.5,133.5C 242.212,133.039 245.879,132.373 249.5,131.5 Z"/></g>
<g><path style="opacity:1" fill="#141414" d="M 253.5,144.5 C 253.666,149.511 253.499,154.511 253,159.5C 252.583,160.756 251.75,161.423 250.5,161.5C 249.883,161.389 249.383,161.056 249,160.5C 248.333,155.5 248.333,150.5 249,145.5C 250.27,143.422 251.77,143.088 253.5,144.5 Z"/></g>
<g><path style="opacity:1" fill="#504a4f" d="M 210.5,146.5 C 211.57,149.892 211.57,153.392 210.5,157C 211.155,159.159 212.488,160.659 214.5,161.5C 212.335,162.935 210.835,162.269 210,159.5C 209.186,154.98 209.353,150.646 210.5,146.5 Z"/></g>
<g><path style="opacity:1" fill="#212021" d="M 218.5,146.5 C 216.565,145.85 214.565,145.517 212.5,145.5C 212.334,150.179 212.501,154.845 213,159.5C 213.176,156.118 213.676,152.785 214.5,149.5C 215.35,152.926 216.35,156.259 217.5,159.5C 218.978,159.762 220.311,159.429 221.5,158.5C 221.942,157.261 222.609,156.261 223.5,155.5C 223.838,153.146 224.338,150.813 225,148.5C 225.499,152.152 225.665,155.818 225.5,159.5C 226.5,159.5 227.5,159.5 228.5,159.5C 228.5,154.833 228.5,150.167 228.5,145.5C 225.068,145.127 222.734,146.46 221.5,149.5C 220.691,144.508 223.024,142.675 228.5,144C 229,144.5 229.5,145 230,145.5C 230.781,150.554 230.614,155.554 229.5,160.5C 227.002,163.191 224.835,162.858 223,159.5C 221.397,163.085 219.231,163.418 216.5,160.5C 215.817,160.863 215.15,161.196 214.5,161.5C 212.488,160.659 211.155,159.159 210.5,157C 211.57,153.392 211.57,149.892 210.5,146.5C 210.559,144.278 211.725,143.278 214,143.5C 216.183,143.522 217.683,144.522 218.5,146.5 Z"/></g>
<g><path style="opacity:1" fill="#0b0a0b" d="M 218.5,146.5 C 218.971,147.901 219.638,149.234 220.5,150.5C 221.107,150.376 221.44,150.043 221.5,149.5C 222.734,146.46 225.068,145.127 228.5,145.5C 228.5,150.167 228.5,154.833 228.5,159.5C 227.5,159.5 226.5,159.5 225.5,159.5C 225.665,155.818 225.499,152.152 225,148.5C 224.338,150.813 223.838,153.146 223.5,155.5C 222.609,156.261 221.942,157.261 221.5,158.5C 220.311,159.429 218.978,159.762 217.5,159.5C 216.35,156.259 215.35,152.926 214.5,149.5C 213.676,152.785 213.176,156.118 213,159.5C 212.501,154.845 212.334,150.179 212.5,145.5C 214.565,145.517 216.565,145.85 218.5,146.5 Z"/></g>
<g><path style="opacity:1" fill="#1d1c1d" d="M 262.5,143.5 C 265.777,143.216 268.943,143.549 272,144.5C 272.743,146.441 272.576,148.274 271.5,150C 275.98,158.846 273.314,162.846 263.5,162C 261.652,159.821 259.485,157.987 257,156.5C 255.625,150.976 257.458,146.643 262.5,143.5 Z M 262.5,151.5 C 263.077,150.227 263.743,150.227 264.5,151.5C 264.03,152.463 263.363,152.463 262.5,151.5 Z"/></g>
<g><path style="opacity:1" fill="#413d49" d="M 253.5,144.5 C 254.88,144.962 255.547,145.962 255.5,147.5C 254.805,151.516 254.805,155.349 255.5,159C 254.638,162.101 252.972,162.935 250.5,161.5C 251.75,161.423 252.583,160.756 253,159.5C 253.499,154.511 253.666,149.511 253.5,144.5 Z"/></g>
<g><path style="opacity:1" fill="#1c1b1c" d="M 239.5,142.5 C 241.853,143.34 243.853,144.674 245.5,146.5C 244.286,148.069 242.619,148.902 240.5,149C 249.115,156.323 247.615,160.823 236,162.5C 231.005,158.998 231.505,156.831 237.5,156C 230.767,150.424 231.433,145.924 239.5,142.5 Z"/></g>
<g><path style="opacity:1" fill="#181718" d="M 177.5,190.5 C 176.167,191.833 176.167,193.167 177.5,194.5C 178.167,194.5 178.5,194.833 178.5,195.5C 176.263,197.631 173.596,199.298 170.5,200.5C 165.391,200.958 161.058,199.124 157.5,195C 157.895,192.219 159.228,190.053 161.5,188.5C 155.803,182.561 156.803,177.895 164.5,174.5C 166.745,174.745 169.078,174.745 171.5,174.5C 174.427,176.92 176.761,179.753 178.5,183C 173.167,185 173.167,187 178.5,189C 177.944,189.383 177.611,189.883 177.5,190.5 Z M 166.5,180.5 C 168.359,180.461 169.692,181.294 170.5,183C 168.386,183.442 167.052,182.609 166.5,180.5 Z M 164.5,189.5 C 166.213,190.305 167.879,191.305 169.5,192.5C 169.192,193.308 168.692,193.975 168,194.5C 166.198,193.211 165.031,191.544 164.5,189.5 Z"/></g>
<g><path style="opacity:1" fill="#171617" d="M 348.5,182.5 C 348.31,184.959 349.31,186.626 351.5,187.5C 350.566,188.568 350.232,189.901 350.5,191.5C 347.102,191.18 343.768,191.513 340.5,192.5C 340.957,193.298 341.624,193.631 342.5,193.5C 343.167,193.5 343.833,193.5 344.5,193.5C 344.369,194.239 344.536,194.906 345,195.5C 346.444,193.845 348.278,193.178 350.5,193.5C 351.528,197.048 350.028,199.381 346,200.5C 344.27,199.351 342.604,199.351 341,200.5C 339,198.833 337,197.167 335,195.5C 334,197.167 332.667,198.5 331,199.5C 330.667,199.167 330.333,198.833 330,198.5C 329.612,199.428 328.945,200.095 328,200.5C 326.144,199.264 324.311,199.264 322.5,200.5C 319.084,199.25 316.417,197.083 314.5,194C 315.396,191.821 316.729,189.988 318.5,188.5C 313.288,182.825 314.288,178.158 321.5,174.5C 323.622,174.623 325.789,174.623 328,174.5C 330.167,176 332.333,177.5 334.5,179C 333.167,180.667 333.167,182.333 334.5,184C 332,184.833 331.833,186 334,187.5C 335.685,185.983 337.185,184.316 338.5,182.5C 341.366,181.792 344.2,181.125 347,180.5C 347.278,181.416 347.778,182.082 348.5,182.5 Z M 323.5,180.5 C 324.397,181.598 325.23,181.598 326,180.5C 326.982,181.759 327.315,183.092 327,184.5C 324.929,183.897 323.762,182.564 323.5,180.5 Z M 322.5,190.5 C 323.688,191.684 324.855,191.684 326,190.5C 326.699,192.074 326.365,193.407 325,194.5C 324.097,193.299 322.931,192.465 321.5,192C 322.056,191.617 322.389,191.117 322.5,190.5 Z"/></g>
<g><path style="opacity:1" fill="#101010" d="M 85.5,176.5 C 84.508,183.982 84.1746,191.648 84.5,199.5C 84.0831,200.124 83.4164,200.457 82.5,200.5C 81.2867,200.253 80.62,199.586 80.5,198.5C 80.6658,193.821 80.4992,189.155 80,184.5C 79.5604,186.866 79.0604,189.199 78.5,191.5C 78.5,192.5 78.5,193.5 78.5,194.5C 78.8333,195.167 79.1667,195.833 79.5,196.5C 76.5498,201.156 73.2165,201.49 69.5,197.5C 68.7506,199.012 67.584,200.012 66,200.5C 64.0986,199.464 62.2652,198.298 60.5,197C 61.2556,190.945 61.7556,184.112 62,176.5C 64.6339,174.406 67.4672,174.073 70.5,175.5C 71.8318,178.482 72.9985,181.149 74,183.5C 76.3692,182.073 76.8692,180.239 75.5,178C 78.5131,174.106 81.8464,173.606 85.5,176.5 Z"/></g>
<g><path style="opacity:1" fill="#544e52" d="M 105.5,182.5 C 104.167,182.5 102.833,182.5 101.5,182.5C 101.923,180.219 101.256,178.552 99.5,177.5C 100.078,175.557 101.078,175.223 102.5,176.5C 103.509,178.518 104.509,180.518 105.5,182.5 Z"/></g>
<g><path style="opacity:1" fill="#504b50" d="M 334.5,181.5 C 335.833,182.167 335.833,182.167 334.5,181.5 Z"/></g>
<g><path style="opacity:1" fill="#1f1d1e" d="M 95.5,180.5 C 96.5261,179.147 97.8595,178.147 99.5,177.5C 101.256,178.552 101.923,180.219 101.5,182.5C 102.833,182.5 104.167,182.5 105.5,182.5C 106.053,184.657 107.053,184.49 108.5,182C 112.225,181.24 115.892,181.407 119.5,182.5C 121.917,184.494 121.917,186.327 119.5,188C 120.155,189.487 121.155,190.653 122.5,191.5C 122.391,189.178 122.558,186.511 123,183.5C 124.789,181.771 126.956,181.104 129.5,181.5C 129.5,185.167 129.5,188.833 129.5,192.5C 128.521,189.375 128.187,186.042 128.5,182.5C 126.365,182.147 125.032,182.98 124.5,185C 124.87,188.466 125.037,191.966 125,195.5C 125.374,196.416 125.874,197.25 126.5,198C 129.036,198.186 131.369,198.686 133.5,199.5C 128.79,202.082 125.29,200.749 123,195.5C 121.036,197.432 118.869,199.099 116.5,200.5C 114.833,200.5 113.167,200.5 111.5,200.5C 110.059,199.696 108.559,199.029 107,198.5C 104.847,200.443 102.514,201.11 100,200.5C 98.117,199.347 97.2837,197.681 97.5,195.5C 97.6646,192.482 97.498,189.482 97,186.5C 96.2917,187.381 95.4584,188.047 94.5,188.5C 94.19,187.262 93.69,187.262 93,188.5C 92.7489,186.567 92.2489,184.734 91.5,183C 90.5509,182.383 89.7175,182.549 89,183.5C 88.3333,188.167 88.3333,192.833 89,197.5C 90.3803,198.256 90.547,198.922 89.5,199.5C 87.8333,198.167 86.1667,198.167 84.5,199.5C 84.1746,191.648 84.508,183.982 85.5,176.5C 86.8231,177.053 88.1564,176.553 89.5,175C 93.8362,174.167 95.8362,176 95.5,180.5 Z M 95.5,180.5 C 95.4827,182.028 94.816,182.528 93.5,182C 94.0442,181.283 94.7109,180.783 95.5,180.5 Z M 86.5,182.5 C 85.1854,177.334 85.8521,177.167 88.5,182C 87.9056,182.464 87.2389,182.631 86.5,182.5 Z M 103.5,188.5 C 106.902,189.558 107.402,191.558 105,194.5C 104.5,194 104,193.5 103.5,193C 103.966,191.701 103.966,190.201 103.5,188.5 Z"/></g>
<g><path style="opacity:1" fill="#141414" d="M 222.5,186.5 C 221.515,190.634 221.182,194.968 221.5,199.5C 219.99,200.728 218.49,200.728 217,199.5C 215.294,196.041 215.128,192.541 216.5,189C 215.975,188.308 215.308,187.808 214.5,187.5C 214.47,190.338 214.137,193.171 213.5,196C 213.675,197.658 214.342,198.991 215.5,200C 208.203,201.694 205.203,199.028 206.5,192C 205.5,191.333 204.5,191.333 203.5,192C 203.243,193.371 203.577,194.871 204.5,196.5C 203.857,199.975 201.857,201.141 198.5,200C 196.759,198.917 196.093,197.75 196.5,196.5C 196.5,196.167 196.5,195.833 196.5,195.5C 196.5,194.5 196.5,193.5 196.5,192.5C 196.5,192.167 196.5,191.833 196.5,191.5C 197.833,191.167 197.833,190.833 196.5,190.5C 196.5,190.167 196.5,189.833 196.5,189.5C 197.167,189.5 197.5,189.167 197.5,188.5C 197.5,187.833 197.167,187.5 196.5,187.5C 196.5,187.167 196.5,186.833 196.5,186.5C 197.833,186.167 197.833,185.833 196.5,185.5C 196.5,185.167 196.5,184.833 196.5,184.5C 197.338,184.158 197.672,183.492 197.5,182.5C 204.063,181.746 210.563,181.413 217,181.5C 220.165,181.334 222.332,182.667 223.5,185.5C 223.376,186.107 223.043,186.44 222.5,186.5 Z"/></g>
<g><path style="opacity:1" fill="#222021" d="M 368.5,182.5 C 364.694,183.092 361.361,184.425 358.5,186.5C 358.5,186.833 358.5,187.167 358.5,187.5C 356.761,191.59 358.094,194.256 362.5,195.5C 362.423,196.75 361.756,197.583 360.5,198C 361.784,198.684 362.951,198.517 364,197.5C 364.699,199.074 364.365,200.407 363,201.5C 360.4,200.916 357.567,200.25 354.5,199.5C 354.33,200.822 354.663,201.989 355.5,203C 358.579,203.973 361.579,204.806 364.5,205.5C 361.972,205.683 359.472,206.017 357,206.5C 353.012,204.533 351.845,201.533 353.5,197.5C 352.892,194.855 352.392,192.188 352,189.5C 351.59,190.901 351.09,192.234 350.5,193.5C 348.278,193.178 346.444,193.845 345,195.5C 344.536,194.906 344.369,194.239 344.5,193.5C 344.715,192.266 344.048,192.266 342.5,193.5C 341.624,193.631 340.957,193.298 340.5,192.5C 343.768,191.513 347.102,191.18 350.5,191.5C 350.232,189.901 350.566,188.568 351.5,187.5C 349.31,186.626 348.31,184.959 348.5,182.5C 349.815,183.476 351.148,184.476 352.5,185.5C 353.364,183.803 354.697,182.637 356.5,182C 360.689,181.188 364.689,181.355 368.5,182.5 Z"/></g>
<g><path style="opacity:1" fill="#9a8d93" d="M 387.5,182.5 C 388.167,183.5 388.833,184.5 389.5,185.5C 389.5,185.833 389.5,186.167 389.5,186.5C 388.167,186.833 388.167,187.167 389.5,187.5C 389.5,187.833 389.5,188.167 389.5,188.5C 388.167,188.833 388.167,189.167 389.5,189.5C 389.5,189.833 389.5,190.167 389.5,190.5C 388.167,190.833 388.167,191.167 389.5,191.5C 389.5,191.833 389.5,192.167 389.5,192.5C 388.167,192.833 388.167,193.167 389.5,193.5C 389.5,193.833 389.5,194.167 389.5,194.5C 388.167,194.833 388.167,195.167 389.5,195.5C 389.5,195.833 389.5,196.167 389.5,196.5C 388.833,196.5 388.5,196.833 388.5,197.5C 387.513,192.695 387.179,187.695 387.5,182.5 Z"/></g>
<g><path style="opacity:1" fill="#161616" d="M 423.5,198.5 C 422.194,197.533 421.527,196.199 421.5,194.5C 423.547,194.511 425.547,194.844 427.5,195.5C 428.737,195.444 429.737,194.944 430.5,194C 428.431,192.477 426.097,191.643 423.5,191.5C 422.833,190.167 421.833,189.167 420.5,188.5C 420.167,188.5 419.833,188.5 419.5,188.5C 419.167,187.167 418.833,187.167 418.5,188.5C 418.5,189.833 418.5,191.167 418.5,192.5C 418.5,193.167 418.5,193.833 418.5,194.5C 416.738,195.262 415.738,196.596 415.5,198.5C 414.739,199.391 413.739,200.058 412.5,200.5C 409.811,200.918 407.144,200.418 404.5,199C 402.114,195.075 400.281,191.242 399,187.5C 396.152,188.433 395.986,189.933 398.5,192C 398.5,193.333 398.5,194.667 398.5,196C 396.606,197.079 396.273,198.413 397.5,200C 394.029,201.163 391.362,200.33 389.5,197.5C 389.5,197.167 389.5,196.833 389.5,196.5C 389.5,196.167 389.5,195.833 389.5,195.5C 389.5,195.167 389.5,194.833 389.5,194.5C 389.5,194.167 389.5,193.833 389.5,193.5C 389.5,193.167 389.5,192.833 389.5,192.5C 389.5,192.167 389.5,191.833 389.5,191.5C 389.5,191.167 389.5,190.833 389.5,190.5C 389.5,190.167 389.5,189.833 389.5,189.5C 389.5,189.167 389.5,188.833 389.5,188.5C 389.5,188.167 389.5,187.833 389.5,187.5C 389.5,187.167 389.5,186.833 389.5,186.5C 389.5,186.167 389.5,185.833 389.5,185.5C 389.511,183.983 390.177,182.816 391.5,182C 395.9,181.022 400.067,181.522 404,183.5C 405,182.5 406,181.5 407,180.5C 409.333,181.833 411.667,181.833 414,180.5C 415.698,182.274 417.531,183.941 419.5,185.5C 420.382,184.24 421.382,183.074 422.5,182C 427.957,180.497 432.624,181.664 436.5,185.5C 435.833,186.5 435.167,187.5 434.5,188.5C 438.481,193.931 437.148,197.931 430.5,200.5C 428.93,200.306 427.43,200.306 426,200.5C 425.005,199.934 424.172,199.267 423.5,198.5 Z M 408.5,188.5 C 409.5,188.5 410.5,188.5 411.5,188.5C 411.286,190.144 411.62,191.644 412.5,193C 409.07,193.638 407.737,192.138 408.5,188.5 Z M 419.5,192.5 C 419.783,191.711 420.283,191.044 421,190.5C 421.528,191.816 421.028,192.483 419.5,192.5 Z"/></g>
<g><path style="opacity:1" fill="#090909" d="M 94.5,188.5 C 93.6322,191.935 93.6322,195.269 94.5,198.5C 93.1214,200.597 91.4547,200.93 89.5,199.5C 90.547,198.922 90.3803,198.256 89,197.5C 88.3333,192.833 88.3333,188.167 89,183.5C 89.7175,182.549 90.5509,182.383 91.5,183C 92.2489,184.734 92.7489,186.567 93,188.5C 93.69,187.262 94.19,187.262 94.5,188.5 Z"/></g>
<g><path style="opacity:1" fill="#0b0b0b" d="M 140.5,183.5 C 139.167,183.833 139.167,184.167 140.5,184.5C 140.5,184.833 140.5,185.167 140.5,185.5C 139.167,185.833 139.167,186.167 140.5,186.5C 140.5,186.833 140.5,187.167 140.5,187.5C 139.167,187.833 139.167,188.167 140.5,188.5C 140.5,188.833 140.5,189.167 140.5,189.5C 139.167,189.833 139.167,190.167 140.5,190.5C 140.5,190.833 140.5,191.167 140.5,191.5C 139.167,191.833 139.167,192.167 140.5,192.5C 140.5,192.833 140.5,193.167 140.5,193.5C 139.167,193.833 139.167,194.167 140.5,194.5C 140.5,194.833 140.5,195.167 140.5,195.5C 139.167,195.833 139.167,196.167 140.5,196.5C 140.5,196.833 140.5,197.167 140.5,197.5C 139.308,198.566 139.641,199.399 141.5,200C 138.739,200.722 136.073,200.555 133.5,199.5C 131.369,198.686 129.036,198.186 126.5,198C 125.874,197.25 125.374,196.416 125,195.5C 125.037,191.966 124.87,188.466 124.5,185C 125.032,182.98 126.365,182.147 128.5,182.5C 128.187,186.042 128.521,189.375 129.5,192.5C 130.568,193.434 131.901,193.768 133.5,193.5C 133.335,189.818 133.501,186.152 134,182.5C 136.552,180.98 138.718,181.313 140.5,183.5 Z"/></g>
<g><path style="opacity:1" fill="#363436" d="M 147.5,182.5 C 146.167,182.5 144.833,182.5 143.5,182.5C 143.5,188.167 143.5,193.833 143.5,199.5C 142.772,197.709 141.772,197.042 140.5,197.5C 140.5,197.167 140.5,196.833 140.5,196.5C 140.5,196.167 140.5,195.833 140.5,195.5C 140.5,195.167 140.5,194.833 140.5,194.5C 140.5,194.167 140.5,193.833 140.5,193.5C 140.5,193.167 140.5,192.833 140.5,192.5C 140.5,192.167 140.5,191.833 140.5,191.5C 140.5,191.167 140.5,190.833 140.5,190.5C 140.5,190.167 140.5,189.833 140.5,189.5C 140.5,189.167 140.5,188.833 140.5,188.5C 140.5,188.167 140.5,187.833 140.5,187.5C 140.5,187.167 140.5,186.833 140.5,186.5C 140.5,186.167 140.5,185.833 140.5,185.5C 140.5,185.167 140.5,184.833 140.5,184.5C 140.5,184.167 140.5,183.833 140.5,183.5C 141.117,183.389 141.617,183.056 142,182.5C 142.333,180.167 142.667,177.833 143,175.5C 149.432,174.448 150.932,176.781 147.5,182.5 Z"/></g>
<g><path style="opacity:1" fill="#0d0d0d" d="M 147.5,182.5 C 148.812,184.743 149.478,187.41 149.5,190.5C 149.333,193.167 149.167,195.833 149,198.5C 147.322,200.553 145.489,200.887 143.5,199.5C 143.5,193.833 143.5,188.167 143.5,182.5C 144.833,182.5 146.167,182.5 147.5,182.5 Z"/></g>
<g><path style="opacity:1" fill="#1b1a1b" d="M 194.5,182.5 C 194.5,188.167 194.5,193.833 194.5,199.5C 192.77,200.912 191.27,200.578 190,198.5C 189,199.167 188,199.833 187,200.5C 185.887,199.289 184.72,199.289 183.5,200.5C 182.702,200.043 182.369,199.376 182.5,198.5C 182.217,197.711 181.717,197.044 181,196.5C 180.501,191.845 180.334,187.179 180.5,182.5C 181.884,181.199 183.384,181.199 185,182.5C 185.333,186.5 185.667,190.5 186,194.5C 186.667,193.833 187.333,193.167 188,192.5C 189.095,189.063 189.595,185.73 189.5,182.5C 191.316,181.265 192.983,181.265 194.5,182.5 Z"/></g>
<g><path style="opacity:1" fill="#121212" d="M 387.5,182.5 C 387.179,187.695 387.513,192.695 388.5,197.5C 388.833,197.5 389.167,197.5 389.5,197.5C 388.493,198.828 387.16,199.828 385.5,200.5C 382.262,200.214 379.095,200.214 376,200.5C 374.729,199.117 373.229,198.117 371.5,197.5C 371.167,196.167 370.833,196.167 370.5,197.5C 369.167,198.167 369.167,198.833 370.5,199.5C 369.402,200.397 369.402,201.23 370.5,202C 368.333,202.833 366.833,204.333 366,206.5C 365.617,205.944 365.117,205.611 364.5,205.5C 361.579,204.806 358.579,203.973 355.5,203C 354.663,201.989 354.33,200.822 354.5,199.5C 357.567,200.25 360.4,200.916 363,201.5C 364.365,200.407 364.699,199.074 364,197.5C 362.951,198.517 361.784,198.684 360.5,198C 361.756,197.583 362.423,196.75 362.5,195.5C 364.391,193.164 364.891,190.498 364,187.5C 362.444,185.365 360.611,185.032 358.5,186.5C 361.361,184.425 364.694,183.092 368.5,182.5C 369.117,182.611 369.617,182.944 370,183.5C 373.075,180.941 376.075,180.941 379,183.5C 379.667,196.833 380.333,196.833 381,183.5C 383.016,181.392 385.183,181.058 387.5,182.5 Z"/></g>
<g><path style="opacity:1" fill="#504954" d="M 194.5,182.5 C 195.5,183.833 196.5,183.833 197.5,182.5C 197.672,183.492 197.338,184.158 196.5,184.5C 195.167,184.833 195.167,185.167 196.5,185.5C 197.833,185.833 197.833,186.167 196.5,186.5C 195.167,186.833 195.167,187.167 196.5,187.5C 197.167,187.5 197.5,187.833 197.5,188.5C 196.833,188.5 196.5,188.833 196.5,189.5C 196.5,189.833 196.5,190.167 196.5,190.5C 195.167,190.833 195.167,191.167 196.5,191.5C 196.5,191.833 196.5,192.167 196.5,192.5C 195.167,193.5 195.167,194.5 196.5,195.5C 196.5,195.833 196.5,196.167 196.5,196.5C 195.833,197.5 195.167,198.5 194.5,199.5C 194.5,193.833 194.5,188.167 194.5,182.5 Z"/></g>
<g><path style="opacity:1" fill="#877b7e" d="M 222.5,186.5 C 222.953,187.458 223.619,188.292 224.5,189C 224.5,191 224.5,193 224.5,195C 223.601,196.652 222.601,198.152 221.5,199.5C 221.182,194.968 221.515,190.634 222.5,186.5 Z"/></g>
<g><path style="opacity:1" fill="#141314" d="M 239.5,181.5 C 240.806,182.467 241.473,183.801 241.5,185.5C 240.5,185.5 239.5,185.5 238.5,185.5C 238.335,188.518 238.502,191.518 239,194.5C 240.33,195.582 241.83,196.249 243.5,196.5C 243.023,198.464 241.856,199.798 240,200.5C 237.188,199.876 234.188,198.876 231,197.5C 230.833,197.833 230.667,198.167 230.5,198.5C 231.729,199.281 233.062,199.781 234.5,200C 231.167,200.667 227.833,200.667 224.5,200C 225.483,191.585 225.817,183.085 225.5,174.5C 229.204,174.372 231.704,176.038 233,179.5C 237.456,173.495 239.623,174.162 239.5,181.5 Z M 230.5,180.5 C 232.337,180.639 232.67,181.306 231.5,182.5C 230.702,182.043 230.369,181.376 230.5,180.5 Z"/></g>
<g><path style="opacity:1" fill="#363436" d="M 256.5,182.5 C 253.796,182.508 250.796,182.675 247.5,183C 246.107,185.178 244.44,186.178 242.5,186C 243.056,186.383 243.389,186.883 243.5,187.5C 242.833,187.5 242.5,187.833 242.5,188.5C 241.5,188.5 240.5,188.5 239.5,188.5C 239.34,190.199 239.506,191.866 240,193.5C 240.77,194.598 241.603,194.598 242.5,193.5C 244.296,194.793 245.963,196.293 247.5,198C 250.146,198.497 252.813,198.664 255.5,198.5C 255.217,199.289 254.717,199.956 254,200.5C 252.57,200.306 251.07,200.306 249.5,200.5C 247.21,199.533 245.21,198.2 243.5,196.5C 241.83,196.249 240.33,195.582 239,194.5C 238.502,191.518 238.335,188.518 238.5,185.5C 239.5,185.5 240.5,185.5 241.5,185.5C 241.473,183.801 240.806,182.467 239.5,181.5C 241.2,181.626 242.7,182.293 244,183.5C 245.605,182.899 246.938,181.899 248,180.5C 250.333,181.833 252.667,181.833 255,180.5C 255.717,181.044 256.217,181.711 256.5,182.5 Z"/></g>
<g><path style="opacity:1" fill="#424045" d="M 180.5,182.5 C 180.334,187.179 180.501,191.845 181,196.5C 181.717,197.044 182.217,197.711 182.5,198.5C 180.596,198.262 179.262,197.262 178.5,195.5C 179.043,195.44 179.376,195.107 179.5,194.5C 178.743,193.227 178.077,193.227 177.5,194.5C 176.167,193.167 176.167,191.833 177.5,190.5C 178.117,190.611 178.617,190.944 179,191.5C 179.181,188.305 179.681,185.305 180.5,182.5 Z"/></g>
<g><path style="opacity:1" fill="#756b6f" d="M 80.5,198.5 C 79.6618,198.158 79.3284,197.492 79.5,196.5C 79.1667,195.833 78.8333,195.167 78.5,194.5C 79.8333,193.5 79.8333,192.5 78.5,191.5C 79.0604,189.199 79.5604,186.866 80,184.5C 80.4992,189.155 80.6658,193.821 80.5,198.5 Z"/></g>
<g><path style="opacity:1" fill="#71646b" d="M 97.5,195.5 C 96.7784,195.082 96.2784,194.416 96,193.5C 95.8019,195.382 95.3019,197.048 94.5,198.5C 93.6322,195.269 93.6322,191.935 94.5,188.5C 95.4584,188.047 96.2917,187.381 97,186.5C 97.498,189.482 97.6646,192.482 97.5,195.5 Z"/></g>
<g><path style="opacity:1" fill="#141314" d="M 281.5,199.5 C 282.089,195.029 281.423,191.029 279.5,187.5C 278.883,187.611 278.383,187.944 278,188.5C 277.207,192.423 277.374,196.256 278.5,200C 273.812,199.607 269.146,199.774 264.5,200.5C 263.034,199.865 261.7,199.031 260.5,198C 261.696,197.346 261.696,196.846 260.5,196.5C 259.15,197.95 257.484,198.617 255.5,198.5C 252.813,198.664 250.146,198.497 247.5,198C 245.963,196.293 244.296,194.793 242.5,193.5C 242.5,191.833 242.5,190.167 242.5,188.5C 243.167,188.5 243.5,188.167 243.5,187.5C 243.389,186.883 243.056,186.383 242.5,186C 244.44,186.178 246.107,185.178 247.5,183C 250.796,182.675 253.796,182.508 256.5,182.5C 257.794,183.29 258.961,184.29 260,185.5C 260.318,183.939 261.151,182.772 262.5,182C 268.642,181.782 274.642,181.616 280.5,181.5C 281.833,181.667 283.167,181.833 284.5,182C 285.726,183.635 287.059,185.135 288.5,186.5C 292.4,181.257 297.4,180.09 303.5,183C 308.843,188.641 308.509,193.974 302.5,199C 297.05,201.756 292.217,200.589 288,195.5C 287.287,199.772 285.12,201.105 281.5,199.5 Z M 268.5,187.5 C 269.258,189.376 269.258,191.043 268.5,192.5C 267.334,190.833 267.334,189.166 268.5,187.5 Z M 249.5,187.5 C 251.312,187.771 252.978,188.438 254.5,189.5C 253.667,191.167 252.833,192.833 252,194.5C 251.184,193.177 250.017,192.511 248.5,192.5C 249.233,190.75 249.566,189.083 249.5,187.5 Z M 267.5,193.5 C 268.239,193.369 268.906,193.536 269.5,194C 268.167,194.667 268.167,195.333 269.5,196C 267.939,196.188 267.272,195.355 267.5,193.5 Z M 294.5,188.5 C 295.688,187.316 296.855,187.316 298,188.5C 299.193,194.186 298.026,195.186 294.5,191.5C 295.791,190.473 295.791,189.473 294.5,188.5 Z M 270.5,196.5 C 271.043,196.56 271.376,196.893 271.5,197.5C 270.277,198.614 268.944,198.781 267.5,198C 268.737,197.768 269.737,197.268 270.5,196.5 Z"/></g>
<g><path style="opacity:1" fill="#695e61" d="M 248.5,192.5 C 250.017,192.511 251.184,193.177 252,194.5C 252.833,192.833 253.667,191.167 254.5,189.5C 252.978,188.438 251.312,187.771 249.5,187.5C 252.693,184.626 254.693,185.459 255.5,190C 254.557,195.977 252.223,196.81 248.5,192.5 Z"/></g>
<g><path style="opacity:1" fill="#5b545a" d="M 279.5,187.5 C 281.423,191.029 282.089,195.029 281.5,199.5C 280.733,198.828 280.066,197.995 279.5,197C 280.633,193.765 280.633,190.598 279.5,187.5 Z"/></g>
<g><path style="opacity:1" fill="#565256" d="M 362.5,195.5 C 358.094,194.256 356.761,191.59 358.5,187.5C 358.5,187.167 358.5,186.833 358.5,186.5C 360.611,185.032 362.444,185.365 364,187.5C 364.891,190.498 364.391,193.164 362.5,195.5 Z M 358.5,187.5 C 359.496,187.586 360.329,187.252 361,186.5C 362.663,188.158 363.496,190.158 363.5,192.5C 362.167,192.5 360.833,192.5 359.5,192.5C 359.371,190.784 359.038,189.117 358.5,187.5 Z"/></g>
<g><path style="opacity:1" fill="#60575b" d="M 408.5,188.5 C 410.198,185.876 412.031,185.876 414,188.5C 415.188,193.98 413.188,195.98 408,194.5C 405.986,192.03 406.153,190.03 408.5,188.5 Z M 408.5,188.5 C 407.737,192.138 409.07,193.638 412.5,193C 411.62,191.644 411.286,190.144 411.5,188.5C 410.5,188.5 409.5,188.5 408.5,188.5 Z"/></g>
<g><path style="opacity:1" fill="#363235" d="M 418.5,188.5 C 418.833,188.5 419.167,188.5 419.5,188.5C 419.833,189.833 420.167,189.833 420.5,188.5C 421.833,189.167 422.833,190.167 423.5,191.5C 426.097,191.643 428.431,192.477 430.5,194C 429.737,194.944 428.737,195.444 427.5,195.5C 425.547,194.844 423.547,194.511 421.5,194.5C 421.527,196.199 422.194,197.533 423.5,198.5C 422.5,198.5 421.5,198.5 420.5,198.5C 420.649,197.448 420.483,196.448 420,195.5C 418.385,196.386 416.885,197.386 415.5,198.5C 415.738,196.596 416.738,195.262 418.5,194.5C 419.338,194.158 419.672,193.492 419.5,192.5C 419.167,192.5 418.833,192.5 418.5,192.5C 418.5,191.167 418.5,189.833 418.5,188.5 Z M 419.5,192.5 C 421.028,192.483 421.528,191.816 421,190.5C 420.283,191.044 419.783,191.711 419.5,192.5 Z"/></g>
<g><path style="opacity:1" fill="#464448" d="M 294.5,188.5 C 295.931,184.657 297.931,184.491 300.5,188C 299.167,189.667 299.167,191.333 300.5,193C 298.697,195.103 296.364,195.936 293.5,195.5C 293.198,192.941 293.532,190.607 294.5,188.5 Z M 294.5,188.5 C 295.791,189.473 295.791,190.473 294.5,191.5C 298.026,195.186 299.193,194.186 298,188.5C 296.855,187.316 295.688,187.316 294.5,188.5 Z"/></g>
<g><path style="opacity:1" fill="#363336" d="M 370.5,197.5 C 370.833,197.5 371.167,197.5 371.5,197.5C 371.672,198.492 371.338,199.158 370.5,199.5C 370.5,198.833 370.5,198.167 370.5,197.5 Z"/></g>
</svg>
