<?xml version="1.0" encoding="UTF-8"?>
<svg version="1.1" xmlns="http://www.w3.org/2000/svg" width="4096" height="1238">
<path d="M0 0 C1.08217427 -0.00350607 2.16434855 -0.00701215 3.27931598 -0.01062447 C6.90662217 -0.01993051 10.53376753 -0.01501709 14.16108036 -0.01015663 C16.78764335 -0.0138933 19.41420523 -0.01849488 22.04076535 -0.02388728 C27.75221218 -0.03417912 33.46362511 -0.03703249 39.1750803 -0.03497505 C47.66872397 -0.03192289 56.16233018 -0.04025392 64.65596656 -0.0507243 C80.71058355 -0.07006244 96.76518777 -0.07569249 112.81981503 -0.07683842 C125.22124185 -0.0777578 137.62266367 -0.08187601 150.02408886 -0.08823967 C153.59496674 -0.0900348 157.16584463 -0.09181442 160.73672253 -0.09358943 C161.62448552 -0.09403152 162.51224851 -0.09447362 163.42691341 -0.09492911 C188.3979889 -0.10723736 213.36906264 -0.11513028 238.3401413 -0.11424255 C239.28155807 -0.1142114 240.22297483 -0.11418024 241.19291939 -0.11414814 C245.96429706 -0.11398192 250.73567474 -0.11378384 255.50705241 -0.11357872 C256.45464531 -0.11353883 257.40223821 -0.11349894 258.37854604 -0.11345784 C260.29481132 -0.11337697 262.2110766 -0.11329337 264.12734189 -0.11320706 C293.92905862 -0.11198205 323.73072981 -0.12698553 353.53243351 -0.15435219 C387.02442112 -0.18509501 420.51637881 -0.2022833 454.00838143 -0.20042574 C457.58208851 -0.20027649 461.15579559 -0.20017907 464.72950268 -0.20011711 C466.04937951 -0.20008215 466.04937951 -0.20008215 467.39592052 -0.20004648 C481.53743956 -0.19998501 495.67891896 -0.21274037 509.82042623 -0.22998164 C524.04293106 -0.24696253 538.26537812 -0.24889282 552.48788749 -0.235763 C560.92921826 -0.22838971 569.37037315 -0.23198305 577.81168517 -0.25164768 C583.46109581 -0.2636923 589.11037977 -0.26100713 594.75978473 -0.24670668 C597.97166169 -0.23898105 601.18313518 -0.23952904 604.39500015 -0.25362138 C636.05146644 -0.38326075 662.27124121 6.84725831 685.42427921 29.66742516 C701.32784648 46.67615557 711.18395671 69.62003405 711.09922123 92.98917198 C711.10007725 93.8538459 711.10093327 94.71851982 711.10181522 95.60939598 C711.10346719 98.50880573 711.09795199 101.40815742 711.0924921 104.30756187 C711.09218571 106.42088952 711.09231936 108.53421726 711.09285736 110.64754486 C711.09308306 116.30547124 711.08728834 121.96337645 711.08024693 127.62129784 C711.07455085 132.9310265 711.07428374 138.24075002 711.07357121 143.5504818 C711.06832445 159.07774697 711.0543633 174.6050082 711.04146671 190.13226891 C711.02084171 224.82351891 711.00021671 259.51476891 710.97896671 295.25726891 C619.56896671 295.25726891 528.15896671 295.25726891 433.97896671 295.25726891 C433.97896671 262.91726891 433.97896671 230.57726891 433.97896671 197.25726891 C350.48896671 197.25726891 266.99896671 197.25726891 180.97896671 197.25726891 C180.97896671 223.98726891 180.97896671 250.71726891 180.97896671 278.25726891 C182.95896671 278.91726891 184.93896671 279.57726891 186.97896671 280.25726891 C188.77316312 281.02083118 190.5555608 281.81257659 192.32662296 282.62836266 C193.91132389 283.35128502 193.91132389 283.35128502 195.52803898 284.08881187 C196.68747013 284.61877769 197.84690128 285.14874352 199.04146671 285.69476891 C219.50311138 294.97549839 240.25512953 303.58303494 260.97896671 312.25726891 C262.57759978 312.92686465 264.1762326 313.59646098 265.77486515 314.26605797 C285.67865144 322.59904763 305.62168084 330.83721505 325.56807804 339.06757164 C334.87387743 342.90762945 344.17816439 346.75116618 353.47506046 350.61273766 C354.73849026 351.13750443 354.73849026 351.13750443 356.02744389 351.67287254 C357.71415588 352.37347898 359.40086751 353.07408627 361.08757877 353.77469444 C380.67996001 361.91155481 400.31000477 369.95451183 419.9499445 377.97579002 C428.33292966 381.40022068 436.71101101 384.83654359 445.0879755 388.27567101 C475.20342345 400.63927165 505.33734991 412.95761927 535.47896671 425.25726891 C557.45718116 434.22574393 579.43072943 443.20555064 601.39809513 452.20056725 C603.93684754 453.2400238 606.47571654 454.27919511 609.01461124 455.31830406 C617.85951718 458.93879899 626.70155731 462.56611637 635.53948307 466.203619 C640.80577444 468.36930483 646.07825731 470.51932433 651.3538599 472.66222191 C655.11387009 474.19153743 658.8705071 475.72902449 662.62658024 477.26798058 C664.42020737 478.00077653 666.21523887 478.73014608 668.01177311 479.45578575 C683.90996896 485.88061398 699.72688753 493.14251894 707.08834171 509.83539391 C712.81670001 525.41250857 711.1280212 543.38958204 711.12423038 559.69769859 C711.12722608 562.27298595 711.13062956 564.84827286 711.134408 567.42355919 C711.14266992 573.66861125 711.14546079 579.91365386 711.14602038 586.15871093 C711.1464976 591.2407313 711.14856258 596.32274859 711.151721 601.40476799 C711.16051487 615.85095486 711.16514228 630.29713433 711.16439053 644.74332389 C711.16433059 645.90844933 711.16433059 645.90844933 711.16426945 647.09711266 C711.16420813 648.26367991 711.16420813 648.26367991 711.16414557 649.45381418 C711.1637393 662.05124254 711.17330717 674.64864099 711.18740781 687.2460607 C711.20181172 700.21796882 711.20867582 713.18986238 711.20781404 726.16177869 C711.20748348 733.42969291 711.2101681 740.69757575 711.22099209 747.96548271 C711.23111301 754.80443342 711.23072096 761.64331712 711.22347546 768.48227119 C711.22243534 770.98105657 711.22475816 773.47984615 711.23083591 775.97862434 C711.31019474 810.88800113 706.15739517 842.3062172 680.97896671 868.25726891 C680.36795109 868.94176109 679.75693546 869.62625328 679.12740421 870.33148766 C665.48861367 885.10200763 644.73703402 893.52543369 624.97896671 895.25726891 C621.34908968 895.39428077 617.72316067 895.39514701 614.091012 895.38869667 C613.01108075 895.3907493 611.93114951 895.39280194 610.81849307 895.39491677 C607.19285497 895.40057983 603.56725494 895.39913037 599.9416132 895.3977108 C597.31861356 895.40029483 594.69561432 895.4033081 592.07261562 895.4067142 C585.61528641 895.41428144 579.15796546 895.41648661 572.70063227 895.41704326 C564.964766 895.41795816 557.22890735 895.42462945 549.49304437 895.43139008 C530.79699325 895.44743944 512.10094296 895.45335215 493.40488619 895.45813883 C484.55798667 895.46047583 475.7110878 895.4640786 466.86418879 895.46783421 C436.57194349 895.48066875 406.27969856 895.49138803 375.9874506 895.49483681 C374.08637746 895.49505844 372.18530432 895.49528022 370.28423119 895.49550216 C368.37860521 895.4957228 366.47297923 895.49594328 364.56735325 895.49616361 C360.74443404 895.49660616 356.92151483 895.49705327 353.09859562 895.49750328 C352.15073606 895.49761267 351.2028765 895.49772206 350.22629392 895.49783477 C319.4959313 895.50146493 288.76559228 895.51738394 258.0352387 895.54069364 C225.5344953 895.56530109 193.03376538 895.57901007 160.53301239 895.58020473 C156.96381918 895.58037618 153.39462598 895.5805916 149.82543278 895.58083916 C148.50720865 895.58092281 148.50720865 895.58092281 147.16235373 895.58100815 C133.0324789 895.58215779 118.90262833 895.59317238 104.77276168 895.60772621 C90.56474126 895.62210726 76.35675187 895.62531911 62.14872617 895.61728624 C53.71367237 895.61283758 45.27871887 895.61665992 36.8436783 895.63252474 C31.20097162 895.64230401 25.55833489 895.64106849 19.91562879 895.63108851 C16.70597015 895.62571762 13.49654062 895.62659732 10.28689086 895.63759723 C-22.32636902 895.74226005 -22.32636902 895.74226005 -36.33353329 889.00726891 C-37.32196224 888.55166588 -37.32196224 888.55166588 -38.33035946 888.08685875 C-48.62952311 883.2190761 -57.45059736 876.72271153 -66.02103329 869.25726891 C-66.63462704 868.72875328 -67.24822079 868.20023766 -67.88040829 867.65570641 C-76.51403209 859.63877002 -83.3887926 849.32665844 -88.45853329 838.75726891 C-88.91667416 837.81778404 -88.91667416 837.81778404 -89.3840704 836.85931969 C-96.02377184 822.22884678 -96.58667206 808.32713231 -96.47513485 792.53290367 C-96.4740045 790.27456241 -96.47464389 788.01621967 -96.47690487 785.75787926 C-96.4780456 779.66998757 -96.45464039 773.58241553 -96.42660904 767.49459767 C-96.40148808 761.1165089 -96.39924498 754.73841161 -96.39450741 748.36028099 C-96.38351481 737.66889885 -96.35858408 726.97764195 -96.3227911 716.28632164 C-96.28598813 705.28177019 -96.25771713 694.27725046 -96.24075985 683.27264977 C-96.23918351 682.25252806 -96.23918351 682.25252806 -96.23757532 681.21179784 C-96.23235459 677.79950524 -96.2272999 674.38721241 -96.22232771 670.97491944 C-96.18096489 642.73562269 -96.11030344 614.49645207 -96.02103329 586.25726891 C-95.03103329 586.25726891 -94.04103329 586.25726891 -93.02103329 586.25726891 C-93.02103329 585.26726891 -93.02103329 584.27726891 -93.02103329 583.25726891 C-3.59103329 583.25726891 85.83896671 583.25726891 177.97896671 583.25726891 C177.97896671 584.24726891 177.97896671 585.23726891 177.97896671 586.25726891 C178.96896671 586.25726891 179.95896671 586.25726891 180.97896671 586.25726891 C180.97896671 623.21726891 180.97896671 660.17726891 180.97896671 698.25726891 C264.46896671 698.25726891 347.95896671 698.25726891 433.97896671 698.25726891 C433.97896671 671.52726891 433.97896671 644.79726891 433.97896671 617.25726891 C432.32896671 616.92726891 430.67896671 616.59726891 428.97896671 616.25726891 C426.66576539 615.46738427 424.36753878 614.63316708 422.08004093 613.7716732 C421.39731239 613.51506983 420.71458385 613.25846645 420.01116657 612.99408722 C417.72508838 612.1323393 415.44170327 611.26372701 413.15865421 610.39398766 C412.35592957 610.08934782 411.55320492 609.78470798 410.72615528 609.47083664 C389.43790188 601.38380735 368.327122 592.85184913 347.21242619 584.32452965 C342.07069484 582.24901839 336.92707124 580.17820776 331.78365421 578.10687828 C320.54503128 573.57977781 309.30945479 569.04515409 298.07501316 564.50768852 C294.93497111 563.23950013 291.79483615 561.97154199 288.65468693 560.703619 C245.96016084 543.46343642 245.96016084 543.46343642 225.61065006 535.1353817 C220.5819601 533.07749954 215.55194324 531.02286493 210.52193546 528.96820641 C209.53113483 528.56345085 208.54033421 528.1586953 207.51950932 527.74167442 C198.40876302 524.02137749 189.28875265 520.32415898 180.16646671 516.63226891 C165.15790909 510.55712209 150.16885824 504.43499213 135.18477726 498.29974937 C133.30888611 497.53167311 131.4329909 496.76360678 129.55709171 495.99555016 C128.61646381 495.61042259 127.67583591 495.22529503 126.70670414 494.82849693 C116.66684446 490.71868071 106.62250765 486.6198494 96.5779047 482.52164268 C69.3555857 471.41487434 42.13851508 460.29527408 14.93599796 449.14008141 C14.12198521 448.80628975 13.30797245 448.47249809 12.46929264 448.12859154 C8.44707736 446.47892894 4.42541956 444.82792685 0.40474796 443.17450523 C-7.04853872 440.11049972 -14.50542736 437.05642112 -21.97658443 434.03619957 C-25.5167098 432.60444009 -29.05463082 431.16727776 -32.5924139 429.72974205 C-34.26289824 429.0527005 -35.93443033 428.37823695 -37.60712337 427.70667076 C-61.76139704 418.0069595 -78.74947844 406.90053727 -89.34222221 382.29512405 C-89.9032344 380.94975881 -90.46286989 379.60381855 -91.02103329 378.25726891 C-91.47975354 377.16482935 -91.9384738 376.07238979 -92.41109467 374.94684601 C-97.13442211 361.99296334 -96.70445819 349.1536892 -96.62039852 335.51068687 C-96.62226527 332.83154172 -96.62610468 330.15246515 -96.63234615 327.47333336 C-96.64294972 320.98693471 -96.62718116 314.50086418 -96.60220789 308.0145155 C-96.57410364 300.44389349 -96.5729343 292.87333552 -96.57276488 285.30267002 C-96.57158081 271.78632736 -96.54670397 258.2701341 -96.50809383 244.75385094 C-96.47074144 231.66919729 -96.44949668 218.58465218 -96.4465704 205.49994469 C-96.44638759 204.69362712 -96.44620477 203.88730955 -96.44601642 203.05655812 C-96.44583745 202.25156735 -96.44565848 201.44657658 -96.44547409 200.61719215 C-96.44510864 198.99599639 -96.44473626 197.37480064 -96.44435692 195.75360489 C-96.4441714 194.95388439 -96.44398589 194.15416388 -96.44379475 193.33020943 C-96.44021575 180.81533739 -96.42176127 168.30048185 -96.40186368 155.78562673 C-96.39486862 151.2668974 -96.39007018 146.74817197 -96.38690232 142.22943841 C-96.3818314 135.06077259 -96.37027811 127.89218168 -96.34560203 120.72355424 C-96.33446006 117.45290679 -96.32732786 114.18234516 -96.3267355 110.91167641 C-96.31528575 78.79875799 -90.88720047 53.18722342 -68.27103329 29.06976891 C-50.11774555 11.78958519 -25.20434667 -0.10414917 0 0 Z " fill="#00392F" transform="translate(96.02103328704834,-0.25726890563964844)"/>
<path d="M0 0 C90.42 0 180.84 0 274 0 C274 109.23 274 218.46 274 331 C368.38 331 462.76 331 560 331 C560 221.77 560 112.54 560 0 C650.42 0 740.84 0 834 0 C834 0.99 834 1.98 834 3 C834.99 3 835.98 3 837 3 C837 296.37 837 589.74 837 892 C836.01 892 835.02 892 834 892 C834 893.32 834 894.64 834 896 C743.58 896 653.16 896 560 896 C560 787.76 560 679.52 560 568 C466.94 568 373.88 568 278 568 C278 568.99 278 569.98 278 571 C276.68 571 275.36 571 274 571 C274 678.25 274 785.5 274 896 C183.58 896 93.16 896 0 896 C0 600.32 0 304.64 0 0 Z " fill="#00392E" transform="translate(1877,0)"/>
<path d="M0 0 C90.75 0 181.5 0 275 0 C275 224.73 275 449.46 275 681 C369.38 681 463.76 681 561 681 C561 456.27 561 231.54 561 0 C652.41 0 743.82 0 838 0 C838.06039235 94.27461867 838.06039235 94.27461867 838.07695007 123.44314575 C838.07783807 125.00356066 838.07783807 125.00356066 838.07874402 126.59549911 C838.09861802 161.612971 838.11437059 196.63044348 838.12702942 231.6479187 C838.12744359 232.79069279 838.12785776 233.93346687 838.12828448 235.11087047 C838.13726315 259.94627639 838.14557371 284.78168249 838.15319599 309.61708886 C838.15693801 321.796321 838.16082767 333.97555309 838.16479492 346.15478516 C838.1651872 347.3667668 838.16557948 348.57874844 838.16598364 349.82745679 C838.17876826 389.11307606 838.20130263 428.39868239 838.22889166 467.68429382 C838.25719088 508.05449623 838.27565667 548.42469149 838.28174497 588.79490366 C838.28260944 594.4965788 838.28358635 600.19825393 838.28463173 605.89992905 C838.284834 607.02210331 838.28503627 608.14427758 838.28524467 609.30045713 C838.28879017 627.36622002 838.3027053 645.43196075 838.3204961 663.49771461 C838.33815953 681.65876469 838.3449035 699.81979282 838.34050413 717.98085119 C838.33822198 728.7713704 838.3443094 739.56180926 838.36239263 750.35231397 C838.37365098 757.56283546 838.37398483 764.7733044 838.36549544 771.98382954 C838.36097113 776.09071497 838.36114003 780.19744853 838.37464955 784.30431761 C838.38686801 788.04725198 838.38503464 791.78991722 838.37241993 795.53284787 C838.36929706 797.49932094 838.38078358 799.46580108 838.39302543 801.43223852 C838.23754744 828.99990658 826.09232629 852.30810865 807.37890625 871.71875 C798.00777074 880.74177498 787.3861843 887.17064534 775.125 891.4375 C774.46749756 891.67243164 773.80999512 891.90736328 773.13256836 892.14941406 C756.8523943 897.35321067 738.89639918 896.28517427 722.04515076 896.25396729 C719.32363534 896.25516655 716.60212633 896.25937136 713.88061386 896.26342177 C707.98654504 896.27060697 702.09251292 896.27044968 696.19844246 896.26532745 C687.43348754 896.25773115 678.66856333 896.26164615 669.90360859 896.26774407 C654.24547409 896.27825295 638.58735596 896.27737182 622.92921992 896.27158624 C609.2268651 896.26654837 595.52451627 896.26524488 581.82216072 896.26763153 C580.45699278 896.26786069 580.45699278 896.26786069 579.0642457 896.26809447 C575.36949962 896.26871718 571.67475354 896.26935399 567.98000747 896.270014 C533.3456733 896.27612714 498.71134953 896.27059269 464.07701697 896.2598202 C433.32746212 896.25032874 402.57792384 896.25117949 371.82836914 896.26074219 C337.2544894 896.27145835 302.68061884 896.27569434 268.10673767 896.26951766 C264.41916629 896.26887626 260.7315949 896.26825057 257.04402351 896.26763153 C256.13609662 896.26747338 255.22816973 896.26731522 254.2927299 896.26715227 C240.60054561 896.26488026 226.90836798 896.2675324 213.21618462 896.27259064 C197.64358443 896.27831498 182.07100311 896.27686702 166.49840527 896.26602915 C157.79004968 896.26016793 149.08173499 896.25975681 140.37338048 896.2673215 C134.54881266 896.27182186 128.72427747 896.26898708 122.89971447 896.26031196 C119.58637021 896.25557702 116.273173 896.25499358 112.95982128 896.26112393 C84.71071475 896.30936886 59.47397785 894.28646573 37 875 C36.18917969 874.32195313 35.37835937 873.64390625 34.54296875 872.9453125 C14.98451691 856.06075039 2.39938522 832.79259988 0 807 C-0.51120911 796.92015722 -0.4003088 786.81538076 -0.36679858 776.72553456 C-0.35640304 772.57990888 -0.36362588 768.43430557 -0.36853105 764.28867489 C-0.37472554 757.03627214 -0.36986688 749.78394355 -0.35761642 742.53154945 C-0.33945154 731.7476541 -0.33861455 720.96380513 -0.34124239 710.17989726 C-0.34517708 692.03641046 -0.33518655 673.89295653 -0.31719017 655.74947929 C-0.29942376 637.79172032 -0.28788923 619.83397505 -0.28463173 601.87620735 C-0.28442551 600.75859407 -0.28421929 599.6409808 -0.28400682 598.48950045 C-0.28299179 592.81343651 -0.28208765 587.13737257 -0.2812262 581.46130861 C-0.2749292 541.28417364 -0.25472894 501.10705654 -0.22631836 460.92993164 C-0.19875411 421.90454198 -0.17750863 382.87915721 -0.16479492 343.85375977 C-0.16440034 342.65029259 -0.16400576 341.44682541 -0.16359923 340.20688954 C-0.15964358 328.12089937 -0.15581615 316.03490916 -0.15208265 303.94891893 C-0.14447453 279.32955755 -0.13601077 254.71019649 -0.12702942 230.09083557 C-0.12661755 228.95893994 -0.12620568 227.82704431 -0.12578133 226.66084881 C-0.11311502 191.97518593 -0.09682301 157.28952607 -0.07695007 122.60386658 C-0.0763874 121.61932824 -0.07582473 120.63478991 -0.075245 119.62041708 C-0.0524019 79.74694333 -0.02571827 39.87347197 0 0 Z " fill="#00392E" transform="translate(922,0)"/>
<path d="M0 0 C96.36 0 192.72 0 292 0 C309.2354353 48.25921884 309.2354353 48.25921884 317.67470551 72.14339066 C318.89865232 75.60676852 320.12342424 79.06985458 321.34814453 82.53295898 C322.83701972 86.74309769 324.32587236 90.95324432 325.81442261 95.16349792 C330.16361242 107.46470145 334.51830307 119.76395328 338.875 132.0625 C339.55973813 133.99560368 340.24447122 135.92870914 340.92919922 137.86181641 C342.27665224 141.6658672 343.62415176 145.46990152 344.97167969 149.27392578 C348.12535261 158.1767639 351.27836883 167.0798346 354.43145752 175.98287964 C356.2042803 180.98859518 357.97714205 185.99429692 359.75 191 C360.45833352 192.99999993 361.16666685 194.99999993 361.875 197 C362.225625 197.99 362.57625 198.98 362.9375 200 C386.66666667 267 410.39583333 334 434.125 401 C434.65097527 402.48510574 434.65097527 402.48510574 435.18757629 404.00021362 C435.89565682 405.99950101 436.60373584 407.99878894 437.31181335 409.99807739 C439.08650226 415.00898471 440.86121762 420.01988266 442.63598633 425.03076172 C445.77749738 433.9005777 448.91886172 442.77044541 452.05917358 451.64068604 C460.36342362 475.09711522 468.6773496 498.55009409 477 522 C485.66164757 546.40506461 494.3130889 570.81372547 502.95556641 595.22558594 C506.11371287 604.14598117 509.27315695 613.06591685 512.4324646 621.98590088 C514.20502588 626.99058306 515.97750912 631.99529289 517.75 637 C518.45833296 639.00000013 519.16666629 641.00000013 519.875 643 C575.125 799.00000001 575.125 799.00000001 576.18727112 801.99937439 C576.89635007 804.00146589 577.60544637 806.00355125 578.31455994 808.00563049 C580.07412687 812.97358053 581.83340238 817.94163337 583.59204102 822.90991211 C586.91350757 832.29229231 590.23808199 841.67354148 593.57223511 851.05142212 C595.14884826 855.48645262 596.72389935 859.92203714 598.29882812 864.35766602 C599.05081294 866.474155 599.803565 868.59037156 600.55712891 870.70629883 C601.60122148 873.63815017 602.6426783 876.57092569 603.68359375 879.50390625 C604.14486916 880.79585655 604.14486916 880.79585655 604.61546326 882.11390686 C605.04448692 883.32511452 605.04448692 883.32511452 605.48217773 884.56079102 C605.7284642 885.25318375 605.97475067 885.94557648 606.22850037 886.65895081 C607.24505773 889.74360657 608.10774866 892.87712031 609 896 C515.94 896 422.88 896 327 896 C320.73 872.57 314.46 849.14 308 825 C301.50077441 800.9344466 301.50077441 800.9344466 294.98364258 776.8737793 C294 773 294 773 294 771 C196.32 771 98.64 771 -2 771 C-3.32 776.61 -4.64 782.22 -6 788 C-6.80425144 791.13618084 -7.61619166 794.26174989 -8.47021484 797.38354492 C-8.68549332 798.17974243 -8.90077179 798.97593994 -9.12257385 799.79626465 C-9.81603086 802.35839699 -10.51341842 804.91943962 -11.2109375 807.48046875 C-11.70675445 809.30912324 -12.20232388 811.13784487 -12.69766235 812.96662903 C-13.99155542 817.74100823 -15.28883012 822.51446193 -16.58685303 827.28771973 C-17.8907631 832.08511519 -19.19131791 836.88341999 -20.4921875 841.68164062 C-22.69121557 849.7914913 -24.89501325 857.90003455 -27.10111618 866.00796318 C-28.4179509 870.85041804 -29.72681085 875.69490762 -31.02832031 880.54150391 C-31.31252838 881.59614334 -31.59673645 882.65078278 -31.88955688 883.73738098 C-32.38609159 885.58111752 -32.8801152 887.42553325 -33.37094116 889.27079773 C-34.88765534 894.88765534 -34.88765534 894.88765534 -36 896 C-37.50128397 896.09681167 -39.0071269 896.12371734 -40.51152897 896.12304783 C-41.98276678 896.1260344 -41.98276678 896.1260344 -43.48372656 896.12908131 C-44.57417019 896.12616847 -45.66461382 896.12325563 -46.7881012 896.12025452 C-48.51060015 896.12153615 -48.51060015 896.12153615 -50.26789707 896.12284368 C-53.46949485 896.12421182 -56.67105269 896.12106452 -59.87264574 896.11606562 C-63.31983148 896.11176429 -66.76701521 896.11320732 -70.21420288 896.1139679 C-76.19140125 896.11449333 -82.16858874 896.11134447 -88.14578438 896.10573006 C-96.78790326 896.09761773 -105.43001686 896.09500011 -114.07213914 896.09374207 C-128.09195968 896.09155112 -142.11177441 896.0848899 -156.1315918 896.07543945 C-169.75398733 896.06626642 -183.3763813 896.05918506 -196.9987793 896.05493164 C-197.83786233 896.05466892 -198.67694536 896.05440619 -199.54145516 896.05413551 C-203.75070854 896.05283051 -207.95996192 896.05156679 -212.16921532 896.05032361 C-247.11281435 896.03994968 -282.05640664 896.02233022 -317 896 C-316.85535014 894.42982525 -316.70709459 892.85998247 -316.55737305 891.2902832 C-316.47521042 890.41604202 -316.39304779 889.54180084 -316.30839539 888.6410675 C-309.39417482 829.42836815 -279.91688905 766.61380208 -259.97558594 710.56298828 C-257.82069163 704.50243517 -255.68310364 698.43580395 -253.54493141 692.36933517 C-239.85173946 653.52364902 -225.98363202 614.74200854 -212 576 C-211.65819954 575.05292805 -211.65819954 575.05292805 -211.30949402 574.08672333 C-193.5273932 524.81659636 -175.5618155 475.61505177 -157.4392395 426.4691925 C-152.64898998 413.47858099 -147.86818034 400.48454742 -143.09661865 387.48706055 C-126.78427226 343.05414284 -110.40114968 298.64799336 -93.92716789 254.27478981 C-88.82018243 240.51884637 -83.72089372 226.76005613 -78.625 213 C-78.21388977 211.88992584 -77.80277954 210.77985168 -77.37921143 209.63613892 C-69.94568861 189.56291127 -62.52321288 169.48560912 -55.10606384 149.40632629 C-52.67138257 142.81582221 -50.23454508 136.22611785 -47.796875 129.63671875 C-40.43051097 109.72255704 -33.07652843 89.80385611 -25.75 69.875 C-25.37366425 68.85134338 -24.99732849 67.82768677 -24.60958862 66.77301025 C-19.03322318 51.59822012 -13.50603452 36.40628801 -8.05761719 21.18505859 C-7.68710739 20.15298027 -7.68710739 20.15298027 -7.30911255 19.10005188 C-6.6586595 17.28797133 -6.01014454 15.47519541 -5.36181641 13.66235352 C-3.65672765 9.07683246 -1.81694442 4.54236105 0 0 Z M149 298 C143.918565 313.60920867 139.07900821 329.26999946 134.50549316 345.0352478 C132.87915473 350.63932335 131.24281177 356.24047752 129.60630035 361.84158897 C129.21068711 363.19564622 128.81517513 364.54973305 128.41976166 365.90384865 C123.33379622 383.31888483 118.17507975 400.71233247 113.01576614 418.10575104 C111.73732931 422.41594807 110.45939567 426.72629429 109.18139648 431.03662109 C107.64391221 436.22193862 106.10635736 441.4072352 104.56858826 446.59246826 C99.67471249 463.09449095 94.78528274 479.59782674 89.90100098 496.10269165 C89.02812243 499.05217513 88.15483686 502.00153754 87.28112793 504.95077515 C84.71297234 513.62016518 82.15161846 522.29152373 79.59909821 530.9655304 C78.9715752 533.09652738 78.34286974 535.22717332 77.71405029 537.35778809 C76.64295627 540.98857124 75.57638109 544.62065596 74.51289177 548.25367355 C74.10940543 549.62975705 73.7045492 551.00543969 73.2982502 552.38069534 C72.73921878 554.27399942 72.18575578 556.16894502 71.63256836 558.06396484 C71.31638046 559.14092621 71.00019257 560.21788757 70.67442322 561.32748413 C69.87765786 564.02541813 69.87765786 564.02541813 70 567 C120.49 567 170.98 567 223 567 C221.75118823 560.75594115 220.47666179 554.69799764 218.78295898 548.58813477 C218.56868193 547.80425825 218.35440487 547.02038174 218.13363457 546.21275139 C217.42438578 543.6213955 216.71025922 541.03141104 215.99609375 538.44140625 C215.48450118 536.57617674 214.97321255 534.71086384 214.46220398 532.84547424 C213.08005824 527.80345117 211.69366325 522.76260539 210.30649567 517.72196198 C208.84033192 512.39133861 207.37815811 507.05962095 205.91552734 501.72802734 C203.17919005 491.75588164 200.43938079 481.78469369 197.69798279 471.81393814 C194.86920057 461.52517936 192.04307264 451.23569259 189.21737289 440.94608688 C185.82386472 428.58904948 182.42961915 416.23221507 179.03320312 403.87597656 C172.15651921 378.85794994 165.29150608 353.8367491 158.4375 328.8125 C158.21800941 328.01113869 157.99851883 327.20977737 157.77237701 326.38413239 C155.18101894 316.9229098 152.59018403 307.46154407 150 298 C149.67 298 149.34 298 149 298 Z " fill="#00392E" transform="translate(3123,0)"/>
<path d="M0 0 C90.42 0 180.84 0 274 0 C274 295.68 274 591.36 274 896 C183.58 896 93.16 896 0 896 C0 600.32 0 304.64 0 0 Z " fill="#003A2E" transform="translate(3822,0)"/>
<path d="M0 0 C0.86810303 -0.00526703 1.73620605 -0.01053406 2.63061523 -0.01596069 C18.25912691 -0.08917554 33.77945322 0.68209049 49 4.5 C49.87519287 4.71543457 50.75038574 4.93086914 51.65209961 5.15283203 C77.6748228 11.81506824 101.48526152 27.29480263 115.34765625 50.68359375 C132.16745384 80.51938967 133.21660739 118.30393299 124.72045898 150.96435547 C117.60101169 176.05026365 102.84919068 198.66946525 80.3125 212.25 C79.4464917 212.7756958 79.4464917 212.7756958 78.56298828 213.31201172 C65.84534608 220.88810783 52.22944024 225.35546588 37.8125 228.5 C37.12704102 228.65114258 36.44158203 228.80228516 35.73535156 228.95800781 C21.77098753 231.7788985 7.6672257 232.58377688 -6.54223633 232.51074219 C-8.96136522 232.50016886 -11.37972363 232.51064191 -13.79882812 232.5234375 C-28.89666112 232.49955797 -43.51833632 231.29614922 -58.6875 230.25 C-58.6875 156 -58.6875 81.75 -58.6875 5.25 C-38.73385654 1.7287688 -20.16193266 0.06220864 0 0 Z M-29.6875 27.25 C-29.6875 86.32 -29.6875 145.39 -29.6875 206.25 C2.30254138 210.24875517 38.24398321 209.88268775 64.875 189.1875 C66.37062424 187.89378503 67.8515983 186.58280025 69.3125 185.25 C69.9209375 184.73308594 70.529375 184.21617187 71.15625 183.68359375 C87.30999029 169.03508835 94.56204725 145.38299638 96.3125 124.25 C97.63277457 96.77065063 94.18104861 70.96872482 75.8984375 49.40234375 C60.4242411 33.1175942 37.44971176 24.60447023 15.2144928 23.98490906 C12.25353688 23.93615626 9.29383622 23.92570841 6.33251953 23.93432617 C4.07925503 23.93747657 1.82732133 23.91396832 -0.42578125 23.88867188 C-1.9140609 23.88639649 -3.40234396 23.88569649 -4.890625 23.88671875 C-6.19676758 23.88373779 -7.50291016 23.88075684 -8.84863281 23.87768555 C-15.86455294 24.41750786 -22.77136543 25.95322477 -29.6875 27.25 Z " fill="#00392E" transform="translate(2294.6875,1003.75)"/>
<path d="M0 0 C26.53049698 -0.76825763 51.98897635 8.70368119 71.36328125 26.73046875 C88.47330545 43.32692192 98.14622603 63.91601279 102.8359375 87.12890625 C103.06152344 88.22332031 103.28710938 89.31773438 103.51953125 90.4453125 C106.83535869 110.18020274 106.07632124 131.59871779 101.8359375 151.12890625 C101.67496582 151.88139648 101.51399414 152.63388672 101.34814453 153.40917969 C95.16752683 181.06462374 79.6689598 206.14779777 55.69995117 221.72998047 C40.56972298 231.03644733 22.59238866 236.51199027 4.8359375 237.12890625 C3.92070312 237.16886719 3.00546875 237.20882813 2.0625 237.25 C-22.69516282 237.81418266 -47.47988161 230.75580368 -66.1640625 214.12890625 C-66.85757813 213.56558594 -67.55109375 213.00226563 -68.265625 212.421875 C-90.39814912 194.17749701 -100.97696241 164.24528017 -103.8828125 136.5 C-106.45376339 101.42135277 -100.83031636 63.5964755 -77.1640625 36.12890625 C-76.40738281 35.20078125 -75.65070312 34.27265625 -74.87109375 33.31640625 C-58.29537374 13.84737133 -33.28520393 2.82512572 -8.1015625 0.50390625 C-5.40177595 0.31594643 -2.70143984 0.16091609 0 0 Z M-48.1953125 45.75 C-68.071447 69.76699585 -74.42828778 101.17669725 -71.95751953 131.67871094 C-69.74588449 153.39370602 -62.82108602 173.62555225 -48.1640625 190.12890625 C-47.25914062 191.17498047 -47.25914062 191.17498047 -46.3359375 192.2421875 C-35.94755044 203.48172392 -20.94479843 210.75407789 -5.609375 211.3671875 C14.60154528 211.79007386 31.82403661 207.52420458 46.8359375 193.12890625 C67.74176133 169.99567349 74.18154258 139.42508875 73 109.01513672 C71.56404977 83.75352422 62.62536 57.42418823 43.81640625 39.77734375 C16.11876126 16.72328815 -23.33122249 19.7140369 -48.1953125 45.75 Z " fill="#00392E" transform="translate(2557.1640625,1000.87109375)"/>
<path d="M0 0 C11.79706082 11.13139595 17.12796607 26.04480399 17.83984375 42.015625 C18.19868827 60.24492679 11.80435498 75.28441908 -0.5 88.5625 C-6.99794707 94.74890167 -15.13053976 99.01204706 -23.1875 102.8125 C-22.48625 103.21339844 -21.785 103.61429688 -21.0625 104.02734375 C-3.4295811 114.59272043 3.27269138 130.68628175 8.11328125 149.87109375 C8.68214685 152.18429241 9.24820196 154.49818286 9.8125 156.8125 C11.27370791 162.77497058 12.74306434 168.735393 14.21661377 174.69482422 C14.8603632 177.31541614 15.492206 179.93865813 16.12255859 182.5625 C18.20683596 191.12959798 20.49796766 199.30105116 23.89233398 207.45678711 C24.8125 209.8125 24.8125 209.8125 24.8125 211.8125 C14.5825 211.8125 4.3525 211.8125 -6.1875 211.8125 C-8.78596339 205.96595736 -10.77868144 201.33800262 -12.3359375 195.33984375 C-12.5136821 194.66271835 -12.6914267 193.98559296 -12.8745575 193.28794861 C-13.25053211 191.85065326 -13.6229487 190.41242293 -13.99197388 188.97332764 C-14.57309258 186.70872097 -15.16526728 184.44722759 -15.75952148 182.18603516 C-17.53201763 175.41201318 -19.25283352 168.63258137 -20.82421875 161.80859375 C-25.83497848 139.2038248 -25.83497848 139.2038248 -40.1875 121.8125 C-57.04069446 111.72239976 -74.46106007 113.49272207 -94.1875 112.8125 C-94.1875 145.4825 -94.1875 178.1525 -94.1875 211.8125 C-104.0875 211.8125 -113.9875 211.8125 -124.1875 211.8125 C-124.1875 137.5625 -124.1875 63.3125 -124.1875 -13.1875 C-30.92689352 -26.05103193 -30.92689352 -26.05103193 0 0 Z M-81.875 7.75 C-82.77331543 7.83677002 -83.67163086 7.92354004 -84.59716797 8.01293945 C-85.43521973 8.10019287 -86.27327148 8.18744629 -87.13671875 8.27734375 C-87.89299561 8.355896 -88.64927246 8.43444824 -89.4284668 8.51538086 C-91.20966964 8.64151599 -91.20966964 8.64151599 -92.1875 9.8125 C-92.28254251 12.33791002 -92.31307158 14.83587126 -92.30102539 17.36157227 C-92.30117142 18.15175751 -92.30131744 18.94194275 -92.3014679 19.756073 C-92.30076857 22.38037822 -92.29297527 25.00461336 -92.28515625 27.62890625 C-92.28329214 29.44351665 -92.2818682 31.25812756 -92.28086853 33.07273865 C-92.27704279 37.8584023 -92.26721204 42.6440358 -92.25616455 47.4296875 C-92.24595163 52.30924064 -92.24137117 57.18879864 -92.23632812 62.06835938 C-92.22558982 71.64975286 -92.20851273 81.23112393 -92.1875 90.8125 C-86.71064141 90.88739393 -81.23408955 90.94144902 -75.75683594 90.97729492 C-73.89871011 90.99225905 -72.04061883 91.01263773 -70.18261719 91.03881836 C-51.651914 91.29314179 -36.36787151 89.41642655 -22.3828125 76.1328125 C-13.74352284 67.00160599 -11.61625383 56.78521497 -11.90234375 44.43359375 C-12.72538633 33.9820805 -16.76326846 25.83721228 -24.3125 18.625 C-40.28094828 5.12343825 -62.24459766 5.8390298 -81.875 7.75 Z " fill="#00392E" transform="translate(2829.1875,1021.1875)"/>
<path d="M0 0 C4.70627038 4.39645321 7.87374186 9.01557339 10.75 14.75 C11.13929688 15.52601562 11.52859375 16.30203125 11.9296875 17.1015625 C19.38418629 32.93557089 19.35701963 51.03540328 13.625 67.4375 C6.49202517 84.66153627 -6.82307106 95.00144861 -23.25 102.75 C-22.54875 103.15089844 -21.8475 103.55179688 -21.125 103.96484375 C-6.78312897 112.55827463 1.43262615 125.06832743 5.58300781 141.15060425 C5.76831055 141.9001236 5.95361328 142.64964294 6.14453125 143.421875 C6.35198975 144.23431671 6.55944824 145.04675842 6.77319336 145.88381958 C7.44006137 148.50394724 8.09577696 151.12668887 8.75 153.75 C9.1990989 155.53541061 9.64856441 157.32072904 10.09838867 159.10595703 C10.55524762 160.92218245 11.01203421 162.73842607 11.46875 164.5546875 C11.69706009 165.46258026 11.92537018 166.37047302 12.16059875 167.30587769 C12.38990585 168.21814117 12.61921295 169.13040466 12.85546875 170.0703125 C13.08540527 170.98458008 13.3153418 171.89884766 13.55224609 172.84082031 C14.01994884 174.70704919 14.48509165 176.57392138 14.94775391 178.44140625 C17.40790191 188.35785427 19.90596099 198.0069501 23.84960938 207.45361328 C24.75 209.75 24.75 209.75 24.75 211.75 C14.52 211.75 4.29 211.75 -6.25 211.75 C-10.75149367 201.62163924 -10.75149367 201.62163924 -12.14453125 196.29296875 C-12.45648437 195.1117041 -12.7684375 193.93043945 -13.08984375 192.71337891 C-13.41082031 191.46733887 -13.73179688 190.22129883 -14.0625 188.9375 C-14.4107642 187.61619055 -14.75973532 186.29506724 -15.109375 184.97412109 C-16.84609289 178.37656361 -18.49795399 171.76664352 -20.04296875 165.12109375 C-25.11703351 140.70344893 -25.11703351 140.70344893 -40.25 121.75 C-56.54102748 111.99647222 -73.16410872 113.45688486 -92.25 112.75 C-92.25 145.42 -92.25 178.09 -92.25 211.75 C-102.48 211.75 -112.71 211.75 -123.25 211.75 C-123.25 137.5 -123.25 63.25 -123.25 -13.25 C-32.64924674 -27.55538209 -32.64924674 -27.55538209 0 0 Z M-81.9375 7.6875 C-82.83581543 7.77427002 -83.73413086 7.86104004 -84.65966797 7.95043945 C-85.49771973 8.03769287 -86.33577148 8.12494629 -87.19921875 8.21484375 C-87.95549561 8.293396 -88.71177246 8.37194824 -89.4909668 8.45288086 C-91.27216964 8.57901599 -91.27216964 8.57901599 -92.25 9.75 C-92.34504251 12.27541002 -92.37557158 14.77337126 -92.36352539 17.29907227 C-92.36367142 18.08925751 -92.36381744 18.87944275 -92.3639679 19.693573 C-92.36326857 22.31787822 -92.35547527 24.94211336 -92.34765625 27.56640625 C-92.34579214 29.38101665 -92.3443682 31.19562756 -92.34336853 33.01023865 C-92.33954279 37.7959023 -92.32971204 42.5815358 -92.31866455 47.3671875 C-92.30845163 52.24674064 -92.30387117 57.12629864 -92.29882812 62.00585938 C-92.28808982 71.58725286 -92.27101273 81.16862393 -92.25 90.75 C-86.77314141 90.82489393 -81.29658955 90.87894902 -75.81933594 90.91479492 C-73.96121011 90.92975905 -72.10311883 90.95013773 -70.24511719 90.97631836 C-51.72049359 91.23055835 -36.41819924 89.36035962 -22.4453125 76.06640625 C-14.96860156 68.17727887 -12.16944003 59.04186736 -11.875 48.25 C-12.22233261 36.03547003 -16.03777268 26.46203581 -24.9375 18 C-40.75803822 4.9873054 -62.72750209 5.81745511 -81.9375 7.6875 Z " fill="#00392E" transform="translate(1955.25,1021.25)"/>
<path d="M0 0 C-0.97204853 3.674638 -1.9837988 7.33735142 -3 11 C-3.31324219 12.18464844 -3.62648438 13.36929687 -3.94921875 14.58984375 C-4.27535156 15.75644531 -4.60148437 16.92304687 -4.9375 18.125 C-5.23527344 19.22070312 -5.53304688 20.31640625 -5.83984375 21.4453125 C-7 24 -7 24 -8.734375 25.0078125 C-11.94847357 24.9967294 -14.33350214 23.94572232 -17.3125 22.75 C-29.19380067 18.23184716 -41.33195441 16.4967861 -54 16 C-55.2375 15.938125 -55.2375 15.938125 -56.5 15.875 C-80.72312548 15.22032093 -105.79093142 22.50751429 -123.70458984 39.18237305 C-140.35469216 55.39846795 -147.90664807 78.10794407 -149 101 C-149.04125 101.82242187 -149.0825 102.64484375 -149.125 103.4921875 C-149.75387634 129.3547269 -142.7023265 155.19960871 -124.765625 174.390625 C-107.11315255 191.35084363 -82.68449456 197.38227681 -58.75390625 197.15625 C-54.31724998 196.97158168 -49.91834897 196.62347198 -45.5 196.1875 C-44.38057007 196.08248169 -44.38057007 196.08248169 -43.23852539 195.9753418 C-36.2371174 195.22000005 -30.01281426 193.61834175 -23 192 C-23 169.89 -23 147.78 -23 125 C-38.18 125 -53.36 125 -69 125 C-69 116.75 -69 108.5 -69 100 C-44.25 100 -19.5 100 6 100 C6 136.63 6 173.26 6 211 C2.00259387 212.99870307 -0.82443704 214.39885657 -4.94921875 215.5 C-5.87049561 215.74596924 -6.79177246 215.99193848 -7.7409668 216.24536133 C-8.71332275 216.49439209 -9.68567871 216.74342285 -10.6875 217 C-11.70046143 217.26127686 -12.71342285 217.52255371 -13.75708008 217.79174805 C-23.09743594 220.13579632 -32.44857916 221.80903794 -42 223 C-43.01320313 223.13148438 -44.02640625 223.26296875 -45.0703125 223.3984375 C-79.71909094 227.05087283 -115.80779566 221.95212594 -143.56201172 199.75048828 C-167.12815797 180.43554787 -178.45329965 151.0697681 -181.6875 121.4375 C-184.14500114 87.03248408 -176.10630479 54.16204328 -153.35742188 27.69213867 C-118.64391437 -11.18198984 -46.76197807 -23.38098904 0 0 Z " fill="#00392E" transform="translate(1551,1013)"/>
<path d="M0 0 C12.21 0 24.42 0 37 0 C38.12535156 3.32707031 39.25070313 6.65414062 40.41015625 10.08203125 C47.60553281 31.33455338 54.81389959 52.58033779 62.25 73.75 C68.8899472 92.65699552 75.3108528 111.63600518 81.71631241 130.62332153 C88.425647 150.51063506 95.19578602 170.37347362 102.16992188 190.16992188 C105.13466667 198.59072587 108.0550202 207.02571064 110.91015625 215.484375 C111.21876083 216.38859192 111.52736542 217.29280884 111.84532166 218.22442627 C112.12718826 219.06527771 112.40905487 219.90612915 112.69946289 220.77246094 C113.0767025 221.88956451 113.0767025 221.88956451 113.46156311 223.02923584 C114 225 114 225 114 228 C102.78 228 91.56 228 80 228 C74.25998373 211.14984354 74.25998373 211.14984354 71.82421875 203.97460938 C70.16099291 199.07519179 68.4967697 194.17612878 66.82666016 189.27905273 C65.48052092 185.33171589 64.13881245 181.38289888 62.80018616 177.43300819 C62.28823453 175.92496281 61.7746782 174.41746123 61.25950623 172.91051292 C60.53921395 170.80267252 59.82460845 168.69298536 59.11132812 166.58276367 C58.49843933 164.78073738 58.49843933 164.78073738 57.87316895 162.94230652 C57 160 57 160 57 157 C30.6 157.33 4.2 157.66 -23 158 C-34.69232349 192.93773506 -34.69232349 192.93773506 -46 228 C-56.56 228 -67.12 228 -78 228 C-74.62395366 216.74651221 -74.62395366 216.74651221 -72.87792969 211.58032227 C-72.2892939 209.8349971 -72.2892939 209.8349971 -71.68876648 208.05441284 C-71.27069229 206.82087067 -70.8526181 205.58732849 -70.421875 204.31640625 C-69.97428927 202.99231332 -69.52680748 201.66818526 -69.079422 200.34402466 C-67.88635525 196.81482418 -66.69077442 193.28648057 -65.49443436 189.75838852 C-64.743889 187.54447415 -63.99403743 185.33032584 -63.24435425 183.11611938 C-57.1535736 165.12995382 -51.00687092 147.16614117 -44.70596313 129.25231934 C-38.46360951 111.49069748 -32.45290111 93.65186553 -26.4375 75.8125 C-19.91513875 56.47121304 -13.37864879 37.13713667 -6.625 17.875 C-6.18823441 16.62766586 -6.18823441 16.62766586 -5.74264526 15.35513306 C-1.20379964 2.40759927 -1.20379964 2.40759927 0 0 Z M16 29 C15.85191895 29.63647461 15.70383789 30.27294922 15.55126953 30.92871094 C9.81813569 54.99195933 1.61660257 78.17442871 -6.66703796 101.45918274 C-10.25770103 111.5957023 -13.59680581 121.79041743 -17 132 C5.44 132 27.88 132 51 132 C43.40942381 109.04512961 43.40942381 109.04512961 35.58984375 86.16796875 C29.00813521 67.26582644 22.97423243 48.395597 18 29 C17.34 29 16.68 29 16 29 Z " fill="#00392E" transform="translate(2083,1006)"/>
<path d="M0 0 C10.23 0 20.46 0 31 0 C31.01458252 4.41938965 31.02916504 8.8387793 31.04418945 13.39208984 C31.09467698 28.04444373 31.16114976 42.69669353 31.23571491 57.34894371 C31.2805084 66.22675762 31.31996006 75.10453288 31.34643555 83.98242188 C31.36954983 91.72852105 31.40309501 99.47449622 31.44870156 107.22049677 C31.47245451 111.31457145 31.49129974 115.40852469 31.49761391 119.50266647 C31.05073701 159.45679166 31.05073701 159.45679166 49 194 C59.12860636 203.93928662 71.53281175 207.26727109 85.34423828 207.24658203 C96.3547359 207.0753858 108.61057333 204.40425132 116.68359375 196.3125 C118 195 118 195 120 195 C120.27199219 194.4225 120.54398438 193.845 120.82421875 193.25 C121.99820543 191.00343412 123.33561067 189.05751337 124.8125 187 C135.3943153 171.20470497 137.12795867 152.99351279 137.20532227 134.50585938 C137.21491517 133.04656709 137.22492605 131.58727751 137.23532104 130.12799072 C137.2622233 126.18645875 137.28331178 122.24491499 137.30332303 118.30334282 C137.32527376 114.1766943 137.35261776 110.05008153 137.37937927 105.92346191 C137.42918382 98.11806875 137.47416776 90.31265562 137.51740164 82.50722361 C137.56687897 73.6172199 137.62175799 64.72725208 137.67708123 55.83728313 C137.79071327 37.55822066 137.89687985 19.27912501 138 1 C147.9 1 157.8 1 168 1 C168.06793092 20.52473951 168.1231057 40.04938215 168.15543652 59.57421017 C168.17085263 68.64155775 168.19184061 77.70882625 168.22631836 86.77612305 C168.25638275 94.68657809 168.27561311 102.59697581 168.28226548 110.5074864 C168.28614913 114.68933279 168.29516416 118.87101531 168.31719017 123.05280876 C168.33782584 127.00331576 168.34378029 130.95359422 168.33932304 134.90415001 C168.34013633 136.34026082 168.3459386 137.77638074 168.35761642 139.21244431 C168.46224226 152.7640798 166.79295341 166.33320126 162.3125 179.1875 C162.0561377 179.92959717 161.79977539 180.67169434 161.53564453 181.4362793 C154.50822879 200.91112535 141.70964414 215.74925337 123.15771484 224.90966797 C100.10571393 235.63588049 71.20973858 235.98492655 47.46875 227.40625 C37.76690586 223.47306994 30.41266729 218.38719421 23 211 C22.37351562 210.39671875 21.74703125 209.7934375 21.1015625 209.171875 C-1.31382146 185.84364735 -0.46150454 150.14467642 -0.30418181 120.17836404 C-0.28519609 115.94104251 -0.28364759 111.70371188 -0.28010559 107.46635437 C-0.27084851 99.47354307 -0.24632232 91.48085755 -0.21605712 83.48810118 C-0.18231355 74.37539714 -0.16597737 65.26268651 -0.15097082 56.14993536 C-0.11976567 37.43320484 -0.06483481 18.71664632 0 0 Z " fill="#00392E" transform="translate(1607,1005)"/>
<path d="M0 0 C12.21 0 24.42 0 37 0 C37.98097656 2.89394531 38.96195313 5.78789063 39.97265625 8.76953125 C46.61094661 28.33283012 53.28202835 47.88227325 60.125 67.375 C66.80492756 86.40808392 73.26912419 105.51217198 79.71680069 124.62478638 C85.8279308 142.73924574 91.98379657 160.8350538 98.3125 178.875 C102.4109285 190.56454506 106.49335484 202.25733057 110.4375 214 C110.80979736 215.09940918 111.18209473 216.19881836 111.56567383 217.33154297 C111.8933374 218.31525879 112.22100098 219.29897461 112.55859375 220.3125 C112.98096313 221.57513672 112.98096313 221.57513672 113.41186523 222.86328125 C114 225 114 225 114 228 C103.44 228 92.88 228 82 228 C80.40671875 223.31103516 80.40671875 223.31103516 78.78125 218.52734375 C77.72219807 215.41245065 76.66286901 212.29765192 75.60351562 209.18286133 C74.88187364 207.06056334 74.16050804 204.93817135 73.43945312 202.81567383 C72.38749398 199.71929968 71.33445308 196.62329498 70.28125 193.52734375 C69.97255981 192.61798569 69.66386963 191.70862762 69.3458252 190.77171326 C65.62035511 179.82770484 61.79822976 168.91991056 58 158 C31.27 158 4.54 158 -23 158 C-30.59 181.1 -38.18 204.2 -46 228 C-56.56 228 -67.12 228 -78 228 C-63.45238188 184.15509539 -48.87191978 140.30224824 -33.53091431 96.72744751 C-29.39719846 84.98111364 -25.36024848 73.20366729 -21.375 61.40625 C-21.12825153 60.67597469 -20.88150307 59.94569939 -20.62727737 59.19329453 C-18.1474395 51.85253971 -15.67167202 44.51043096 -13.20425034 37.16549301 C-12.28124551 34.41942723 -11.35611295 31.67408092 -10.43063354 28.92884827 C-9.79763205 27.04843553 -9.16767609 25.16699841 -8.5378418 23.28552246 C-8.14556396 22.12218384 -7.75328613 20.95884521 -7.34912109 19.76025391 C-7.01463959 18.76410065 -6.68015808 17.76794739 -6.33554077 16.74160767 C-4.32969665 11.12209989 -2.14194362 5.5690534 0 0 Z M16 28 C15.70609375 29.09828125 15.4121875 30.1965625 15.109375 31.328125 C11.95133031 42.86116239 8.35559459 54.22609442 4.5625 65.5625 C4.3142749 66.30446625 4.0660498 67.0464325 3.81030273 67.81088257 C0.54443154 77.55497648 -2.77737917 87.27969248 -6.11328125 97 C-6.45777817 98.00522202 -6.80227509 99.01044403 -7.1572113 100.04612732 C-8.8569067 105.00568907 -10.56122248 109.96354936 -12.27514648 114.91821289 C-12.8971432 116.72796874 -13.51897752 118.53778041 -14.140625 120.34765625 C-14.43064896 121.18035034 -14.72067291 122.01304443 -15.01948547 122.87097168 C-16.54885923 127.33337321 -16.54885923 127.33337321 -17 132 C5.11 132 27.22 132 50 132 C47.49297833 123.63483439 47.49297833 123.63483439 44.7668457 115.3581543 C44.14523308 113.54766853 44.14523308 113.54766853 43.51106262 111.7006073 C43.29390909 111.07055471 43.07675556 110.44050213 42.85302162 109.79135704 C41.91153384 107.05667563 40.97692108 104.31965854 40.04174328 101.58281422 C38.31273259 96.52310982 36.58125579 91.46428653 34.83813477 86.40942383 C28.18371652 67.10125063 22.15528364 47.76723709 17 28 C16.67 28 16.34 28 16 28 Z " fill="#00392E" transform="translate(2957,1006)"/>
<path d="M0 0 C40.92 0 81.84 0 124 0 C124 8.25 124 16.5 124 25 C93.31 25 62.62 25 31 25 C31 48.43 31 71.86 31 96 C60.04 96 89.08 96 119 96 C119 104.58 119 113.16 119 122 C89.96 122 60.92 122 31 122 C31 148.73 31 175.46 31 203 C63.34 203 95.68 203 129 203 C129 211.25 129 219.5 129 228 C86.43 228 43.86 228 0 228 C0 152.76 0 77.52 0 0 Z " fill="#003A2F" transform="translate(1209,1006)"/>
<path d="M0 0 C18.8912995 -0.5455971 38.67466688 1.96599358 55.4140625 11.15625 C52.97947979 19.56842604 50.21262464 27.86011716 47.4140625 36.15625 C42.24448961 35.34631692 37.55831004 33.36089744 32.73632812 31.41601562 C23.38503482 27.77488403 14.40610596 26.81204935 4.4140625 26.84375 C2.89039063 26.81958008 2.89039063 26.81958008 1.3359375 26.79492188 C-10.30863177 26.78745741 -20.53475413 29.98268173 -29.40625 37.75 C-35.42599758 44.16299742 -37.80260159 51.45783745 -38.0859375 60.15625 C-37.77173411 69.50126683 -35.07291529 76.50892455 -28.6015625 83.29296875 C-17.69466256 93.37550998 -3.49788594 98.56522894 10.0390625 104.15625 C22.08256085 109.15064097 33.43589316 114.62389704 43.4140625 123.15625 C44.02507812 123.62417969 44.63609375 124.09210938 45.265625 124.57421875 C55.80636431 132.86286177 62.18601277 145.9338217 64.12890625 159.0625 C65.88740614 178.14101931 63.13718313 195.28847698 51.3125 210.9375 C38.35611079 226.13722161 19.79849454 233.3285842 0.4140625 236.15625 C-24.12388188 237.50951409 -52.65730297 236.95689725 -73.5859375 222.15625 C-74.9980714 219.3319822 -74.131692 217.99133501 -73.22265625 215 C-72.91263672 213.97777344 -72.60261719 212.95554687 -72.28320312 211.90234375 C-71.94998047 210.83113281 -71.61675781 209.75992187 -71.2734375 208.65625 C-70.95181641 207.58503906 -70.63019531 206.51382812 -70.29882812 205.41015625 C-67.84343722 197.41374972 -67.84343722 197.41374972 -65.5859375 195.15625 C-65.08892334 195.40793945 -64.59190918 195.65962891 -64.07983398 195.91894531 C-53.44227363 201.25791178 -43.28423166 205.75659992 -31.5859375 208.15625 C-30.67714844 208.34703125 -29.76835938 208.5378125 -28.83203125 208.734375 C-10.97011241 211.05577961 6.73430615 209.71999817 21.48046875 198.59765625 C27.70447685 192.99201612 31.85546273 184.53524654 32.4140625 176.15625 C32.4965625 174.96 32.5790625 173.76375 32.6640625 172.53125 C32.4644747 162.09280802 29.00347046 153.03334808 21.8203125 145.48046875 C13.48996273 137.87705988 3.26628944 133.67438576 -7.10418701 129.66220093 C-23.25908855 123.3861876 -38.518108 116.89062751 -51.5859375 105.15625 C-52.22917969 104.59421875 -52.87242188 104.0321875 -53.53515625 103.453125 C-61.86288364 95.7215256 -68.86448152 83.39785231 -69.76293945 71.88891602 C-70.26162726 51.71689499 -67.4402995 35.65617798 -52.9921875 20.4375 C-38.75689277 6.9417011 -19.26692669 0.8395175 0 0 Z " fill="#00392E" transform="translate(1099.5859375,1001.84375)"/>
</svg>
