<?xml version="1.0" encoding="UTF-8"?>
<!DOCTYPE svg PUBLIC "-//W3C//DTD SVG 1.1//EN" "http://www.w3.org/Graphics/SVG/1.1/DTD/svg11.dtd">
<svg xmlns="http://www.w3.org/2000/svg" version="1.1" width="600px" height="600px" style="shape-rendering:geometricPrecision; text-rendering:geometricPrecision; image-rendering:optimizeQuality; fill-rule:evenodd; clip-rule:evenodd" xmlns:xlink="http://www.w3.org/1999/xlink">
<g><path style="opacity:1" fill="#f9f9f9" d="M -0.5,-0.5 C 199.5,-0.5 399.5,-0.5 599.5,-0.5C 599.5,199.5 599.5,399.5 599.5,599.5C 399.5,599.5 199.5,599.5 -0.5,599.5C -0.5,399.5 -0.5,199.5 -0.5,-0.5 Z"/></g>
<g><path style="opacity:1" fill="#1d8a70" d="M 329.5,58.5 C 328.475,58.8966 328.308,59.5632 329,60.5C 340.101,69.4312 349.601,79.7646 357.5,91.5C 358.257,92.7733 358.923,92.7733 359.5,91.5C 360.167,91.5 360.5,91.8333 360.5,92.5C 360.575,95.2062 360.908,97.8728 361.5,100.5C 363.498,110.492 366.498,120.159 370.5,129.5C 371.129,132.397 372.129,135.064 373.5,137.5C 373.604,139.703 374.27,141.703 375.5,143.5C 375.935,146.157 376.935,148.491 378.5,150.5C 379.11,151.391 379.443,152.391 379.5,153.5C 379.816,178.581 374.15,202.248 362.5,224.5C 361.189,221.865 359.522,219.531 357.5,217.5C 356.258,213.345 354.258,209.678 351.5,206.5C 351.5,206.167 351.5,205.833 351.5,205.5C 352.75,205.423 353.583,204.756 354,203.5C 370.036,155.481 360.202,113.647 324.5,78C 318.945,73.4453 313.112,69.2786 307,65.5C 306.506,63.8659 306.34,62.1992 306.5,60.5C 306.63,57.7022 307.964,55.7022 310.5,54.5C 317.172,54.8533 323.505,56.1866 329.5,58.5 Z"/></g>
<g><path style="opacity:1" fill="#013f2c" d="M 305.5,85.5 C 307.798,91.7572 309.798,98.0906 311.5,104.5C 311.5,105.5 311.5,106.5 311.5,107.5C 308.027,112.78 305.36,118.447 303.5,124.5C 302.207,125.842 301.374,127.509 301,129.5C 299.438,135.906 298.271,142.24 297.5,148.5C 285.538,135.211 271.538,124.544 255.5,116.5C 254.047,115.151 253.047,113.485 252.5,111.5C 251.715,105.454 250.715,99.4543 249.5,93.5C 249.5,91.8333 249.5,90.1667 249.5,88.5C 249.208,79.0848 249.875,69.7515 251.5,60.5C 259.868,58.7374 267.868,59.9041 275.5,64C 286.494,69.8344 296.494,77.001 305.5,85.5 Z"/></g>
<g><path style="opacity:1" fill="#107e60" d="M 329.5,58.5 C 343.437,61.4695 356.77,66.1362 369.5,72.5C 366.658,73.2544 363.991,74.5877 361.5,76.5C 360.614,77.325 360.281,78.325 360.5,79.5C 359.517,83.2984 359.183,87.2984 359.5,91.5C 358.923,92.7733 358.257,92.7733 357.5,91.5C 349.601,79.7646 340.101,69.4312 329,60.5C 328.308,59.5632 328.475,58.8966 329.5,58.5 Z"/></g>
<g><path style="opacity:1" fill="#2b977f" d="M 306.5,60.5 C 306.34,62.1992 306.506,63.8659 307,65.5C 313.112,69.2786 318.945,73.4453 324.5,78C 360.202,113.647 370.036,155.481 354,203.5C 353.583,204.756 352.75,205.423 351.5,205.5C 349.246,201.993 347.246,198.327 345.5,194.5C 356.928,157.201 350.095,123.535 325,93.5C 318.917,87.5764 312.417,82.2431 305.5,77.5C 304.837,75.3587 304.503,73.0254 304.5,70.5C 304.315,66.8589 304.981,63.5256 306.5,60.5 Z"/></g>
<g><path style="opacity:1" fill="#46a390" d="M 251.5,60.5 C 249.875,69.7515 249.208,79.0848 249.5,88.5C 248.532,86.3926 248.198,84.0593 248.5,81.5C 231.031,81.9409 214.864,87.6075 200,98.5C 199.503,96.1902 199.337,93.8568 199.5,91.5C 199.238,90.0222 199.571,88.6888 200.5,87.5C 215.938,75.6134 232.938,66.6134 251.5,60.5 Z"/></g>
<g><path style="opacity:1" fill="#dfbe69" d="M 369.5,72.5 C 375.358,72.1778 381.025,72.5111 386.5,73.5C 381.821,73.3342 377.155,73.5008 372.5,74C 399.195,83.5395 409.695,102.373 404,130.5C 400.319,141.847 393.319,150.514 383,156.5C 382.536,157.094 382.369,157.761 382.5,158.5C 381.263,157.035 380.263,155.368 379.5,153.5C 379.443,152.391 379.11,151.391 378.5,150.5C 395.651,140.178 401.818,125.178 397,105.5C 390.174,88.4105 378.007,79.7438 360.5,79.5C 360.281,78.325 360.614,77.325 361.5,76.5C 363.991,74.5877 366.658,73.2544 369.5,72.5 Z"/></g>
<g><path style="opacity:1" fill="#cfa846" d="M 400.5,76.5 C 402.786,76.595 404.786,77.2616 406.5,78.5C 406.062,78.4346 405.728,78.6012 405.5,79C 423.69,102.306 424.856,126.472 409,151.5C 403.531,159.141 396.698,165.141 388.5,169.5C 386.75,168.341 385.75,166.674 385.5,164.5C 402.316,156.617 412.149,143.284 415,124.5C 416.868,105.766 411.035,89.9331 397.5,77C 398.448,76.5172 399.448,76.3505 400.5,76.5 Z"/></g>
<g><path style="opacity:1" fill="#d8b456" d="M 386.5,73.5 C 391.546,73.2651 396.213,74.2651 400.5,76.5C 399.448,76.3505 398.448,76.5172 397.5,77C 411.035,89.9331 416.868,105.766 415,124.5C 412.149,143.284 402.316,156.617 385.5,164.5C 383.992,162.819 382.992,160.819 382.5,158.5C 382.369,157.761 382.536,157.094 383,156.5C 393.319,150.514 400.319,141.847 404,130.5C 409.695,102.373 399.195,83.5395 372.5,74C 377.155,73.5008 381.821,73.3342 386.5,73.5 Z"/></g>
<g><path style="opacity:1" fill="#e5c982" d="M 360.5,79.5 C 378.007,79.7438 390.174,88.4105 397,105.5C 401.818,125.178 395.651,140.178 378.5,150.5C 376.935,148.491 375.935,146.157 375.5,143.5C 386.376,136.738 391.709,127.071 391.5,114.5C 387.802,97.2555 377.802,88.0889 361.5,87C 360.565,84.6194 360.232,82.1194 360.5,79.5 Z"/></g>
<g><path style="opacity:1" fill="#c89b31" d="M 406.5,78.5 C 416.129,81.4878 424.463,86.4878 431.5,93.5C 430.761,93.369 430.094,93.5357 429.5,94C 439.47,131.609 428.137,160.776 395.5,181.5C 393.265,178.709 391.265,175.709 389.5,172.5C 388.89,171.609 388.557,170.609 388.5,169.5C 396.698,165.141 403.531,159.141 409,151.5C 424.856,126.472 423.69,102.306 405.5,79C 405.728,78.6012 406.062,78.4346 406.5,78.5 Z"/></g>
<g><path style="opacity:1" fill="#60ac9a" d="M 249.5,88.5 C 249.5,90.1667 249.5,91.8333 249.5,93.5C 230.198,93.8064 213.531,100.806 199.5,114.5C 198.167,106.833 198.167,99.1667 199.5,91.5C 199.337,93.8568 199.503,96.1902 200,98.5C 214.864,87.6075 231.031,81.9409 248.5,81.5C 248.198,84.0593 248.532,86.3926 249.5,88.5 Z"/></g>
<g><path style="opacity:1" fill="#3aa18d" d="M 305.5,77.5 C 312.417,82.2431 318.917,87.5764 325,93.5C 350.095,123.535 356.928,157.201 345.5,194.5C 345.068,193.29 344.401,192.29 343.5,191.5C 343.34,189.847 342.674,188.514 341.5,187.5C 339.777,182.387 337.777,177.387 335.5,172.5C 338.213,145.472 330.38,121.805 312,101.5C 311.517,102.448 311.351,103.448 311.5,104.5C 309.798,98.0906 307.798,91.7572 305.5,85.5C 305.986,83.0483 305.986,80.3817 305.5,77.5 Z"/></g>
<g><path style="opacity:1" fill="#e5d092" d="M 360.5,79.5 C 360.232,82.1194 360.565,84.6194 361.5,87C 377.802,88.0889 387.802,97.2555 391.5,114.5C 391.709,127.071 386.376,136.738 375.5,143.5C 374.27,141.703 373.604,139.703 373.5,137.5C 383.187,131.66 387.02,122.994 385,111.5C 382.482,103.195 377.649,97.5285 370.5,94.5C 369.914,94.7093 369.414,95.0426 369,95.5C 366.29,93.3213 363.456,92.3213 360.5,92.5C 360.5,91.8333 360.167,91.5 359.5,91.5C 359.183,87.2984 359.517,83.2984 360.5,79.5 Z"/></g>
<g><path style="opacity:1" fill="#ecd9a7" d="M 360.5,92.5 C 363.456,92.3213 366.29,93.3213 369,95.5C 369.414,95.0426 369.914,94.7093 370.5,94.5C 377.649,97.5285 382.482,103.195 385,111.5C 387.02,122.994 383.187,131.66 373.5,137.5C 372.129,135.064 371.129,132.397 370.5,129.5C 372.74,128.432 374.574,126.766 376,124.5C 379.158,116.544 377.325,109.378 370.5,103C 367.568,101.855 364.568,101.022 361.5,100.5C 360.908,97.8728 360.575,95.2062 360.5,92.5 Z"/></g>
<g><path style="opacity:1" fill="#bc8b1f" d="M 431.5,93.5 C 433.167,94.5 434.5,95.8333 435.5,97.5C 443.23,135.685 430.563,164.685 397.5,184.5C 396.599,183.71 395.932,182.71 395.5,181.5C 428.137,160.776 439.47,131.609 429.5,94C 430.094,93.5357 430.761,93.369 431.5,93.5 Z"/></g>
<g><path style="opacity:1" fill="#51a794" d="M 335.5,172.5 C 334.655,171.329 333.989,169.995 333.5,168.5C 325.38,148.475 318.046,128.141 311.5,107.5C 311.5,106.5 311.5,105.5 311.5,104.5C 311.351,103.448 311.517,102.448 312,101.5C 330.38,121.805 338.213,145.472 335.5,172.5 Z"/></g>
<g><path style="opacity:1" fill="#73b2a5" d="M 249.5,93.5 C 250.715,99.4543 251.715,105.454 252.5,111.5C 232.501,111.581 217.001,119.915 206,136.5C 205.51,137.793 205.343,139.127 205.5,140.5C 204.632,137.551 203.632,134.551 202.5,131.5C 201.021,125.918 200.021,120.252 199.5,114.5C 213.531,100.806 230.198,93.8064 249.5,93.5 Z"/></g>
<g><path style="opacity:1" fill="#af8224" d="M 435.5,97.5 C 441.641,103.109 446.308,109.775 449.5,117.5C 446.951,150.601 431.618,175.935 403.5,193.5C 401.265,190.709 399.265,187.709 397.5,184.5C 430.563,164.685 443.23,135.685 435.5,97.5 Z"/></g>
<g><path style="opacity:1" fill="#ece5c6" d="M 361.5,100.5 C 364.568,101.022 367.568,101.855 370.5,103C 377.325,109.378 379.158,116.544 376,124.5C 374.574,126.766 372.74,128.432 370.5,129.5C 366.498,120.159 363.498,110.492 361.5,100.5 Z"/></g>
<g><path style="opacity:1" fill="#87bcb0" d="M 252.5,111.5 C 253.047,113.485 254.047,115.151 255.5,116.5C 254.897,118.626 254.897,120.959 255.5,123.5C 255.631,124.239 255.464,124.906 255,125.5C 231.173,123.427 216.673,134.427 211.5,158.5C 208.928,152.785 206.928,146.785 205.5,140.5C 205.343,139.127 205.51,137.793 206,136.5C 217.001,119.915 232.501,111.581 252.5,111.5 Z"/></g>
<g><path style="opacity:1" fill="#a3761f" d="M 449.5,117.5 C 451.733,120.39 453.066,123.723 453.5,127.5C 448.307,157.893 432.64,181.226 406.5,197.5C 405.167,196.833 404.167,195.833 403.5,194.5C 403.5,194.167 403.5,193.833 403.5,193.5C 431.618,175.935 446.951,150.601 449.5,117.5 Z"/></g>
<g><path style="opacity:1" fill="#02402d" d="M 202.5,131.5 C 203.632,134.551 204.632,137.551 205.5,140.5C 206.928,146.785 208.928,152.785 211.5,158.5C 214.368,169.211 218.034,179.544 222.5,189.5C 223.596,194.132 225.263,198.466 227.5,202.5C 229.833,208.5 232.167,214.5 234.5,220.5C 236.262,224.362 238.262,228.028 240.5,231.5C 240.833,232.833 241.167,234.167 241.5,235.5C 226.675,220.175 211.675,205.008 196.5,190C 188.866,183.349 180.199,178.515 170.5,175.5C 168.526,170.737 167.026,165.737 166,160.5C 164.024,149.924 163.19,139.257 163.5,128.5C 165.786,122.554 170.119,119.887 176.5,120.5C 180.693,120.398 184.693,121.231 188.5,123C 193.361,125.593 198.028,128.427 202.5,131.5 Z"/></g>
<g><path style="opacity:1" fill="#d0ab4c" d="M 311.5,107.5 C 318.046,128.141 325.38,148.475 333.5,168.5C 316.072,159.001 306.072,144.334 303.5,124.5C 305.36,118.447 308.027,112.78 311.5,107.5 Z"/></g>
<g><path style="opacity:1" fill="#98c5b9" d="M 255.5,123.5 C 256.612,125.599 257.279,127.933 257.5,130.5C 257.53,131.497 257.03,132.164 256,132.5C 236.555,129.621 224.222,137.621 219,156.5C 217.556,175.948 226.223,188.281 245,193.5C 252.521,194.011 259.688,192.177 266.5,188C 270.069,185.25 273.403,182.416 276.5,179.5C 277.736,181.649 278.736,183.982 279.5,186.5C 274.395,190.228 269.061,193.728 263.5,197C 254.152,200.291 244.819,200.291 235.5,197C 230.785,194.982 226.451,192.482 222.5,189.5C 218.034,179.544 214.368,169.211 211.5,158.5C 216.673,134.427 231.173,123.427 255,125.5C 255.464,124.906 255.631,124.239 255.5,123.5 Z"/></g>
<g><path style="opacity:1" fill="#996e1f" d="M 453.5,127.5 C 455.577,130.801 456.577,134.468 456.5,138.5C 450.803,167.191 435.137,188.525 409.5,202.5C 408.248,200.999 407.248,199.332 406.5,197.5C 432.64,181.226 448.307,157.893 453.5,127.5 Z"/></g>
<g><path style="opacity:1" fill="#a7ccc3" d="M 257.5,130.5 C 259.405,134.216 260.739,138.216 261.5,142.5C 261.631,143.376 261.298,144.043 260.5,144.5C 246.364,137.618 235.864,141.618 229,156.5C 227.649,174.137 235.649,183.137 253,183.5C 257.46,181.937 261.46,179.604 265,176.5C 267.412,173.01 269.245,169.343 270.5,165.5C 272.694,170.08 274.694,174.746 276.5,179.5C 273.403,182.416 270.069,185.25 266.5,188C 259.688,192.177 252.521,194.011 245,193.5C 226.223,188.281 217.556,175.948 219,156.5C 224.222,137.621 236.555,129.621 256,132.5C 257.03,132.164 257.53,131.497 257.5,130.5 Z"/></g>
<g><path style="opacity:1" fill="#c79b31" d="M 303.5,124.5 C 306.072,144.334 316.072,159.001 333.5,168.5C 333.989,169.995 334.655,171.329 335.5,172.5C 337.777,177.387 339.777,182.387 341.5,187.5C 322.993,181.483 308.826,170.149 299,153.5C 298.505,155.473 298.338,157.473 298.5,159.5C 297.518,156.038 297.185,152.371 297.5,148.5C 298.271,142.24 299.438,135.906 301,129.5C 301.374,127.509 302.207,125.842 303.5,124.5 Z"/></g>
<g><path style="opacity:1" fill="#40a28f" d="M 163.5,128.5 C 163.19,139.257 164.024,149.924 166,160.5C 167.026,165.737 168.526,170.737 170.5,175.5C 171.944,183.337 174.111,191.004 177,198.5C 184.22,215.941 191.72,233.274 199.5,250.5C 169.097,232.545 151.597,205.878 147,170.5C 146.768,171.737 146.268,172.737 145.5,173.5C 148.995,157.509 154.995,142.509 163.5,128.5 Z"/></g>
<g><path style="opacity:1" fill="#bad6d0" d="M 261.5,142.5 C 264.675,150.012 267.675,157.679 270.5,165.5C 269.245,169.343 267.412,173.01 265,176.5C 261.46,179.604 257.46,181.937 253,183.5C 235.649,183.137 227.649,174.137 229,156.5C 235.864,141.618 246.364,137.618 260.5,144.5C 261.298,144.043 261.631,143.376 261.5,142.5 Z"/></g>
<g><path style="opacity:1" fill="#87621e" d="M 456.5,138.5 C 457.658,147.657 457.824,156.991 457,166.5C 456.386,170.475 455.219,174.141 453.5,177.5C 444.053,191.253 431.72,202.586 416.5,211.5C 413.815,208.81 411.482,205.81 409.5,202.5C 435.137,188.525 450.803,167.191 456.5,138.5 Z"/></g>
<g><path style="opacity:1" fill="#cadfda" d="M 246.5,148.5 C 260.09,149.381 264.59,156.715 260,170.5C 254.745,175.732 248.911,176.899 242.5,174C 234.73,167.195 234.064,159.862 240.5,152C 242.64,150.199 244.64,149.032 246.5,148.5 Z"/></g>
<g><path style="opacity:1" fill="#bc8a1f" d="M 341.5,187.5 C 342.674,188.514 343.34,189.847 343.5,191.5C 325.077,187.065 310.077,177.399 298.5,162.5C 298.5,161.5 298.5,160.5 298.5,159.5C 298.338,157.473 298.505,155.473 299,153.5C 308.826,170.149 322.993,181.483 341.5,187.5 Z"/></g>
<g><path style="opacity:1" fill="#0d7e60" d="M 379.5,153.5 C 380.263,155.368 381.263,157.035 382.5,158.5C 382.992,160.819 383.992,162.819 385.5,164.5C 385.75,166.674 386.75,168.341 388.5,169.5C 388.557,170.609 388.89,171.609 389.5,172.5C 387.467,185.637 384.3,198.637 380,211.5C 376.917,219.336 373.084,226.67 368.5,233.5C 368.5,232.833 368.167,232.5 367.5,232.5C 365.86,229.851 364.193,227.184 362.5,224.5C 374.15,202.248 379.816,178.581 379.5,153.5 Z"/></g>
<g><path style="opacity:1" fill="#aa7d22" d="M 298.5,162.5 C 310.077,177.399 325.077,187.065 343.5,191.5C 344.401,192.29 345.068,193.29 345.5,194.5C 347.246,198.327 349.246,201.993 351.5,205.5C 351.5,205.833 351.5,206.167 351.5,206.5C 351.209,207.649 350.376,208.316 349,208.5C 336.017,206.829 323.517,202.162 311.5,194.5C 310.893,194.624 310.56,194.957 310.5,195.5C 303.757,185.614 299.757,174.614 298.5,162.5 Z"/></g>
<g><path style="opacity:1" fill="#77581c" d="M 453.5,177.5 C 448.525,195.449 438.191,209.449 422.5,219.5C 420.727,216.94 418.727,214.607 416.5,212.5C 416.5,212.167 416.5,211.833 416.5,211.5C 431.72,202.586 444.053,191.253 453.5,177.5 Z"/></g>
<g><path style="opacity:1" fill="#2c9880" d="M 199.5,250.5 C 202.751,256.001 205.751,261.667 208.5,267.5C 176.21,254.378 154.377,231.378 143,198.5C 142.79,200.058 142.29,201.391 141.5,202.5C 141.207,192.594 142.54,182.927 145.5,173.5C 146.268,172.737 146.768,171.737 147,170.5C 151.597,205.878 169.097,232.545 199.5,250.5 Z"/></g>
<g><path style="opacity:1" fill="#89bdb1" d="M 279.5,186.5 C 280.814,189.128 282.147,191.795 283.5,194.5C 282.85,194.196 282.183,193.863 281.5,193.5C 277.543,196.673 274.043,199.673 271,202.5C 270.667,202.167 270.333,201.833 270,201.5C 268.333,202.5 266.667,203.5 265,204.5C 264.667,204.167 264.333,203.833 264,203.5C 263.131,206.763 261.797,207.096 260,204.5C 259.581,205.672 258.915,206.672 258,207.5C 253.59,206.675 248.923,206.675 244,207.5C 243.333,204.833 242.667,204.833 242,207.5C 240.863,206.636 239.53,205.636 238,204.5C 237.374,206.991 236.541,206.991 235.5,204.5C 234.914,204.709 234.414,205.043 234,205.5C 232.124,202.961 229.958,201.961 227.5,202.5C 225.263,198.466 223.596,194.132 222.5,189.5C 226.451,192.482 230.785,194.982 235.5,197C 244.819,200.291 254.152,200.291 263.5,197C 269.061,193.728 274.395,190.228 279.5,186.5 Z"/></g>
<g><path style="opacity:1" fill="#0a7254" d="M 389.5,172.5 C 391.265,175.709 393.265,178.709 395.5,181.5C 395.932,182.71 396.599,183.71 397.5,184.5C 399.265,187.709 401.265,190.709 403.5,193.5C 403.5,193.833 403.5,194.167 403.5,194.5C 400.171,204.308 396.671,214.308 393,224.5C 388.305,232.556 384.138,240.89 380.5,249.5C 376.147,244.473 372.147,239.14 368.5,233.5C 373.084,226.67 376.917,219.336 380,211.5C 384.3,198.637 387.467,185.637 389.5,172.5 Z"/></g>
<g><path style="opacity:1" fill="#996f20" d="M 351.5,206.5 C 354.258,209.678 356.258,213.345 357.5,217.5C 355.215,216.069 352.715,215.069 350,214.5C 339.533,213.757 329.033,211.091 318.5,206.5C 315.112,203.403 312.445,199.736 310.5,195.5C 310.56,194.957 310.893,194.624 311.5,194.5C 323.517,202.162 336.017,206.829 349,208.5C 350.376,208.316 351.209,207.649 351.5,206.5 Z"/></g>
<g><path style="opacity:1" fill="#79b6a9" d="M 283.5,194.5 C 285.722,198.277 287.389,202.277 288.5,206.5C 272.717,219.28 254.717,223.947 234.5,220.5C 232.167,214.5 229.833,208.5 227.5,202.5C 229.958,201.961 232.124,202.961 234,205.5C 234.414,205.043 234.914,204.709 235.5,204.5C 236.541,206.991 237.374,206.991 238,204.5C 239.53,205.636 240.863,206.636 242,207.5C 242.667,204.833 243.333,204.833 244,207.5C 248.923,206.675 253.59,206.675 258,207.5C 258.915,206.672 259.581,205.672 260,204.5C 261.797,207.096 263.131,206.763 264,203.5C 264.333,203.833 264.667,204.167 265,204.5C 266.667,203.5 268.333,202.5 270,201.5C 270.333,201.833 270.667,202.167 271,202.5C 274.043,199.673 277.543,196.673 281.5,193.5C 282.183,193.863 282.85,194.196 283.5,194.5 Z"/></g>
<g><path style="opacity:1" fill="#08654c" d="M 403.5,194.5 C 404.167,195.833 405.167,196.833 406.5,197.5C 407.248,199.332 408.248,200.999 409.5,202.5C 411.482,205.81 413.815,208.81 416.5,211.5C 416.5,211.833 416.5,212.167 416.5,212.5C 411.945,231.186 403.945,248.186 392.5,263.5C 388.155,259.153 384.155,254.486 380.5,249.5C 384.138,240.89 388.305,232.556 393,224.5C 396.671,214.308 400.171,204.308 403.5,194.5 Z"/></g>
<g><path style="opacity:1" fill="#69aea1" d="M 288.5,206.5 C 290.674,209.515 292.341,212.849 293.5,216.5C 290.685,217.126 288.185,218.46 286,220.5C 285.667,220.167 285.333,219.833 285,219.5C 283.558,222.468 281.391,223.635 278.5,223C 278.833,223.333 279.167,223.667 279.5,224C 278.24,225.113 277.073,225.28 276,224.5C 275.333,227.167 274.667,227.167 274,224.5C 272.893,227.492 271.226,228.159 269,226.5C 267.783,227.386 266.449,228.386 265,229.5C 264.333,226.833 263.667,226.833 263,229.5C 262.667,229.167 262.333,228.833 262,228.5C 261.311,229.357 260.478,230.023 259.5,230.5C 254.336,229.832 248.836,229.498 243,229.5C 242.292,230.381 241.458,231.047 240.5,231.5C 238.262,228.028 236.262,224.362 234.5,220.5C 254.717,223.947 272.717,219.28 288.5,206.5 Z"/></g>
<g><path style="opacity:1" fill="#886422" d="M 318.5,206.5 C 329.033,211.091 339.533,213.757 350,214.5C 352.715,215.069 355.215,216.069 357.5,217.5C 359.522,219.531 361.189,221.865 362.5,224.5C 364.193,227.184 365.86,229.851 367.5,232.5C 347.863,229.851 331.53,221.184 318.5,206.5 Z"/></g>
<g><path style="opacity:1" fill="#1c8a70" d="M 208.5,267.5 C 212.496,274.826 216.496,282.159 220.5,289.5C 195.395,282.867 173.895,270.201 156,251.5C 155.601,251.728 155.435,252.062 155.5,252.5C 150.338,240.522 145.838,228.189 142,215.5C 141.501,211.179 141.334,206.846 141.5,202.5C 142.29,201.391 142.79,200.058 143,198.5C 154.377,231.378 176.21,254.378 208.5,267.5 Z"/></g>
<g><path style="opacity:1" fill="#5daa99" d="M 293.5,216.5 C 295.674,219.515 297.341,222.849 298.5,226.5C 289.236,232.552 279.736,237.219 270,240.5C 269,240.167 268,239.833 267,239.5C 266.667,240.167 266.333,240.833 266,241.5C 264.043,240.146 262.043,240.479 260,242.5C 257.452,242.534 254.785,242.201 252,241.5C 249.674,241.88 247.841,242.88 246.5,244.5C 244.583,241.669 242.917,238.669 241.5,235.5C 241.167,234.167 240.833,232.833 240.5,231.5C 241.458,231.047 242.292,230.381 243,229.5C 248.836,229.498 254.336,229.832 259.5,230.5C 260.478,230.023 261.311,229.357 262,228.5C 262.333,228.833 262.667,229.167 263,229.5C 263.667,226.833 264.333,226.833 265,229.5C 266.449,228.386 267.783,227.386 269,226.5C 271.226,228.159 272.893,227.492 274,224.5C 274.667,227.167 275.333,227.167 276,224.5C 277.073,225.28 278.24,225.113 279.5,224C 279.167,223.667 278.833,223.333 278.5,223C 281.391,223.635 283.558,222.468 285,219.5C 285.333,219.833 285.667,220.167 286,220.5C 288.185,218.46 290.685,217.126 293.5,216.5 Z"/></g>
<g><path style="opacity:1" fill="#095941" d="M 416.5,212.5 C 418.727,214.607 420.727,216.94 422.5,219.5C 425.167,222.833 427.833,226.167 430.5,229.5C 429.624,229.369 428.957,229.702 428.5,230.5C 421.686,246.594 413.686,261.928 404.5,276.5C 399.792,272.793 395.792,268.46 392.5,263.5C 403.945,248.186 411.945,231.186 416.5,212.5 Z"/></g>
<g><path style="opacity:1" fill="#054e3a" d="M 430.5,229.5 C 433.003,231.833 435.669,233.999 438.5,236C 442.537,236.607 446.537,236.44 450.5,235.5C 447.248,254.086 440.915,271.586 431.5,288C 420.373,289.102 411.373,285.268 404.5,276.5C 413.686,261.928 421.686,246.594 428.5,230.5C 428.957,229.702 429.624,229.369 430.5,229.5 Z"/></g>
<g><path style="opacity:1" fill="#3ca28e" d="M 298.5,226.5 C 302.671,232.838 306.337,239.504 309.5,246.5C 308.883,246.389 308.383,246.056 308,245.5C 292.551,255.703 275.718,262.036 257.5,264.5C 253.329,258.162 249.663,251.496 246.5,244.5C 247.841,242.88 249.674,241.88 252,241.5C 254.785,242.201 257.452,242.534 260,242.5C 262.043,240.479 264.043,240.146 266,241.5C 266.333,240.833 266.667,240.167 267,239.5C 268,239.833 269,240.167 270,240.5C 279.736,237.219 289.236,232.552 298.5,226.5 Z"/></g>
<g><path style="opacity:1" fill="#2a977f" d="M 309.5,246.5 C 311.664,248.822 313.331,251.489 314.5,254.5C 298.852,264.714 281.852,271.381 263.5,274.5C 261,271.506 259,268.173 257.5,264.5C 275.718,262.036 292.551,255.703 308,245.5C 308.383,246.056 308.883,246.389 309.5,246.5 Z"/></g>
<g><path style="opacity:1" fill="#0d8062" d="M 220.5,289.5 C 223.335,293.164 225.668,297.164 227.5,301.5C 206.152,296.824 186.485,288.324 168.5,276C 167.563,275.308 166.897,275.475 166.5,276.5C 161.77,269.036 158.103,261.036 155.5,252.5C 155.435,252.062 155.601,251.728 156,251.5C 173.895,270.201 195.395,282.867 220.5,289.5 Z"/></g>
<g><path style="opacity:1" fill="#1c8a70" d="M 314.5,254.5 C 318.575,258.976 321.908,263.976 324.5,269.5C 323.883,269.389 323.383,269.056 323,268.5C 308.769,278.808 292.936,285.641 275.5,289C 274.748,289.671 274.414,290.504 274.5,291.5C 270.089,286.352 266.422,280.686 263.5,274.5C 281.852,271.381 298.852,264.714 314.5,254.5 Z"/></g>
<g><path style="opacity:1" fill="#09795b" d="M 324.5,269.5 C 327.975,273.104 330.975,277.104 333.5,281.5C 326.238,288.144 317.905,293.311 308.5,297C 300.696,299.764 293.03,302.598 285.5,305.5C 281.101,301.432 277.435,296.765 274.5,291.5C 274.414,290.504 274.748,289.671 275.5,289C 292.936,285.641 308.769,278.808 323,268.5C 323.383,269.056 323.883,269.389 324.5,269.5 Z"/></g>
<g><path style="opacity:1" fill="#086c51" d="M 333.5,281.5 C 337.47,286.476 341.47,291.476 345.5,296.5C 342.984,296.755 340.65,297.589 338.5,299C 325.277,307.461 311.277,314.294 296.5,319.5C 292.078,315.413 288.411,310.746 285.5,305.5C 293.03,302.598 300.696,299.764 308.5,297C 317.905,293.311 326.238,288.144 333.5,281.5 Z"/></g>
<g><path style="opacity:1" fill="#087255" d="M 227.5,301.5 C 231.068,306.291 234.402,311.291 237.5,316.5C 237.631,317.239 237.464,317.906 237,318.5C 219.269,316.791 201.769,312.125 184.5,304.5C 183.893,304.624 183.56,304.957 183.5,305.5C 176.576,296.663 170.909,286.997 166.5,276.5C 166.897,275.475 167.563,275.308 168.5,276C 186.485,288.324 206.152,296.824 227.5,301.5 Z"/></g>
<g><path style="opacity:1" fill="#08634a" d="M 345.5,296.5 C 348.833,300.833 352.167,305.167 355.5,309.5C 340.484,319.212 324.818,327.546 308.5,334.5C 303.747,330.083 299.747,325.083 296.5,319.5C 311.277,314.294 325.277,307.461 338.5,299C 340.65,297.589 342.984,296.755 345.5,296.5 Z"/></g>
<g><path style="opacity:1" fill="#0a674d" d="M 237.5,316.5 C 243.497,324.491 249.497,332.491 255.5,340.5C 254.373,339.878 253.373,339.045 252.5,338C 237.297,337.747 222.297,335.913 207.5,332.5C 206.584,332.543 205.917,332.876 205.5,333.5C 197.03,325.033 189.696,315.7 183.5,305.5C 183.56,304.957 183.893,304.624 184.5,304.5C 201.769,312.125 219.269,316.791 237,318.5C 237.464,317.906 237.631,317.239 237.5,316.5 Z"/></g>
<g><path style="opacity:1" fill="#07533d" d="M 355.5,309.5 C 360.5,315.167 365.833,320.5 371.5,325.5C 358.345,335.587 344.011,343.921 328.5,350.5C 327.702,350.957 327.369,351.624 327.5,352.5C 320.536,347.203 314.202,341.203 308.5,334.5C 324.818,327.546 340.484,319.212 355.5,309.5 Z"/></g>
<g><path style="opacity:1" fill="#034c38" d="M 371.5,325.5 C 377.32,328.911 383.32,332.078 389.5,335C 374.612,346.61 357.945,354.777 339.5,359.5C 334.817,358.165 330.817,355.831 327.5,352.5C 327.369,351.624 327.702,350.957 328.5,350.5C 344.011,343.921 358.345,335.587 371.5,325.5 Z"/></g>
<g><path style="opacity:1" fill="#0e5a43" d="M 255.5,340.5 C 264.073,349.576 273.407,357.742 283.5,365C 258.386,362.885 235.053,355.219 213.5,342C 210.629,339.297 207.962,336.464 205.5,333.5C 205.917,332.876 206.584,332.543 207.5,332.5C 222.297,335.913 237.297,337.747 252.5,338C 253.373,339.045 254.373,339.878 255.5,340.5 Z"/></g>
<g><path style="opacity:1" fill="#0d0d0d" d="M 90.5,414.5 C 106.56,412.276 118.06,418.276 125,432.5C 126.874,457.956 115.041,469.122 89.5,466C 72.177,458.027 67.0103,445.193 74,427.5C 78.4894,421.839 83.9894,417.506 90.5,414.5 Z"/></g>
<g><path style="opacity:1" fill="#4a4a4a" d="M 147.5,417.5 C 143.167,416.167 138.833,416.167 134.5,417.5C 133.957,417.44 133.624,417.107 133.5,416.5C 138.5,415.167 143.5,415.167 148.5,416.5C 148.376,417.107 148.043,417.44 147.5,417.5 Z"/></g>
<g><path style="opacity:1" fill="#424242" d="M 170.5,416.5 C 166.298,416.183 162.298,416.517 158.5,417.5C 157.957,417.44 157.624,417.107 157.5,416.5C 161.984,415.189 166.317,415.189 170.5,416.5 Z"/></g>
<g><path style="opacity:1" fill="#4b4b4b" d="M 194.5,417.5 C 190.167,416.167 185.833,416.167 181.5,417.5C 180.957,417.44 180.624,417.107 180.5,416.5C 185.5,415.167 190.5,415.167 195.5,416.5C 195.376,417.107 195.043,417.44 194.5,417.5 Z"/></g>
<g><path style="opacity:1" fill="#0b0c0c" d="M 223.5,414.5 C 238.762,412.508 249.929,418.175 257,431.5C 260.416,448.169 254.249,459.669 238.5,466C 213.526,468.693 202.026,457.526 204,432.5C 208.163,423.832 214.663,417.832 223.5,414.5 Z"/></g>
<g><path style="opacity:1" fill="#474747" d="M 292.5,417.5 C 288.066,416.206 283.733,416.206 279.5,417.5C 278.957,417.44 278.624,417.107 278.5,416.5C 280.833,416.167 283.167,415.833 285.5,415.5C 288.269,415.529 290.603,416.195 292.5,417.5 Z"/></g>
<g><path style="opacity:1" fill="#4a4a4a" d="M 332.5,417.5 C 328.267,416.206 323.934,416.206 319.5,417.5C 321.397,416.195 323.731,415.529 326.5,415.5C 328.833,415.833 331.167,416.167 333.5,416.5C 333.376,417.107 333.043,417.44 332.5,417.5 Z"/></g>
<g><path style="opacity:1" fill="#494a4a" d="M 373.5,416.5 C 369.629,416.185 365.962,416.518 362.5,417.5C 361.624,417.631 360.957,417.298 360.5,416.5C 364.984,415.189 369.317,415.189 373.5,416.5 Z"/></g>
<g><path style="opacity:1" fill="#4c4c4c" d="M 422.5,416.5 C 415.313,416.175 408.313,416.509 401.5,417.5C 400.624,417.631 399.957,417.298 399.5,416.5C 407.323,415.18 414.99,415.18 422.5,416.5 Z"/></g>
<g><path style="opacity:1" fill="#484848" d="M 462.5,416.5 C 457.968,416.182 453.634,416.515 449.5,417.5C 448.957,417.44 448.624,417.107 448.5,416.5C 451,416.167 453.5,415.833 456,415.5C 458.952,415.435 461.119,415.768 462.5,416.5 Z"/></g>
<g><path style="opacity:1" fill="#434343" d="M 523.5,417.5 C 519.833,416.167 516.167,416.167 512.5,417.5C 511.957,417.44 511.624,417.107 511.5,416.5C 515.833,415.167 520.167,415.167 524.5,416.5C 524.376,417.107 524.043,417.44 523.5,417.5 Z"/></g>
<g><path style="opacity:1" fill="#444444" d="M 560.5,415.5 C 552.167,416.167 543.833,416.833 535.5,417.5C 534.957,417.44 534.624,417.107 534.5,416.5C 543.141,415.502 551.808,415.169 560.5,415.5 Z"/></g>
<g><path style="opacity:1" fill="#080808" d="M 62.5,422.5 C 59.7131,421.523 56.7131,421.19 53.5,421.5C 53.1712,434.677 53.5045,447.677 54.5,460.5C 55.075,462.411 56.075,464.078 57.5,465.5C 52.3054,465.821 47.3054,465.487 42.5,464.5C 43.9063,464.027 44.573,463.027 44.5,461.5C 45.4956,448.344 45.8289,435.01 45.5,421.5C 41.9581,421.187 38.6248,421.521 35.5,422.5C 33.8297,422.751 32.3297,423.418 31,424.5C 30.2751,421.623 30.7751,418.957 32.5,416.5C 44.8333,415.167 57.1667,415.167 69.5,416.5C 68.4992,419.172 67.4992,421.839 66.5,424.5C 65.3777,423.37 64.0443,422.703 62.5,422.5 Z"/></g>
<g><path style="opacity:1" fill="#0c0c0c" d="M 134.5,417.5 C 138.833,416.167 143.167,416.167 147.5,417.5C 146.094,417.973 145.427,418.973 145.5,420.5C 144.183,426.678 144.183,433.012 145.5,439.5C 146.107,439.376 146.44,439.043 146.5,438.5C 151.07,432.369 155.404,426.036 159.5,419.5C 159.137,418.817 158.804,418.15 158.5,417.5C 162.298,416.517 166.298,416.183 170.5,416.5C 165.176,423.804 159.843,431.137 154.5,438.5C 159.86,445.359 165.026,452.359 170,459.5C 172.5,461.333 175,463.167 177.5,465C 172.713,465.879 168.047,465.545 163.5,464C 157.46,456.739 151.793,449.239 146.5,441.5C 146.44,440.957 146.107,440.624 145.5,440.5C 144.183,446.988 144.183,453.322 145.5,459.5C 145.393,461.903 146.393,463.736 148.5,465C 143.5,465.667 138.5,465.667 133.5,465C 134.701,464.097 135.535,462.931 136,461.5C 136.667,447.167 136.667,432.833 136,418.5C 135.617,417.944 135.117,417.611 134.5,417.5 Z"/></g>
<g><path style="opacity:1" fill="#121212" d="M 181.5,417.5 C 185.833,416.167 190.167,416.167 194.5,417.5C 193.883,417.611 193.383,417.944 193,418.5C 192.333,433.167 192.333,447.833 193,462.5C 193.833,463.333 194.667,464.167 195.5,465C 190.5,465.667 185.5,465.667 180.5,465C 181.333,464.167 182.167,463.333 183,462.5C 183.667,447.833 183.667,433.167 183,418.5C 182.617,417.944 182.117,417.611 181.5,417.5 Z"/></g>
<g><path style="opacity:1" fill="#0c0c0c" d="M 279.5,417.5 C 283.733,416.206 288.066,416.206 292.5,417.5C 297.43,428.364 302.097,439.364 306.5,450.5C 311.118,439.599 315.452,428.599 319.5,417.5C 323.934,416.206 328.267,416.206 332.5,417.5C 331.842,418.793 331.508,420.293 331.5,422C 333.369,433.786 334.869,445.619 336,457.5C 336.24,459.852 337.073,461.852 338.5,463.5C 338.611,464.117 338.944,464.617 339.5,465C 334.648,465.815 329.981,465.648 325.5,464.5C 326.117,464.389 326.617,464.056 327,463.5C 327.024,451.074 325.857,438.741 323.5,426.5C 318.091,439.898 312.591,453.231 307,466.5C 305.667,465.167 304.333,463.833 303,462.5C 297.659,450.466 292.325,438.466 287,426.5C 285.406,435.092 284.072,443.759 283,452.5C 282.19,456.358 282.357,460.024 283.5,463.5C 283.611,464.117 283.944,464.617 284.5,465C 280.514,465.499 276.514,465.666 272.5,465.5C 273.072,463.745 273.906,462.078 275,460.5C 278.102,446.134 279.602,431.801 279.5,417.5 Z"/></g>
<g><path style="opacity:1" fill="#0e0e0e" d="M 373.5,416.5 C 378.984,430.141 384.484,443.808 390,457.5C 390.792,460.106 392.292,462.106 394.5,463.5C 394.611,464.117 394.944,464.617 395.5,465C 390.316,465.816 385.316,465.65 380.5,464.5C 381.88,464.038 382.547,463.038 382.5,461.5C 381.031,457.094 379.364,452.761 377.5,448.5C 371.167,447.167 364.833,447.167 358.5,448.5C 356.463,452.445 355.129,456.612 354.5,461C 354.759,462.787 355.425,464.287 356.5,465.5C 351.637,465.819 346.97,465.486 342.5,464.5C 345.231,462.929 347.065,460.595 348,457.5C 353.699,444.444 358.533,431.111 362.5,417.5C 365.962,416.518 369.629,416.185 373.5,416.5 Z"/></g>
<g><path style="opacity:1" fill="#0e0e0e" d="M 422.5,416.5 C 433.327,419.18 436.161,425.514 431,435.5C 428.617,438.273 425.783,440.439 422.5,442C 428.121,451.288 435.454,458.955 444.5,465C 440.167,465.667 435.833,465.667 431.5,465C 424.399,457.235 418.066,448.901 412.5,440C 417.013,438.948 420.847,436.782 424,433.5C 426.601,428.498 425.434,424.665 420.5,422C 417.518,421.502 414.518,421.335 411.5,421.5C 411.333,434.837 411.5,448.171 412,461.5C 412.662,462.984 413.496,464.317 414.5,465.5C 409.637,465.819 404.97,465.486 400.5,464.5C 400.783,463.711 401.283,463.044 402,462.5C 402.816,447.426 402.649,432.426 401.5,417.5C 408.313,416.509 415.313,416.175 422.5,416.5 Z"/></g>
<g><path style="opacity:1" fill="#121212" d="M 449.5,417.5 C 453.634,416.515 457.968,416.182 462.5,416.5C 462.217,417.289 461.717,417.956 461,418.5C 460.333,433.167 460.333,447.833 461,462.5C 461.833,463.333 462.667,464.167 463.5,465C 458.5,465.667 453.5,465.667 448.5,465C 449.333,464.167 450.167,463.333 451,462.5C 451.667,447.833 451.667,433.167 451,418.5C 450.617,417.944 450.117,417.611 449.5,417.5 Z"/></g>
<g><path style="opacity:1" fill="#070707" d="M 513.5,451.5 C 513.56,452.043 513.893,452.376 514.5,452.5C 515.823,442.007 515.823,431.674 514.5,421.5C 514.267,419.938 513.6,418.605 512.5,417.5C 516.167,416.167 519.833,416.167 523.5,417.5C 522.094,417.973 521.427,418.973 521.5,420.5C 520.833,436.167 520.167,451.833 519.5,467.5C 515.668,466.182 512.501,463.848 510,460.5C 502.388,450.25 494.555,440.25 486.5,430.5C 486.217,429.711 485.717,429.044 485,428.5C 484.175,439.341 484.341,450.008 485.5,460.5C 485.859,462.371 486.859,463.871 488.5,465C 483.833,465.667 479.167,465.667 474.5,465C 476.049,463.786 477.215,462.286 478,460.5C 478.667,447.167 478.667,433.833 478,420.5C 477.363,418.697 476.197,417.364 474.5,416.5C 478.5,415.167 482.5,415.167 486.5,416.5C 495.267,428.377 504.267,440.044 513.5,451.5 Z"/></g>
<g><path style="opacity:1" fill="#090909" d="M 560.5,415.5 C 561.765,416.514 562.431,418.014 562.5,420C 562.167,421.5 561.833,423 561.5,424.5C 560.692,424.192 560.025,423.692 559.5,423C 554.845,422.501 550.179,422.334 545.5,422.5C 545.5,426.833 545.5,431.167 545.5,435.5C 549.833,435.5 554.167,435.5 558.5,435.5C 558.813,438.247 558.48,440.914 557.5,443.5C 556.817,443.137 556.15,442.804 555.5,442.5C 552.375,441.521 549.042,441.187 545.5,441.5C 545.178,447.358 545.511,453.025 546.5,458.5C 554.104,460.426 561.438,459.426 568.5,455.5C 568.833,455.667 569.167,455.833 569.5,456C 568.299,459.32 566.966,462.486 565.5,465.5C 554.986,465.828 544.653,465.494 534.5,464.5C 535.79,463.942 536.623,462.942 537,461.5C 537.667,447.5 537.667,433.5 537,419.5C 536.722,418.584 536.222,417.918 535.5,417.5C 543.833,416.833 552.167,416.167 560.5,415.5 Z"/></g>
<g><path style="opacity:1" fill="#f5f5f5" d="M 93.5,420.5 C 110.439,420.941 117.939,429.608 116,446.5C 111.716,459.058 103.216,463.225 90.5,459C 81.8233,452.314 78.6566,443.48 81,432.5C 83.769,426.895 87.9356,422.895 93.5,420.5 Z"/></g>
<g><path style="opacity:1" fill="#f5f5f5" d="M 225.5,420.5 C 236.267,419.297 243.767,423.63 248,433.5C 251.049,455.13 242.216,463.296 221.5,458C 211.915,449.229 210.082,439.062 216,427.5C 218.79,424.535 221.957,422.202 225.5,420.5 Z"/></g>
<g><path style="opacity:1" fill="#adadad" d="M 35.5,422.5 C 38.6248,421.521 41.9581,421.187 45.5,421.5C 45.8289,435.01 45.4956,448.344 44.5,461.5C 44.5,448.5 44.5,435.5 44.5,422.5C 41.5,422.5 38.5,422.5 35.5,422.5 Z"/></g>
<g><path style="opacity:1" fill="#9d9e9e" d="M 62.5,422.5 C 59.8333,422.5 57.1667,422.5 54.5,422.5C 54.5,435.167 54.5,447.833 54.5,460.5C 53.5045,447.677 53.1712,434.677 53.5,421.5C 56.7131,421.19 59.7131,421.523 62.5,422.5 Z"/></g>
<g><path style="opacity:1" fill="#525252" d="M 145.5,420.5 C 145.177,426.69 145.51,432.69 146.5,438.5C 146.44,439.043 146.107,439.376 145.5,439.5C 144.183,433.012 144.183,426.678 145.5,420.5 Z"/></g>
<g><path style="opacity:1" fill="#373737" d="M 514.5,421.5 C 515.823,431.674 515.823,442.007 514.5,452.5C 513.893,452.376 513.56,452.043 513.5,451.5C 514.494,441.681 514.827,431.681 514.5,421.5 Z"/></g>
<g><path style="opacity:1" fill="#939393" d="M 521.5,420.5 C 521.833,436.514 521.499,452.514 520.5,468.5C 519.893,468.376 519.56,468.043 519.5,467.5C 520.167,451.833 520.833,436.167 521.5,420.5 Z"/></g>
<g><path style="opacity:1" fill="#e7e7e7" d="M 367.5,424.5 C 370.203,429.414 372.537,434.58 374.5,440C 370.129,440.828 365.795,440.661 361.5,439.5C 363.508,434.471 365.508,429.471 367.5,424.5 Z"/></g>
<g><path style="opacity:1" fill="#c2c8c8" d="M 486.5,430.5 C 485.506,440.319 485.173,450.319 485.5,460.5C 484.341,450.008 484.175,439.341 485,428.5C 485.717,429.044 486.217,429.711 486.5,430.5 Z"/></g>
<g><path style="opacity:1" fill="#585858" d="M 146.5,441.5 C 145.51,447.31 145.177,453.31 145.5,459.5C 144.183,453.322 144.183,446.988 145.5,440.5C 146.107,440.624 146.44,440.957 146.5,441.5 Z"/></g>
<g><path style="opacity:1" fill="#8d8d8d" d="M 555.5,442.5 C 552.5,442.5 549.5,442.5 546.5,442.5C 546.5,447.833 546.5,453.167 546.5,458.5C 545.511,453.025 545.178,447.358 545.5,441.5C 549.042,441.187 552.375,441.521 555.5,442.5 Z"/></g>
<g><path style="opacity:1" fill="#b1b1b1" d="M 42.5,464.5 C 47.3054,465.487 52.3054,465.821 57.5,465.5C 52.3197,466.815 46.9864,466.815 41.5,465.5C 41.6236,464.893 41.9569,464.56 42.5,464.5 Z"/></g>
<g><path style="opacity:1" fill="#aeafae" d="M 283.5,463.5 C 285.048,463.821 285.715,464.821 285.5,466.5C 280.968,466.818 276.634,466.485 272.5,465.5C 276.514,465.666 280.514,465.499 284.5,465C 283.944,464.617 283.611,464.117 283.5,463.5 Z"/></g>
<g><path style="opacity:1" fill="#b1b2b1" d="M 338.5,463.5 C 340.048,463.821 340.715,464.821 340.5,466.5C 335.125,466.828 329.792,466.495 324.5,465.5C 324.624,464.893 324.957,464.56 325.5,464.5C 329.981,465.648 334.648,465.815 339.5,465C 338.944,464.617 338.611,464.117 338.5,463.5 Z"/></g>
<g><path style="opacity:1" fill="#b1b2b1" d="M 342.5,464.5 C 346.97,465.486 351.637,465.819 356.5,465.5C 351.652,466.814 346.652,466.814 341.5,465.5C 341.624,464.893 341.957,464.56 342.5,464.5 Z"/></g>
<g><path style="opacity:1" fill="#b2b2b2" d="M 394.5,463.5 C 396.048,463.821 396.715,464.821 396.5,466.5C 390.794,466.829 385.128,466.495 379.5,465.5C 379.624,464.893 379.957,464.56 380.5,464.5C 385.316,465.65 390.316,465.816 395.5,465C 394.944,464.617 394.611,464.117 394.5,463.5 Z"/></g>
<g><path style="opacity:1" fill="#acacac" d="M 400.5,464.5 C 404.97,465.486 409.637,465.819 414.5,465.5C 409.652,466.814 404.652,466.814 399.5,465.5C 399.624,464.893 399.957,464.56 400.5,464.5 Z"/></g>
<g><path style="opacity:1" fill="#b0b0b0" d="M 534.5,464.5 C 544.653,465.494 554.986,465.828 565.5,465.5C 554.993,466.823 544.326,466.823 533.5,465.5C 533.624,464.893 533.957,464.56 534.5,464.5 Z"/></g>
<g><path style="opacity:1" fill="#0e0e0e" d="M 77.5,493.5 C 77.81,496.713 77.4767,499.713 76.5,502.5C 71.9233,498.685 66.59,497.519 60.5,499C 56.2388,501.532 55.5721,504.698 58.5,508.5C 65.0035,512.586 71.6701,516.419 78.5,520C 83.9785,526.545 83.6451,532.879 77.5,539C 68.3354,544.903 58.6688,545.903 48.5,542C 47.7295,539.393 47.0629,536.727 46.5,534C 46.8333,533.5 47.1667,533 47.5,532.5C 53.3666,537.166 60.0332,538.666 67.5,537C 73.7352,533.228 74.0685,528.894 68.5,524C 62.5826,521.369 56.9159,518.369 51.5,515C 44.5578,505.163 46.5578,497.829 57.5,493C 64.2166,492.244 70.8833,492.411 77.5,493.5 Z"/></g>
<g><path style="opacity:1" fill="#8d8d8d" d="M 117.5,501.5 C 118.473,499.052 118.806,496.385 118.5,493.5C 109.318,493.173 100.318,493.507 91.5,494.5C 90.9569,494.44 90.6236,494.107 90.5,493.5C 100.144,492.502 109.81,492.168 119.5,492.5C 119.82,495.898 119.487,499.232 118.5,502.5C 117.893,502.376 117.56,502.043 117.5,501.5 Z"/></g>
<g><path style="opacity:1" fill="#0f0f0f" d="M 152.5,492.5 C 159.876,492.274 167.209,492.608 174.5,493.5C 174.817,496.572 174.484,499.572 173.5,502.5C 164.946,497.342 156.28,497.175 147.5,502C 140.404,508.489 138.571,516.322 142,525.5C 148.167,536.904 157.667,540.904 170.5,537.5C 170.666,531.824 170.499,526.157 170,520.5C 169.167,519.667 168.333,518.833 167.5,518C 171.486,517.501 175.486,517.334 179.5,517.5C 179.5,525.833 179.5,534.167 179.5,542.5C 170.544,543.912 161.544,544.412 152.5,544C 135.281,538.736 128.448,527.236 132,509.5C 136.262,500.634 143.095,494.967 152.5,492.5 Z"/></g>
<g><path style="opacity:1" fill="#989898" d="M 203.5,493.5 C 198.637,493.181 193.97,493.514 189.5,494.5C 188.957,494.44 188.624,494.107 188.5,493.5C 193.652,492.186 198.652,492.186 203.5,493.5 Z"/></g>
<g><path style="opacity:1" fill="#9c9c9c" d="M 220.5,493.5 C 225.305,492.513 230.305,492.179 235.5,492.5C 235.715,494.179 235.048,495.179 233.5,495.5C 233.611,494.883 233.944,494.383 234.5,494C 229.845,493.501 225.179,493.334 220.5,493.5 Z"/></g>
<g><path style="opacity:1" fill="#9d9d9d" d="M 318.5,493.5 C 314.298,493.183 310.298,493.517 306.5,494.5C 305.957,494.44 305.624,494.107 305.5,493.5C 309.984,492.189 314.317,492.189 318.5,493.5 Z"/></g>
<g><path style="opacity:1" fill="#0e0e0e" d="M 420.5,491.5 C 431.505,490.778 441.005,494.112 449,501.5C 458.53,517.392 455.697,530.559 440.5,541C 421.427,548.874 407.927,543.374 400,524.5C 398.033,507.978 404.866,496.978 420.5,491.5 Z"/></g>
<g><path style="opacity:1" fill="#9d9d9d" d="M 483.5,493.5 C 476.313,493.175 469.313,493.509 462.5,494.5C 461.957,494.44 461.624,494.107 461.5,493.5C 468.99,492.181 476.323,492.181 483.5,493.5 Z"/></g>
<g><path style="opacity:1" fill="#070707" d="M 91.5,494.5 C 100.318,493.507 109.318,493.173 118.5,493.5C 118.806,496.385 118.473,499.052 117.5,501.5C 112.729,499.682 107.729,499.015 102.5,499.5C 102.5,503.833 102.5,508.167 102.5,512.5C 106.5,512.5 110.5,512.5 114.5,512.5C 114.806,515.385 114.473,518.052 113.5,520.5C 109.936,519.577 106.269,519.244 102.5,519.5C 102.5,525.167 102.5,530.833 102.5,536.5C 108.176,536.666 113.843,536.499 119.5,536C 121.587,535.208 123.421,534.041 125,532.5C 124.505,535.853 123.672,539.187 122.5,542.5C 111.986,542.828 101.653,542.494 91.5,541.5C 92.9663,540.653 93.7996,539.32 94,537.5C 94.6667,524.167 94.6667,510.833 94,497.5C 93.6232,496.058 92.7899,495.058 91.5,494.5 Z"/></g>
<g><path style="opacity:1" fill="#111111" d="M 189.5,494.5 C 193.97,493.514 198.637,493.181 203.5,493.5C 202.878,494.627 202.045,495.627 201,496.5C 200.333,507.833 200.333,519.167 201,530.5C 202.455,535.634 205.788,537.967 211,537.5C 216.257,537.872 220.257,535.872 223,531.5C 223.667,519.833 223.667,508.167 223,496.5C 221.955,495.627 221.122,494.627 220.5,493.5C 225.179,493.334 229.845,493.501 234.5,494C 233.944,494.383 233.611,494.883 233.5,495.5C 232.339,510.328 232.172,525.328 233,540.5C 233.383,541.056 233.883,541.389 234.5,541.5C 231.038,542.482 227.371,542.815 223.5,542.5C 223.649,541.448 223.483,540.448 223,539.5C 213.971,546.111 204.971,546.111 196,539.5C 194.092,536.785 192.759,533.785 192,530.5C 191.667,519.167 191.333,507.833 191,496.5C 190.722,495.584 190.222,494.918 189.5,494.5 Z"/></g>
<g><path style="opacity:1" fill="#0a0a0a" d="M 306.5,494.5 C 310.298,493.517 314.298,493.183 318.5,493.5C 324.318,507.808 330.151,522.141 336,536.5C 336.996,538.66 338.496,540.327 340.5,541.5C 335.833,542.833 331.167,542.833 326.5,541.5C 327.613,540.054 327.78,538.387 327,536.5C 325.47,532.91 324.136,529.243 323,525.5C 316.667,524.167 310.333,524.167 304,525.5C 301.143,530.737 299.977,536.071 300.5,541.5C 293.687,542.491 286.687,542.825 279.5,542.5C 277.284,541.797 275.451,540.464 274,538.5C 268.529,532.211 263.696,525.544 259.5,518.5C 259.5,517.833 259.5,517.167 259.5,516.5C 269.775,515.443 273.109,510.276 269.5,501C 265.932,498.56 262.265,498.06 258.5,499.5C 257.167,512.167 257.167,524.833 258.5,537.5C 258.229,539.38 258.896,540.713 260.5,541.5C 256.167,542.833 251.833,542.833 247.5,541.5C 248.268,540.737 248.768,539.737 249,538.5C 249.667,524.5 249.667,510.5 249,496.5C 248.167,495.667 247.333,494.833 246.5,494C 254.5,493.333 262.5,493.333 270.5,494C 280.165,497.315 282.665,503.482 278,512.5C 275.603,515.4 272.77,517.733 269.5,519.5C 272.86,523.693 276.027,528.026 279,532.5C 281.768,535.941 285.101,538.607 289,540.5C 291.026,539.48 292.359,537.813 293,535.5C 298.626,522.276 303.626,508.943 308,495.5C 307.617,494.944 307.117,494.611 306.5,494.5 Z"/></g>
<g><path style="opacity:1" fill="#0c0c0c" d="M 368.5,542.5 C 360.981,542.825 353.648,542.492 346.5,541.5C 346.783,540.711 347.283,540.044 348,539.5C 348.667,525.167 348.667,510.833 348,496.5C 347.5,495.333 346.667,494.5 345.5,494C 354.167,493.333 362.833,493.333 371.5,494C 388.969,498.762 395.135,509.928 390,527.5C 385.762,536.548 378.595,541.548 368.5,542.5 Z"/></g>
<g><path style="opacity:1" fill="#0c0c0c" d="M 462.5,494.5 C 469.313,493.509 476.313,493.175 483.5,493.5C 494.999,496.166 498.166,502.833 493,513.5C 490.43,515.869 487.596,517.869 484.5,519.5C 489.676,526.989 495.676,533.823 502.5,540C 506.063,540.123 508.23,538.29 509,534.5C 514.114,521.939 518.947,509.272 523.5,496.5C 523.182,495.353 522.516,494.519 521.5,494C 525.871,493.172 530.205,493.339 534.5,494.5C 540.098,508.127 545.598,521.793 551,535.5C 552.277,537.747 553.777,539.747 555.5,541.5C 550.833,542.833 546.167,542.833 541.5,541.5C 542.586,541.38 543.253,540.713 543.5,539.5C 541.962,534.72 540.129,530.054 538,525.5C 531.889,524.191 525.722,524.191 519.5,525.5C 517.538,529.884 515.872,534.384 514.5,539C 514.639,540.301 515.305,541.134 516.5,541.5C 509.687,542.491 502.687,542.825 495.5,542.5C 492.606,541.118 490.106,539.118 488,536.5C 483.009,530.518 478.509,524.185 474.5,517.5C 479.636,516.192 483.802,513.525 487,509.5C 487.052,500.743 482.552,497.076 473.5,498.5C 473.333,511.837 473.5,525.171 474,538.5C 474.513,539.527 475.013,540.527 475.5,541.5C 471.167,542.833 466.833,542.833 462.5,541.5C 463.117,541.389 463.617,541.056 464,540.5C 464.667,525.5 464.667,510.5 464,495.5C 463.617,494.944 463.117,494.611 462.5,494.5 Z"/></g>
<g><path style="opacity:1" fill="#797a7a" d="M 77.5,493.5 C 78.8056,496.687 78.8056,500.02 77.5,503.5C 76.8933,503.376 76.56,503.043 76.5,502.5C 77.4767,499.713 77.81,496.713 77.5,493.5 Z"/></g>
<g><path style="opacity:1" fill="#f0f0f0" d="M 259.5,516.5 C 258.511,511.025 258.178,505.358 258.5,499.5C 262.265,498.06 265.932,498.56 269.5,501C 273.109,510.276 269.775,515.443 259.5,516.5 Z"/></g>
<g><path style="opacity:1" fill="#f6f6f6" d="M 420.5,498.5 C 439.127,497.966 446.96,506.966 444,525.5C 439.619,535.979 431.786,539.812 420.5,537C 409.139,529.432 405.972,519.265 411,506.5C 413.772,503.217 416.939,500.55 420.5,498.5 Z"/></g>
<g><path style="opacity:1" fill="#f6f6f6" d="M 357.5,499.5 C 378.983,498.496 386.483,508.163 380,528.5C 374.127,535.511 366.627,538.178 357.5,536.5C 357.5,524.167 357.5,511.833 357.5,499.5 Z"/></g>
<g><path style="opacity:1" fill="#e0e1e0" d="M 312.5,502.5 C 314.136,503.749 315.303,505.416 316,507.5C 317.674,511.021 318.84,514.687 319.5,518.5C 315.116,518.826 310.783,518.492 306.5,517.5C 308.508,512.471 310.508,507.471 312.5,502.5 Z"/></g>
<g><path style="opacity:1" fill="#e1e1e1" d="M 527.5,502.5 C 528.496,502.414 529.329,502.748 530,503.5C 531.556,508.278 533.39,512.945 535.5,517.5C 531.217,518.492 526.884,518.826 522.5,518.5C 524.167,513.167 525.833,507.833 527.5,502.5 Z"/></g>
<g><path style="opacity:1" fill="#8f9090" d="M 114.5,512.5 C 115.803,515.355 115.803,518.355 114.5,521.5C 113.893,521.376 113.56,521.043 113.5,520.5C 114.473,518.052 114.806,515.385 114.5,512.5 Z"/></g>
<g><path style="opacity:1" fill="#787878" d="M 258.5,499.5 C 258.178,505.358 258.511,511.025 259.5,516.5C 259.5,517.167 259.5,517.833 259.5,518.5C 258.51,524.645 258.177,530.978 258.5,537.5C 257.167,524.833 257.167,512.167 258.5,499.5 Z"/></g>
<g><path style="opacity:1" fill="#555555" d="M 247.5,541.5 C 251.833,542.833 256.167,542.833 260.5,541.5C 261.043,541.56 261.376,541.893 261.5,542.5C 256.5,543.833 251.5,543.833 246.5,542.5C 246.624,541.893 246.957,541.56 247.5,541.5 Z"/></g>
<g><path style="opacity:1" fill="#545454" d="M 91.5,541.5 C 101.653,542.494 111.986,542.828 122.5,542.5C 111.993,543.823 101.326,543.823 90.5,542.5C 90.6236,541.893 90.9569,541.56 91.5,541.5 Z"/></g>
<g><path style="opacity:1" fill="#585858" d="M 234.5,541.5 C 235.043,541.56 235.376,541.893 235.5,542.5C 231.351,543.809 227.351,543.809 223.5,542.5C 227.371,542.815 231.038,542.482 234.5,541.5 Z"/></g>
<g><path style="opacity:1" fill="#535353" d="M 300.5,541.5 C 301.043,541.56 301.376,541.893 301.5,542.5C 294.01,543.819 286.677,543.819 279.5,542.5C 286.687,542.825 293.687,542.491 300.5,541.5 Z"/></g>
<g><path style="opacity:1" fill="#555555" d="M 326.5,541.5 C 331.167,542.833 335.833,542.833 340.5,541.5C 341.043,541.56 341.376,541.893 341.5,542.5C 336.167,543.833 330.833,543.833 325.5,542.5C 325.624,541.893 325.957,541.56 326.5,541.5 Z"/></g>
<g><path style="opacity:1" fill="#565656" d="M 346.5,541.5 C 353.648,542.492 360.981,542.825 368.5,542.5C 360.99,543.82 353.323,543.82 345.5,542.5C 345.624,541.893 345.957,541.56 346.5,541.5 Z"/></g>
<g><path style="opacity:1" fill="#555555" d="M 462.5,541.5 C 466.833,542.833 471.167,542.833 475.5,541.5C 476.043,541.56 476.376,541.893 476.5,542.5C 471.5,543.833 466.5,543.833 461.5,542.5C 461.624,541.893 461.957,541.56 462.5,541.5 Z"/></g>
<g><path style="opacity:1" fill="#555555" d="M 516.5,541.5 C 517.043,541.56 517.376,541.893 517.5,542.5C 510.01,543.819 502.677,543.819 495.5,542.5C 502.687,542.825 509.687,542.491 516.5,541.5 Z"/></g>
<g><path style="opacity:1" fill="#545454" d="M 541.5,541.5 C 546.167,542.833 550.833,542.833 555.5,541.5C 556.043,541.56 556.376,541.893 556.5,542.5C 551.167,543.833 545.833,543.833 540.5,542.5C 540.624,541.893 540.957,541.56 541.5,541.5 Z"/></g>
</svg>
