<?xml version="1.0" encoding="UTF-8"?>
<!DOCTYPE svg PUBLIC "-//W3C//DTD SVG 1.1//EN" "http://www.w3.org/Graphics/SVG/1.1/DTD/svg11.dtd">
<svg xmlns="http://www.w3.org/2000/svg" version="1.1" width="336px" height="150px" style="shape-rendering:geometricPrecision; text-rendering:geometricPrecision; image-rendering:optimizeQuality; fill-rule:evenodd; clip-rule:evenodd" xmlns:xlink="http://www.w3.org/1999/xlink">
<g><path style="opacity:1" fill="#faf9f9" d="M -0.5,-0.5 C 111.5,-0.5 223.5,-0.5 335.5,-0.5C 335.5,49.5 335.5,99.5 335.5,149.5C 223.5,149.5 111.5,149.5 -0.5,149.5C -0.5,99.5 -0.5,49.5 -0.5,-0.5 Z"/></g>
<g><path style="opacity:1" fill="#fac809" d="M 21.5,27.5 C 25.1515,26.8345 28.9848,26.5012 33,26.5C 37.9165,26.4225 42.7498,26.9225 47.5,28C 53.7138,38.2583 59.5471,48.7583 65,59.5C 65.6891,60.3567 66.5224,61.0233 67.5,61.5C 73.0192,50.2868 78.3525,38.9535 83.5,27.5C 89.1667,26.1667 94.8333,26.1667 100.5,27.5C 89.8333,50.1667 79.1667,72.8333 68.5,95.5C 62.8333,96.8333 57.1667,96.8333 51.5,95.5C 57.1,85.4949 61.6,75.1616 65,64.5C 64.5,64 64,63.5 63.5,63C 56.1667,62.6667 48.8333,62.3333 41.5,62C 34.9328,50.3553 28.2662,38.8553 21.5,27.5 Z"/></g>
<g><path style="opacity:1" fill="#fac807" d="M 150.5,26.5 C 155.833,26.5 161.167,26.5 166.5,26.5C 166.5,49.8333 166.5,73.1667 166.5,96.5C 161.167,96.5 155.833,96.5 150.5,96.5C 150.5,73.1667 150.5,49.8333 150.5,26.5 Z"/></g>
<g><path style="opacity:1" fill="#fac80f" d="M 234.5,47.5 C 238.833,47.5 243.167,47.5 247.5,47.5C 247.174,51.8839 247.508,56.2172 248.5,60.5C 249.107,60.3764 249.44,60.0431 249.5,59.5C 253.282,46.7754 261.282,42.942 273.5,48C 276.567,51.2975 278.733,55.1308 280,59.5C 285.672,44.6503 295.006,41.6503 308,50.5C 309,52.5 310,54.5 311,56.5C 311.5,69.8292 311.667,83.1625 311.5,96.5C 306.167,96.5 300.833,96.5 295.5,96.5C 295.667,84.8286 295.5,73.1619 295,61.5C 288.974,55.6712 284.307,56.6712 281,64.5C 280.5,75.1615 280.333,85.8281 280.5,96.5C 275.167,96.5 269.833,96.5 264.5,96.5C 264.667,84.8286 264.5,73.1619 264,61.5C 259.441,56.2026 255.108,56.5359 251,62.5C 250.5,73.8284 250.333,85.1618 250.5,96.5C 245.167,96.5 239.833,96.5 234.5,96.5C 234.5,80.1667 234.5,63.8333 234.5,47.5 Z"/></g>
<g><path style="opacity:1" fill="#fac80c" d="M 111.5,45.5 C 132.593,43.9315 142.927,53.5982 142.5,74.5C 131.167,74.5 119.833,74.5 108.5,74.5C 108.31,83.4775 112.643,87.3108 121.5,86C 123.64,85.0267 125.307,83.5267 126.5,81.5C 131.792,80.5052 137.125,80.1718 142.5,80.5C 139.793,90.0328 133.46,95.5328 123.5,97C 99.8394,99.0053 89.3394,88.172 92,64.5C 95.1211,54.5437 101.621,48.2104 111.5,45.5 Z"/></g>
<g><path style="opacity:1" fill="#fac808" d="M 176.5,82.5 C 176.5,70.8333 176.5,59.1667 176.5,47.5C 181.5,47.5 186.5,47.5 191.5,47.5C 191.333,58.1719 191.5,68.8385 192,79.5C 194.525,85.4528 198.691,86.9528 204.5,84C 206.487,82.6811 207.654,80.8477 208,78.5C 208.5,67.8385 208.667,57.1719 208.5,46.5C 213.833,46.5 219.167,46.5 224.5,46.5C 224.5,63.1667 224.5,79.8333 224.5,96.5C 219.833,96.5 215.167,96.5 210.5,96.5C 210.666,92.1539 210.499,87.8206 210,83.5C 207.873,87.5894 205.373,91.4228 202.5,95C 192.272,100.012 184.105,97.8449 178,88.5C 177.187,86.5643 176.687,84.5643 176.5,82.5 Z"/></g>
<g><path style="opacity:1" fill="#fad877" d="M 191.5,47.5 C 186.5,47.5 181.5,47.5 176.5,47.5C 176.5,59.1667 176.5,70.8333 176.5,82.5C 175.505,70.6783 175.172,58.6783 175.5,46.5C 181.026,46.1786 186.36,46.5119 191.5,47.5 Z"/></g>
<g><path style="opacity:1" fill="#fae8ac" d="M 234.5,47.5 C 238.97,46.5139 243.637,46.1805 248.5,46.5C 248.182,51.0323 248.515,55.3656 249.5,59.5C 249.44,60.0431 249.107,60.3764 248.5,60.5C 247.508,56.2172 247.174,51.8839 247.5,47.5C 243.167,47.5 238.833,47.5 234.5,47.5 Z"/></g>
<g><path style="opacity:1" fill="#faf8f5" d="M 113.5,56.5 C 121.842,55.5126 126.175,59.1793 126.5,67.5C 120.5,67.5 114.5,67.5 108.5,67.5C 107.925,62.7616 109.592,59.0949 113.5,56.5 Z"/></g>
<g><path style="opacity:1" fill="#fac100" d="M 248.5,117.5 C 247.116,118.801 245.616,118.801 244,117.5C 243.333,114.5 243.333,111.5 244,108.5C 244.333,111.167 244.667,113.833 245,116.5C 246.011,117.337 247.178,117.67 248.5,117.5 Z"/></g>
<g><path style="opacity:1" fill="#fbc93c" d="M 248.5,117.5 C 249.084,114.527 249.751,111.527 250.5,108.5C 251.833,111.833 251.833,115.167 250.5,118.5C 249.817,118.137 249.15,117.804 248.5,117.5 Z"/></g>
<g><path style="opacity:1" fill="#fac623" d="M 210.5,108.5 C 213.073,108.148 215.406,108.648 217.5,110C 209.699,109.593 209.533,110.76 217,113.5C 217.934,118.083 216.1,119.583 211.5,118C 210.833,117.333 210.167,116.667 209.5,116C 211.107,115.885 212.607,116.385 214,117.5C 215.28,117.387 216.113,116.72 216.5,115.5C 212.304,114.975 210.304,112.641 210.5,108.5 Z"/></g>
<g><path style="opacity:1" fill="#fbca3b" d="M 254.5,108.5 C 255.991,108.901 257.658,109.068 259.5,109C 258.584,109.374 257.75,109.874 257,110.5C 256.818,113.226 256.318,115.893 255.5,118.5C 254.513,115.232 254.18,111.898 254.5,108.5 Z"/></g>
<g><path style="opacity:1" fill="#fac925" d="M 296.5,108.5 C 298.199,108.34 299.866,108.506 301.5,109C 300.584,109.374 299.75,109.874 299,110.5C 298.818,113.226 298.318,115.893 297.5,118.5C 296.513,115.232 296.18,111.898 296.5,108.5 Z"/></g>
<g><path style="opacity:1" fill="#fac724" d="M 305.5,108.5 C 307.833,108.5 310.167,108.5 312.5,108.5C 312.5,111.833 312.5,115.167 312.5,118.5C 304.197,119.214 301.864,115.881 305.5,108.5 Z"/></g>
<g><path style="opacity:1" fill="#faf6ed" d="M 306.5,109.5 C 309.352,109.352 311.019,110.686 311.5,113.5C 310.875,116.986 309.042,117.986 306,116.5C 305.297,114.071 305.463,111.738 306.5,109.5 Z"/></g>
<g><path style="opacity:1" fill="#fac72d" d="M 221.5,108.5 C 225.445,107.573 228.112,108.906 229.5,112.5C 226.833,113.167 224.167,113.833 221.5,114.5C 223.105,117.821 225.105,118.154 227.5,115.5C 228.711,116.274 228.711,117.107 227.5,118C 219.835,118.511 217.835,115.345 221.5,108.5 Z"/></g>
<g><path style="opacity:1" fill="#fac627" d="M 232.5,108.5 C 234.833,108.5 237.167,108.5 239.5,108.5C 239.666,112.846 239.499,117.179 239,121.5C 236.163,123.053 233.663,122.72 231.5,120.5C 231.833,120.167 232.167,119.833 232.5,119.5C 234.998,122.254 236.998,121.92 238.5,118.5C 231.662,118.792 229.662,115.459 232.5,108.5 Z"/></g>
<g><path style="opacity:1" fill="#faf5e7" d="M 234.5,109.5 C 237.243,109.077 238.576,110.244 238.5,113C 236.82,118.686 234.82,118.852 232.5,113.5C 232.752,111.927 233.418,110.594 234.5,109.5 Z"/></g>
<g><path style="opacity:1" fill="#fbca3a" d="M 286.5,108.5 C 294.44,107.937 296.44,111.104 292.5,118C 284.835,118.511 282.835,115.345 286.5,108.5 Z"/></g>
<g><path style="opacity:1" fill="#faf7ed" d="M 287.5,109.5 C 292.068,109.083 293.568,111.083 292,115.5C 290.451,118.003 288.784,118.003 287,115.5C 286.51,113.455 286.677,111.455 287.5,109.5 Z"/></g>
<g><path style="opacity:1" fill="#faf3db" d="M 222.5,109.5 C 224.665,109.116 226.332,109.783 227.5,111.5C 225.5,112.833 223.5,112.833 221.5,111.5C 221.863,110.817 222.196,110.15 222.5,109.5 Z"/></g>
<g><path style="opacity:1" fill="#fac932" d="M 262.5,108.5 C 265.167,108.5 267.833,108.5 270.5,108.5C 270.5,111.833 270.5,115.167 270.5,118.5C 262.282,119.615 259.616,116.282 262.5,108.5 Z"/></g>
<g><path style="opacity:1" fill="#faf8f4" d="M 264.5,109.5 C 265.822,109.33 266.989,109.663 268,110.5C 268.667,112.5 268.667,114.5 268,116.5C 266.667,117.833 265.333,117.833 264,116.5C 263.297,114.071 263.463,111.738 264.5,109.5 Z"/></g>
<g><path style="opacity:1" fill="#fac72c" d="M 279.5,117.5 C 275.805,119.177 273.805,117.844 273.5,113.5C 273.851,109.349 276.185,107.683 280.5,108.5C 281.868,108.867 282.034,112.2 281,118.5C 280.617,117.944 280.117,117.611 279.5,117.5 Z"/></g>
<g><path style="opacity:1" fill="#faf7f0" d="M 279.5,117.5 C 278.178,117.67 277.011,117.337 276,116.5C 275.333,114.5 275.333,112.5 276,110.5C 278.8,108.882 280.3,109.715 280.5,113C 280.227,114.533 279.894,116.033 279.5,117.5 Z"/></g>
</svg>
