<?xml version="1.0" encoding="UTF-8"?>
<!DOCTYPE svg PUBLIC "-//W3C//DTD SVG 1.1//EN" "http://www.w3.org/Graphics/SVG/1.1/DTD/svg11.dtd">
<svg xmlns="http://www.w3.org/2000/svg" version="1.1" width="960px" height="603px" style="shape-rendering:geometricPrecision; text-rendering:geometricPrecision; image-rendering:optimizeQuality; fill-rule:evenodd; clip-rule:evenodd" xmlns:xlink="http://www.w3.org/1999/xlink">
<g><path style="opacity:1" fill="#256fc1" d="M 437.5,2.5 C 499.813,0.0782944 549.313,23.745 586,73.5C 616.305,120.867 622.305,171.2 604,224.5C 575.022,291.6 523.855,326.933 450.5,330.5C 402.557,329.522 362.224,311.688 329.5,277C 336.363,273.156 343.696,270.489 351.5,269C 372.112,264.897 392.779,264.564 413.5,268C 433.129,270.947 452.795,273.614 472.5,276C 504.805,280.26 529.639,268.76 547,241.5C 552.885,231.4 557.385,220.733 560.5,209.5C 558.446,207.744 556.279,207.41 554,208.5C 538.848,238.248 514.515,252.581 481,251.5C 451.023,249.369 421.19,248.369 391.5,248.5C 435.589,188.243 480.256,128.41 525.5,69C 469.5,68.3333 413.5,68.3333 357.5,69C 352.359,85.557 348.359,102.224 345.5,119C 347.218,119.346 348.885,119.846 350.5,120.5C 354.83,112.014 360.497,104.514 367.5,98C 371.658,94.7204 376.325,92.3871 381.5,91C 391.363,88.6837 401.363,87.3504 411.5,87C 426.511,86.1672 441.511,86.3338 456.5,87.5C 411.519,147.142 366.186,206.475 320.5,265.5C 297.956,236.372 286.623,203.206 286.5,166C 288.114,109.093 311.781,64.093 357.5,31C 381.937,15.0224 408.604,5.52241 437.5,2.5 Z"/></g>
<g><path style="opacity:1" fill="#266fc0" d="M 936.5,379.5 C 949.309,379.145 956.309,385.312 957.5,398C 956.744,409.256 950.744,415.422 939.5,416.5C 922.804,413.112 917.638,403.446 924,387.5C 927.378,383.406 931.545,380.739 936.5,379.5 Z M 935.5,383.5 C 951.153,384.144 956.319,391.81 951,406.5C 941.507,415.188 933.174,414.188 926,403.5C 923.614,393.945 926.781,387.278 935.5,383.5 Z M 935.5,391.5 C 937.857,391.337 940.19,391.503 942.5,392C 943.925,393.714 943.592,395.047 941.5,396C 939.527,396.495 937.527,396.662 935.5,396.5C 935.5,394.833 935.5,393.167 935.5,391.5 Z"/></g>
<g><path style="opacity:1" fill="#266fc1" d="M 932.5,387.5 C 936.182,387.335 939.848,387.501 943.5,388C 947.213,389.691 948.379,392.525 947,396.5C 946.5,397.667 945.667,398.5 944.5,399C 945.961,401.421 947.294,403.921 948.5,406.5C 947.277,407.614 945.944,407.781 944.5,407C 943.167,404.667 941.833,402.333 940.5,400C 938.866,399.506 937.199,399.34 935.5,399.5C 935.5,402.167 935.5,404.833 935.5,407.5C 934.5,407.5 933.5,407.5 932.5,407.5C 932.5,400.833 932.5,394.167 932.5,387.5 Z M 935.5,391.5 C 935.5,393.167 935.5,394.833 935.5,396.5C 937.527,396.662 939.527,396.495 941.5,396C 943.592,395.047 943.925,393.714 942.5,392C 940.19,391.503 937.857,391.337 935.5,391.5 Z"/></g>
<g><path style="opacity:1" fill="#256fc1" d="M 675.5,434.5 C 690.724,434.308 705.724,435.975 720.5,439.5C 720.666,449.839 720.5,460.172 720,470.5C 694.713,454.013 669.213,453.513 643.5,469C 624.257,486.768 617.424,508.601 623,534.5C 632.772,567.142 654.606,581.309 688.5,577C 694.027,575.935 699.36,574.269 704.5,572C 710.262,569.119 715.929,566.286 721.5,563.5C 721.832,573.19 721.498,582.856 720.5,592.5C 692.634,602.324 664.634,602.824 636.5,594C 604.206,580.125 587.539,555.458 586.5,520C 588.826,478.354 609.826,451.354 649.5,439C 658.217,436.937 666.884,435.437 675.5,434.5 Z"/></g>
<g><path style="opacity:1" fill="#256fc1" d="M 27.5,438.5 C 68.8347,438.333 110.168,438.5 151.5,439C 120.167,484.333 88.8333,529.667 57.5,575C 77.2308,576.015 96.8974,575.348 116.5,573C 129.656,570.755 141.99,566.255 153.5,559.5C 153.833,559.667 154.167,559.833 154.5,560C 149.008,571.649 144.008,583.482 139.5,595.5C 93.8321,595.667 48.1655,595.5 2.5,595C 34.028,550.305 65.3614,505.472 96.5,460.5C 67.7222,456.306 40.2222,460.306 14,472.5C 13.5,472.167 13,471.833 12.5,471.5C 17.3128,460.386 22.3128,449.386 27.5,438.5 Z"/></g>
<g><path style="opacity:1" fill="#256fc0" d="M 177.5,439.5 C 194.671,438.173 212.005,438.173 229.5,439.5C 224.499,444.837 221.666,451.17 221,458.5C 220.061,490.527 220.394,522.527 222,554.5C 224.798,566.631 232.298,574.131 244.5,577C 261.059,581.237 274.893,577.07 286,564.5C 287.927,561.052 289.261,557.385 290,553.5C 291.599,520.858 291.932,488.191 291,455.5C 290.529,448.891 287.696,443.558 282.5,439.5C 299.167,438.167 315.833,438.167 332.5,439.5C 326.09,444.99 322.923,451.99 323,460.5C 322.939,492.527 322.273,524.527 321,556.5C 315.274,577.893 301.774,591.726 280.5,598C 256.93,603.976 234.263,601.643 212.5,591C 198.952,582.083 190.785,569.583 188,553.5C 186.831,519.846 186.165,486.179 186,452.5C 184.659,447.142 181.826,442.809 177.5,439.5 Z"/></g>
<g><path style="opacity:1" fill="#256fc1" d="M 357.5,439.5 C 376.996,438.338 396.662,438.171 416.5,439C 437.44,437.426 454.94,444.259 469,459.5C 481.555,482.668 477.055,501.835 455.5,517C 449.257,520.289 442.924,523.289 436.5,526C 450.333,541.833 464.167,557.667 478,573.5C 485.234,581.404 493.067,588.571 501.5,595C 489.5,595.667 477.5,595.667 465.5,595C 454.979,591.816 446.145,585.983 439,577.5C 426,561.833 413,546.167 400,530.5C 399.333,547.5 399.333,564.5 400,581.5C 401.432,586.861 404.266,591.361 408.5,595C 391.5,595.667 374.5,595.667 357.5,595C 361.928,591.908 364.761,587.741 366,582.5C 367.119,561.028 367.619,539.528 367.5,518C 367.614,496.141 367.114,474.308 366,452.5C 364.513,447.2 361.68,442.867 357.5,439.5 Z M 399.5,457.5 C 413.018,456.253 425.185,459.586 436,467.5C 442.934,478.26 443.267,489.26 437,500.5C 426.466,510.181 413.966,514.848 399.5,514.5C 399.5,495.5 399.5,476.5 399.5,457.5 Z"/></g>
<g><path style="opacity:1" fill="#256fc0" d="M 513.5,438.5 C 530.503,438.333 547.503,438.5 564.5,439C 559.228,443.276 556.061,448.776 555,455.5C 554.333,496.5 554.333,537.5 555,578.5C 556.116,584.9 558.95,590.4 563.5,595C 546.833,595.667 530.167,595.667 513.5,595C 517.763,590.642 520.597,585.475 522,579.5C 522.667,537.5 522.667,495.5 522,453.5C 521.333,451.5 520.667,449.5 520,447.5C 517.59,444.603 515.423,441.603 513.5,438.5 Z"/></g>
<g><path style="opacity:1" fill="#256fc0" d="M 746.5,438.5 C 763.513,438.167 780.513,438.501 797.5,439.5C 793.398,443.367 790.564,448.033 789,453.5C 787.625,470.465 787.125,487.465 787.5,504.5C 810.5,504.5 833.5,504.5 856.5,504.5C 856.667,488.163 856.5,471.83 856,455.5C 854.939,448.776 851.772,443.276 846.5,439C 863.843,438.167 881.176,438.334 898.5,439.5C 893.003,444.156 889.836,450.156 889,457.5C 888.333,498.167 888.333,538.833 889,579.5C 889.881,585.764 892.715,590.931 897.5,595C 880.5,595.667 863.5,595.667 846.5,595C 851.86,590.781 855.027,585.281 856,578.5C 856.5,560.503 856.667,542.503 856.5,524.5C 833.5,524.5 810.5,524.5 787.5,524.5C 787.333,541.503 787.5,558.503 788,575.5C 788.518,583.067 791.351,589.567 796.5,595C 779.833,595.667 763.167,595.667 746.5,595C 750.734,591.361 753.568,586.861 755,581.5C 756.117,560.861 756.617,540.195 756.5,519.5C 756.592,497.48 756.092,475.48 755,453.5C 754.333,451.5 753.667,449.5 753,447.5C 750.59,444.603 748.423,441.603 746.5,438.5 Z"/></g>
</svg>
