<?xml version="1.0" encoding="UTF-8"?>
<!DOCTYPE svg PUBLIC "-//W3C//DTD SVG 1.1//EN" "http://www.w3.org/Graphics/SVG/1.1/DTD/svg11.dtd">
<svg xmlns="http://www.w3.org/2000/svg" version="1.1" width="223px" height="99px" style="shape-rendering:geometricPrecision; text-rendering:geometricPrecision; image-rendering:optimizeQuality; fill-rule:evenodd; clip-rule:evenodd" xmlns:xlink="http://www.w3.org/1999/xlink">
<g><path style="opacity:1" fill="#0082bb" d="M -0.5,-0.5 C 73.8333,-0.5 148.167,-0.5 222.5,-0.5C 222.5,32.5 222.5,65.5 222.5,98.5C 148.167,98.5 73.8333,98.5 -0.5,98.5C -0.5,65.5 -0.5,32.5 -0.5,-0.5 Z"/></g>
<g><path style="opacity:1" fill="#0063d4" d="M 108.5,0.5 C 111.119,0.231664 113.619,0.564998 116,1.5C 118.412,7.75991 116.245,10.5932 109.5,10C 106.03,7.11227 105.696,3.9456 108.5,0.5 Z"/></g>
<g><path style="opacity:1" fill="#03af9b" d="M 56.5,1.5 C 59.5788,1.26006 62.5788,1.59339 65.5,2.5C 71.4519,17.7828 77.7852,32.9494 84.5,48C 84.507,49.5827 84.1737,51.2494 83.5,53C 80.5706,53.7772 77.7372,53.6105 75,52.5C 70.1865,40.3849 65.1865,28.3849 60,16.5C 55.5291,28.2464 50.8624,39.913 46,51.5C 42.8986,53.7201 39.5653,54.0535 36,52.5C 41.9212,35.2585 48.7545,18.2585 56.5,1.5 Z"/></g>
<g><path style="opacity:1" fill="#04af9a" d="M 90.5,1.5 C 93.1873,1.33591 95.854,1.50258 98.5,2C 99.1667,3 99.8333,4 100.5,5C 99.7807,20.184 99.7807,35.5173 100.5,51C 97.3608,53.6641 93.8608,54.1641 90,52.5C 89.1821,35.4262 89.3488,18.4262 90.5,1.5 Z"/></g>
<g><path style="opacity:1" fill="#08b099" d="M 125.5,14.5 C 127.934,14.701 130.434,14.701 133,14.5C 133.388,15.428 134.055,16.0946 135,16.5C 139.015,14.2474 143.181,13.9141 147.5,15.5C 147.703,17.3904 147.037,18.8904 145.5,20C 145.833,20.3333 146.167,20.6667 146.5,21C 145.167,21.6667 144.167,22.6667 143.5,24C 139.708,23.7779 136.708,25.1113 134.5,28C 134.833,28.3333 135.167,28.6667 135.5,29C 134.683,36.7543 134.183,44.5876 134,52.5C 131.263,53.6105 128.429,53.7772 125.5,53C 124.833,51.3333 124.167,49.6667 123.5,48C 124.406,38.281 124.406,28.6143 123.5,19C 124.267,17.5295 124.933,16.0295 125.5,14.5 Z"/></g>
<g><path style="opacity:1" fill="#03af9b" d="M 159.5,14.5 C 179.659,13.4787 188.326,22.6453 185.5,42C 178.76,52.4697 169.426,55.8031 157.5,52C 147.958,46.3616 144.458,38.195 147,27.5C 149.989,22.011 154.156,17.6777 159.5,14.5 Z"/></g>
<g><path style="opacity:1" fill="#02af9b" d="M 107.5,14.5 C 110.714,14.0843 113.881,14.751 117,16.5C 117.667,28.1667 117.667,39.8333 117,51.5C 113.535,54.128 110.035,54.128 106.5,51.5C 106.662,39.5892 106.995,27.2559 107.5,14.5 Z"/></g>
<g><path style="opacity:1" fill="#0082bb" d="M 164.5,23.5 C 174.986,25.1418 178.153,30.8085 174,40.5C 169.689,45.2904 164.855,45.7904 159.5,42C 154.345,33.843 156.011,27.6764 164.5,23.5 Z"/></g>
<g><path style="opacity:1" fill="#0062d4" d="M 164.5,28.5 C 171.978,29.7503 173.311,33.2503 168.5,39C 164.528,39.8471 161.862,38.3471 160.5,34.5C 160.937,31.775 162.27,29.775 164.5,28.5 Z"/></g>
<g><path style="opacity:1" fill="#0062d4" d="M 58.5,35.5 C 65.9675,36.6744 67.3008,40.1744 62.5,46C 58.236,46.8688 55.5693,45.2021 54.5,41C 55.0359,38.4921 56.3692,36.6587 58.5,35.5 Z"/></g>
<g><path style="opacity:1" fill="#0062d4" d="M 40.5,63.5 C 43.8499,63.335 47.1832,63.5017 50.5,64C 53.885,64.881 55.5517,67.0477 55.5,70.5C 52.3365,68.5588 48.8365,67.2255 45,66.5C 40.7238,66.4771 39.2238,68.3104 40.5,72C 44.8632,72.8935 49.1965,73.8935 53.5,75C 57.9793,80.2577 56.9793,84.2577 50.5,87C 44.9688,88.3581 40.1355,87.1914 36,83.5C 35.51,82.2068 35.3433,80.8734 35.5,79.5C 38.8654,81.344 42.3654,83.0106 46,84.5C 48.7805,84.1053 50.9472,82.772 52.5,80.5C 52.0233,79.5224 51.3567,78.6891 50.5,78C 45.4343,77.5598 40.7677,76.0598 36.5,73.5C 35.4798,71.5675 35.3131,69.5675 36,67.5C 37.3968,65.9297 38.8968,64.5964 40.5,63.5 Z"/></g>
<g><path style="opacity:1" fill="#0062d4" d="M 68.5,63.5 C 79.1535,61.4996 84.8202,65.8329 85.5,76.5C 78.8333,76.5 72.1667,76.5 65.5,76.5C 65.4443,79.5608 66.7776,81.7275 69.5,83C 73.8995,84.3362 77.5662,83.3362 80.5,80C 81.7932,79.51 83.1266,79.3433 84.5,79.5C 83.7892,83.3819 81.4558,85.8819 77.5,87C 63.7782,87.9361 58.9448,81.7695 63,68.5C 64.7297,66.5981 66.563,64.9314 68.5,63.5 Z"/></g>
<g><path style="opacity:1" fill="#0062d4" d="M 97.5,63.5 C 100.518,63.3354 103.518,63.502 106.5,64C 107.931,64.4652 109.097,65.2986 110,66.5C 110.589,64.1367 112.089,63.1367 114.5,63.5C 114.666,72.5062 114.5,81.5062 114,90.5C 112.577,93.5918 110.243,95.5918 107,96.5C 105.667,96.5 104.333,96.5 103,96.5C 101.812,95.4366 101.312,94.1033 101.5,92.5C 108.35,93.7034 111.183,91.0368 110,84.5C 103.525,88.8582 97.5246,88.1915 92,82.5C 88.6451,74.5088 90.4784,68.1755 97.5,63.5 Z"/></g>
<g><path style="opacity:1" fill="#0062d4" d="M 120.5,63.5 C 121.833,63.5 123.167,63.5 124.5,63.5C 124.334,69.5092 124.501,75.5092 125,81.5C 128.333,85.5 131.667,85.5 135,81.5C 135.333,75.8333 135.667,70.1667 136,64.5C 137.011,63.6634 138.178,63.33 139.5,63.5C 139.5,71.5 139.5,79.5 139.5,87.5C 137.61,87.7035 136.11,87.0368 135,85.5C 130.409,88.3674 126.076,88.034 122,84.5C 120.616,77.5888 120.116,70.5888 120.5,63.5 Z"/></g>
<g><path style="opacity:1" fill="#0062d4" d="M 146.5,63.5 C 150.436,64.2093 154.436,64.2093 158.5,63.5C 158.67,64.8221 158.337,65.9887 157.5,67C 154.993,67.0929 152.826,67.9262 151,69.5C 150.667,75.1667 150.333,80.8333 150,86.5C 148.989,87.3366 147.822,87.67 146.5,87.5C 146.5,79.5 146.5,71.5 146.5,63.5 Z"/></g>
<g><path style="opacity:1" fill="#0062d4" d="M 168.5,63.5 C 179.9,62.2534 185.4,67.2534 185,78.5C 182.356,85.8325 177.189,88.6659 169.5,87C 161.377,83.6409 158.877,77.8076 162,69.5C 163.494,66.6865 165.66,64.6865 168.5,63.5 Z"/></g>
<g><path style="opacity:1" fill="#0081bc" d="M 71.5,66.5 C 76.5999,66.2775 79.5999,68.6108 80.5,73.5C 75.456,73.8275 70.456,73.4941 65.5,72.5C 66.5766,69.4228 68.5766,67.4228 71.5,66.5 Z"/></g>
<g><path style="opacity:1" fill="#0082bb" d="M 100.5,66.5 C 109.008,66.8329 112.175,71.1662 110,79.5C 105,84.8333 100,84.8333 95,79.5C 93.1016,73.3867 94.935,69.0534 100.5,66.5 Z"/></g>
<g><path style="opacity:1" fill="#0082bb" d="M 171.5,66.5 C 180.214,67.5953 183.048,72.262 180,80.5C 175.333,84.5 170.667,84.5 166,80.5C 163.155,73.8716 164.988,69.2049 171.5,66.5 Z"/></g>
</svg>
