<?xml version="1.0" encoding="UTF-8"?>
<svg version="1.1" xmlns="http://www.w3.org/2000/svg" width="600" height="600">
<path d="M0 0 C198 0 396 0 600 0 C600 198 600 396 600 600 C402 600 204 600 0 600 C0 402 0 204 0 0 Z " fill="#004994" transform="translate(0,0)"/>
<path d="M0 0 C198 0 396 0 600 0 C600 198 600 396 600 600 C402 600 204 600 0 600 C0 402 0 204 0 0 Z M30 30 C30 208.2 30 386.4 30 570 C208.2 570 386.4 570 570 570 C570 391.8 570 213.6 570 30 C391.8 30 213.6 30 30 30 Z " fill="#FFFFFF" transform="translate(0,0)"/>
<path d="M0 0 C21.12 0 42.24 0 64 0 C65.98 5.445 65.98 5.445 68 11 C68.8046056 13.12800166 69.6156676 15.2535918 70.4375 17.375 C70.85902344 18.46554688 71.28054687 19.55609375 71.71484375 20.6796875 C72.35099609 22.32324219 72.35099609 22.32324219 73 24 C73.83385552 26.16646575 74.66719152 28.33313154 75.5 30.5 C76.11875 32.10875 76.11875 32.10875 76.75 33.75 C79.66666667 41.33333333 82.58333333 48.91666667 85.5 56.5 C85.89453369 57.52552979 86.28906738 58.55105957 86.69555664 59.60766602 C87.47670869 61.63912918 88.2573279 63.67079753 89.03686523 65.70288086 C91.65675624 72.52781196 94.2953654 79.34532822 96.94140625 86.16015625 C97.30478592 87.09608109 97.66816559 88.03200592 98.04255676 88.99629211 C98.41837387 89.96423203 98.79419098 90.93217194 99.18139648 91.92944336 C107.99943182 114.6408713 116.77173308 137.3694893 125.50024414 160.11547852 C126.10879745 161.70025497 126.10879745 161.70025497 126.72964478 163.31704712 C127.48129301 165.27455608 128.23238172 167.23228004 128.98275757 169.1902771 C129.32223419 170.0742215 129.66171082 170.95816589 130.01147461 171.86889648 C130.33654999 172.71596161 130.66162537 173.56302673 130.99655151 174.4357605 C132.36898039 177.9429025 133.81308064 181.41997836 135.26905823 184.89320374 C136 187 136 187 136 190 C117.85 190 99.7 190 81 190 C78.55559651 183.88899129 76.16190946 177.83037185 74 171.625 C73.74653809 170.90111084 73.49307617 170.17722168 73.23193359 169.43139648 C67 151.5782289 67 151.5782289 67 149 C43.24 149.33 19.48 149.66 -5 150 C-5.99 153.3 -6.98 156.6 -8 160 C-8.73232251 161.84905351 -9.49776707 163.68574936 -10.3125 165.5 C-13.62326873 173.50744064 -16.25992162 181.77976487 -19 190 C-36.16 190 -53.32 190 -71 190 C-70.30428431 185.82570586 -69.8774185 183.28307953 -68.3125 179.625 C-66.46672727 175.17775773 -64.74105327 170.69964796 -63.0625 166.1875 C-61.23278397 161.28191391 -59.38686218 156.38400017 -57.5 151.5 C-55.66228094 146.73837011 -53.85288736 141.96706084 -52.0625 137.1875 C-51.81258301 136.52097412 -51.56266602 135.85444824 -51.30517578 135.16772461 C-50.00452376 131.69529201 -48.71080482 128.22043481 -47.42578125 124.7421875 C-47.16595459 124.04198486 -46.90612793 123.34178223 -46.63842773 122.62036133 C-45.92098701 120.68646052 -45.20648624 118.75146977 -44.4921875 116.81640625 C-43.44004994 114.04423364 -42.26876115 111.35022447 -41.0390625 108.65234375 C-38.88388949 103.86573615 -37.17498829 98.97142644 -35.5 94 C-33.57392185 88.28332968 -31.48910254 82.76193376 -28.98632812 77.27294922 C-27.25653735 73.28672344 -25.89337247 69.17581188 -24.5 65.0625 C-22.50860349 59.21106778 -20.40406021 53.44422824 -18.08007812 47.71655273 C-15.94698652 42.35151877 -13.98938785 36.91957477 -12 31.5 C-9.41646052 24.46181215 -6.82656305 17.43585242 -3.9921875 10.49414062 C-2.60879072 7.01658611 -1.31412009 3.50432025 0 0 Z " fill="#FCFDFD" transform="translate(117,206)"/>
<path d="M0 0 C12.54 0 25.08 0 38 0 C38.02578125 4.42019531 38.0515625 8.84039062 38.078125 13.39453125 C38.10985999 16.9466378 38.14551351 20.49865757 38.18379211 24.05069733 C38.22297139 27.78503658 38.2554459 31.51914336 38.27099609 35.25366211 C38.28627871 38.85904189 38.32092468 42.46378827 38.36830902 46.0688839 C38.38300457 47.4357416 38.39103413 48.8026898 38.39188385 50.16962624 C38.40340026 59.41700907 38.75010906 69.99140782 45.4375 77.1875 C51.48063997 80.26207999 57.92840039 80.04716859 64.4453125 78.37109375 C69.93859751 76.04219155 72.50578336 72.26090699 75 67 C78.08734871 59.23686281 78.4674414 51.83647146 78.51171875 43.5546875 C78.53864555 41.67814987 78.53864555 41.67814987 78.56611633 39.76370239 C78.61081283 36.47257359 78.64326927 33.18163706 78.66955566 29.89031982 C78.69958363 26.51789322 78.74588024 23.14569017 78.79101562 19.7734375 C78.87806105 13.18227726 78.93837601 6.59164212 79 0 C91.54 0 104.08 0 117 0 C117 36.3 117 72.6 117 110 C105.45 110 93.9 110 82 110 C81.505 101.09 81.505 101.09 81 92 C80.154375 93.19625 79.30875 94.3925 78.4375 95.625 C71.4763717 104.83060425 63.18770042 109.3576788 52 112 C38.83129427 113.29437128 26.49388978 113.12866817 15.4609375 105.16796875 C5.96639407 97.32801188 1.07484465 87.19115957 -0.22044373 74.9098587 C-0.54415053 69.53841972 -0.46092322 64.16697596 -0.390625 58.7890625 C-0.38314371 57.08271963 -0.37745974 55.37636804 -0.37347412 53.67001343 C-0.35836604 49.22789843 -0.31921674 44.78632551 -0.2746582 40.34442139 C-0.22609504 34.98864948 -0.20810067 29.63269402 -0.18484497 24.27676392 C-0.14635289 16.18413488 -0.06959791 8.09268989 0 0 Z " fill="#FCFDFD" transform="translate(369,286)"/>
<path d="M0 0 C166.98 0 333.96 0 506 0 C506 0.33 506 0.66 506 1 C487.31817801 2.12969991 468.63983101 3.07819719 449.93618774 3.76193237 C403.36574708 5.48205203 356.87686112 8.61638928 310.42749023 12.3371582 C307.86964963 12.54143802 305.31178892 12.74546633 302.75390625 12.94921875 C301.54477066 13.04558121 300.33563507 13.14194366 299.08985901 13.2412262 C291.40032015 13.842934 283.71313168 14.34835823 276.00672913 14.67448425 C271.09130914 14.89152687 266.25168187 15.37856346 261.375 16 C255.74820878 16.71360693 250.16555243 17.21935344 244.5 17.5 C238.06483339 17.81964953 231.72375934 18.45545261 225.33325195 19.26733398 C218.9964298 20.0523422 212.66893089 20.44054402 206.29296875 20.75390625 C203.2011774 20.89053178 203.2011774 20.89053178 201.05970764 21.48831177 C198.93487002 22.01618009 196.93261395 22.25370896 194.75170898 22.43310547 C193.91722733 22.50354568 193.08274567 22.5739859 192.22297668 22.64656067 C191.32310532 22.71936752 190.42323395 22.79217438 189.49609375 22.8671875 C187.55158888 23.0306069 185.60709043 23.19410273 183.66259766 23.35766602 C182.64578918 23.44202911 181.62898071 23.52639221 180.58135986 23.61331177 C162.35193953 25.13069008 144.15951645 26.78321797 126 29 C124.99501465 29.1222998 123.9900293 29.24459961 122.95458984 29.37060547 C116.9557733 30.10482319 110.95989095 30.86069119 104.96484375 31.625 C101.94611799 32.00681512 98.92641019 32.37971216 95.90625 32.75 C94.8855542 32.87568359 93.8648584 33.00136719 92.81323242 33.13085938 C90.9281536 33.36275582 89.04292122 33.59341094 87.1574707 33.82226562 C72.7319135 35.60638661 58.35781177 37.75901192 44.00390625 40.04296875 C42.90349503 40.21800934 41.8030838 40.39304993 40.66932678 40.57339478 C36.14194456 41.29490128 31.61484338 42.01806303 27.08862305 42.74682617 C23.72769482 43.28716604 20.3658905 43.82174463 17.00390625 44.35546875 C15.98518936 44.52104782 14.96647247 44.68662689 13.91688538 44.85722351 C12.96406174 45.00770645 12.0112381 45.15818939 11.02954102 45.31323242 C10.20019547 45.44630295 9.37084991 45.57937347 8.51637268 45.71647644 C5.69386823 46.03449233 2.84036362 46 0 46 C0 30.82 0 15.64 0 0 Z " fill="#009EE2" transform="translate(30,412)"/>
<path d="M0 0 C30.69 0 61.38 0 93 0 C93 10.23 93 20.46 93 31 C87.41903172 36.58096828 87.41903172 36.58096828 85.06494141 38.91918945 C82.19809468 41.76815848 79.33436347 44.620237 76.47167969 47.47338867 C75.2450428 48.69499836 74.01750968 49.91570881 72.7890625 51.13549805 C64.814613 58.97823788 64.814613 58.97823788 57.2734375 67.23046875 C53.09340414 72.04399165 48.50791978 76.49208022 44 81 C68.75 81.495 68.75 81.495 94 82 C94 91.24 94 100.48 94 110 C62.65 110 31.3 110 -1 110 C-1 79 -1 79 6.0625 70.0625 C10.03515625 66.97265625 10.03515625 66.97265625 12.0703125 65.51269531 C14.71289979 63.44115295 16.6976748 61.00183259 18.8503418 58.43823242 C21.62689416 55.28895037 24.57697936 52.34097528 27.5546875 49.3828125 C28.14573776 48.79505539 28.73678802 48.20729828 29.3457489 47.60173035 C31.18690767 45.77419892 33.03053599 43.94919518 34.875 42.125 C37.33359071 39.69296814 39.78886303 37.25765523 42.2421875 34.8203125 C42.80565887 34.26513947 43.36913025 33.70996643 43.94967651 33.13796997 C46.83413106 30.34276325 46.83413106 30.34276325 49 27 C32.83 27 16.66 27 0 27 C0 18.09 0 9.18 0 0 Z " fill="#FBFCFD" transform="translate(263,286)"/>
<path d="M0 0 C12.21 0 24.42 0 37 0 C37 52.14 37 104.28 37 158 C24.79 158 12.58 158 0 158 C0 105.86 0 53.72 0 0 Z " fill="#FEFEFE" transform="translate(504,237)"/>
<path d="M0 0 C30.15306122 0 30.15306122 0 36.85546875 5.53125 C40.63184598 9.84710969 41.29451714 13.1684246 41.21484375 18.68359375 C40.78323385 23.33713319 38.93414672 26.13771072 35.5625 29.25 C33.41469146 30.71679608 31.37186948 31.94583579 29 33 C29.76078857 33.70358643 30.52157715 34.40717285 31.30541992 35.13208008 C33.98411181 37.98308973 35.4519194 40.37103553 37.11328125 43.88671875 C37.9012207 45.5409082 37.9012207 45.5409082 38.70507812 47.22851562 C39.23552734 48.36998047 39.76597656 49.51144531 40.3125 50.6875 C40.86228516 51.84056641 41.41207031 52.99363281 41.97851562 54.18164062 C46 62.69919449 46 62.69919449 46 65 C42.37 65 38.74 65 35 65 C34.69296143 64.25838623 34.38592285 63.51677246 34.06958008 62.75268555 C32.66682909 59.39056145 31.24003067 56.03917342 29.8125 52.6875 C29.32974609 51.52025391 28.84699219 50.35300781 28.34960938 49.15039062 C27.86943359 48.03212891 27.38925781 46.91386719 26.89453125 45.76171875 C26.45987549 44.73006592 26.02521973 43.69841309 25.57739258 42.63549805 C23.63959672 39.39784037 22.49990257 38.42939051 19 37 C15.7 36.67 12.4 36.34 9 36 C9 45.57 9 55.14 9 65 C6.03 65 3.06 65 0 65 C0 43.55 0 22.1 0 0 Z " fill="#F3F6FA" transform="translate(338,474)"/>
<path d="M0 0 C2.64167013 2.29558373 3.60659428 4.17372056 4.578125 7.515625 C4.84826416 8.42538086 5.11840332 9.33513672 5.39672852 10.27246094 C5.67830811 11.25504883 5.9598877 12.23763672 6.25 13.25 C6.86826699 15.34381574 7.486763 17.43756387 8.10546875 19.53125 C8.41919434 20.60503906 8.73291992 21.67882812 9.05615234 22.78515625 C10.52375908 27.78397816 12.04297359 32.76676628 13.5625 37.75 C13.84843018 38.69439941 14.13436035 39.63879883 14.42895508 40.61181641 C15.83751884 45.25212042 17.27473103 49.88014603 18.7734375 54.4921875 C19.19387329 55.7920459 19.19387329 55.7920459 19.62280273 57.11816406 C20.14969595 58.73942255 20.68265965 60.35872618 21.22290039 61.97558594 C22.51195998 65.94505695 23 68.74521997 23 73 C7.82 73 -7.36 73 -23 73 C-21.87513755 64.00110038 -21.87513755 64.00110038 -20.3894043 59.72412109 C-20.06203781 58.76887543 -19.73467133 57.81362976 -19.39738464 56.82943726 C-19.0432399 55.82095734 -18.68909515 54.81247742 -18.32421875 53.7734375 C-17.95778763 52.70815826 -17.59135651 51.64287903 -17.21382141 50.5453186 C-16.04572096 47.15262454 -14.86732011 43.76363447 -13.6875 40.375 C-12.1449457 35.92612371 -10.60740137 31.47555194 -9.07421875 27.0234375 C-8.70851776 25.96356628 -8.34281677 24.90369507 -7.96603394 23.81170654 C-5.63896385 17.01655761 -3.51111092 10.20940124 -1.66723633 3.26806641 C-1 1 -1 1 0 0 Z " fill="#064D96" transform="translate(148,246)"/>
<path d="M0 0 C6.81846739 4.89975717 11.47749888 11.8844163 12.87402344 20.26928711 C13.06364128 22.88606343 13.11474482 25.45478531 13.08203125 28.078125 C13.06946289 29.45798584 13.06946289 29.45798584 13.05664062 30.86572266 C12.76360405 39.7113746 10.50446354 46.30863111 4.48828125 52.93359375 C-3.34082108 60.23573727 -11.00483237 62.08725288 -21.47265625 61.984375 C-28.25642438 61.5010531 -34.33117937 59.16669158 -39.54296875 54.765625 C-46.48687368 46.30699571 -48.78019099 38.46181832 -48.91796875 27.703125 C-48.9319873 26.94717041 -48.94600586 26.19121582 -48.96044922 25.41235352 C-48.88814091 16.89017094 -45.98738221 9.40278088 -40.01171875 3.16796875 C-29.12915847 -6.89839951 -12.54499878 -7.3450882 0 0 Z M-34.875 11.39453125 C-38.72174327 16.81803148 -38.78255069 21.58008649 -38.85546875 27.953125 C-38.88447266 28.77876953 -38.91347656 29.60441406 -38.94335938 30.45507812 C-39.01629035 37.57426358 -37.27841097 42.70465991 -32.5078125 48.04296875 C-31.50427734 48.86474609 -31.50427734 48.86474609 -30.48046875 49.703125 C-29.80886719 50.26902344 -29.13726562 50.83492187 -28.4453125 51.41796875 C-23.96864288 54.58932608 -18.7993472 54.31933846 -13.54296875 53.765625 C-7.67658919 51.98947202 -4.0185575 48.83005432 -0.54296875 43.765625 C2.2281862 38.33793709 3.00629656 33.95729579 2.95703125 27.890625 C2.95276123 27.0970459 2.94849121 26.3034668 2.9440918 25.48583984 C2.71671977 17.66520629 0.57888825 12.73519629 -5.10546875 7.328125 C-15.43407517 0.70722345 -27.04337666 1.81744347 -34.875 11.39453125 Z " fill="#F5F8FA" transform="translate(443.54296875,478.234375)"/>
<path d="M0 0 C0 2.97 0 5.94 0 9 C-1.216875 8.67 -2.43375 8.34 -3.6875 8 C-12.21192343 6.11763521 -21.79683548 5.80215621 -30 9 C-34.39795291 11.94790322 -38.80936485 15.56816927 -40.59765625 20.72265625 C-41.9862897 28.58259124 -42.53309164 37.44063298 -38.19140625 44.4296875 C-34.37241385 49.4632447 -30.17194765 53.34631564 -24 55 C-18.6569104 55.4643222 -13.35985913 55.17866197 -8 55 C-8 48.4 -8 41.8 -8 35 C-12.29 35 -16.58 35 -21 35 C-21 32.69 -21 30.38 -21 28 C-13.74 28 -6.48 28 1 28 C1 38.89 1 49.78 1 61 C-10.47289126 64.82429709 -23.69097627 66.2842164 -35 61 C-41.4940313 57.36240976 -45.34916046 52.39478264 -49 46 C-49.36351562 45.37351562 -49.72703125 44.74703125 -50.1015625 44.1015625 C-53.30010376 36.6197573 -53.41058199 26.29723729 -50.90625 18.66796875 C-47.95351006 12.42480851 -44.51421044 7.20556415 -39 3 C-38.37480469 2.4946875 -37.74960938 1.989375 -37.10546875 1.46875 C-27.26308582 -4.91549839 -10.76192598 -3.70638944 0 0 Z " fill="#F5F8FB" transform="translate(249,476)"/>
<path d="M0 0 C3.3 0 6.6 0 10 0 C10.0746515 5.94072787 10.12883772 11.8811773 10.16479492 17.82226562 C10.17979884 19.83956667 10.20020855 21.85683556 10.22631836 23.87402344 C10.26307353 26.78849263 10.27981068 29.70252726 10.29296875 32.6171875 C10.30845261 33.50614716 10.32393646 34.39510681 10.33988953 35.31100464 C10.34218145 44.01104499 8.57323228 52.11541895 3 59 C-4.37515633 65.47574702 -10.14437956 66.38211761 -19.7734375 66.2734375 C-26.01219039 65.74472963 -30.04325381 63.2900021 -34.3125 58.8125 C-39.76247566 51.67059864 -40.43712601 44.00905457 -40.29296875 35.27734375 C-40.28872391 34.29125626 -40.28447906 33.30516876 -40.28010559 32.28919983 C-40.26345171 29.17167651 -40.2258248 26.0548245 -40.1875 22.9375 C-40.17243597 20.81055628 -40.15875059 18.68360232 -40.14648438 16.55664062 C-40.11359182 11.37083918 -40.0619026 6.185533 -40 1 C-37.03 1 -34.06 1 -31 1 C-30.98018066 2.27117676 -30.96036133 3.54235352 -30.93994141 4.85205078 C-30.86369114 9.58222783 -30.77500371 14.31210505 -30.68261719 19.04199219 C-30.64440761 21.08652819 -30.6095409 23.13112957 -30.578125 25.17578125 C-30.53230013 28.12002886 -30.4743344 31.06382948 -30.4140625 34.0078125 C-30.40251129 34.9174173 -30.39096008 35.82702209 -30.37905884 36.76419067 C-30.20885371 44.13477128 -29.12375721 49.39589055 -24 55 C-21.32344199 56.33827901 -19.17565948 56.20578556 -16.1875 56.25 C-15.14980469 56.27578125 -14.11210937 56.3015625 -13.04296875 56.328125 C-9.58643322 55.95540487 -7.77886557 55.05118372 -5 53 C-2.14789449 48.92556356 -0.89165881 45.4745994 -0.79467773 40.52856445 C-0.77473251 39.62785721 -0.75478729 38.72714996 -0.73423767 37.79914856 C-0.71752518 36.83031235 -0.70081268 35.86147614 -0.68359375 34.86328125 C-0.66281265 33.86870407 -0.64203156 32.87412689 -0.62062073 31.84941101 C-0.55520588 28.67051133 -0.4962776 25.49152866 -0.4375 22.3125 C-0.39430712 20.15819452 -0.35069258 18.00389746 -0.30664062 15.84960938 C-0.19953269 10.56649142 -0.09824234 5.28328995 0 0 Z " fill="#F1F5F9" transform="translate(310,474)"/>
<path d="M0 0 C11.88 0 23.76 0 36 0 C36 2.97 36 5.94 36 9 C27.09 9 18.18 9 9 9 C9 14.94 9 20.88 9 27 C17.25 27 25.5 27 34 27 C34 29.97 34 32.94 34 36 C25.75 36 17.5 36 9 36 C9 42.6 9 49.2 9 56 C17.91 56 26.82 56 36 56 C36 58.97 36 61.94 36 65 C24.12 65 12.24 65 0 65 C0 43.55 0 22.1 0 0 Z " fill="#ECF1F7" transform="translate(147,474)"/>
<path d="M0 0 C0 2.97 0 5.94 0 9 C-1.01900391 8.76023437 -1.01900391 8.76023437 -2.05859375 8.515625 C-5.42980239 7.92465615 -8.64029681 7.79392132 -12.0625 7.75 C-13.87427734 7.71132813 -13.87427734 7.71132813 -15.72265625 7.671875 C-19.21641808 8.0216676 -20.61860682 8.45477633 -23 11 C-23.44676288 15.09532636 -23.60284064 18.65349061 -21 22 C-19.3424994 22.68914003 -17.67360788 23.35095539 -16 24 C-8.29644023 27.6541291 -1.91512144 30.90038014 3 38 C4.85804418 43.57413253 4.80631384 48.94275568 2.3125 54.3125 C-0.97923959 60.07304429 -5.31900325 62.58239402 -11.54296875 64.4609375 C-19.24239916 66.15016071 -25.78539059 64.92766759 -33 62 C-33 59.36 -33 56.72 -33 54 C-31.71802734 54.23976563 -31.71802734 54.23976563 -30.41015625 54.484375 C-27.04427241 54.99330589 -23.83960015 55.20180023 -20.4375 55.25 C-18.79587891 55.28867187 -18.79587891 55.28867187 -17.12109375 55.328125 C-13.35338084 54.93202001 -10.69741577 53.69741577 -8 51 C-7.30686984 47.52781025 -7.20501129 44.45899059 -8 41 C-10.54918707 38.19282291 -13.63700022 36.68633179 -17 35 C-29.0923524 28.67752005 -29.0923524 28.67752005 -32 24 C-32.66 23.01 -33.32 22.02 -34 21 C-34.69454003 15.85555813 -34.62897917 11.358595 -32.4375 6.625 C-23.28891582 -3.22732143 -12.53749912 -3.85769204 0 0 Z " fill="#F1F5F9" transform="translate(502,475)"/>
<path d="M0 0 C0 2.97 0 5.94 0 9 C-0.67933594 8.84144531 -1.35867187 8.68289063 -2.05859375 8.51953125 C-5.42534363 7.9248729 -8.6442051 7.75696268 -12.0625 7.6875 C-13.27035156 7.65011719 -14.47820312 7.61273438 -15.72265625 7.57421875 C-19.0573214 7.73695906 -19.0573214 7.73695906 -21.4296875 9.80078125 C-23.3309886 12.02449838 -23.3309886 12.02449838 -23.0625 15.5 C-21.77996604 19.72481775 -20.56073322 20.50503107 -17 23 C-14.89392709 24.11968433 -12.76748002 25.20166061 -10.625 26.25 C-4.26443517 29.58893596 0.73876661 33.47753323 4 40 C4.78338033 46.64754162 4.48651437 51.8503356 0.484375 57.34765625 C-4.15750773 62.51480466 -9.78899552 64.64067776 -16.609375 65.22265625 C-22.81280788 65.41972663 -27.35315932 64.55705993 -33 62 C-32.67 59.36 -32.34 56.72 -32 54 C-30.96359375 54.23976563 -30.96359375 54.23976563 -29.90625 54.484375 C-26.72935694 55.04801732 -23.72582211 55.20477819 -20.5 55.25 C-18.84484375 55.28867187 -18.84484375 55.28867187 -17.15625 55.328125 C-13.61854032 54.9603433 -11.82261564 54.12690052 -9 52 C-6.4900028 48.23500419 -6.38523256 46.45706394 -7 42 C-11.11223007 38.00705599 -15.44459017 35.60336798 -20.5625 33.125 C-27.44765988 29.63406219 -31.44994146 26.65017563 -34 19 C-34.69504475 12.16539326 -33.27832662 8.35409083 -29 3 C-21.51364138 -4.48635862 -9.20343882 -2.72694484 0 0 Z " fill="#F2F5F9" transform="translate(127,475)"/>
<path d="M0 0 C2.206875 -0.061875 4.41375 -0.12375 6.6875 -0.1875 C8.54955078 -0.23970703 8.54955078 -0.23970703 10.44921875 -0.29296875 C15.20179198 0.09915775 17.68203836 1.68203836 21 5 C21.46327182 9.09223437 21.4484975 11.27920044 19.25 14.8125 C16.09986489 17.87513136 14.20664746 18.92713482 9.765625 19.1953125 C8.60546875 19.17210937 7.4453125 19.14890625 6.25 19.125 C3.15625 19.063125 3.15625 19.063125 0 19 C0 12.73 0 6.46 0 0 Z " fill="#034B95" transform="translate(348,483)"/>
</svg>
