<?xml version="1.0" encoding="UTF-8"?>
<svg version="1.1" xmlns="http://www.w3.org/2000/svg" width="585" height="151">
<path d="M0 0 C1.49832961 1.24818259 2.9786466 2.51839871 4.4375 3.8125 C11.65070326 9.27632174 21.71227113 7.84832501 30.34082031 7.94189453 C42.47162843 8.2069636 54.29797401 11.50297992 64 19 C64.93392578 19.70189453 64.93392578 19.70189453 65.88671875 20.41796875 C76.98493592 29.31768195 82.4059669 42.08980546 84 56 C84.95973617 73.4413593 82.40349829 89.56503691 70.8125 103.3125 C60.22241875 114.32689169 46.49848178 119.73791157 31.27563477 120.05712891 C29.81275024 120.06365479 29.81275024 120.06365479 28.3203125 120.0703125 C12.82140881 120.07240741 12.82140881 120.07240741 0 128 C-16.40308538 137.57063964 -37.03424334 139.85682395 -55.375 135.4375 C-73.63992829 130.46982216 -89.32955375 119.11698092 -99.25 102.9375 C-100.17897248 101.29858107 -101.09657246 99.65313757 -102 98 C-102.38027344 97.34386719 -102.76054687 96.68773438 -103.15234375 96.01171875 C-112.0544369 79.78639425 -111.69400297 59.38100697 -107 42 C-100.51907927 22.39106035 -87.37041779 7.59701384 -69.375 -2.25 C-47.16879091 -12.72354707 -21.59886767 -11.41918157 0 0 Z M25 25 C25.38671875 25.76441406 25.7734375 26.52882812 26.171875 27.31640625 C35.39173139 46.28101185 38.55247684 66.24678633 32.22265625 86.7109375 C30.66935678 90.88946196 28.93473524 94.93271724 26.953125 98.92578125 C25.86082055 100.92243237 25.86082055 100.92243237 26 103 C36.44944975 102.60268252 45.38596525 100.5197898 53.1796875 93.18359375 C62.21044836 82.35055658 64.09578432 69.62881749 63 56 C61.01045367 45.74705385 57.23526941 36.66984802 48.5 30.5625 C42.96169701 27.04086169 37.63875473 25.77380131 31.125 25.375 C29.97257813 25.30023438 28.82015625 25.22546875 27.6328125 25.1484375 C26.32957031 25.07496094 26.32957031 25.07496094 25 25 Z " fill="#FE0E70" transform="translate(498,11)"/>
<path d="M0 0 C15.22125 -0.12375 15.22125 -0.12375 30.75 -0.25 C33.92979492 -0.28641602 37.10958984 -0.32283203 40.38574219 -0.36035156 C42.93944628 -0.37204695 45.4931579 -0.38223676 48.046875 -0.390625 C49.3457666 -0.41108887 50.6446582 -0.43155273 51.98291016 -0.45263672 C66.99111078 -0.45831519 79.859802 4.45638616 90.86328125 14.7109375 C102.39914188 27.0692818 105.48465833 42.37003224 105.2109375 58.80078125 C104.67017878 73.37122461 99.59616744 86.21696608 89.47265625 96.74609375 C77.39302838 107.75706576 63.91740055 110.64319642 47.94921875 110.390625 C46.72384399 110.38659668 45.49846924 110.38256836 44.23596191 110.37841797 C39.71965255 110.35771058 35.20355899 110.30186784 30.6875 110.25 C20.560625 110.1675 10.43375 110.085 0 110 C0 73.7 0 37.4 0 0 Z M46 16 C46.38671875 16.76441406 46.7734375 17.52882813 47.171875 18.31640625 C56.39173139 37.28101185 59.55247684 57.24678633 53.22265625 77.7109375 C51.66935678 81.88946196 49.93473524 85.93271724 47.953125 89.92578125 C46.86082055 91.92243237 46.86082055 91.92243237 47 94 C57.44944975 93.60268252 66.38596525 91.5197898 74.1796875 84.18359375 C83.21044836 73.35055658 85.09578432 60.62881749 84 47 C82.01045367 36.74705385 78.23526941 27.66984802 69.5 21.5625 C63.96169701 18.04086169 58.63875473 16.77380131 52.125 16.375 C50.97257813 16.30023438 49.82015625 16.22546875 48.6328125 16.1484375 C47.32957031 16.07496094 47.32957031 16.07496094 46 16 Z " fill="#0A0708" transform="translate(477,20)"/>
<path d="M0 0 C8.58 0 17.16 0 26 0 C29.62661791 5.80258865 31.78522509 9.48059743 33.75 15.6875 C33.95753906 16.32494141 34.16507813 16.96238281 34.37890625 17.61914062 C41.06929834 38.5320114 36.46171912 58.86152269 27 78 C18.09 78 9.18 78 0 78 C0 52.26 0 26.52 0 0 Z " fill="#FF0D70" transform="translate(497,36)"/>
<path d="M0 0 C5.775 -0.04125 11.55 -0.0825 17.5 -0.125 C19.30662109 -0.14320801 21.11324219 -0.16141602 22.97460938 -0.18017578 C24.43098658 -0.18602532 25.88736709 -0.19111978 27.34375 -0.1953125 C28.08012695 -0.20554443 28.81650391 -0.21577637 29.57519531 -0.22631836 C38.9576354 -0.22942513 47.57932758 2.28846211 54.76171875 8.53125 C62.20421346 16.47990934 64.11751593 26.38439469 64 37 C63.13941055 46.38704496 59.83264343 54.01267417 52.91015625 60.46484375 C38.43841508 72.0955069 16.57901684 68 0 68 C0 45.56 0 23.12 0 0 Z M12 11 C12 26.18 12 41.36 12 57 C29.45203673 58.04094548 29.45203673 58.04094548 43.75 52.3125 C49.64396426 46.25481451 51.09468154 39.29646954 51 31 C50.43300772 24.63146172 48.49164036 19.59868348 44 15 C37.65145473 10.30238818 31.10694436 10.51526906 23.5 10.75 C19.705 10.8325 15.91 10.915 12 11 Z " fill="#151515" transform="translate(5,7)"/>
<path d="M0 0 C4.29 0 8.58 0 13 0 C15.25939503 5.88256903 17.2880602 11.80464227 19.1875 17.8125 C19.46013672 18.65748047 19.73277344 19.50246094 20.01367188 20.37304688 C20.27083984 21.18451172 20.52800781 21.99597656 20.79296875 22.83203125 C21.0252417 23.56139893 21.25751465 24.2907666 21.49682617 25.04223633 C22 27 22 27 22 30 C22.66 30 23.32 30 24 30 C24.12761719 29.29262695 24.25523437 28.58525391 24.38671875 27.85644531 C25.01784008 24.91690728 25.86390723 22.149267 26.8125 19.296875 C27.16570312 18.2346875 27.51890625 17.1725 27.8828125 16.078125 C28.25148437 14.97984375 28.62015625 13.8815625 29 12.75 C29.55300781 11.079375 29.55300781 11.079375 30.1171875 9.375 C30.47039062 8.31796875 30.82359375 7.2609375 31.1875 6.171875 C31.51105469 5.2034668 31.83460938 4.23505859 32.16796875 3.23730469 C33 1 33 1 34 0 C35.85287502 -0.07226502 37.70833878 -0.0838122 39.5625 -0.0625 C40.57441406 -0.05347656 41.58632812 -0.04445313 42.62890625 -0.03515625 C43.41136719 -0.02355469 44.19382813 -0.01195313 45 0 C47.60776403 6.24329387 49.97201716 12.56793552 52.25 18.9375 C52.52021973 19.68314209 52.79043945 20.42878418 53.06884766 21.19702148 C54.15124003 24.25173462 55 26.73423672 55 30 C55.66 30 56.32 30 57 30 C57.26683594 28.7315625 57.53367188 27.463125 57.80859375 26.15625 C58.98611841 20.86102015 60.4896106 15.68938693 62.0625 10.5 C62.4656543 9.14261719 62.4656543 9.14261719 62.87695312 7.7578125 C63.13541016 6.89929687 63.39386719 6.04078125 63.66015625 5.15625 C64.01025757 3.99319336 64.01025757 3.99319336 64.36743164 2.80664062 C65 1 65 1 66 0 C68.18639453 -0.07258946 70.37500389 -0.08373783 72.5625 -0.0625 C74.35880859 -0.04896484 74.35880859 -0.04896484 76.19140625 -0.03515625 C77.11824219 -0.02355469 78.04507813 -0.01195313 79 0 C76.44507782 8.96060836 73.36942738 17.72279263 70.27441406 26.50756836 C69.36658902 29.08639274 68.46436768 31.66713388 67.5625 34.24804688 C66.98731287 35.88553392 66.41180401 37.522908 65.8359375 39.16015625 C65.56615082 39.93295425 65.29636414 40.70575226 65.0184021 41.50196838 C63.11475926 46.88524074 63.11475926 46.88524074 62 48 C58.04 48 54.08 48 50 48 C46.7 38.43 43.4 28.86 40 19 C37.99195462 22.01206807 37.00140191 24.56732298 35.8359375 27.98046875 C35.43632812 29.14384766 35.03671875 30.30722656 34.625 31.50585938 C34.00625 33.32827148 34.00625 33.32827148 33.375 35.1875 C32.95476562 36.41404297 32.53453125 37.64058594 32.1015625 38.90429688 C31.06385293 41.93488052 30.03142476 44.96727164 29 48 C25.04 48 21.08 48 17 48 C13.13338336 39.00419803 9.73468812 29.91480031 6.49584961 20.67822266 C5.67602173 18.34229508 4.84906866 16.00897069 4.02148438 13.67578125 C3.49697606 12.18764789 2.97287192 10.69937199 2.44921875 9.2109375 C2.20241867 8.51519623 1.95561859 7.81945496 1.70133972 7.10263062 C0 2.23022485 0 2.23022485 0 0 Z " fill="#1A1A1A" transform="translate(158,27)"/>
<path d="M0 0 C3.98431904 2.5496523 5.54668494 5.92911731 6.99609375 10.27734375 C7.14499122 12.12200817 7.24400385 13.9709165 7.3125 15.8203125 C7.35439453 16.89345703 7.39628906 17.96660156 7.43945312 19.07226562 C7.47876953 20.19181641 7.51808594 21.31136719 7.55859375 22.46484375 C7.60177734 23.59599609 7.64496094 24.72714844 7.68945312 25.89257812 C7.79558474 28.68737729 7.8976376 31.48226537 7.99609375 34.27734375 C9.31609375 34.60734375 10.63609375 34.93734375 11.99609375 35.27734375 C11.99609375 38.90734375 11.99609375 42.53734375 11.99609375 46.27734375 C10.09942849 46.1896192 8.20370382 46.08143074 6.30859375 45.96484375 C4.72498047 45.87783203 4.72498047 45.87783203 3.109375 45.7890625 C-0.00390625 45.27734375 -0.00390625 45.27734375 -2.6484375 43.625 C-4.87540007 41.98481734 -4.87540007 41.98481734 -7.06640625 42.82421875 C-7.70578125 43.22125 -8.34515625 43.61828125 -9.00390625 44.02734375 C-14.87249956 47.36202107 -20.5980652 48.29120903 -27.3125 46.74609375 C-32.93845052 45.04629918 -36.28575174 43.22275148 -39.31640625 38.02734375 C-40.55334142 33.07960308 -39.95697863 28.95475114 -37.44140625 24.52734375 C-28.99811596 16.73353732 -16.11363825 14.99137896 -5.00390625 15.27734375 C-6.69198533 11.04649472 -6.69198533 11.04649472 -10.00390625 8.27734375 C-13.38669872 7.85823672 -16.62875751 7.76972138 -20.00390625 8.27734375 C-20.78765625 9.10234375 -21.57140625 9.92734375 -22.37890625 10.77734375 C-25.64894147 13.89166301 -26.90909942 13.61555733 -31.31640625 13.58984375 C-33.21340921 13.50975315 -35.11008461 13.41326396 -37.00390625 13.27734375 C-36.59004872 8.00066022 -35.99150122 4.87590506 -32.00390625 1.27734375 C-22.33620966 -4.5119227 -10.15694594 -4.68653827 0 0 Z M-25.62890625 29.21484375 C-27.21259333 31.15919815 -27.21259333 31.15919815 -26.94140625 33.40234375 C-26.02587073 35.62102333 -26.02587073 35.62102333 -23.00390625 37.27734375 C-17.10619738 37.97119185 -12.80080301 36.61572461 -8.00390625 33.27734375 C-5.28744422 29.88176621 -5.00390625 28.71066815 -5.00390625 24.27734375 C-12.69397184 23.91115015 -19.28126067 24.52967677 -25.62890625 29.21484375 Z " fill="#1A1A1A" transform="translate(110.00390625,28.72265625)"/>
<path d="M0 0 C5.12218406 3.13603106 8.25893403 7.07854216 10.0625 12.875 C10.22777522 15.62692123 10.29615572 18.27163188 10.2578125 21.01953125 C10.2549826 21.78931808 10.25215271 22.55910492 10.24923706 23.35221863 C10.23809157 25.79747425 10.21299781 28.24235612 10.1875 30.6875 C10.1774629 32.35090615 10.16833833 34.01431807 10.16015625 35.67773438 C10.13817073 39.74363237 10.10368014 43.80925294 10.0625 47.875 C6.1025 47.875 2.1425 47.875 -1.9375 47.875 C-1.96255615 46.96210205 -1.9876123 46.0492041 -2.01342773 45.10864258 C-2.10881607 41.70732369 -2.20803402 38.30616061 -2.30981445 34.9050293 C-2.35300705 33.43567232 -2.39469256 31.9662702 -2.43481445 30.49682617 C-2.49289882 28.37925645 -2.55648098 26.26191063 -2.62109375 24.14453125 C-2.67608032 22.23571167 -2.67608032 22.23571167 -2.73217773 20.28833008 C-2.9075792 17.37241104 -3.27142883 14.71232095 -3.9375 11.875 C-9.15569426 9.65726744 -12.50924844 9.64926578 -17.9375 10.875 C-21.6823847 13.33873993 -22.49884755 16.10092216 -23.50927734 20.36303711 C-24.38344132 25.49090092 -24.41980984 30.68464556 -24.5625 35.875 C-24.62050781 37.60943359 -24.62050781 37.60943359 -24.6796875 39.37890625 C-24.77330032 42.21069418 -24.85645883 45.04282441 -24.9375 47.875 C-28.8975 47.875 -32.8575 47.875 -36.9375 47.875 C-36.9375 32.035 -36.9375 16.195 -36.9375 -0.125 C-32.9775 -0.125 -29.0175 -0.125 -24.9375 -0.125 C-24.6075 1.195 -24.2775 2.515 -23.9375 3.875 C-23.174375 3.235625 -22.41125 2.59625 -21.625 1.9375 C-15.85545575 -2.49028977 -6.74605691 -2.53163284 0 0 Z " fill="#171717" transform="translate(298.9375,27.125)"/>
<path d="M0 0 C1.8984375 1.1015625 1.8984375 1.1015625 4.4609375 3.1015625 C4.7909375 2.1115625 5.1209375 1.1215625 5.4609375 0.1015625 C8.1009375 0.1015625 10.7409375 0.1015625 13.4609375 0.1015625 C13.53702023 7.55795758 13.58955127 15.0142525 13.62573242 22.47094727 C13.64081613 25.00744365 13.66128581 27.54391398 13.68725586 30.08032227 C13.72365631 33.72679072 13.74066832 37.37291423 13.75390625 41.01953125 C13.76939011 42.15303513 13.78487396 43.286539 13.80082703 44.45439148 C13.80105362 45.51511368 13.80128021 46.57583588 13.80151367 47.66870117 C13.80817551 48.59913742 13.81483734 49.52957367 13.82170105 50.48820496 C13.38546951 53.64824979 12.31683989 55.52905198 10.4609375 58.1015625 C7.23490205 59.71458023 3.71383712 59.22209849 0.171875 59.19921875 C-1.05576065 59.19709633 -1.05576065 59.19709633 -2.30819702 59.19493103 C-4.92685575 59.1893254 -7.54542954 59.17677198 -10.1640625 59.1640625 C-11.93749877 59.15904822 -13.71093637 59.15448519 -15.484375 59.15039062 C-19.83597032 59.13935414 -24.187502 59.12208575 -28.5390625 59.1015625 C-28.5390625 57.1215625 -28.5390625 55.1415625 -28.5390625 53.1015625 C-17.6490625 52.7715625 -6.7590625 52.4415625 4.4609375 52.1015625 C4.7909375 47.4815625 5.1209375 42.8615625 5.4609375 38.1015625 C4.5328125 38.7409375 3.6046875 39.3803125 2.6484375 40.0390625 C-3.43346601 43.97441183 -9.48175628 43.69454326 -16.5390625 43.1015625 C-22.48977712 41.44595827 -26.11949506 38.13033815 -29.5390625 33.1015625 C-32.81502243 26.54964263 -32.6364028 17.65938323 -30.4765625 10.7265625 C-28.29773377 5.74638254 -24.22556767 2.83709239 -19.7734375 -0.0390625 C-14.16760985 -2.19515006 -5.67111974 -2.00670391 0 0 Z M-21.9140625 11.6015625 C-24.3089196 16.75971625 -24.30628951 21.50847761 -23.5390625 27.1015625 C-21.5562002 31.13810361 -19.37326389 33.7515681 -15.5390625 36.1015625 C-10.83383695 37.66997102 -7.01257434 37.65051789 -2.3515625 35.9140625 C1.26854796 33.58110243 3.53866128 30.94611495 5.4609375 27.1015625 C6.14263293 19.73701675 6.21028542 13.97575598 1.4609375 8.1015625 C-6.97868115 2.01718626 -15.20499737 4.53938867 -21.9140625 11.6015625 Z " fill="#292929" transform="translate(126.5390625,84.8984375)"/>
<path d="M0 0 C5.12818461 3.11197528 7.15996894 6.77492236 9.375 12.3125 C9.375 15.9425 9.375 19.5725 9.375 23.3125 C-1.845 23.3125 -13.065 23.3125 -24.625 23.3125 C-22.49369205 30.57521708 -22.49369205 30.57521708 -17.625 34.3125 C-12.89300479 35.88983174 -9.06888532 35.84007348 -4.375 34.125 C-1.45492593 32.52430069 -1.45492593 32.52430069 -0.25 29.625 C0.28625 28.861875 0.8225 28.09875 1.375 27.3125 C4.16541005 26.85578618 6.52375418 27.07879133 9.375 27.3125 C7.72510406 33.61210267 4.93577559 37.71201525 -0.625 41.1875 C-7.251181 43.60888343 -15.68948399 43.60607367 -22.125 40.6875 C-27.40472526 37.53525897 -30.7179271 33.16754838 -32.625 27.3125 C-33.42991997 19.47856963 -33.72968033 11.7081896 -28.625 5.3125 C-21.13311791 -2.43478716 -10.12966424 -4.74887851 0 0 Z M-21.625 8.3125 C-23.81202362 11.30143229 -24.625 12.59194454 -24.625 16.3125 C-15.715 16.3125 -6.805 16.3125 2.375 16.3125 C1.38108894 11.34294471 0.72111791 9.84982465 -2.625 6.3125 C-9.15136682 2.38573422 -15.98765951 3.34627148 -21.625 8.3125 Z " fill="#303030" transform="translate(80.625,85.6875)"/>
<path d="M0 0 C4.44296813 2.78543697 7.2750357 6.3000714 9.625 11 C11.32586801 19.34971568 11.18598126 26.7059133 6.9453125 34.2421875 C3.64456977 38.55368398 -0.62644959 40.6879832 -5.6875 42.375 C-20.52335996 43.43035529 -20.52335996 43.43035529 -26.6875 39.375 C-32.89614033 33.90548352 -35.33281247 28.77312533 -36 20.5 C-35.81345033 14.49543249 -34.19584947 9.26043684 -30.4375 4.5625 C-29.53 3.840625 -28.6225 3.11875 -27.6875 2.375 C-26.759375 1.611875 -25.83125 0.84875 -24.875 0.0625 C-18.24257721 -3.51667089 -6.74046477 -3.06150881 0 0 Z M-25.5 10.4375 C-28.37013798 15.1203567 -28.143472 20.06085356 -27.6875 25.375 C-26.02032118 30.11329769 -23.83387955 32.5761938 -19.6875 35.375 C-14.65891801 37.051194 -10.34719589 36.98142735 -5.4375 35.1875 C-1.8697189 32.83600791 0.40471079 30.19057843 2.3125 26.375 C2.81752343 20.84457948 3.05057257 15.96469476 0.6875 10.875 C-3.46944397 6.4992695 -6.57390536 4.15038715 -12.6875 3.875 C-18.3892994 4.11507576 -21.73879662 6.15750995 -25.5 10.4375 Z " fill="#2C2C2C" transform="translate(255.6875,85.625)"/>
<path d="M0 0 C1.05791748 0.00422974 1.05791748 0.00422974 2.13720703 0.00854492 C7.87880458 0.18701612 12.04506798 1.40854275 16.125 5.5 C18.2769437 8.72791555 18.32586443 9.78400809 18.125 13.5 C14.875 13.8125 14.875 13.8125 11.125 13.5 C8.8125 11.0625 8.8125 11.0625 7.125 8.5 C4.67528376 7.27514188 2.98265539 7.33277192 0.25 7.3125 C-0.61367188 7.29832031 -1.47734375 7.28414063 -2.3671875 7.26953125 C-4.9991288 7.51140748 -6.61480544 8.17016459 -8.875 9.5 C-8.875 11.15 -8.875 12.8 -8.875 14.5 C-4.02834205 16.49568268 0.61297737 17.86655141 5.75 18.9375 C10.78083312 20.05675835 14.27009509 21.06184156 18.125 24.5 C20.46438339 28.27165893 20.33301253 31.02503934 19.7265625 35.3125 C18.76348558 38.8145979 17.00636289 40.38700055 14.125 42.5 C6.8144675 45.47680676 -1.84631811 45.82294172 -9.48828125 43.8125 C-14.04709779 41.75201795 -16.64361523 39.05574391 -18.875 34.5 C-19.125 31.625 -19.125 31.625 -18.875 29.5 C-15.625 29.125 -15.625 29.125 -11.875 29.5 C-9.6875 32.375 -9.6875 32.375 -7.875 35.5 C-2.97255836 38.65007952 2.62458425 38.02091995 8.125 36.875 C10.46666941 35.58661676 10.46666941 35.58661676 10.9375 32.375 C10.999375 31.42625 11.06125 30.4775 11.125 29.5 C6.21705754 26.06929963 1.20966325 25.2484759 -4.54882812 24.12695312 C-9.39049291 23.09836834 -13.00585593 21.77297395 -16.875 18.5 C-18.18895221 15.51374499 -18.20568479 12.72838031 -17.875 9.5 C-14.27782923 1.73011113 -8.11961508 -0.07206759 0 0 Z " fill="#303030" transform="translate(23.875,83.5)"/>
<path d="M0 0 C1.27746094 -0.01675781 2.55492187 -0.03351563 3.87109375 -0.05078125 C8.49260549 0.40403419 11.7344527 1.7182727 15.2421875 4.77734375 C17.85717079 7.99907153 18.5625 9.02406054 18.5625 13.3125 C13.19986264 13.75206044 13.19986264 13.75206044 10.5625 13.3125 C8.75 10.875 8.75 10.875 7.5625 8.3125 C4.67329306 7.34943102 2.64002119 7.1169064 -0.375 7.0625 C-1.22964844 7.03671875 -2.08429688 7.0109375 -2.96484375 6.984375 C-6.0105754 7.38854792 -7.33750137 8.07120215 -9.4375 10.3125 C-9.77175735 12.93875139 -9.77175735 12.93875139 -9.4375 15.3125 C-8.15875 15.55484375 -6.88 15.7971875 -5.5625 16.046875 C-3.85404672 16.38481081 -2.14571995 16.72338671 -0.4375 17.0625 C0.82126953 17.29839844 0.82126953 17.29839844 2.10546875 17.5390625 C7.54555287 18.63551356 13.03838789 19.94436507 17.5625 23.3125 C20.09073256 27.53671867 20.37228384 31.49553841 19.5625 36.3125 C17.82043529 39.84896613 15.51228767 41.9153905 11.84375 43.44921875 C4.66287828 45.3384719 -4.26077912 45.8179615 -11.125 42.625 C-14.28806796 40.66527311 -16.51604784 38.54053963 -18.4375 35.3125 C-19.1875 32 -19.1875 32 -19.4375 29.3125 C-16.7975 29.3125 -14.1575 29.3125 -11.4375 29.3125 C-11.045625 30.26125 -10.65375 31.21 -10.25 32.1875 C-8.73135712 35.35031685 -8.73135712 35.35031685 -6.3125 36.6875 C-1.1137768 37.81765722 3.59581899 38.13195042 8.5625 36.0625 C10.6448877 34.46325197 10.6448877 34.46325197 11.5625 32.3125 C11.76293458 30.25943871 11.76293458 30.25943871 10.41015625 28.78125 C8.01870584 26.88022389 5.97810366 26.46480954 3 25.8125 C1.93652344 25.56242187 0.87304688 25.31234375 -0.22265625 25.0546875 C-1.28355469 24.80976562 -2.34445312 24.56484375 -3.4375 24.3125 C-12.3770667 22.19619441 -12.3770667 22.19619441 -16.0625 19.125 C-17.86383572 15.44044965 -18.33879899 12.28287744 -17.4375 8.3125 C-13.54818108 1.0598766 -7.67345196 0.02318263 0 0 Z " fill="#2E2E2E" transform="translate(289.4375,83.6875)"/>
<path d="M0 0 C3.96 0 7.92 0 12 0 C12.33 1.32 12.66 2.64 13 4 C13.94875 3.34 14.8975 2.68 15.875 2 C20.55596137 -0.72975981 24.68948752 -0.29098699 30 0 C30 3.63 30 7.26 30 11 C27.40125 11.12375 27.40125 11.12375 24.75 11.25 C20.26526525 11.65315914 20.26526525 11.65315914 16.375 13.8125 C13.8684212 17.800239 13.84620499 21.61740822 13.71875 26.26171875 C13.68136719 27.46248047 13.64398438 28.66324219 13.60546875 29.90039062 C13.53483014 32.4368399 13.46452064 34.97329836 13.39453125 37.50976562 C13.35714844 38.70666016 13.31976563 39.90355469 13.28125 41.13671875 C13.23581055 42.78740356 13.23581055 42.78740356 13.18945312 44.47143555 C13 47 13 47 12 48 C10.16884117 48.09851171 8.33380067 48.12972629 6.5 48.125 C5.4996875 48.12757812 4.499375 48.13015625 3.46875 48.1328125 C1 48 1 48 0 47 C-0.09304018 45.52645652 -0.11746265 44.04849409 -0.11352539 42.57202148 C-0.11344986 41.63112167 -0.11337433 40.69022186 -0.11329651 39.72080994 C-0.10813522 38.69790359 -0.10297394 37.67499725 -0.09765625 36.62109375 C-0.0962413 35.57929459 -0.09482635 34.53749542 -0.09336853 33.46412659 C-0.0877508 30.12188906 -0.0751953 26.77971743 -0.0625 23.4375 C-0.05748728 21.17773534 -0.05292398 18.91796963 -0.04882812 16.65820312 C-0.03777561 11.10544318 -0.0204991 5.55273278 0 0 Z " fill="#202020" transform="translate(126,27)"/>
<path d="M0 0 C2.31 0 4.62 0 7 0 C7.01981934 0.67466309 7.03963867 1.34932617 7.06005859 2.04443359 C7.1563811 5.15495861 7.2656181 8.26490789 7.375 11.375 C7.4059375 12.43589844 7.436875 13.49679688 7.46875 14.58984375 C7.71376291 21.24602788 8.45532884 27.51818952 10 34 C16.95340631 36.01132337 16.95340631 36.01132337 23.9375 35 C27.58119099 32.6204467 28.37012173 30.9887642 30 27 C30.49504537 23.82125292 30.49504537 23.82125292 30.51171875 20.5078125 C30.54716797 19.30898437 30.58261719 18.11015625 30.61914062 16.875 C30.64169922 15.6375 30.66425781 14.4 30.6875 13.125 C30.72166016 11.86429688 30.75582031 10.60359375 30.79101562 9.3046875 C30.87325167 6.20321384 30.94248468 3.10201431 31 0 C33.31 0 35.62 0 38 0 C38 13.86 38 27.72 38 42 C35.69 42 33.38 42 31 42 C30.67 40.68 30.34 39.36 30 38 C29.401875 38.639375 28.80375 39.27875 28.1875 39.9375 C24.2436518 43.65598544 20.02266655 43.33884636 14.86328125 43.27734375 C10.61970646 42.86630172 7.33682506 41.67273948 4 39 C0.44544507 33.49617302 -0.12592411 28.71069603 -0.09765625 22.265625 C-0.09443359 20.97011719 -0.09121094 19.67460938 -0.08789062 18.33984375 C-0.07953598 16.97656183 -0.07107104 15.61328058 -0.0625 14.25 C-0.05748168 12.87109535 -0.05291935 11.49218896 -0.04882812 10.11328125 C-0.03704093 6.74214341 -0.02058635 3.37109372 0 0 Z " fill="#1F1F1F" transform="translate(147,85)"/>
<path d="M0 0 C4.29 0 8.58 0 13 0 C13 15.84 13 31.68 13 48 C9.04 48 5.08 48 1 48 C0 47 0 47 -0.12025452 45.09544373 C-0.11803391 44.26271439 -0.11581329 43.42998505 -0.11352539 42.57202148 C-0.11344986 41.63112167 -0.11337433 40.69022186 -0.11329651 39.72080994 C-0.10813522 38.69790359 -0.10297394 37.67499725 -0.09765625 36.62109375 C-0.0962413 35.57929459 -0.09482635 34.53749542 -0.09336853 33.46412659 C-0.0877508 30.12188906 -0.0751953 26.77971743 -0.0625 23.4375 C-0.05748728 21.17773534 -0.05292398 18.91796963 -0.04882812 16.65820312 C-0.03777561 11.10544318 -0.0204991 5.55273278 0 0 Z " fill="#252525" transform="translate(241,27)"/>
<path d="M0 0 C2.31 0 4.62 0 7 0 C7.33 1.32 7.66 2.64 8 4 C8.5775 3.34 9.155 2.68 9.75 2 C14.64297112 -1.01105915 19.39438258 -0.32185363 25 0 C25 1.98 25 3.96 25 6 C23.75283203 6.16435547 23.75283203 6.16435547 22.48046875 6.33203125 C21.39378906 6.49058594 20.30710938 6.64914063 19.1875 6.8125 C17.56908203 7.03873047 17.56908203 7.03873047 15.91796875 7.26953125 C12.78067933 8.05490357 11.98844171 8.56397547 10 11 C7.52873361 17.47110727 7.59204584 24.73007781 7.375 31.5625 C7.33632812 32.57119141 7.29765625 33.57988281 7.2578125 34.61914062 C7.16453797 37.0792564 7.07874484 39.53938366 7 42 C4.69 42 2.38 42 0 42 C0 28.14 0 14.28 0 0 Z " fill="#1F1F1F" transform="translate(194,85)"/>
<path d="M0 0 C2.4375 1.5 2.4375 1.5 4 4 C4.62303037 7.51870564 4.72132966 10.75771003 2.875 13.9375 C0.17323836 15.46849826 -1.89435505 15.8757742 -5 16 C-9.56521739 13.86956522 -9.56521739 13.86956522 -11 11 C-11.35519903 7.16385043 -11.54724594 4.85370366 -9.4375 1.5625 C-6.05782196 -0.60396028 -3.94016013 -0.56288002 0 0 Z " fill="#262626" transform="translate(251,6)"/>
<path d="M0 0 C0.66 0.33 1.32 0.66 2 1 C-2.62 5.62 -7.24 10.24 -12 15 C-12.66 14.67 -13.32 14.34 -14 14 C-12.60919892 12.41224451 -11.21211596 10.82999061 -9.8125 9.25 C-8.64654297 7.92742188 -8.64654297 7.92742188 -7.45703125 6.578125 C-5.11544754 4.12113732 -2.69841735 2.05137234 0 0 Z " fill="#FF76AB" transform="translate(417,16)"/>
<path d="M0 0 C0.66 0.33 1.32 0.66 2 1 C1.27683594 1.63615234 1.27683594 1.63615234 0.5390625 2.28515625 C-3.82104256 6.33382524 -5.92107928 9.12587608 -7 15 C-7.33 15 -7.66 15 -8 15 C-7.61487948 9.31947236 -7.17706282 6.17706282 -3 2 C-2.01 1.34 -1.02 0.68 0 0 Z " fill="#888888" transform="translate(78,49)"/>
<path d="M0 0 C0.66 0.33 1.32 0.66 2 1 C0.88121617 2.17262904 -0.24523051 3.33795138 -1.375 4.5 C-2.00148438 5.1496875 -2.62796875 5.799375 -3.2734375 6.46875 C-5 8 -5 8 -7 8 C-5.50902342 4.2047869 -3.24299151 2.38957269 0 0 Z " fill="#5F5F5F" transform="translate(105,86)"/>
<path d="M0 0 C4.29 0 8.58 0 13 0 C13 0.33 13 0.66 13 1 C11.95199219 1.05607422 11.95199219 1.05607422 10.8828125 1.11328125 C9.51769531 1.21189453 9.51769531 1.21189453 8.125 1.3125 C7.22007812 1.37050781 6.31515625 1.42851562 5.3828125 1.48828125 C2.63778399 1.7882039 2.63778399 1.7882039 1 5 C0.67 3.35 0.34 1.7 0 0 Z " fill="#838383" transform="translate(158,27)"/>
<path d="M0 0 C0.66 0.33 1.32 0.66 2 1 C-0.31 3.31 -2.62 5.62 -5 8 C-5 5 -5 5 -2.5 2.3125 C-1.675 1.549375 -0.85 0.78625 0 0 Z " fill="#696969" transform="translate(80,29)"/>
</svg>
