<?xml version="1.0" encoding="UTF-8"?>
<svg version="1.1" xmlns="http://www.w3.org/2000/svg" width="1280" height="640">
<path d="M0 0 C21.45 0 42.9 0 65 0 C81.08590896 32.03433152 81.08590896 32.03433152 88.10864258 46.86157227 C91.75524958 54.54319458 95.54216416 62.15013616 99.38598633 69.73486328 C101.75823051 74.43307264 103.99053631 79.13498265 106 84 C112.12274543 72.63499244 117.91256722 61.15059372 123.45703125 49.49243164 C127.24328189 41.54069853 131.15043133 33.65727633 135.11450195 25.79296875 C138.40141861 19.25169707 141.56337833 12.66003465 144.62792969 6.01171875 C146.90197585 1.09802415 146.90197585 1.09802415 148 0 C169.45 0 190.9 0 213 0 C213 57.42 213 114.84 213 174 C191.55 174 170.1 174 148 174 C147.67 147.27 147.34 120.54 147 93 C134.00756412 118.9522596 134.00756412 118.9522596 121.39013672 145.07421875 C118.71533317 150.70380177 116.01186142 156.31966281 113.3125 161.9375 C112.2877327 164.07160127 111.26299049 166.2057146 110.23828125 168.33984375 C109.49221172 169.8932408 108.74612801 171.44663104 108 173 C107.01 173 106.02 173 105 173 C96.48042694 156.08258883 88.13721198 139.10663883 80 122 C75.38 112.43 70.76 102.86 66 93 C65.67 119.73 65.34 146.46 65 174 C43.55 174 22.1 174 0 174 C0 116.58 0 59.16 0 0 Z " fill="#BE002F" transform="translate(32,440)"/>
<path d="M0 0 C37.95 0 75.9 0 115 0 C126.28214857 38.44609089 137.44976763 76.91865406 148.43603516 115.44995117 C148.65729568 116.22594256 148.87855621 117.00193396 149.10652161 117.80144024 C150.18665675 121.59049016 151.26572848 125.37983766 152.3427124 129.16978455 C154.15622469 135.54922445 155.97404989 141.92711621 157.82643795 148.29539585 C158.40600351 150.28787399 158.983629 152.28090484 159.56074524 154.27409363 C160.26302901 156.69604173 160.9694653 159.11679114 161.68083191 161.53608704 C161.98829849 162.59885361 162.29576508 163.66162018 162.61254883 164.7565918 C162.88206863 165.67836716 163.15158844 166.60014252 163.42927551 167.54985046 C164 170 164 170 164 174 C142.55 174 121.1 174 99 174 C92 150 92 150 92 146 C69.56 146.33 47.12 146.66 24 147 C21.36 155.91 18.72 164.82 16 174 C-5.45 174 -26.9 174 -49 174 C-47.75072306 167.75361531 -46.4822818 161.75261659 -44.71948242 155.66967773 C-44.49892748 154.89650554 -44.27837254 154.12333334 -44.05113411 153.32673168 C-43.3230249 150.77792022 -42.58928319 148.23076794 -41.85546875 145.68359375 C-41.33187217 143.85518887 -40.80862122 142.02668498 -40.28569031 140.1980896 C-38.88168276 135.29233547 -37.47275053 130.3880085 -36.06282806 125.48395157 C-34.598476 120.38748793 -33.13864109 115.2897306 -31.67822266 110.19213867 C-28.41137118 98.7928386 -25.13744501 87.39557731 -21.86182404 75.99879456 C-20.7475355 72.12152697 -19.63370008 68.24412929 -18.51989079 64.36672401 C-17.21527305 59.82515736 -15.91041346 55.28366021 -14.60546875 50.7421875 C-14.37743372 49.94856937 -14.14939869 49.15495125 -13.91445351 48.33728409 C-9.28370783 32.22272012 -4.64069441 16.11170664 0 0 Z M57 29 C52.66275509 43.88291878 48.33022479 58.76719846 44.00634766 73.65400696 C42.26833498 79.63758222 40.52813207 85.6204943 38.78161621 91.60159302 C37.85017805 94.79567318 36.92532726 97.99164429 36 101.1875 C35.52143555 102.81800293 35.52143555 102.81800293 35.03320312 104.48144531 C34.61458008 105.93502441 34.61458008 105.93502441 34.1875 107.41796875 C33.95417969 108.22000732 33.72085938 109.0220459 33.48046875 109.84838867 C32.85470751 112.28320753 32.85470751 112.28320753 33 116 C49.5 116 66 116 83 116 C81.37094951 110.18072959 79.74182263 104.36148282 78.11181641 98.54248047 C76.69306592 93.47688973 75.27633453 88.4107397 73.86083984 83.34423828 C72.20611814 77.42252031 70.54552383 71.50247289 68.87985039 65.58382607 C67.92615742 62.19432761 66.97517133 58.80411104 66.02954102 55.41235352 C64.91632409 51.41996154 63.7924967 47.43062711 62.66796875 43.44140625 C62.32839645 42.21772842 61.98882416 40.9940506 61.63896179 39.73329163 C61.32135391 38.61288986 61.00374603 37.4924881 60.67651367 36.33813477 C60.40006516 35.35208755 60.12361664 34.36604034 59.83879089 33.35011292 C59.13561495 30.85010238 59.13561495 30.85010238 57 29 Z " fill="#BE002E" transform="translate(314,440)"/>
<path d="M0 0 C22.1925 -0.0825 44.385 -0.165 67.25 -0.25 C77.7363623 -0.30462402 77.7363623 -0.30462402 88.43457031 -0.36035156 C97.01318359 -0.37841797 97.01318359 -0.37841797 101.03729248 -0.3817749 C103.83022946 -0.38548104 106.62285809 -0.40038791 109.41571045 -0.42230225 C112.9914467 -0.44998269 116.5667423 -0.45792035 120.14257574 -0.4522891 C122.05623659 -0.45401405 123.96985006 -0.47534119 125.88338089 -0.497715 C138.92773632 -0.43567198 149.22287657 3.31626639 159 12 C168.47417522 22.16356427 171.6459106 34.06104898 171.3046875 47.70703125 C170.69196279 59.2044813 165.37074965 69.06137484 156.984375 76.87890625 C151.22711405 81.4008494 144.7721183 84.33325912 138 87 C139.14275391 87.41958984 139.14275391 87.41958984 140.30859375 87.84765625 C152.08120113 92.41854376 161.64679387 99.00249189 167.28515625 110.65625 C169.58032943 116.25022049 171.1282722 121.15185324 171.11352539 127.22753906 C171.11340454 128.28279785 171.11328369 129.33805664 171.11315918 130.42529297 C171.10804321 131.52760254 171.10292725 132.62991211 171.09765625 133.765625 C171.09664917 134.78382324 171.09564209 135.80202148 171.09460449 136.85107422 C171.08937665 140.65072762 171.07541538 144.45036495 171.0625 148.25 C171.041875 156.7475 171.02125 165.245 171 174 C149.88 174 128.76 174 107 174 C106.75 149.5625 106.75 149.5625 106.70214844 141.90063477 C106.67275455 139.87253583 106.64192448 137.84445699 106.609375 135.81640625 C106.60768311 134.26608704 106.60768311 134.26608704 106.60595703 132.68444824 C106.42157127 123.25041811 103.86983489 115.71717189 97 109 C86.83113916 102.1651919 79.02999304 102.76647018 66 102 C66 125.76 66 149.52 66 174 C44.22 174 22.44 174 0 174 C0 116.58 0 59.16 0 0 Z M66 21 C66 37.5 66 54 66 71 C84.37840164 71.94255457 84.37840164 71.94255457 99.58203125 63.72265625 C105.17041683 56.93346055 107.95779948 49.53617285 107.453125 40.76171875 C106.44823896 34.63711157 103.91441966 29.80288215 98.77734375 26.09765625 C98.19082031 25.73542969 97.60429688 25.37320312 97 25 C96.38253906 24.60683594 95.76507812 24.21367187 95.12890625 23.80859375 C85.60486474 18.93622314 77.33456438 21 66 21 Z " fill="#BE002E" transform="translate(883,440)"/>
<path d="M0 0 C56.76 0 113.52 0 172 0 C172 9.57 172 19.14 172 29 C136.69 29 101.38 29 65 29 C65 43.19 65 57.38 65 72 C100.31 72 135.62 72 172 72 C172 81.9 172 91.8 172 102 C136.69 102 101.38 102 65 102 C65 116.19 65 130.38 65 145 C100.31 145 135.62 145 172 145 C172 154.57 172 164.14 172 174 C115.24 174 58.48 174 0 174 C0 116.58 0 59.16 0 0 Z " fill="#BD002F" transform="translate(1077,440)"/>
<path d="M0 0 C21.016875 -0.0825 42.03375 -0.165 63.6875 -0.25 C73.61203247 -0.30462402 73.61203247 -0.30462402 83.73706055 -0.36035156 C91.86682129 -0.37841797 91.86682129 -0.37841797 95.68244934 -0.3817749 C98.3263581 -0.38788543 100.96948055 -0.40035873 103.61323547 -0.42230225 C107.63642363 -0.45524522 111.65905023 -0.45561675 115.68237305 -0.45410156 C116.84411639 -0.468494 118.00585974 -0.48288643 119.20280743 -0.497715 C133.97925147 -0.42376987 146.40231472 4.67265044 157.25 14.6875 C167.45557561 25.56366784 171.5320974 38.29147981 171.42211914 52.99365234 C170.93246992 66.41806815 165.03830071 78.32646406 156.03515625 88.12109375 C142.95774243 100.19448347 128.17823034 102.16664434 111.19140625 102.09765625 C110.01896362 102.09664917 108.846521 102.09564209 107.6385498 102.09460449 C103.27985652 102.08939226 98.92117722 102.07543104 94.5625 102.0625 C79.9290625 102.0315625 79.9290625 102.0315625 65 102 C65 125.76 65 149.52 65 174 C43.55 174 22.1 174 0 174 C0 116.58 0 59.16 0 0 Z M66 21 C66 37.5 66 54 66 71 C84.37840164 71.94255457 84.37840164 71.94255457 99.58203125 63.72265625 C105.17041683 56.93346055 107.95779948 49.53617285 107.453125 40.76171875 C106.44823896 34.63711157 103.91441966 29.80288215 98.77734375 26.09765625 C98.19082031 25.73542969 97.60429688 25.37320312 97 25 C96.38253906 24.60683594 95.76507812 24.21367187 95.12890625 23.80859375 C85.60486474 18.93622314 77.33456438 21 66 21 Z " fill="#BE002E" transform="translate(498,440)"/>
<path d="M0 0 C1.94843814 1.78881021 3.85508726 3.61937866 5.7434082 5.47143555 C7.2823139 6.97345668 8.84647552 8.4458955 10.41333008 9.91870117 C42.51052033 40.51446361 59.48824861 83.75842958 61.13793945 127.65698242 C62.2223886 173.90727299 45.7448172 217.98323307 14.21020508 251.90307617 C13.48365723 252.68739014 13.48365723 252.68739014 12.74243164 253.48754883 C-19.23540808 287.61219742 -63.40604784 304.75706366 -109.49291992 307.09057617 C-154.26029094 307.93924671 -198.22778577 291.66938629 -230.78979492 260.90307617 C-232.1398795 259.75243591 -233.49391081 258.60640657 -234.85229492 257.46557617 C-265.56227191 230.42611436 -284.07837755 187.34213364 -286.78979492 146.90307617 C-288.86329525 94.21750217 -272.91459153 48.81270082 -237.14135742 10.03198242 C-176.20048092 -52.96408493 -73.06975611 -57.71672425 0 0 Z M-225.20776367 23.30688477 C-254.6623321 53.02508976 -269.98635423 93.69425753 -269.83911133 135.30200195 C-269.25585667 166.06435384 -259.41192623 196.66553531 -241.78979492 221.90307617 C-241.12077148 222.86987305 -240.45174805 223.83666992 -239.76245117 224.83276367 C-215.38361348 258.25469158 -178.53543537 280.6322944 -137.85229492 287.77807617 C-118.89856324 290.69091855 -98.48149646 290.27595994 -79.78979492 285.90307617 C-78.96108887 285.7097168 -78.13238281 285.51635742 -77.27856445 285.31713867 C-52.86437081 279.39743896 -30.69568375 268.51198785 -11.78979492 251.90307617 C-10.54842773 250.8434668 -10.54842773 250.8434668 -9.28198242 249.76245117 C6.78220507 235.76293982 19.53900456 219.16702776 28.3605957 199.76147461 C29.15318031 198.02780966 29.98495328 196.31220973 30.81958008 194.59838867 C47.5922538 158.54578588 47.11269663 115.99144284 34.21020508 78.90307617 C19.01747722 38.17363552 -11.41285833 7.44045155 -50.38769531 -10.91992188 C-109.90737035 -37.80764786 -179.43805378 -21.72505304 -225.20776367 23.30688477 Z " fill="#BD002E" transform="translate(763.789794921875,67.096923828125)"/>
<path d="M0 0 C56.76 0 113.52 0 172 0 C172 9.57 172 19.14 172 29 C136.69 29 101.38 29 65 29 C65 43.19 65 57.38 65 72 C100.31 72 135.62 72 172 72 C172 81.9 172 91.8 172 102 C136.69 102 101.38 102 65 102 C65 125.76 65 149.52 65 174 C43.55 174 22.1 174 0 174 C0 116.58 0 59.16 0 0 Z " fill="#BD002E" transform="translate(690,440)"/>
<path d="M0 0 C2.20719415 2.20719415 3.66205289 4.57966386 5.296875 7.234375 C7.4271648 10.73954446 7.4271648 10.73954446 10.9453125 12.359375 C12.45861781 12.27441751 13.9699896 12.14644712 15.4765625 11.98046875 C22.29000179 11.634212 27.97582272 15.64958836 32.921875 19.921875 C49.13478033 35.44865424 64.59313698 58.87866388 65.109375 82.109375 C64.96143814 90.21900486 62.37819002 96.22998911 56.828125 102.1328125 C50.21204005 107.93501398 43.2352024 109.01272341 34.69433594 108.97290039 C33.8744519 108.97304642 33.05456787 108.97319244 32.20983887 108.9733429 C29.50444884 108.97264718 26.79912798 108.96487072 24.09375 108.95703125 C22.21616656 108.95516586 20.33858263 108.95374253 18.46099854 108.95274353 C13.52248793 108.94892789 8.58400679 108.93910571 3.64550781 108.92803955 C-2.28164053 108.91600509 -8.20879874 108.91141865 -14.13595581 108.90558624 C-23.1375327 108.89589347 -32.13904493 108.87673023 -41.140625 108.859375 C-41.140625 126.349375 -41.140625 143.839375 -41.140625 161.859375 C-47.080625 161.859375 -53.020625 161.859375 -59.140625 161.859375 C-59.140625 144.369375 -59.140625 126.879375 -59.140625 108.859375 C-65.16054688 108.90578125 -71.18046875 108.9521875 -77.3828125 109 C-81.21095489 109.02045339 -85.03902931 109.03971022 -88.8671875 109.0546875 C-94.93503929 109.07854039 -101.00264818 109.10666919 -107.0703125 109.16113281 C-111.96569597 109.20479584 -116.86081872 109.22855519 -121.75638199 109.23888397 C-123.6181867 109.24623876 -125.47997816 109.26060053 -127.34167099 109.28229523 C-138.49839482 109.4070617 -147.22976631 109.15946485 -156.953125 103.109375 C-163.30212581 96.57897417 -165.48822836 90.19997056 -165.5234375 81.16772461 C-165.0144509 58.64771871 -150.11246 36.87533189 -134.84375 21.5546875 C-128.34447778 15.4364071 -123.44123992 12.86924485 -114.515625 12.796875 C-111.69004942 12.72516565 -111.69004942 12.72516565 -109.140625 11.859375 C-107.16480769 9.52711848 -105.94856955 7.16277708 -104.58203125 4.43359375 C-100.26220343 -3.2812207 -91.26774085 -6.38029735 -83.20654297 -8.69628906 C-58.21443928 -15.46081083 -21.65472241 -16.80406459 0 0 Z M-91.203125 16.171875 C-92.44514219 19.73232428 -92.21066325 22.31898694 -91.140625 25.859375 C-89.16801049 29.9374465 -86.84674264 33.7902513 -84.515625 37.671875 C-83.49749556 39.39907646 -82.47938578 41.12628987 -81.46246338 42.85420227 C-80.40364321 44.65048881 -79.34008698 46.44391623 -78.27636719 48.23730469 C-76.17207532 51.7945999 -74.10775117 55.37388652 -72.0546875 58.9609375 C-71.72439545 59.53742538 -71.39410339 60.11391327 -71.05380249 60.70787048 C-69.47760063 63.45976628 -67.9030565 66.21260386 -66.32958984 68.96606445 C-60.13363859 80.57111056 -60.13363859 80.57111056 -52.140625 90.859375 C-49.66225325 90.99596699 -49.66225325 90.99596699 -47.140625 89.859375 C-45.05696905 87.32734496 -45.05696905 87.32734496 -43.265625 83.921875 C-42.89397217 83.2714624 -42.52231934 82.6210498 -42.1394043 81.95092773 C-41.28373854 80.45151582 -40.43522177 78.948011 -39.59228516 77.44140625 C-37.38434173 73.51419305 -35.11944611 69.62029764 -32.86108398 65.72192383 C-31.58124036 63.50827747 -30.3060635 61.29192687 -29.03540039 59.07299805 C-25.77600131 53.38329134 -22.47337481 47.72932677 -19.0625 42.12890625 C-18.41434326 41.05374756 -17.76618652 39.97858887 -17.09838867 38.87084961 C-15.86542684 36.83041928 -14.61885208 34.7981323 -13.35668945 32.77563477 C-9.98288353 27.15752513 -8.22014831 23.44262431 -9.140625 16.859375 C-13.26337567 10.3807668 -21.44835502 8.92767436 -28.52978516 7.31542969 C-35.79280141 5.8409332 -42.86581199 5.47380761 -50.265625 5.484375 C-51.44616455 5.48598633 -52.6267041 5.48759766 -53.84301758 5.48925781 C-65.81675988 5.65607086 -82.64075555 6.57164259 -91.203125 16.171875 Z M-125.453125 37.734375 C-136.55031254 48.84280589 -146.68757213 66.17473832 -147.578125 82.234375 C-147.45025264 85.88586854 -147.45025264 85.88586854 -145.265625 88.296875 C-141.74659839 90.88439457 -139.70642516 90.98916288 -135.36157227 91.00463867 C-133.54442467 91.01420845 -133.54442467 91.01420845 -131.69056702 91.02397156 C-130.37600021 91.02508438 -129.06143341 91.0261972 -127.70703125 91.02734375 C-126.34944117 91.03055609 -124.99185143 91.03392015 -123.63426208 91.03742981 C-120.78700966 91.04342167 -117.93978759 91.04526965 -115.0925293 91.04467773 C-111.44281665 91.04457609 -107.79329847 91.05822985 -104.14363194 91.07544994 C-101.33923955 91.08656442 -98.53489426 91.08859712 -95.7304821 91.08806801 C-93.73018327 91.08982343 -91.72989914 91.10066756 -89.72962952 91.11161804 C-88.51504562 91.10854141 -87.30046173 91.10546478 -86.04907227 91.10229492 C-84.97810806 91.10371994 -83.90714386 91.10514496 -82.8037262 91.10661316 C-79.91316664 91.05108745 -79.91316664 91.05108745 -77.140625 88.859375 C-77.73997116 84.8214577 -79.035629 81.85966881 -81.02734375 78.30859375 C-81.62949707 77.22835937 -82.23165039 76.148125 -82.85205078 75.03515625 C-83.51020625 73.87209239 -84.16891023 72.70933878 -84.828125 71.546875 C-85.50266152 70.34908226 -86.17697514 69.15116398 -86.85107422 67.953125 C-88.24341187 65.48322726 -89.64141845 63.01664912 -91.04345703 60.55224609 C-92.41687367 58.13763342 -93.78261232 55.71899269 -95.14013672 53.29541016 C-97.00231096 49.97584128 -98.88113848 46.666317 -100.765625 43.359375 C-101.33240967 42.34576904 -101.89919434 41.33216309 -102.4831543 40.2878418 C-103.02238525 39.35238525 -103.56161621 38.41692871 -104.1171875 37.453125 C-104.58205566 36.63521484 -105.04692383 35.81730469 -105.52587891 34.97460938 C-107.45869413 32.44272079 -109.28649185 31.24488736 -112.140625 29.859375 C-117.88700707 29.859375 -121.51788708 33.89595191 -125.453125 37.734375 Z M5.859375 33.859375 C4.07763221 36.31694502 4.07763221 36.31694502 2.58203125 39.09375 C1.99236572 40.13184814 1.4027002 41.16994629 0.79516602 42.23950195 C0.17697998 43.35156006 -0.44120605 44.46361816 -1.078125 45.609375 C-2.06348841 47.35603828 -3.04887656 49.10268839 -4.036026 50.8483429 C-4.71314505 52.04628972 -5.38902729 53.24493643 -6.06370544 54.44425964 C-8.39509638 58.5792917 -10.79453739 62.66621574 -13.234375 66.73828125 C-13.88027588 67.82077148 -14.52617676 68.90326172 -15.19165039 70.01855469 C-16.42792185 72.08503356 -17.67164688 74.14707566 -18.92358398 76.20410156 C-19.75611694 77.60547363 -19.75611694 77.60547363 -20.60546875 79.03515625 C-21.096521 79.84895752 -21.58757324 80.66275879 -22.09350586 81.5012207 C-23.28811276 84.19152334 -23.49592432 85.94689989 -23.140625 88.859375 C-20.4490214 91.5509786 -19.06601835 91.12337583 -15.30151367 91.14990234 C-14.07651657 91.16266205 -12.85151947 91.17542175 -11.58940125 91.18856812 C-10.24580035 91.19162602 -8.90219734 91.19385365 -7.55859375 91.1953125 C-6.18337362 91.20173843 -4.80815486 91.20846664 -3.43293762 91.21548462 C-0.54697502 91.22747144 2.33886777 91.23116418 5.22485352 91.22998047 C8.91720525 91.22977755 12.60878489 91.25704359 16.30095387 91.29152489 C19.14319867 91.31380388 21.98525823 91.31781767 24.82758141 91.31676102 C26.18831727 91.31911688 27.54905824 91.32793973 28.90970802 91.34342575 C30.81706405 91.3630954 32.72464633 91.35472264 34.63208008 91.34521484 C36.25851189 91.3494899 36.25851189 91.3494899 37.9178009 91.35385132 C41.58975984 90.73659788 43.2500797 89.47536988 45.859375 86.859375 C47.35304391 81.60966001 46.6172312 77.42459904 44.921875 72.359375 C44.58397949 71.32550659 44.58397949 71.32550659 44.23925781 70.27075195 C39.09411753 55.28459136 30.19432487 39.92827099 16.859375 30.859375 C11.57185395 28.88951422 9.86103072 30.19572959 5.859375 33.859375 Z " fill="#BD002E" transform="translate(701.140625,125.140625)"/>
</svg>
