<?xml version="1.0" encoding="UTF-8"?>
<!DOCTYPE svg PUBLIC "-//W3C//DTD SVG 1.1//EN" "http://www.w3.org/Graphics/SVG/1.1/DTD/svg11.dtd">
<svg xmlns="http://www.w3.org/2000/svg" version="1.1" width="2100px" height="536px" style="shape-rendering:geometricPrecision; text-rendering:geometricPrecision; image-rendering:optimizeQuality; fill-rule:evenodd; clip-rule:evenodd" xmlns:xlink="http://www.w3.org/1999/xlink">
<g><path style="opacity:1" fill="#da561f" d="M 609.5,-0.5 C 624.833,-0.5 640.167,-0.5 655.5,-0.5C 699.601,4.70238 740.267,19.5357 777.5,44C 806.5,63.6667 835.5,83.3333 864.5,103C 924.429,142.529 990.429,163.196 1062.5,165C 1103.78,168.28 1145.11,169.613 1186.5,169C 1194.28,168.732 1201.95,167.899 1209.5,166.5C 1209.63,167.376 1209.3,168.043 1208.5,168.5C 1201.1,172.86 1193.77,177.193 1186.5,181.5C 1126.81,209.436 1064.81,215.936 1000.5,201C 961.686,190.628 925.686,174.295 892.5,152C 837.115,105.178 773.115,77.5115 700.5,69C 648.864,63.6996 597.198,64.0329 545.5,70C 525.113,72.2567 504.78,74.9234 484.5,78C 428.851,87.4415 373.184,96.7749 317.5,106C 256.737,114.874 195.737,117.207 134.5,113C 100.629,110.559 67.629,103.893 35.5,93C 26.1378,89.5721 17.6378,84.7388 10,78.5C 9.01405,76.0752 9.68072,74.4085 12,73.5C 82.3095,96.6493 154.143,103.149 227.5,93C 275.703,86.6262 323.036,76.2929 369.5,62C 413.865,47.3226 458.532,33.656 503.5,21C 538.504,11.4329 573.838,4.26622 609.5,-0.5 Z"/></g>
<g><path style="opacity:1" fill="#bb3e25" d="M 2099.5,65.5 C 2099.5,66.8333 2099.5,68.1667 2099.5,69.5C 2086.66,76.2784 2073,80.7784 2058.5,83C 2035.14,86.5617 2011.64,88.0617 1988,87.5C 1965.13,87.5484 1942.3,86.7151 1919.5,85C 1859.2,79.5186 1798.87,74.5186 1738.5,70C 1681.72,66.111 1625.39,69.4443 1569.5,80C 1546.01,85.3864 1523.01,92.3864 1500.5,101C 1451.4,122.366 1401.07,140.366 1349.5,155C 1296.13,169.895 1241.8,178.728 1186.5,181.5C 1193.77,177.193 1201.1,172.86 1208.5,168.5C 1209.3,168.043 1209.63,167.376 1209.5,166.5C 1271.45,128.857 1335.78,95.3566 1402.5,66C 1436.56,51.5357 1471.56,39.8691 1507.5,31C 1555.82,21.7307 1604.49,19.3974 1653.5,24C 1691.39,27.3174 1729.06,32.3174 1766.5,39C 1816.43,48.386 1866.43,57.386 1916.5,66C 1956.22,72.8658 1996.22,75.8658 2036.5,75C 2055.21,74.2325 2073.54,71.2325 2091.5,66C 2094.15,65.5026 2096.81,65.3359 2099.5,65.5 Z"/></g>
<g><path style="opacity:1" fill="#1f3156" d="M 139.5,535.5 C 126.5,535.5 113.5,535.5 100.5,535.5C 61.4189,532.05 31.5856,513.717 11,480.5C 5.83611,469.837 2.00277,458.837 -0.5,447.5C -0.5,444.167 -0.5,440.833 -0.5,437.5C 18.8204,438.344 38.1538,438.677 57.5,438.5C 60.8998,460.07 73.2331,473.57 94.5,479C 111.681,482.754 128.681,482.087 145.5,477C 167.483,466.905 172.65,451.405 161,430.5C 151.873,422.518 141.373,417.018 129.5,414C 102.646,408.038 76.3131,400.371 50.5,391C 6.02473,369.955 -8.8086,335.788 6,288.5C 16.9903,264.512 34.8236,247.679 59.5,238C 83.5285,229.517 108.195,227.183 133.5,231C 185.206,239.206 215.539,269.039 224.5,320.5C 209.123,321.935 193.79,321.768 178.5,320C 172.564,318.289 168.064,314.789 165,309.5C 158.094,293.453 145.927,284.286 128.5,282C 110.846,277.474 93.8458,279.141 77.5,287C 63.0291,296.419 58.0291,309.419 62.5,326C 64.0548,329.561 66.3882,332.561 69.5,335C 76.7879,339.431 84.4546,343.098 92.5,346C 117.833,353.667 143.167,361.333 168.5,369C 221.274,388.717 239.107,425.55 222,479.5C 210.097,506.405 189.931,523.571 161.5,531C 154.069,532.719 146.735,534.219 139.5,535.5 Z"/></g>
<g><path style="opacity:1" fill="#1f3156" d="M 1332.5,239.5 C 1347.51,239.167 1362.51,239.501 1377.5,240.5C 1363.65,255.182 1349.32,269.348 1334.5,283C 1322.24,284.606 1309.9,284.939 1297.5,284C 1306.21,270.747 1315.04,257.58 1324,244.5C 1326.53,242.097 1329.36,240.43 1332.5,239.5 Z"/></g>
<g><path style="opacity:1" fill="#1e3156" d="M 1620.5,239.5 C 1632.5,239.5 1644.5,239.5 1656.5,239.5C 1656.5,254.833 1656.5,270.167 1656.5,285.5C 1636.17,285.5 1615.83,285.5 1595.5,285.5C 1595.33,277.826 1595.5,270.159 1596,262.5C 1599.7,249.929 1607.86,242.262 1620.5,239.5 Z"/></g>
<g><path style="opacity:1" fill="#1e3156" d="M 494.5,240.5 C 508.183,240.167 521.85,240.501 535.5,241.5C 534.516,337.966 534.183,434.966 534.5,532.5C 514.5,532.5 494.5,532.5 474.5,532.5C 474.333,442.499 474.5,352.499 475,262.5C 476.834,250.842 483.334,243.509 494.5,240.5 Z"/></g>
<g><path style="opacity:1" fill="#1f3156" d="M 673.5,240.5 C 692.41,240.174 711.243,240.507 730,241.5C 764.61,338.497 799.11,435.497 833.5,532.5C 812.489,532.833 791.489,532.5 770.5,531.5C 763.79,511.869 756.79,492.369 749.5,473C 712.167,472.333 674.833,472.333 637.5,473C 630.001,492.663 623.001,512.496 616.5,532.5C 595.497,532.667 574.497,532.5 553.5,532C 586.192,440.926 618.692,349.759 651,258.5C 655.48,248.501 662.98,242.501 673.5,240.5 Z M 693.5,315.5 C 706.354,349.896 718.687,384.563 730.5,419.5C 705.824,419.833 681.158,419.5 656.5,418.5C 669.039,384.214 681.372,349.881 693.5,315.5 Z"/></g>
<g><path style="opacity:1" fill="#1f3156" d="M 1800.5,535.5 C 1791.83,535.5 1783.17,535.5 1774.5,535.5C 1730.15,529.332 1700.65,504.998 1686,462.5C 1674.05,423.448 1677.38,385.781 1696,349.5C 1724.05,307.409 1763.22,290.909 1813.5,300C 1849.84,308.006 1873.84,329.673 1885.5,365C 1866.5,365.667 1847.5,365.667 1828.5,365C 1819.26,351.796 1806.43,345.296 1790,345.5C 1754.82,347.012 1735.49,365.345 1732,400.5C 1728.89,423.949 1733.55,445.615 1746,465.5C 1760.49,481.889 1778.66,488.389 1800.5,485C 1806.13,484.259 1811.47,482.593 1816.5,480C 1822.79,475.377 1828.79,470.377 1834.5,465C 1836.72,463.725 1839.05,462.725 1841.5,462C 1857.5,461.5 1873.5,461.333 1889.5,461.5C 1882.1,492.434 1863.77,514.268 1834.5,527C 1823.33,531.06 1812,533.894 1800.5,535.5 Z"/></g>
<g><path style="opacity:1" fill="#1e3156" d="M 939.5,298.5 C 971.318,294.606 998.652,303.606 1021.5,325.5C 1036.91,309.131 1055.91,300.298 1078.5,299C 1122.25,296.286 1155.41,313.452 1178,350.5C 1182.4,359.373 1185.4,368.706 1187,378.5C 1188.46,429.807 1188.96,481.141 1188.5,532.5C 1175.83,532.667 1163.16,532.5 1150.5,532C 1139.54,529.711 1132.38,523.211 1129,512.5C 1128.67,471.833 1128.33,431.167 1128,390.5C 1125.86,366.534 1112.7,353.867 1088.5,352.5C 1074.87,352.902 1063.7,358.235 1055,368.5C 1053.07,371.948 1051.74,375.615 1051,379.5C 1049.54,430.476 1049.04,481.476 1049.5,532.5C 1029.83,532.5 1010.17,532.5 990.5,532.5C 990.978,480.462 990.478,428.462 989,376.5C 985.184,364.33 977.017,356.83 964.5,354C 946.864,349.659 932.03,354.159 920,367.5C 917.775,371.281 916.109,375.281 915,379.5C 913.523,430.462 913.023,481.462 913.5,532.5C 893.5,532.5 873.5,532.5 853.5,532.5C 853.333,484.499 853.5,436.499 854,388.5C 854.912,348.452 873.745,320.952 910.5,306C 920.095,302.686 929.762,300.186 939.5,298.5 Z"/></g>
<g><path style="opacity:1" fill="#1e3156" d="M 1331.5,535.5 C 1320.17,535.5 1308.83,535.5 1297.5,535.5C 1261.06,528.582 1234.9,508.248 1219,474.5C 1205.48,436.626 1205.15,398.626 1218,360.5C 1234.72,325.043 1262.55,304.543 1301.5,299C 1353.04,294.341 1389.87,315.174 1412,361.5C 1420.03,384.476 1423.2,408.143 1421.5,432.5C 1368.17,432.5 1314.83,432.5 1261.5,432.5C 1265.63,466.299 1284.63,484.299 1318.5,486.5C 1329.78,486.932 1340.11,484.098 1349.5,478C 1353.87,473.299 1358.53,468.966 1363.5,465C 1365.96,463.438 1368.62,462.438 1371.5,462C 1387.16,461.5 1402.83,461.333 1418.5,461.5C 1405.99,505.584 1376.99,530.251 1331.5,535.5 Z M 1306.5,346.5 C 1332.12,344.052 1350.29,354.385 1361,377.5C 1362.61,382.608 1363.78,387.775 1364.5,393C 1330.5,393.192 1296.5,393.026 1262.5,392.5C 1267.35,367.652 1282.02,352.318 1306.5,346.5 Z"/></g>
<g><path style="opacity:1" fill="#1f3156" d="M 2099.5,360.5 C 2099.5,418.167 2099.5,475.833 2099.5,533.5C 2086.16,533.667 2072.83,533.5 2059.5,533C 2055.41,531.075 2052.07,528.242 2049.5,524.5C 2037.11,530.843 2024.11,534.51 2010.5,535.5C 2001.17,535.5 1991.83,535.5 1982.5,535.5C 1961.82,534.327 1943.15,527.493 1926.5,515C 1905.51,493.06 1899.68,467.56 1909,438.5C 1918.61,418.942 1933.78,405.775 1954.5,399C 1977.11,394.389 1999.78,390.055 2022.5,386C 2028.73,384.097 2034.23,380.93 2039,376.5C 2043.77,366.128 2041.27,357.962 2031.5,352C 2016.09,345.533 2000.42,344.866 1984.5,350C 1976.82,353.176 1971.82,358.676 1969.5,366.5C 1950.17,366.5 1930.83,366.5 1911.5,366.5C 1914.23,345.529 1924.23,329.029 1941.5,317C 1965.89,301.32 1992.55,295.32 2021.5,299C 2043,300.83 2062.33,308.163 2079.5,321C 2090.26,332.131 2096.93,345.297 2099.5,360.5 Z M 2042.5,419.5 C 2043.88,434.031 2043.71,448.698 2042,463.5C 2037.87,477.96 2028.37,486.46 2013.5,489C 1999.19,492.226 1985.53,490.56 1972.5,484C 1957.33,470.337 1956.67,456.004 1970.5,441C 1973.8,438.566 1977.46,436.899 1981.5,436C 1996.5,433.001 2011.5,430.001 2026.5,427C 2032.53,425.726 2037.86,423.226 2042.5,419.5 Z"/></g>
<g><path style="opacity:1" fill="#1f3156" d="M 359.5,535.5 C 353.167,535.5 346.833,535.5 340.5,535.5C 281.305,529.457 251.472,496.457 251,436.5C 251.192,392.171 251.359,347.837 251.5,303.5C 271.5,303.5 291.5,303.5 311.5,303.5C 311.333,352.168 311.5,400.834 312,449.5C 315.062,469.561 326.728,480.228 347,481.5C 372.561,479.605 386.561,465.938 389,440.5C 389.28,404.164 389.28,367.831 389,331.5C 389.763,315.737 397.929,306.571 413.5,304C 424.828,303.5 436.162,303.333 447.5,303.5C 447.667,350.168 447.5,396.835 447,443.5C 444.085,499.574 414.919,530.24 359.5,535.5 Z"/></g>
<g><path style="opacity:1" fill="#1e3156" d="M 1554.5,303.5 C 1559.83,303.5 1565.17,303.5 1570.5,303.5C 1570.31,323.17 1569.97,342.836 1569.5,362.5C 1555.05,361.826 1541.05,363.992 1527.5,369C 1514.35,374.133 1506.52,383.633 1504,397.5C 1503.5,442.499 1503.33,487.499 1503.5,532.5C 1483.5,532.5 1463.5,532.5 1443.5,532.5C 1443.83,494.457 1443.49,456.457 1442.5,418.5C 1439.9,362.463 1465.24,326.296 1518.5,310C 1530.47,306.843 1542.47,304.676 1554.5,303.5 Z"/></g>
<g><path style="opacity:1" fill="#1e3156" d="M 1618.5,303.5 C 1631.17,303.5 1643.83,303.5 1656.5,303.5C 1656.5,379.833 1656.5,456.167 1656.5,532.5C 1636.17,532.5 1615.83,532.5 1595.5,532.5C 1595.33,463.166 1595.5,393.833 1596,324.5C 1599.24,312.755 1606.74,305.755 1618.5,303.5 Z"/></g>
</svg>
